M48
;DRILL file {KiCad (5.0.1-3-g963ef8bb5)} date Monday, February 17, 2020 at 06:14:09 PM
;FORMAT={-:-/ absolute / inch / decimal}
FMAT,2
INCH,TZ
T1C0.0157
T2C0.0315
T3C0.0394
T4C0.0787
%
G90
G05
M72
T1
X4.9462Y-3.6162
X5.0962Y-3.8262
X5.5562Y-1.5862
X5.5762Y-1.3962
X5.5762Y-1.5162
X5.64Y-3.78
X5.67Y-1.45
X5.67Y-1.54
X5.72Y-3.68
X5.76Y-1.4544
X5.7833Y-3.0962
X5.84Y-2.2
X5.89Y-4.06
X5.94Y-2.2
X5.96Y-4.07
X5.98Y-2.22
X5.98Y-4.17
X6.01Y-3.95
X6.0162Y-2.4162
X6.02Y-4.13
X6.04Y-3.99
X6.0808Y-4.0892
X6.1Y-4.02
X6.12Y-1.65
X6.1262Y-3.5862
X6.1362Y-3.6962
X6.1362Y-3.7862
X6.14Y-4.11
X6.1407Y-3.927
X6.1562Y-3.6462
X6.17Y-1.99
X6.2Y-1.69
X6.2062Y-1.5162
X6.2162Y-1.4262
X6.2162Y-1.9062
X6.22Y-1.81
X6.2362Y-3.5462
X6.25Y-3.11
X6.26Y-3.18
X6.2651Y-1.5564
X6.27Y-1.88
X6.2711Y-2.1745
X6.2862Y-3.7062
X6.3Y-1.69
X6.3068Y-2.1862
X6.3262Y-1.4862
X6.3262Y-1.5262
X6.3262Y-3.6462
X6.3325Y-2.0067
X6.34Y-3.71
X6.3524Y-1.7176
X6.3609Y-2.8664
X6.37Y-2.0067
X6.3732Y-1.3932
X6.38Y-4.06
X6.3972Y-1.7262
X6.41Y-2.0067
X6.41Y-2.46
X6.41Y-3.71
X6.4162Y-3.6462
X6.4185Y-1.8221
X6.43Y-1.63
X6.44Y-3.83
X6.4468Y-1.7432
X6.45Y-1.89
X6.4538Y-1.8062
X6.47Y-3.86
X6.4962Y-2.0067
X6.4962Y-3.971
X6.4962Y-4.0562
X6.5Y-3.37
X6.5062Y-2.8962
X6.5062Y-3.0662
X6.51Y-3.79
X6.5102Y-3.7402
X6.5111Y-1.5789
X6.52Y-2.46
X6.5236Y-3.8264
X6.5446Y-1.78
X6.55Y-3.55
X6.5562Y-3.9562
X6.56Y-1.89
X6.5762Y-3.6062
X6.6062Y-1.4962
X6.61Y-2.16
X6.6156Y-1.8413
X6.6162Y-2.0962
X6.62Y-2.3
X6.62Y-2.46
X6.63Y-3.63
X6.6362Y-2.4062
X6.6462Y-2.6162
X6.67Y-2.38
X6.67Y-2.87
X6.68Y-3.58
X6.6962Y-2.4562
X6.7Y-3.73
X6.73Y-2.1762
X6.7336Y-3.7133
X6.74Y-2.94
X6.7508Y-2.1206
X6.7562Y-2.4062
X6.76Y-3.74
X6.78Y-2.19
X6.79Y-2.14
X6.79Y-3.67
X6.79Y-3.8456
X6.7937Y-3.5
X6.8062Y-2.5962
X6.8162Y-2.5362
X6.86Y-3.48
X6.9Y-2.19
X6.91Y-2.65
X6.97Y-2.52
X6.9762Y-1.4262
X7.Y-1.79
X7.02Y-2.4643
X7.0662Y-1.9162
X7.0662Y-2.2762
X7.0734Y-2.1534
X7.0762Y-2.0462
X7.09Y-3.63
X7.11Y-3.82
X7.12Y-2.36
X7.1362Y-3.1562
X7.1462Y-1.8462
X7.1662Y-2.2462
X7.17Y-2.4
X7.1762Y-1.9209
X7.2662Y-1.8562
X7.4062Y-3.4562
X7.47Y-1.88
X7.47Y-2.02
X7.49Y-1.94
X7.5062Y-3.7662
X7.5262Y-1.9662
X7.5462Y-3.1562
X7.5562Y-1.7262
X7.6062Y-3.5562
X7.6162Y-1.7362
X7.65Y-1.78
X7.6862Y-3.7162
X7.7162Y-1.7362
X7.7562Y-2.4462
X7.7662Y-1.8462
X7.8062Y-1.8162
T2
X6.0555Y-3.3169
X6.0555Y-4.1831
X6.1343Y-3.3169
X6.1343Y-4.1831
X6.213Y-3.3169
X6.213Y-4.1831
X6.2917Y-3.3169
X6.2917Y-4.1831
X6.3705Y-3.3169
X6.3705Y-4.1831
X6.4492Y-3.3169
X6.4492Y-4.1831
X6.528Y-3.3169
X6.528Y-4.1831
X6.6067Y-3.3169
X6.6067Y-4.1831
X6.6854Y-3.3169
X6.6854Y-4.1831
X6.7642Y-3.3169
X6.7642Y-4.1831
T3
X7.31Y-4.17
X7.41Y-4.17
X7.51Y-4.17
X6.45Y-2.97
X6.55Y-2.97
X7.88Y-1.69
X7.88Y-1.79
X7.88Y-1.89
X7.88Y-1.99
X7.5771Y-2.7729
X7.6771Y-2.7729
X7.7771Y-2.7729
X7.1Y-3.45
X7.1Y-3.55
X5.75Y-2.64
X5.75Y-2.74
X5.32Y-3.68
X5.32Y-3.78
X6.03Y-2.73
X6.13Y-2.73
X6.23Y-2.73
X6.33Y-2.73
X6.43Y-2.73
X6.53Y-2.73
X6.63Y-2.73
X6.73Y-2.73
X6.83Y-2.73
X7.58Y-2.3
X7.68Y-2.3
X7.78Y-2.3
X7.87Y-3.69
X7.87Y-3.79
X7.87Y-3.89
X7.87Y-3.99
X6.25Y-2.97
X6.35Y-2.97
X5.46Y-3.68
X5.46Y-3.78
X7.26Y-1.99
X7.26Y-2.09
X7.26Y-2.34
X7.26Y-2.44
X7.26Y-2.54
X7.26Y-2.64
X4.9719Y-1.3719
X4.9719Y-1.4719
X4.9719Y-1.5719
X4.9719Y-1.6719
X4.9719Y-1.7719
X4.9719Y-1.8719
X4.9719Y-1.9719
X4.9719Y-2.0719
X4.9719Y-2.1719
X4.9719Y-2.2719
X4.9719Y-2.3719
X4.9719Y-2.4719
X4.9719Y-2.5719
X4.9719Y-2.6719
X4.9719Y-2.7719
X5.0719Y-1.3719
X5.0719Y-1.4719
X5.0719Y-1.5719
X5.0719Y-1.6719
X5.0719Y-1.7719
X5.0719Y-1.8719
X5.0719Y-1.9719
X5.0719Y-2.0719
X5.0719Y-2.1719
X5.0719Y-2.2719
X5.0719Y-2.3719
X5.0719Y-2.4719
X5.0719Y-2.5719
X5.0719Y-2.6719
X5.0719Y-2.7719
X7.5771Y-2.6329
X7.6771Y-2.6329
X7.7771Y-2.6329
X5.64Y-3.85
X5.64Y-3.95
X5.64Y-4.05
X5.64Y-4.15
X5.81Y-3.02
X5.91Y-3.02
X6.01Y-3.02
X7.31Y-4.06
X7.41Y-4.06
X7.51Y-4.06
X5.62Y-2.13
X5.62Y-2.23
X7.19Y-1.56
X7.19Y-1.66
X5.2159Y-1.3719
X5.2159Y-1.4719
X5.2159Y-1.5719
X5.2159Y-1.6719
X5.2159Y-1.7719
X5.2159Y-1.8719
X5.2159Y-1.9719
X5.2159Y-2.0719
X5.2159Y-2.1719
X5.2159Y-2.2719
X5.2159Y-2.3719
X5.2159Y-2.4719
X5.2159Y-2.5719
X5.2159Y-2.6719
X5.2159Y-2.7719
X5.3159Y-1.3719
X5.3159Y-1.4719
X5.3159Y-1.5719
X5.3159Y-1.6719
X5.3159Y-1.7719
X5.3159Y-1.8719
X5.3159Y-1.9719
X5.3159Y-2.0719
X5.3159Y-2.1719
X5.3159Y-2.2719
X5.3159Y-2.3719
X5.3159Y-2.4719
X5.3159Y-2.5719
X5.3159Y-2.6719
X5.3159Y-2.7719
X5.44Y-4.03
X5.44Y-4.13
X6.31Y-3.15
X6.41Y-3.15
X6.51Y-3.15
T4
X7.8162Y-1.4462
X7.5462Y-1.4462
T0
M30
