G04 #@! TF.GenerationSoftware,KiCad,Pcbnew,(5.0.1-3-g963ef8bb5)*
G04 #@! TF.CreationDate,2020-02-17T18:14:17-05:00*
G04 #@! TF.ProjectId,v2SLI,7632534C492E6B696361645F70636200,rev?*
G04 #@! TF.SameCoordinates,Original*
G04 #@! TF.FileFunction,Copper,L2,Bot,Signal*
G04 #@! TF.FilePolarity,Positive*
%FSLAX46Y46*%
G04 Gerber Fmt 4.6, Leading zero omitted, Abs format (unit mm)*
G04 Created by KiCad (PCBNEW (5.0.1-3-g963ef8bb5)) date Monday, February 17, 2020 at 06:14:17 PM*
%MOMM*%
%LPD*%
G01*
G04 APERTURE LIST*
G04 #@! TA.AperFunction,ComponentPad*
%ADD10R,1.700000X1.700000*%
G04 #@! TD*
G04 #@! TA.AperFunction,ComponentPad*
%ADD11O,1.700000X1.700000*%
G04 #@! TD*
G04 #@! TA.AperFunction,ComponentPad*
%ADD12R,1.400000X1.400000*%
G04 #@! TD*
G04 #@! TA.AperFunction,ComponentPad*
%ADD13C,1.400000*%
G04 #@! TD*
G04 #@! TA.AperFunction,ComponentPad*
%ADD14C,4.500880*%
G04 #@! TD*
G04 #@! TA.AperFunction,ViaPad*
%ADD15C,0.800000*%
G04 #@! TD*
G04 #@! TA.AperFunction,Conductor*
%ADD16C,0.200000*%
G04 #@! TD*
G04 #@! TA.AperFunction,Conductor*
%ADD17C,0.250000*%
G04 #@! TD*
G04 #@! TA.AperFunction,Conductor*
%ADD18C,0.254000*%
G04 #@! TD*
G04 APERTURE END LIST*
D10*
G04 #@! TO.P,J1,1*
G04 #@! TO.N,/f103int*
X158750000Y-75438000D03*
D11*
G04 #@! TO.P,J1,2*
G04 #@! TO.N,/f205int*
X161290000Y-75438000D03*
G04 #@! TD*
G04 #@! TO.P,J2,2*
G04 #@! TO.N,/TX205RX103*
X166370000Y-75438000D03*
D10*
G04 #@! TO.P,J2,1*
G04 #@! TO.N,/RX205TX103*
X163830000Y-75438000D03*
G04 #@! TD*
D11*
G04 #@! TO.P,J3,3*
G04 #@! TO.N,/205CLKSPI*
X192532000Y-58420000D03*
G04 #@! TO.P,J3,2*
G04 #@! TO.N,/205MISOSPI*
X195072000Y-58420000D03*
D10*
G04 #@! TO.P,J3,1*
G04 #@! TO.N,/205MOSISPI*
X197612000Y-58420000D03*
G04 #@! TD*
G04 #@! TO.P,J4,1*
G04 #@! TO.N,/UART1RX*
X142748000Y-56642000D03*
D11*
G04 #@! TO.P,J4,2*
G04 #@! TO.N,/UART1TX*
X142748000Y-54102000D03*
G04 #@! TD*
D10*
G04 #@! TO.P,J5,1*
G04 #@! TO.N,/vdivider*
X184404000Y-67056000D03*
D11*
G04 #@! TO.P,J5,2*
G04 #@! TO.N,Net-(J5-Pad2)*
X184404000Y-64516000D03*
G04 #@! TO.P,J5,3*
G04 #@! TO.N,Net-(J5-Pad3)*
X184404000Y-61976000D03*
G04 #@! TO.P,J5,4*
G04 #@! TO.N,Net-(J5-Pad4)*
X184404000Y-59436000D03*
G04 #@! TD*
G04 #@! TO.P,J6,2*
G04 #@! TO.N,/UART2TX*
X182626000Y-42164000D03*
D10*
G04 #@! TO.P,J6,1*
G04 #@! TO.N,/UART2RX*
X182626000Y-39624000D03*
G04 #@! TD*
G04 #@! TO.P,J7,1*
G04 #@! TO.N,/205SDAI2C*
X146050000Y-69596000D03*
D11*
G04 #@! TO.P,J7,2*
G04 #@! TO.N,/205SCLI2C*
X146050000Y-67056000D03*
G04 #@! TD*
D10*
G04 #@! TO.P,J8,1*
G04 #@! TO.N,Net-(J8-Pad1)*
X126285001Y-34845001D03*
D11*
G04 #@! TO.P,J8,2*
G04 #@! TO.N,Net-(J8-Pad2)*
X128825001Y-34845001D03*
G04 #@! TO.P,J8,3*
G04 #@! TO.N,Net-(J8-Pad3)*
X126285001Y-37385001D03*
G04 #@! TO.P,J8,4*
G04 #@! TO.N,Net-(J8-Pad4)*
X128825001Y-37385001D03*
G04 #@! TO.P,J8,5*
G04 #@! TO.N,Net-(J8-Pad5)*
X126285001Y-39925001D03*
G04 #@! TO.P,J8,6*
G04 #@! TO.N,Net-(J8-Pad6)*
X128825001Y-39925001D03*
G04 #@! TO.P,J8,7*
G04 #@! TO.N,Net-(J8-Pad7)*
X126285001Y-42465001D03*
G04 #@! TO.P,J8,8*
G04 #@! TO.N,Net-(J8-Pad8)*
X128825001Y-42465001D03*
G04 #@! TO.P,J8,9*
G04 #@! TO.N,Net-(J8-Pad9)*
X126285001Y-45005001D03*
G04 #@! TO.P,J8,10*
G04 #@! TO.N,Net-(J8-Pad10)*
X128825001Y-45005001D03*
G04 #@! TO.P,J8,11*
G04 #@! TO.N,Net-(J8-Pad11)*
X126285001Y-47545001D03*
G04 #@! TO.P,J8,12*
G04 #@! TO.N,Net-(J8-Pad12)*
X128825001Y-47545001D03*
G04 #@! TO.P,J8,13*
G04 #@! TO.N,Net-(J8-Pad13)*
X126285001Y-50085001D03*
G04 #@! TO.P,J8,14*
G04 #@! TO.N,Net-(J8-Pad14)*
X128825001Y-50085001D03*
G04 #@! TO.P,J8,15*
G04 #@! TO.N,Net-(J8-Pad15)*
X126285001Y-52625001D03*
G04 #@! TO.P,J8,16*
G04 #@! TO.N,Net-(J8-Pad16)*
X128825001Y-52625001D03*
G04 #@! TO.P,J8,17*
G04 #@! TO.N,Net-(J8-Pad17)*
X126285001Y-55165001D03*
G04 #@! TO.P,J8,18*
G04 #@! TO.N,Net-(J8-Pad18)*
X128825001Y-55165001D03*
G04 #@! TO.P,J8,19*
G04 #@! TO.N,Net-(J8-Pad19)*
X126285001Y-57705001D03*
G04 #@! TO.P,J8,20*
G04 #@! TO.N,Net-(J8-Pad20)*
X128825001Y-57705001D03*
G04 #@! TO.P,J8,21*
G04 #@! TO.N,Net-(J8-Pad21)*
X126285001Y-60245001D03*
G04 #@! TO.P,J8,22*
G04 #@! TO.N,Net-(J8-Pad22)*
X128825001Y-60245001D03*
G04 #@! TO.P,J8,23*
G04 #@! TO.N,Net-(J8-Pad23)*
X126285001Y-62785001D03*
G04 #@! TO.P,J8,24*
G04 #@! TO.N,Net-(J8-Pad24)*
X128825001Y-62785001D03*
G04 #@! TO.P,J8,25*
G04 #@! TO.N,Net-(J8-Pad25)*
X126285001Y-65325001D03*
G04 #@! TO.P,J8,26*
G04 #@! TO.N,Net-(J8-Pad26)*
X128825001Y-65325001D03*
G04 #@! TO.P,J8,27*
G04 #@! TO.N,Net-(J8-Pad27)*
X126285001Y-67865001D03*
G04 #@! TO.P,J8,28*
G04 #@! TO.N,Net-(J8-Pad28)*
X128825001Y-67865001D03*
G04 #@! TO.P,J8,29*
G04 #@! TO.N,Net-(J8-Pad29)*
X126285001Y-70405001D03*
G04 #@! TO.P,J8,30*
G04 #@! TO.N,Net-(J8-Pad30)*
X128825001Y-70405001D03*
G04 #@! TD*
G04 #@! TO.P,J9,30*
G04 #@! TO.N,Net-(J8-Pad30)*
X135025001Y-70405001D03*
G04 #@! TO.P,J9,29*
G04 #@! TO.N,Net-(J8-Pad29)*
X132485001Y-70405001D03*
G04 #@! TO.P,J9,28*
G04 #@! TO.N,Net-(J8-Pad28)*
X135025001Y-67865001D03*
G04 #@! TO.P,J9,27*
G04 #@! TO.N,Net-(J8-Pad27)*
X132485001Y-67865001D03*
G04 #@! TO.P,J9,26*
G04 #@! TO.N,Net-(J8-Pad26)*
X135025001Y-65325001D03*
G04 #@! TO.P,J9,25*
G04 #@! TO.N,Net-(J8-Pad25)*
X132485001Y-65325001D03*
G04 #@! TO.P,J9,24*
G04 #@! TO.N,Net-(J8-Pad24)*
X135025001Y-62785001D03*
G04 #@! TO.P,J9,23*
G04 #@! TO.N,Net-(J8-Pad23)*
X132485001Y-62785001D03*
G04 #@! TO.P,J9,22*
G04 #@! TO.N,Net-(J8-Pad22)*
X135025001Y-60245001D03*
G04 #@! TO.P,J9,21*
G04 #@! TO.N,Net-(J8-Pad21)*
X132485001Y-60245001D03*
G04 #@! TO.P,J9,20*
G04 #@! TO.N,Net-(J8-Pad20)*
X135025001Y-57705001D03*
G04 #@! TO.P,J9,19*
G04 #@! TO.N,Net-(J8-Pad19)*
X132485001Y-57705001D03*
G04 #@! TO.P,J9,18*
G04 #@! TO.N,Net-(J8-Pad18)*
X135025001Y-55165001D03*
G04 #@! TO.P,J9,17*
G04 #@! TO.N,Net-(J8-Pad17)*
X132485001Y-55165001D03*
G04 #@! TO.P,J9,16*
G04 #@! TO.N,Net-(J8-Pad16)*
X135025001Y-52625001D03*
G04 #@! TO.P,J9,15*
G04 #@! TO.N,Net-(J8-Pad15)*
X132485001Y-52625001D03*
G04 #@! TO.P,J9,14*
G04 #@! TO.N,Net-(J8-Pad14)*
X135025001Y-50085001D03*
G04 #@! TO.P,J9,13*
G04 #@! TO.N,Net-(J8-Pad13)*
X132485001Y-50085001D03*
G04 #@! TO.P,J9,12*
G04 #@! TO.N,Net-(J8-Pad12)*
X135025001Y-47545001D03*
G04 #@! TO.P,J9,11*
G04 #@! TO.N,Net-(J8-Pad11)*
X132485001Y-47545001D03*
G04 #@! TO.P,J9,10*
G04 #@! TO.N,Net-(J8-Pad10)*
X135025001Y-45005001D03*
G04 #@! TO.P,J9,9*
G04 #@! TO.N,Net-(J8-Pad9)*
X132485001Y-45005001D03*
G04 #@! TO.P,J9,8*
G04 #@! TO.N,Net-(J8-Pad8)*
X135025001Y-42465001D03*
G04 #@! TO.P,J9,7*
G04 #@! TO.N,Net-(J8-Pad7)*
X132485001Y-42465001D03*
G04 #@! TO.P,J9,6*
G04 #@! TO.N,Net-(J8-Pad6)*
X135025001Y-39925001D03*
G04 #@! TO.P,J9,5*
G04 #@! TO.N,Net-(J8-Pad5)*
X132485001Y-39925001D03*
G04 #@! TO.P,J9,4*
G04 #@! TO.N,Net-(J8-Pad4)*
X135025001Y-37385001D03*
G04 #@! TO.P,J9,3*
G04 #@! TO.N,Net-(J8-Pad3)*
X132485001Y-37385001D03*
G04 #@! TO.P,J9,2*
G04 #@! TO.N,Net-(J8-Pad2)*
X135025001Y-34845001D03*
D10*
G04 #@! TO.P,J9,1*
G04 #@! TO.N,Net-(J8-Pad1)*
X132485001Y-34845001D03*
G04 #@! TD*
G04 #@! TO.P,J10,1*
G04 #@! TO.N,/SWCLK205*
X200152000Y-42926000D03*
D11*
G04 #@! TO.P,J10,2*
G04 #@! TO.N,/SWIO205*
X200152000Y-45466000D03*
G04 #@! TO.P,J10,3*
G04 #@! TO.N,GND*
X200152000Y-48006000D03*
G04 #@! TO.P,J10,4*
G04 #@! TO.N,VCC*
X200152000Y-50546000D03*
G04 #@! TD*
D10*
G04 #@! TO.P,J11,1*
G04 #@! TO.N,GND*
X192457588Y-66875990D03*
D11*
G04 #@! TO.P,J11,2*
G04 #@! TO.N,/205BOOT0*
X194997588Y-66875990D03*
G04 #@! TO.P,J11,3*
G04 #@! TO.N,VCC*
X197537588Y-66875990D03*
G04 #@! TD*
D10*
G04 #@! TO.P,J12,1*
G04 #@! TO.N,GND*
X192457588Y-70431990D03*
D11*
G04 #@! TO.P,J12,2*
G04 #@! TO.N,/205BOOT1*
X194997588Y-70431990D03*
G04 #@! TO.P,J12,3*
G04 #@! TO.N,VCC*
X197537588Y-70431990D03*
G04 #@! TD*
G04 #@! TO.P,J13,3*
G04 #@! TO.N,VCC*
X190754000Y-105918000D03*
G04 #@! TO.P,J13,2*
G04 #@! TO.N,/103BOOT1*
X188214000Y-105918000D03*
D10*
G04 #@! TO.P,J13,1*
G04 #@! TO.N,GND*
X185674000Y-105918000D03*
G04 #@! TD*
D11*
G04 #@! TO.P,J14,4*
G04 #@! TO.N,VCC*
X199898000Y-101346000D03*
G04 #@! TO.P,J14,3*
G04 #@! TO.N,GND*
X199898000Y-98806000D03*
G04 #@! TO.P,J14,2*
G04 #@! TO.N,/SWIO103*
X199898000Y-96266000D03*
D10*
G04 #@! TO.P,J14,1*
G04 #@! TO.N,/SWCLK103*
X199898000Y-93726000D03*
G04 #@! TD*
G04 #@! TO.P,J15,1*
G04 #@! TO.N,GND*
X185674000Y-103124000D03*
D11*
G04 #@! TO.P,J15,2*
G04 #@! TO.N,/103BOOT0*
X188214000Y-103124000D03*
G04 #@! TO.P,J15,3*
G04 #@! TO.N,VCC*
X190754000Y-103124000D03*
G04 #@! TD*
G04 #@! TO.P,J16,3*
G04 #@! TO.N,/CLK103SPI*
X152654000Y-76708000D03*
G04 #@! TO.P,J16,2*
G04 #@! TO.N,/MISO103SPI*
X150114000Y-76708000D03*
D10*
G04 #@! TO.P,J16,1*
G04 #@! TO.N,/MOSI103SPI*
X147574000Y-76708000D03*
G04 #@! TD*
G04 #@! TO.P,J17,1*
G04 #@! TO.N,/PPS*
X165354000Y-80010000D03*
D11*
G04 #@! TO.P,J17,2*
G04 #@! TO.N,/GPSEnable*
X162814000Y-80010000D03*
G04 #@! TO.P,J17,3*
G04 #@! TO.N,/GPSFix*
X160274000Y-80010000D03*
G04 #@! TD*
D10*
G04 #@! TO.P,J18,1*
G04 #@! TO.N,/PB0*
X143256000Y-105410000D03*
D11*
G04 #@! TO.P,J18,2*
G04 #@! TO.N,/PB1*
X143256000Y-102870000D03*
G04 #@! TO.P,J18,3*
G04 #@! TO.N,/PA0*
X143256000Y-100330000D03*
G04 #@! TO.P,J18,4*
G04 #@! TO.N,/PA1*
X143256000Y-97790000D03*
G04 #@! TD*
G04 #@! TO.P,J19,2*
G04 #@! TO.N,/GPSTX103RX*
X180340000Y-90170000D03*
D10*
G04 #@! TO.P,J19,1*
G04 #@! TO.N,/GPSRX103TX*
X180340000Y-87630000D03*
G04 #@! TD*
D11*
G04 #@! TO.P,J21,2*
G04 #@! TO.N,/RFTX103RX*
X138684000Y-93472000D03*
D10*
G04 #@! TO.P,J21,1*
G04 #@! TO.N,/RFRX103TX*
X138684000Y-96012000D03*
G04 #@! TD*
G04 #@! TO.P,SW1,1*
G04 #@! TO.N,Net-(C1-Pad2)*
X184404000Y-53086000D03*
D11*
G04 #@! TO.P,SW1,2*
G04 #@! TO.N,GND*
X184404000Y-50546000D03*
G04 #@! TD*
G04 #@! TO.P,SW2,2*
G04 #@! TO.N,GND*
X138176000Y-104902000D03*
D10*
G04 #@! TO.P,SW2,1*
G04 #@! TO.N,Net-(C4-Pad2)*
X138176000Y-102362000D03*
G04 #@! TD*
G04 #@! TO.P,SW3,1*
G04 #@! TO.N,GND*
X135128000Y-96012000D03*
D11*
G04 #@! TO.P,SW3,2*
G04 #@! TO.N,Net-(SW3-Pad2)*
X135128000Y-93472000D03*
G04 #@! TD*
D10*
G04 #@! TO.P,U6,1*
G04 #@! TO.N,Net-(U6-Pad1)*
X153162000Y-69342000D03*
D11*
G04 #@! TO.P,U6,2*
G04 #@! TO.N,/GPSEnable*
X155702000Y-69342000D03*
G04 #@! TO.P,U6,3*
G04 #@! TO.N,Net-(U6-Pad3)*
X158242000Y-69342000D03*
G04 #@! TO.P,U6,4*
G04 #@! TO.N,/GPSFix*
X160782000Y-69342000D03*
G04 #@! TO.P,U6,5*
G04 #@! TO.N,/GPSTX103RX*
X163322000Y-69342000D03*
G04 #@! TO.P,U6,6*
G04 #@! TO.N,/GPSRX103TX*
X165862000Y-69342000D03*
G04 #@! TO.P,U6,7*
G04 #@! TO.N,GND*
X168402000Y-69342000D03*
G04 #@! TO.P,U6,8*
G04 #@! TO.N,VCC*
X170942000Y-69342000D03*
G04 #@! TO.P,U6,9*
G04 #@! TO.N,/PPS*
X173482000Y-69342000D03*
G04 #@! TD*
D12*
G04 #@! TO.P,U8,1*
G04 #@! TO.N,VCC*
X153810000Y-106250000D03*
D13*
G04 #@! TO.P,U8,2*
G04 #@! TO.N,/RFTX103RX*
X155810000Y-106250000D03*
G04 #@! TO.P,U8,3*
G04 #@! TO.N,/RFRX103TX*
X157810000Y-106250000D03*
G04 #@! TO.P,U8,4*
G04 #@! TO.N,Net-(U8-Pad4)*
X159810000Y-106250000D03*
G04 #@! TO.P,U8,5*
G04 #@! TO.N,Net-(SW3-Pad2)*
X161810000Y-106250000D03*
G04 #@! TO.P,U8,6*
G04 #@! TO.N,Net-(U8-Pad6)*
X163810000Y-106250000D03*
G04 #@! TO.P,U8,7*
G04 #@! TO.N,Net-(U8-Pad7)*
X165810000Y-106250000D03*
G04 #@! TO.P,U8,8*
G04 #@! TO.N,Net-(U8-Pad8)*
X167810000Y-106250000D03*
G04 #@! TO.P,U8,9*
G04 #@! TO.N,Net-(U8-Pad9)*
X169810000Y-106250000D03*
G04 #@! TO.P,U8,10*
G04 #@! TO.N,GND*
X171810000Y-106250000D03*
G04 #@! TO.P,U8,11*
G04 #@! TO.N,Net-(U8-Pad11)*
X171810000Y-84250000D03*
G04 #@! TO.P,U8,12*
G04 #@! TO.N,Net-(U8-Pad12)*
X169810000Y-84250000D03*
G04 #@! TO.P,U8,13*
G04 #@! TO.N,Net-(U8-Pad13)*
X167810000Y-84250000D03*
G04 #@! TO.P,U8,14*
G04 #@! TO.N,Net-(U8-Pad14)*
X165810000Y-84250000D03*
G04 #@! TO.P,U8,15*
G04 #@! TO.N,Net-(U8-Pad15)*
X163810000Y-84250000D03*
G04 #@! TO.P,U8,16*
G04 #@! TO.N,Net-(U8-Pad16)*
X161810000Y-84250000D03*
G04 #@! TO.P,U8,17*
G04 #@! TO.N,Net-(U8-Pad17)*
X159810000Y-84250000D03*
G04 #@! TO.P,U8,18*
G04 #@! TO.N,Net-(U8-Pad18)*
X157810000Y-84250000D03*
G04 #@! TO.P,U8,19*
G04 #@! TO.N,Net-(U8-Pad19)*
X155810000Y-84250000D03*
G04 #@! TO.P,U8,20*
G04 #@! TO.N,Net-(U8-Pad20)*
X153810000Y-84250000D03*
G04 #@! TD*
D14*
G04 #@! TO.P,J22,1*
G04 #@! TO.N,VCC*
X198530259Y-36732259D03*
G04 #@! TD*
G04 #@! TO.P,J23,1*
G04 #@! TO.N,GND*
X191672259Y-36732259D03*
G04 #@! TD*
D15*
G04 #@! TO.N,*
X181512259Y-46892259D03*
X184560259Y-47146259D03*
X197260259Y-46892259D03*
X195990259Y-44098259D03*
G04 #@! TO.N,Net-(C1-Pad2)*
X175260000Y-55626000D03*
X172212000Y-55626000D03*
G04 #@! TO.N,GND*
X141634259Y-38510259D03*
X141126259Y-40288259D03*
X160684259Y-38764259D03*
X159133699Y-39533110D03*
X157636259Y-38510259D03*
X157890259Y-36224259D03*
X167796259Y-38002259D03*
X158398259Y-90072259D03*
X155604259Y-91088259D03*
X165002259Y-100864010D03*
X165002259Y-103026259D03*
X155858259Y-96168259D03*
X155858259Y-93882259D03*
X162970259Y-92612259D03*
X170082259Y-62386259D03*
X171606259Y-61116259D03*
X163927000Y-45876259D03*
X168036198Y-46768212D03*
X182020259Y-57052259D03*
X179480259Y-57814259D03*
X182274259Y-48789999D03*
X179480259Y-48670259D03*
X198276259Y-46130259D03*
X193450259Y-44098259D03*
X173130259Y-64418259D03*
X195228259Y-94390259D03*
X193196259Y-90326259D03*
G04 #@! TO.N,Net-(C2-Pad1)*
X159258000Y-47752000D03*
X151892000Y-56388000D03*
G04 #@! TO.N,Net-(C4-Pad2)*
X145288000Y-93472000D03*
X143256000Y-96012000D03*
G04 #@! TO.N,/f103int*
X158750000Y-78994000D03*
X159004000Y-80772000D03*
X166370000Y-90170000D03*
X172466000Y-97678000D03*
X160191997Y-55528259D03*
G04 #@! TO.N,/f205int*
X165699418Y-97190582D03*
X165100000Y-85598000D03*
X159286084Y-55232399D03*
G04 #@! TO.N,/TX205RX103*
X164338000Y-98044000D03*
X161798000Y-50969000D03*
G04 #@! TO.N,/RX205TX103*
X163576000Y-97282000D03*
X160844997Y-50969000D03*
G04 #@! TO.N,/205CLKSPI*
X163830000Y-48006000D03*
X189738000Y-47752000D03*
X189738000Y-51308000D03*
X166624000Y-48006000D03*
G04 #@! TO.N,/205MISOSPI*
X191164259Y-49940259D03*
X165002259Y-50969000D03*
G04 #@! TO.N,/205MOSISPI*
X163749259Y-44276741D03*
X165382241Y-40103759D03*
X160020000Y-42926000D03*
X157480000Y-42926000D03*
X144018000Y-39116000D03*
X144018000Y-36830000D03*
X190246000Y-49276000D03*
G04 #@! TO.N,/UART1RX*
X148336000Y-55880000D03*
X150876000Y-55880000D03*
G04 #@! TO.N,/vdivider*
X168148000Y-58420000D03*
X169418000Y-60452000D03*
X178308000Y-62593000D03*
G04 #@! TO.N,Net-(J5-Pad2)*
X170942000Y-55275000D03*
G04 #@! TO.N,Net-(J5-Pad3)*
X182118000Y-60960000D03*
X180848000Y-59944000D03*
X179663241Y-54695241D03*
X172466000Y-54356000D03*
G04 #@! TO.N,Net-(J5-Pad4)*
X171470465Y-53864433D03*
G04 #@! TO.N,/SWCLK205*
X162814000Y-62484000D03*
X165608000Y-62484000D03*
G04 #@! TO.N,VCC*
X162488259Y-43844259D03*
X160684259Y-37748259D03*
X177194259Y-36224259D03*
X160684259Y-92612259D03*
X156366259Y-92612259D03*
X159668259Y-94136259D03*
X166526259Y-100486259D03*
X181258259Y-80166259D03*
X191672259Y-80166259D03*
X188116259Y-87786259D03*
X190656259Y-95660259D03*
X129442259Y-97184259D03*
X125632259Y-91850259D03*
X141634259Y-35462259D03*
X191926259Y-43844259D03*
X157890259Y-48416259D03*
X163029370Y-46281888D03*
X179734259Y-51972259D03*
X168050259Y-53242259D03*
X152810259Y-61370259D03*
X168558259Y-61116259D03*
X172876259Y-65942259D03*
X168812259Y-66450259D03*
X197006259Y-62132259D03*
X167034259Y-91596259D03*
G04 #@! TO.N,/205BOOT0*
X168148000Y-62484000D03*
G04 #@! TO.N,/205BOOT1*
X177038000Y-64008000D03*
X162814000Y-50969000D03*
G04 #@! TO.N,/SWIO103*
X168402000Y-92202000D03*
X171033745Y-94318525D03*
X172466000Y-93218000D03*
X180594000Y-97028000D03*
G04 #@! TO.N,/SWCLK103*
X169672000Y-90932000D03*
X180086000Y-92202000D03*
G04 #@! TO.N,/CLK103SPI*
X146896000Y-78642259D03*
G04 #@! TO.N,/PPS*
X174244000Y-88392000D03*
X172560010Y-88900000D03*
X167894000Y-54864000D03*
X175514000Y-67310000D03*
G04 #@! TO.N,/GPSFix*
X161566654Y-72806249D03*
G04 #@! TO.N,/PB0*
X154940000Y-102108000D03*
X151892000Y-105918000D03*
G04 #@! TO.N,/PB1*
X152908000Y-104902000D03*
X162052000Y-103124000D03*
G04 #@! TO.N,/PA0*
X149606000Y-103124000D03*
X152654000Y-100330000D03*
G04 #@! TO.N,/PA1*
X153416000Y-101346000D03*
X151384000Y-103378000D03*
G04 #@! TO.N,/GPSTX103RX*
X165358000Y-95000000D03*
X170180000Y-94742000D03*
X165256259Y-73562259D03*
X165256259Y-77880259D03*
G04 #@! TO.N,/GPSRX103TX*
X169418000Y-72898000D03*
X171196000Y-74676000D03*
X171704000Y-94996000D03*
X165354000Y-96266000D03*
G04 #@! TO.N,/CSSD*
X162814000Y-94234000D03*
X161036000Y-94234000D03*
G04 #@! TO.N,/RFRX103TX*
X155956000Y-104394000D03*
X155973919Y-99746919D03*
G04 #@! TO.N,Net-(SW3-Pad2)*
X154451653Y-103866347D03*
G04 #@! TO.N,/ACCINT*
X155448000Y-41910000D03*
X161878741Y-35386741D03*
G04 #@! TO.N,/BMP0CS*
X177800000Y-45466000D03*
X194310000Y-45212000D03*
G04 #@! TO.N,/BMP1CS*
X156718000Y-50546000D03*
X146304000Y-36942000D03*
G04 #@! TO.N,/ICMCS*
X163322000Y-41402000D03*
X157988000Y-45974000D03*
G04 #@! TO.N,/VDDIOACC*
X166233000Y-45212000D03*
X161352000Y-43626000D03*
G04 #@! TD*
D16*
G04 #@! TO.N,*
X181512259Y-46892259D02*
X184052259Y-46892259D01*
X184306259Y-47146259D02*
X184560259Y-47146259D01*
X184052259Y-46892259D02*
X184306259Y-47146259D01*
X197260259Y-46892259D02*
X195990259Y-45622259D01*
X195990259Y-45622259D02*
X195990259Y-44098259D01*
G04 #@! TO.N,Net-(C1-Pad2)*
X175260000Y-55626000D02*
X172212000Y-55626000D01*
G04 #@! TO.N,GND*
X141634259Y-39780259D02*
X141126259Y-40288259D01*
X141634259Y-38510259D02*
X141634259Y-39780259D01*
X159902550Y-38764259D02*
X159133699Y-39533110D01*
X160684259Y-38764259D02*
X159902550Y-38764259D01*
X157636259Y-38510259D02*
X157636259Y-36478259D01*
X157636259Y-36478259D02*
X157890259Y-36224259D01*
X167034259Y-38764259D02*
X167796259Y-38002259D01*
X160684259Y-38764259D02*
X167034259Y-38764259D01*
X157382259Y-91088259D02*
X155604259Y-91088259D01*
X158398259Y-90072259D02*
X157382259Y-91088259D01*
X165002259Y-100864010D02*
X165002259Y-103026259D01*
X155858259Y-96168259D02*
X155858259Y-93882259D01*
X162922999Y-100946999D02*
X164602260Y-102626260D01*
X162922999Y-96968559D02*
X162922999Y-100946999D01*
X164602260Y-102626260D02*
X165002259Y-103026259D01*
X163467001Y-96424557D02*
X162922999Y-96968559D01*
X163467001Y-93674686D02*
X163467001Y-96424557D01*
X162970259Y-93177944D02*
X163467001Y-93674686D01*
X162970259Y-92612259D02*
X162970259Y-93177944D01*
X171352259Y-61116259D02*
X171606259Y-61116259D01*
X170082259Y-62386259D02*
X171352259Y-61116259D01*
X163927000Y-45876259D02*
X164689000Y-46638259D01*
X167906245Y-46638259D02*
X168036198Y-46768212D01*
X164689000Y-46638259D02*
X167906245Y-46638259D01*
X180242259Y-57052259D02*
X179480259Y-57814259D01*
X182020259Y-57052259D02*
X180242259Y-57052259D01*
X179599999Y-48789999D02*
X179480259Y-48670259D01*
X182274259Y-48789999D02*
X179599999Y-48789999D01*
X194015944Y-44098259D02*
X193450259Y-44098259D01*
X194162701Y-44098259D02*
X194015944Y-44098259D01*
X194963001Y-46373001D02*
X194963001Y-44898559D01*
X196135260Y-47545260D02*
X194963001Y-46373001D01*
X194963001Y-44898559D02*
X194162701Y-44098259D01*
X197573700Y-47545260D02*
X196135260Y-47545260D01*
X198276259Y-46842701D02*
X197573700Y-47545260D01*
X198276259Y-46130259D02*
X198276259Y-46842701D01*
X173130259Y-62640259D02*
X171606259Y-61116259D01*
X173130259Y-64418259D02*
X173130259Y-62640259D01*
X193196259Y-92358259D02*
X195228259Y-94390259D01*
X193196259Y-90326259D02*
X193196259Y-92358259D01*
G04 #@! TO.N,Net-(C2-Pad1)*
X159258000Y-49022000D02*
X151892000Y-56388000D01*
X159258000Y-47752000D02*
X159258000Y-49022000D01*
G04 #@! TO.N,Net-(C4-Pad2)*
X143256000Y-95504000D02*
X143256000Y-96012000D01*
X145288000Y-93472000D02*
X143256000Y-95504000D01*
G04 #@! TO.N,/f103int*
X158750000Y-80518000D02*
X159004000Y-80772000D01*
X158750000Y-78994000D02*
X158750000Y-80518000D01*
X172466000Y-94791558D02*
X172466000Y-97678000D01*
X167844442Y-90170000D02*
X172466000Y-94791558D01*
X166370000Y-90170000D02*
X167844442Y-90170000D01*
X158750000Y-74388000D02*
X158750000Y-75438000D01*
X159678999Y-73459001D02*
X158750000Y-74388000D01*
X159678999Y-56041257D02*
X159678999Y-73459001D01*
X160191997Y-55528259D02*
X159678999Y-56041257D01*
G04 #@! TO.N,/f205int*
X164691010Y-96747859D02*
X164691010Y-85498990D01*
X165133733Y-97190582D02*
X164691010Y-96747859D01*
X165699418Y-97190582D02*
X165133733Y-97190582D01*
X165000990Y-85498990D02*
X165100000Y-85598000D01*
X164691010Y-85498990D02*
X165000990Y-85498990D01*
X160440001Y-76287999D02*
X161290000Y-75438000D01*
X160186999Y-76541001D02*
X160440001Y-76287999D01*
X157697599Y-76541001D02*
X160186999Y-76541001D01*
X157138999Y-75982401D02*
X157697599Y-76541001D01*
X157138999Y-57379484D02*
X157138999Y-75982401D01*
X159286084Y-55232399D02*
X157138999Y-57379484D01*
G04 #@! TO.N,/TX205RX103*
X165520001Y-76287999D02*
X166370000Y-75438000D01*
X164084000Y-77724000D02*
X165520001Y-76287999D01*
X164763001Y-81574403D02*
X164084000Y-80895402D01*
X164763001Y-84707441D02*
X164763001Y-81574403D01*
X164084000Y-80895402D02*
X164084000Y-77724000D01*
X164338000Y-85132442D02*
X164763001Y-84707441D01*
X164338000Y-98044000D02*
X164338000Y-85132442D01*
X167219999Y-74588001D02*
X166370000Y-75438000D01*
X167219999Y-56390999D02*
X167219999Y-74588001D01*
X161798000Y-50969000D02*
X167219999Y-56390999D01*
G04 #@! TO.N,/RX205TX103*
X163830000Y-76488000D02*
X163830000Y-75438000D01*
X161710999Y-80539441D02*
X161710999Y-78607001D01*
X161710999Y-78607001D02*
X163830000Y-76488000D01*
X162856999Y-81685441D02*
X161710999Y-80539441D01*
X163975999Y-85826441D02*
X162856999Y-84707441D01*
X163975999Y-96882001D02*
X163975999Y-85826441D01*
X162856999Y-84707441D02*
X162856999Y-81685441D01*
X163576000Y-97282000D02*
X163975999Y-96882001D01*
X163830000Y-74388000D02*
X163830000Y-75438000D01*
X162218999Y-72776999D02*
X163830000Y-74388000D01*
X162218999Y-68812559D02*
X162218999Y-72776999D01*
X160844997Y-67438557D02*
X162218999Y-68812559D01*
X160844997Y-50969000D02*
X160844997Y-67438557D01*
G04 #@! TO.N,/205CLKSPI*
X163830000Y-48006000D02*
X166624000Y-48006000D01*
X189484000Y-48006000D02*
X189738000Y-47752000D01*
X166624000Y-48006000D02*
X189484000Y-48006000D01*
X189738000Y-55626000D02*
X192532000Y-58420000D01*
X189738000Y-51308000D02*
X189738000Y-55626000D01*
G04 #@! TO.N,/205MISOSPI*
X191164259Y-54512259D02*
X195072000Y-58420000D01*
X191164259Y-49940259D02*
X191164259Y-54512259D01*
X184933441Y-49442999D02*
X166769519Y-49442999D01*
X185430701Y-49940259D02*
X184933441Y-49442999D01*
X191164259Y-49940259D02*
X185430701Y-49940259D01*
X165243518Y-50969000D02*
X165002259Y-50969000D01*
X166769519Y-49442999D02*
X165243518Y-50969000D01*
G04 #@! TO.N,/205MOSISPI*
X164592000Y-43434000D02*
X164592000Y-42164000D01*
X163749259Y-44276741D02*
X164592000Y-43434000D01*
X164592000Y-40894000D02*
X165382241Y-40103759D01*
X164592000Y-42164000D02*
X164592000Y-40894000D01*
X160020000Y-42926000D02*
X159454315Y-42926000D01*
X159454315Y-42926000D02*
X157480000Y-42926000D01*
X144018000Y-39116000D02*
X144018000Y-36830000D01*
X197612000Y-57370000D02*
X197612000Y-58420000D01*
X197612000Y-55421558D02*
X197612000Y-57370000D01*
X191466442Y-49276000D02*
X197612000Y-55421558D01*
X190246000Y-49276000D02*
X191466442Y-49276000D01*
X164314944Y-44276741D02*
X163749259Y-44276741D01*
X166264183Y-44276741D02*
X164314944Y-44276741D01*
X168106443Y-46119001D02*
X166264183Y-44276741D01*
X189121001Y-46119001D02*
X168106443Y-46119001D01*
X190391001Y-47389001D02*
X189121001Y-46119001D01*
X190391001Y-49130999D02*
X190391001Y-47389001D01*
X190246000Y-49276000D02*
X190391001Y-49130999D01*
G04 #@! TO.N,/UART1RX*
X148336000Y-55880000D02*
X150876000Y-55880000D01*
G04 #@! TO.N,/vdivider*
X168148000Y-59182000D02*
X169418000Y-60452000D01*
X168148000Y-58420000D02*
X168148000Y-59182000D01*
X182771000Y-67056000D02*
X184404000Y-67056000D01*
X178308000Y-62593000D02*
X182771000Y-67056000D01*
G04 #@! TO.N,Net-(J5-Pad2)*
X170942000Y-55840685D02*
X171743315Y-56642000D01*
X170942000Y-55275000D02*
X170942000Y-55840685D01*
X171743315Y-56642000D02*
X174752000Y-56642000D01*
X182626000Y-64516000D02*
X184404000Y-64516000D01*
X174752000Y-56642000D02*
X182626000Y-64516000D01*
G04 #@! TO.N,Net-(J5-Pad3)*
X182118000Y-60960000D02*
X181102000Y-59944000D01*
X181102000Y-59944000D02*
X180848000Y-59944000D01*
X179663241Y-54695241D02*
X179263242Y-54295242D01*
X176336758Y-54295242D02*
X176348700Y-54307184D01*
X179263242Y-54295242D02*
X176348700Y-54307184D01*
X176348700Y-54307184D02*
X174703184Y-54307184D01*
X174703184Y-54307184D02*
X174654368Y-54356000D01*
X174654368Y-54356000D02*
X172974000Y-54356000D01*
X172974000Y-54356000D02*
X172466000Y-54356000D01*
G04 #@! TO.N,Net-(J5-Pad4)*
X171386125Y-53864433D02*
X171470465Y-53864433D01*
X170288999Y-54961559D02*
X171386125Y-53864433D01*
X170288999Y-55686915D02*
X170288999Y-54961559D01*
X171597094Y-56995010D02*
X170288999Y-55686915D01*
X174343010Y-56995010D02*
X171597094Y-56995010D01*
X182967001Y-65619001D02*
X174343010Y-56995010D01*
X184933441Y-65619001D02*
X182967001Y-65619001D01*
X185507001Y-65045441D02*
X184933441Y-65619001D01*
X185507001Y-60539001D02*
X185507001Y-65045441D01*
X184404000Y-59436000D02*
X185507001Y-60539001D01*
G04 #@! TO.N,/SWCLK205*
X162814000Y-62484000D02*
X165608000Y-62484000D01*
G04 #@! TO.N,VCC*
X159668259Y-93628259D02*
X160684259Y-92612259D01*
X159668259Y-94136259D02*
X159668259Y-93628259D01*
X158290258Y-47753300D02*
X159659299Y-46384259D01*
X158290258Y-48016260D02*
X158290258Y-47753300D01*
X162912574Y-46384259D02*
X163478259Y-46384259D01*
X157890259Y-48416259D02*
X158290258Y-48016260D01*
X162888258Y-43444260D02*
X162488259Y-43844259D01*
X163975001Y-42357517D02*
X162888258Y-43444260D01*
X163975001Y-41088559D02*
X163975001Y-42357517D01*
X163635441Y-40748999D02*
X163975001Y-41088559D01*
X158690559Y-40748999D02*
X163635441Y-40748999D01*
X156826999Y-42612559D02*
X158690559Y-40748999D01*
X157831816Y-46784258D02*
X156826999Y-45779441D01*
X156826999Y-45779441D02*
X156826999Y-42612559D01*
X163078260Y-46784258D02*
X157831816Y-46784258D01*
X163478259Y-46384259D02*
X163078260Y-46784258D01*
X163029370Y-46281888D02*
X162912574Y-46384259D01*
X159659299Y-46384259D02*
X163029370Y-46281888D01*
X163176999Y-46685519D02*
X163176999Y-50110182D01*
X163176999Y-50110182D02*
X166309076Y-53242259D01*
X163478259Y-46384259D02*
X163176999Y-46685519D01*
X166309076Y-53242259D02*
X168050259Y-53242259D01*
X172671817Y-65942259D02*
X172876259Y-65942259D01*
X168558259Y-61828701D02*
X172671817Y-65942259D01*
X168558259Y-61116259D02*
X168558259Y-61828701D01*
X197537588Y-62663588D02*
X197537588Y-66875990D01*
X197006259Y-62132259D02*
X197537588Y-62663588D01*
X166468574Y-91596259D02*
X165716999Y-90844684D01*
X165716999Y-90844684D02*
X165716999Y-89611519D01*
X167034259Y-91596259D02*
X166468574Y-91596259D01*
X165716999Y-89611519D02*
X167542259Y-87786259D01*
G04 #@! TO.N,/205BOOT0*
X173823001Y-68159001D02*
X168148000Y-62484000D01*
X193714577Y-68159001D02*
X173823001Y-68159001D01*
X194997588Y-66875990D02*
X193714577Y-68159001D01*
G04 #@! TO.N,/205BOOT1*
X175853000Y-64008000D02*
X162814000Y-50969000D01*
X177038000Y-64008000D02*
X175853000Y-64008000D01*
G04 #@! TO.N,/SWIO103*
X169317219Y-92601999D02*
X171033745Y-94318525D01*
X168801999Y-92601999D02*
X169317219Y-92601999D01*
X168402000Y-92202000D02*
X168801999Y-92601999D01*
X172466000Y-93218000D02*
X176276000Y-97028000D01*
X176276000Y-97028000D02*
X180594000Y-97028000D01*
D17*
G04 #@! TO.N,/SWCLK103*
X170942000Y-92202000D02*
X180086000Y-92202000D01*
X169672000Y-90932000D02*
X170942000Y-92202000D01*
D16*
G04 #@! TO.N,/CLK103SPI*
X151119740Y-78242260D02*
X151804001Y-77557999D01*
X147295999Y-78242260D02*
X151119740Y-78242260D01*
X151804001Y-77557999D02*
X152654000Y-76708000D01*
X146896000Y-78642259D02*
X147295999Y-78242260D01*
D17*
G04 #@! TO.N,/PPS*
X173068010Y-88392000D02*
X172560010Y-88900000D01*
X174244000Y-88392000D02*
X173068010Y-88392000D01*
D16*
X177691001Y-65132999D02*
X175514000Y-67310000D01*
X168860442Y-54864000D02*
X177691001Y-63694559D01*
X177691001Y-63694559D02*
X177691001Y-65132999D01*
X167894000Y-54864000D02*
X168860442Y-54864000D01*
G04 #@! TO.N,/GPSFix*
X162393001Y-76688918D02*
X160274000Y-78807919D01*
X160274000Y-78807919D02*
X160274000Y-80010000D01*
X162393001Y-73632596D02*
X162393001Y-76688918D01*
X161566654Y-72806249D02*
X162393001Y-73632596D01*
D17*
G04 #@! TO.N,/PB0*
X151892000Y-104590315D02*
X151892000Y-105918000D01*
X154374315Y-102108000D02*
X151892000Y-104590315D01*
X154940000Y-102108000D02*
X154374315Y-102108000D01*
G04 #@! TO.N,/PB1*
X161944339Y-103016339D02*
X162052000Y-103124000D01*
X154227976Y-103016339D02*
X161944339Y-103016339D01*
X152908000Y-104336315D02*
X154227976Y-103016339D01*
X152908000Y-104902000D02*
X152908000Y-104336315D01*
G04 #@! TO.N,/PA0*
X152400000Y-100330000D02*
X152654000Y-100330000D01*
X149606000Y-103124000D02*
X152400000Y-100330000D01*
G04 #@! TO.N,/PA1*
X153416000Y-101346000D02*
X151384000Y-103378000D01*
G04 #@! TO.N,/GPSTX103RX*
X169922000Y-95000000D02*
X170180000Y-94742000D01*
X165358000Y-95000000D02*
X169922000Y-95000000D01*
D16*
X163322000Y-71628000D02*
X165256259Y-73562259D01*
X163322000Y-69342000D02*
X163322000Y-71628000D01*
X165821944Y-77880259D02*
X166763001Y-78821316D01*
X166763001Y-84901441D02*
X165344010Y-86320432D01*
X166763001Y-78821316D02*
X166763001Y-84901441D01*
X165344010Y-86320432D02*
X165344010Y-93374259D01*
X165256259Y-77880259D02*
X165821944Y-77880259D01*
X165358000Y-93388249D02*
X165358000Y-95000000D01*
X165344010Y-93374259D02*
X165358000Y-93388249D01*
D17*
G04 #@! TO.N,/GPSRX103TX*
X169418000Y-72898000D02*
X171196000Y-74676000D01*
X171138315Y-94996000D02*
X170630315Y-95504000D01*
X171704000Y-94996000D02*
X171138315Y-94996000D01*
X166116000Y-95504000D02*
X170630315Y-95504000D01*
X165354000Y-96266000D02*
X166116000Y-95504000D01*
G04 #@! TO.N,/CSSD*
X162814000Y-94234000D02*
X161036000Y-94234000D01*
G04 #@! TO.N,/RFRX103TX*
X157110001Y-105550001D02*
X157110001Y-105548001D01*
X157810000Y-106250000D02*
X157110001Y-105550001D01*
X157110001Y-105548001D02*
X155956000Y-104394000D01*
D16*
X152892001Y-96665001D02*
X155973919Y-99746919D01*
X140387001Y-96665001D02*
X152892001Y-96665001D01*
X138684000Y-96012000D02*
X139734000Y-96012000D01*
X139734000Y-96012000D02*
X140387001Y-96665001D01*
D17*
G04 #@! TO.N,Net-(SW3-Pad2)*
X161110001Y-105550001D02*
X161810000Y-106250000D01*
X159026348Y-103466348D02*
X161110001Y-105550001D01*
X154851652Y-103466348D02*
X159026348Y-103466348D01*
X154451653Y-103866347D02*
X154851652Y-103466348D01*
D16*
G04 #@! TO.N,/ACCINT*
X161878741Y-35479259D02*
X161878741Y-35386741D01*
X155448000Y-41910000D02*
X161878741Y-35479259D01*
G04 #@! TO.N,/BMP0CS*
X194056000Y-45466000D02*
X194310000Y-45212000D01*
X177800000Y-45466000D02*
X194056000Y-45466000D01*
G04 #@! TO.N,/BMP1CS*
X156718000Y-47356000D02*
X146304000Y-36942000D01*
X156718000Y-50546000D02*
X156718000Y-47356000D01*
G04 #@! TO.N,/ICMCS*
X162560000Y-41402000D02*
X157988000Y-45974000D01*
X163322000Y-41402000D02*
X162560000Y-41402000D01*
G04 #@! TO.N,/VDDIOACC*
X162938000Y-45212000D02*
X161352000Y-43626000D01*
X166233000Y-45212000D02*
X162938000Y-45212000D01*
G04 #@! TD*
D18*
G04 #@! TO.N,VCC*
G36*
X131036844Y-33747236D02*
X130987561Y-33995001D01*
X130987561Y-35695001D01*
X131036844Y-35942766D01*
X131177192Y-36152810D01*
X131387236Y-36293158D01*
X131432620Y-36302185D01*
X131414376Y-36314376D01*
X131086162Y-36805583D01*
X130970909Y-37385001D01*
X131086162Y-37964419D01*
X131414376Y-38455626D01*
X131712762Y-38655001D01*
X131414376Y-38854376D01*
X131086162Y-39345583D01*
X130970909Y-39925001D01*
X131086162Y-40504419D01*
X131414376Y-40995626D01*
X131712762Y-41195001D01*
X131414376Y-41394376D01*
X131086162Y-41885583D01*
X130970909Y-42465001D01*
X131086162Y-43044419D01*
X131414376Y-43535626D01*
X131712762Y-43735001D01*
X131414376Y-43934376D01*
X131086162Y-44425583D01*
X130970909Y-45005001D01*
X131086162Y-45584419D01*
X131414376Y-46075626D01*
X131712762Y-46275001D01*
X131414376Y-46474376D01*
X131086162Y-46965583D01*
X130970909Y-47545001D01*
X131086162Y-48124419D01*
X131414376Y-48615626D01*
X131712762Y-48815001D01*
X131414376Y-49014376D01*
X131086162Y-49505583D01*
X130970909Y-50085001D01*
X131086162Y-50664419D01*
X131414376Y-51155626D01*
X131712762Y-51355001D01*
X131414376Y-51554376D01*
X131086162Y-52045583D01*
X130970909Y-52625001D01*
X131086162Y-53204419D01*
X131414376Y-53695626D01*
X131712762Y-53895001D01*
X131414376Y-54094376D01*
X131086162Y-54585583D01*
X130970909Y-55165001D01*
X131086162Y-55744419D01*
X131414376Y-56235626D01*
X131712762Y-56435001D01*
X131414376Y-56634376D01*
X131086162Y-57125583D01*
X130970909Y-57705001D01*
X131086162Y-58284419D01*
X131414376Y-58775626D01*
X131712762Y-58975001D01*
X131414376Y-59174376D01*
X131086162Y-59665583D01*
X130970909Y-60245001D01*
X131086162Y-60824419D01*
X131414376Y-61315626D01*
X131712762Y-61515001D01*
X131414376Y-61714376D01*
X131086162Y-62205583D01*
X130970909Y-62785001D01*
X131086162Y-63364419D01*
X131414376Y-63855626D01*
X131712762Y-64055001D01*
X131414376Y-64254376D01*
X131086162Y-64745583D01*
X130970909Y-65325001D01*
X131086162Y-65904419D01*
X131414376Y-66395626D01*
X131712762Y-66595001D01*
X131414376Y-66794376D01*
X131086162Y-67285583D01*
X130970909Y-67865001D01*
X131086162Y-68444419D01*
X131414376Y-68935626D01*
X131712762Y-69135001D01*
X131414376Y-69334376D01*
X131086162Y-69825583D01*
X130970909Y-70405001D01*
X131086162Y-70984419D01*
X131414376Y-71475626D01*
X131905583Y-71803840D01*
X132338745Y-71890001D01*
X132631257Y-71890001D01*
X133064419Y-71803840D01*
X133555626Y-71475626D01*
X133755001Y-71177240D01*
X133954376Y-71475626D01*
X134445583Y-71803840D01*
X134878745Y-71890001D01*
X135171257Y-71890001D01*
X135604419Y-71803840D01*
X136095626Y-71475626D01*
X136423840Y-70984419D01*
X136539093Y-70405001D01*
X136423840Y-69825583D01*
X136095626Y-69334376D01*
X135797240Y-69135001D01*
X136095626Y-68935626D01*
X136423840Y-68444419D01*
X136539093Y-67865001D01*
X136423840Y-67285583D01*
X136270438Y-67056000D01*
X144535908Y-67056000D01*
X144651161Y-67635418D01*
X144979375Y-68126625D01*
X144997619Y-68138816D01*
X144952235Y-68147843D01*
X144742191Y-68288191D01*
X144601843Y-68498235D01*
X144552560Y-68746000D01*
X144552560Y-70446000D01*
X144601843Y-70693765D01*
X144742191Y-70903809D01*
X144952235Y-71044157D01*
X145200000Y-71093440D01*
X146900000Y-71093440D01*
X147147765Y-71044157D01*
X147357809Y-70903809D01*
X147498157Y-70693765D01*
X147547440Y-70446000D01*
X147547440Y-68746000D01*
X147498157Y-68498235D01*
X147357809Y-68288191D01*
X147147765Y-68147843D01*
X147102381Y-68138816D01*
X147120625Y-68126625D01*
X147448839Y-67635418D01*
X147564092Y-67056000D01*
X147448839Y-66476582D01*
X147120625Y-65985375D01*
X146629418Y-65657161D01*
X146196256Y-65571000D01*
X145903744Y-65571000D01*
X145470582Y-65657161D01*
X144979375Y-65985375D01*
X144651161Y-66476582D01*
X144535908Y-67056000D01*
X136270438Y-67056000D01*
X136095626Y-66794376D01*
X135797240Y-66595001D01*
X136095626Y-66395626D01*
X136423840Y-65904419D01*
X136539093Y-65325001D01*
X136423840Y-64745583D01*
X136095626Y-64254376D01*
X135797240Y-64055001D01*
X136095626Y-63855626D01*
X136423840Y-63364419D01*
X136539093Y-62785001D01*
X136423840Y-62205583D01*
X136095626Y-61714376D01*
X135797240Y-61515001D01*
X136095626Y-61315626D01*
X136423840Y-60824419D01*
X136539093Y-60245001D01*
X136423840Y-59665583D01*
X136095626Y-59174376D01*
X135797240Y-58975001D01*
X136095626Y-58775626D01*
X136423840Y-58284419D01*
X136539093Y-57705001D01*
X136423840Y-57125583D01*
X136095626Y-56634376D01*
X135797240Y-56435001D01*
X136095626Y-56235626D01*
X136423840Y-55744419D01*
X136539093Y-55165001D01*
X136423840Y-54585583D01*
X136100721Y-54102000D01*
X141233908Y-54102000D01*
X141349161Y-54681418D01*
X141677375Y-55172625D01*
X141695619Y-55184816D01*
X141650235Y-55193843D01*
X141440191Y-55334191D01*
X141299843Y-55544235D01*
X141250560Y-55792000D01*
X141250560Y-57492000D01*
X141299843Y-57739765D01*
X141440191Y-57949809D01*
X141650235Y-58090157D01*
X141898000Y-58139440D01*
X143598000Y-58139440D01*
X143845765Y-58090157D01*
X144055809Y-57949809D01*
X144196157Y-57739765D01*
X144245440Y-57492000D01*
X144245440Y-55792000D01*
X144196157Y-55544235D01*
X144055809Y-55334191D01*
X143845765Y-55193843D01*
X143800381Y-55184816D01*
X143818625Y-55172625D01*
X144146839Y-54681418D01*
X144262092Y-54102000D01*
X144146839Y-53522582D01*
X143818625Y-53031375D01*
X143327418Y-52703161D01*
X142894256Y-52617000D01*
X142601744Y-52617000D01*
X142168582Y-52703161D01*
X141677375Y-53031375D01*
X141349161Y-53522582D01*
X141233908Y-54102000D01*
X136100721Y-54102000D01*
X136095626Y-54094376D01*
X135797240Y-53895001D01*
X136095626Y-53695626D01*
X136423840Y-53204419D01*
X136539093Y-52625001D01*
X136423840Y-52045583D01*
X136095626Y-51554376D01*
X135797240Y-51355001D01*
X136095626Y-51155626D01*
X136423840Y-50664419D01*
X136539093Y-50085001D01*
X136423840Y-49505583D01*
X136095626Y-49014376D01*
X135797240Y-48815001D01*
X136095626Y-48615626D01*
X136423840Y-48124419D01*
X136539093Y-47545001D01*
X136423840Y-46965583D01*
X136095626Y-46474376D01*
X135797240Y-46275001D01*
X136095626Y-46075626D01*
X136423840Y-45584419D01*
X136539093Y-45005001D01*
X136423840Y-44425583D01*
X136095626Y-43934376D01*
X135797240Y-43735001D01*
X136095626Y-43535626D01*
X136423840Y-43044419D01*
X136539093Y-42465001D01*
X136423840Y-41885583D01*
X136095626Y-41394376D01*
X135797240Y-41195001D01*
X136095626Y-40995626D01*
X136423840Y-40504419D01*
X136507787Y-40082385D01*
X140091259Y-40082385D01*
X140091259Y-40494133D01*
X140248828Y-40874539D01*
X140539979Y-41165690D01*
X140920385Y-41323259D01*
X141332133Y-41323259D01*
X141712539Y-41165690D01*
X142003690Y-40874539D01*
X142161259Y-40494133D01*
X142161259Y-40312105D01*
X142164164Y-40310164D01*
X142326613Y-40067042D01*
X142369259Y-39852647D01*
X142369259Y-39852644D01*
X142383657Y-39780260D01*
X142369259Y-39707876D01*
X142369259Y-39238970D01*
X142511690Y-39096539D01*
X142669259Y-38716133D01*
X142669259Y-38304385D01*
X142511690Y-37923979D01*
X142220539Y-37632828D01*
X141840133Y-37475259D01*
X141428385Y-37475259D01*
X141047979Y-37632828D01*
X140756828Y-37923979D01*
X140599259Y-38304385D01*
X140599259Y-38716133D01*
X140756828Y-39096539D01*
X140899260Y-39238971D01*
X140899260Y-39262009D01*
X140539979Y-39410828D01*
X140248828Y-39701979D01*
X140091259Y-40082385D01*
X136507787Y-40082385D01*
X136539093Y-39925001D01*
X136423840Y-39345583D01*
X136095626Y-38854376D01*
X135797240Y-38655001D01*
X136095626Y-38455626D01*
X136423840Y-37964419D01*
X136539093Y-37385001D01*
X136423840Y-36805583D01*
X136302595Y-36624126D01*
X142983000Y-36624126D01*
X142983000Y-37035874D01*
X143140569Y-37416280D01*
X143283001Y-37558712D01*
X143283000Y-38387289D01*
X143140569Y-38529720D01*
X142983000Y-38910126D01*
X142983000Y-39321874D01*
X143140569Y-39702280D01*
X143431720Y-39993431D01*
X143812126Y-40151000D01*
X144223874Y-40151000D01*
X144604280Y-39993431D01*
X144895431Y-39702280D01*
X145053000Y-39321874D01*
X145053000Y-38910126D01*
X144895431Y-38529720D01*
X144753000Y-38387289D01*
X144753000Y-37558711D01*
X144895431Y-37416280D01*
X145053000Y-37035874D01*
X145053000Y-36736126D01*
X145269000Y-36736126D01*
X145269000Y-37147874D01*
X145426569Y-37528280D01*
X145717720Y-37819431D01*
X146098126Y-37977000D01*
X146299554Y-37977000D01*
X155983001Y-47660448D01*
X155983000Y-49817289D01*
X155840569Y-49959720D01*
X155683000Y-50340126D01*
X155683000Y-50751874D01*
X155840569Y-51132280D01*
X155974421Y-51266132D01*
X151887554Y-55353000D01*
X151777986Y-55353000D01*
X151753431Y-55293720D01*
X151462280Y-55002569D01*
X151081874Y-54845000D01*
X150670126Y-54845000D01*
X150289720Y-55002569D01*
X150147289Y-55145000D01*
X149064711Y-55145000D01*
X148922280Y-55002569D01*
X148541874Y-54845000D01*
X148130126Y-54845000D01*
X147749720Y-55002569D01*
X147458569Y-55293720D01*
X147301000Y-55674126D01*
X147301000Y-56085874D01*
X147458569Y-56466280D01*
X147749720Y-56757431D01*
X148130126Y-56915000D01*
X148541874Y-56915000D01*
X148922280Y-56757431D01*
X149064711Y-56615000D01*
X150147289Y-56615000D01*
X150289720Y-56757431D01*
X150670126Y-56915000D01*
X150990014Y-56915000D01*
X151014569Y-56974280D01*
X151305720Y-57265431D01*
X151686126Y-57423000D01*
X152097874Y-57423000D01*
X152478280Y-57265431D01*
X152769431Y-56974280D01*
X152927000Y-56593874D01*
X152927000Y-56392446D01*
X159726538Y-49592909D01*
X159787905Y-49551905D01*
X159950354Y-49308783D01*
X159993000Y-49094388D01*
X159993000Y-49094385D01*
X160007398Y-49022001D01*
X159993000Y-48949617D01*
X159993000Y-48480711D01*
X160135431Y-48338280D01*
X160293000Y-47957874D01*
X160293000Y-47546126D01*
X160135431Y-47165720D01*
X159844280Y-46874569D01*
X159463874Y-46717000D01*
X159052126Y-46717000D01*
X158671720Y-46874569D01*
X158380569Y-47165720D01*
X158223000Y-47546126D01*
X158223000Y-47957874D01*
X158380569Y-48338280D01*
X158523001Y-48480712D01*
X158523001Y-48717552D01*
X157453000Y-49787553D01*
X157453000Y-47428383D01*
X157467398Y-47355999D01*
X157453000Y-47283615D01*
X157453000Y-47283612D01*
X157410354Y-47069217D01*
X157247905Y-46826095D01*
X157186538Y-46785091D01*
X147339000Y-36937554D01*
X147339000Y-36736126D01*
X147181431Y-36355720D01*
X146890280Y-36064569D01*
X146509874Y-35907000D01*
X146098126Y-35907000D01*
X145717720Y-36064569D01*
X145426569Y-36355720D01*
X145269000Y-36736126D01*
X145053000Y-36736126D01*
X145053000Y-36624126D01*
X144895431Y-36243720D01*
X144604280Y-35952569D01*
X144223874Y-35795000D01*
X143812126Y-35795000D01*
X143431720Y-35952569D01*
X143140569Y-36243720D01*
X142983000Y-36624126D01*
X136302595Y-36624126D01*
X136095626Y-36314376D01*
X135797240Y-36115001D01*
X136095626Y-35915626D01*
X136423840Y-35424419D01*
X136539093Y-34845001D01*
X136423840Y-34265583D01*
X136095626Y-33774376D01*
X136029213Y-33730000D01*
X201452272Y-33730000D01*
X201474001Y-40161930D01*
X201474001Y-41639430D01*
X201459809Y-41618191D01*
X201249765Y-41477843D01*
X201002000Y-41428560D01*
X199302000Y-41428560D01*
X199054235Y-41477843D01*
X198844191Y-41618191D01*
X198703843Y-41828235D01*
X198654560Y-42076000D01*
X198654560Y-43776000D01*
X198703843Y-44023765D01*
X198844191Y-44233809D01*
X199054235Y-44374157D01*
X199099619Y-44383184D01*
X199081375Y-44395375D01*
X198753161Y-44886582D01*
X198694182Y-45183092D01*
X198482133Y-45095259D01*
X198070385Y-45095259D01*
X197689979Y-45252828D01*
X197398828Y-45543979D01*
X197269063Y-45857259D01*
X197264706Y-45857259D01*
X196725259Y-45317813D01*
X196725259Y-44826970D01*
X196867690Y-44684539D01*
X197025259Y-44304133D01*
X197025259Y-43892385D01*
X196867690Y-43511979D01*
X196576539Y-43220828D01*
X196196133Y-43063259D01*
X195784385Y-43063259D01*
X195403979Y-43220828D01*
X195112828Y-43511979D01*
X194967272Y-43863383D01*
X194733612Y-43629724D01*
X194692606Y-43568354D01*
X194449484Y-43405905D01*
X194235089Y-43363259D01*
X194235085Y-43363259D01*
X194165037Y-43349326D01*
X194036539Y-43220828D01*
X193656133Y-43063259D01*
X193244385Y-43063259D01*
X192863979Y-43220828D01*
X192572828Y-43511979D01*
X192415259Y-43892385D01*
X192415259Y-44304133D01*
X192572828Y-44684539D01*
X192619289Y-44731000D01*
X178528711Y-44731000D01*
X178386280Y-44588569D01*
X178005874Y-44431000D01*
X177594126Y-44431000D01*
X177213720Y-44588569D01*
X176922569Y-44879720D01*
X176765000Y-45260126D01*
X176765000Y-45384001D01*
X168410890Y-45384001D01*
X166835094Y-43808206D01*
X166794088Y-43746836D01*
X166550966Y-43584387D01*
X166336571Y-43541741D01*
X166336567Y-43541741D01*
X166264183Y-43527343D01*
X166191799Y-43541741D01*
X165319968Y-43541741D01*
X165327000Y-43506388D01*
X165327000Y-43506387D01*
X165341399Y-43434000D01*
X165327000Y-43361612D01*
X165327000Y-42164000D01*
X181111908Y-42164000D01*
X181227161Y-42743418D01*
X181555375Y-43234625D01*
X182046582Y-43562839D01*
X182479744Y-43649000D01*
X182772256Y-43649000D01*
X183205418Y-43562839D01*
X183696625Y-43234625D01*
X184024839Y-42743418D01*
X184140092Y-42164000D01*
X184024839Y-41584582D01*
X183696625Y-41093375D01*
X183678381Y-41081184D01*
X183723765Y-41072157D01*
X183933809Y-40931809D01*
X184074157Y-40721765D01*
X184123440Y-40474000D01*
X184123440Y-38774000D01*
X184074157Y-38526235D01*
X183933809Y-38316191D01*
X183723765Y-38175843D01*
X183476000Y-38126560D01*
X181776000Y-38126560D01*
X181528235Y-38175843D01*
X181318191Y-38316191D01*
X181177843Y-38526235D01*
X181128560Y-38774000D01*
X181128560Y-40474000D01*
X181177843Y-40721765D01*
X181318191Y-40931809D01*
X181528235Y-41072157D01*
X181573619Y-41081184D01*
X181555375Y-41093375D01*
X181227161Y-41584582D01*
X181111908Y-42164000D01*
X165327000Y-42164000D01*
X165327000Y-41198446D01*
X165386687Y-41138759D01*
X165588115Y-41138759D01*
X165968521Y-40981190D01*
X166259672Y-40690039D01*
X166417241Y-40309633D01*
X166417241Y-39897885D01*
X166259672Y-39517479D01*
X166241452Y-39499259D01*
X166961875Y-39499259D01*
X167034259Y-39513657D01*
X167106643Y-39499259D01*
X167106647Y-39499259D01*
X167321042Y-39456613D01*
X167564164Y-39294164D01*
X167605170Y-39232794D01*
X167800705Y-39037259D01*
X168002133Y-39037259D01*
X168382539Y-38879690D01*
X168673690Y-38588539D01*
X168831259Y-38208133D01*
X168831259Y-37796385D01*
X168673690Y-37415979D01*
X168382539Y-37124828D01*
X168002133Y-36967259D01*
X167590385Y-36967259D01*
X167209979Y-37124828D01*
X166918828Y-37415979D01*
X166761259Y-37796385D01*
X166761259Y-37997813D01*
X166729813Y-38029259D01*
X161412970Y-38029259D01*
X161270539Y-37886828D01*
X160890133Y-37729259D01*
X160668188Y-37729259D01*
X161975706Y-36421741D01*
X162084615Y-36421741D01*
X162465021Y-36264172D01*
X162570884Y-36158309D01*
X188786819Y-36158309D01*
X188786819Y-37306209D01*
X189226101Y-38366729D01*
X190037789Y-39178417D01*
X191098309Y-39617699D01*
X192246209Y-39617699D01*
X193306729Y-39178417D01*
X193697101Y-38788045D01*
X196654078Y-38788045D01*
X196905370Y-39184792D01*
X197967601Y-39619923D01*
X199115492Y-39615432D01*
X200155148Y-39184792D01*
X200406440Y-38788045D01*
X198530259Y-36911864D01*
X196654078Y-38788045D01*
X193697101Y-38788045D01*
X194118417Y-38366729D01*
X194557699Y-37306209D01*
X194557699Y-36169601D01*
X195642595Y-36169601D01*
X195647086Y-37317492D01*
X196077726Y-38357148D01*
X196474473Y-38608440D01*
X198350654Y-36732259D01*
X198709864Y-36732259D01*
X200586045Y-38608440D01*
X200982792Y-38357148D01*
X201417923Y-37294917D01*
X201413432Y-36147026D01*
X200982792Y-35107370D01*
X200586045Y-34856078D01*
X198709864Y-36732259D01*
X198350654Y-36732259D01*
X196474473Y-34856078D01*
X196077726Y-35107370D01*
X195642595Y-36169601D01*
X194557699Y-36169601D01*
X194557699Y-36158309D01*
X194118417Y-35097789D01*
X193697101Y-34676473D01*
X196654078Y-34676473D01*
X198530259Y-36552654D01*
X200406440Y-34676473D01*
X200155148Y-34279726D01*
X199092917Y-33844595D01*
X197945026Y-33849086D01*
X196905370Y-34279726D01*
X196654078Y-34676473D01*
X193697101Y-34676473D01*
X193306729Y-34286101D01*
X192246209Y-33846819D01*
X191098309Y-33846819D01*
X190037789Y-34286101D01*
X189226101Y-35097789D01*
X188786819Y-36158309D01*
X162570884Y-36158309D01*
X162756172Y-35973021D01*
X162913741Y-35592615D01*
X162913741Y-35180867D01*
X162756172Y-34800461D01*
X162465021Y-34509310D01*
X162084615Y-34351741D01*
X161672867Y-34351741D01*
X161292461Y-34509310D01*
X161001310Y-34800461D01*
X160843741Y-35180867D01*
X160843741Y-35474812D01*
X158454132Y-37864421D01*
X158371259Y-37781548D01*
X158371259Y-37145298D01*
X158476539Y-37101690D01*
X158767690Y-36810539D01*
X158925259Y-36430133D01*
X158925259Y-36018385D01*
X158767690Y-35637979D01*
X158476539Y-35346828D01*
X158096133Y-35189259D01*
X157684385Y-35189259D01*
X157303979Y-35346828D01*
X157012828Y-35637979D01*
X156855259Y-36018385D01*
X156855259Y-36430133D01*
X156897640Y-36532451D01*
X156901260Y-36550648D01*
X156901259Y-37781548D01*
X156758828Y-37923979D01*
X156601259Y-38304385D01*
X156601259Y-38716133D01*
X156758828Y-39096539D01*
X156990421Y-39328132D01*
X155443554Y-40875000D01*
X155242126Y-40875000D01*
X154861720Y-41032569D01*
X154570569Y-41323720D01*
X154413000Y-41704126D01*
X154413000Y-42115874D01*
X154570569Y-42496280D01*
X154861720Y-42787431D01*
X155242126Y-42945000D01*
X155653874Y-42945000D01*
X156034280Y-42787431D01*
X156325431Y-42496280D01*
X156483000Y-42115874D01*
X156483000Y-41914446D01*
X158267162Y-40130284D01*
X158547419Y-40410541D01*
X158927825Y-40568110D01*
X159339573Y-40568110D01*
X159719979Y-40410541D01*
X160011130Y-40119390D01*
X160168699Y-39738984D01*
X160168699Y-39670983D01*
X160478385Y-39799259D01*
X160890133Y-39799259D01*
X161270539Y-39641690D01*
X161412970Y-39499259D01*
X164523030Y-39499259D01*
X164504810Y-39517479D01*
X164347241Y-39897885D01*
X164347241Y-40099313D01*
X164123463Y-40323091D01*
X164062096Y-40364095D01*
X164021092Y-40425462D01*
X164021091Y-40425463D01*
X163936209Y-40552498D01*
X163908280Y-40524569D01*
X163527874Y-40367000D01*
X163116126Y-40367000D01*
X162735720Y-40524569D01*
X162599775Y-40660514D01*
X162559999Y-40652602D01*
X162487615Y-40667000D01*
X162487612Y-40667000D01*
X162273217Y-40709646D01*
X162030095Y-40872095D01*
X161989091Y-40933462D01*
X160740132Y-42182421D01*
X160606280Y-42048569D01*
X160225874Y-41891000D01*
X159814126Y-41891000D01*
X159433720Y-42048569D01*
X159291289Y-42191000D01*
X158208711Y-42191000D01*
X158066280Y-42048569D01*
X157685874Y-41891000D01*
X157274126Y-41891000D01*
X156893720Y-42048569D01*
X156602569Y-42339720D01*
X156445000Y-42720126D01*
X156445000Y-43131874D01*
X156602569Y-43512280D01*
X156893720Y-43803431D01*
X157274126Y-43961000D01*
X157685874Y-43961000D01*
X158066280Y-43803431D01*
X158208711Y-43661000D01*
X159261554Y-43661000D01*
X157983554Y-44939000D01*
X157782126Y-44939000D01*
X157401720Y-45096569D01*
X157110569Y-45387720D01*
X156953000Y-45768126D01*
X156953000Y-46179874D01*
X157110569Y-46560280D01*
X157401720Y-46851431D01*
X157782126Y-47009000D01*
X158193874Y-47009000D01*
X158574280Y-46851431D01*
X158865431Y-46560280D01*
X159023000Y-46179874D01*
X159023000Y-45978446D01*
X160631868Y-44369579D01*
X160765720Y-44503431D01*
X161146126Y-44661000D01*
X161347554Y-44661000D01*
X162367090Y-45680537D01*
X162408095Y-45741905D01*
X162651217Y-45904354D01*
X162865612Y-45947000D01*
X162892000Y-45952249D01*
X162892000Y-46082133D01*
X163049569Y-46462539D01*
X163340720Y-46753690D01*
X163721126Y-46911259D01*
X163922553Y-46911259D01*
X163982294Y-46971000D01*
X163624126Y-46971000D01*
X163243720Y-47128569D01*
X162952569Y-47419720D01*
X162795000Y-47800126D01*
X162795000Y-48211874D01*
X162952569Y-48592280D01*
X163243720Y-48883431D01*
X163624126Y-49041000D01*
X164035874Y-49041000D01*
X164416280Y-48883431D01*
X164558711Y-48741000D01*
X165895289Y-48741000D01*
X166037720Y-48883431D01*
X166211373Y-48955360D01*
X166198609Y-48974462D01*
X165230010Y-49943062D01*
X165208133Y-49934000D01*
X164796385Y-49934000D01*
X164415979Y-50091569D01*
X164124828Y-50382720D01*
X163967259Y-50763126D01*
X163967259Y-51082813D01*
X163849000Y-50964554D01*
X163849000Y-50763126D01*
X163691431Y-50382720D01*
X163400280Y-50091569D01*
X163019874Y-49934000D01*
X162608126Y-49934000D01*
X162306000Y-50059144D01*
X162003874Y-49934000D01*
X161592126Y-49934000D01*
X161321499Y-50046097D01*
X161050871Y-49934000D01*
X160639123Y-49934000D01*
X160258717Y-50091569D01*
X159967566Y-50382720D01*
X159809997Y-50763126D01*
X159809997Y-51174874D01*
X159967566Y-51555280D01*
X160109997Y-51697711D01*
X160109997Y-54493259D01*
X160010655Y-54493259D01*
X159872364Y-54354968D01*
X159491958Y-54197399D01*
X159080210Y-54197399D01*
X158699804Y-54354968D01*
X158408653Y-54646119D01*
X158251084Y-55026525D01*
X158251084Y-55227952D01*
X156670464Y-56808573D01*
X156609094Y-56849579D01*
X156446645Y-57092702D01*
X156403999Y-57307097D01*
X156403999Y-57307100D01*
X156389601Y-57379484D01*
X156403999Y-57451868D01*
X156404000Y-68025067D01*
X156281418Y-67943161D01*
X155848256Y-67857000D01*
X155555744Y-67857000D01*
X155122582Y-67943161D01*
X154631375Y-68271375D01*
X154619184Y-68289619D01*
X154610157Y-68244235D01*
X154469809Y-68034191D01*
X154259765Y-67893843D01*
X154012000Y-67844560D01*
X152312000Y-67844560D01*
X152064235Y-67893843D01*
X151854191Y-68034191D01*
X151713843Y-68244235D01*
X151664560Y-68492000D01*
X151664560Y-70192000D01*
X151713843Y-70439765D01*
X151854191Y-70649809D01*
X152064235Y-70790157D01*
X152312000Y-70839440D01*
X154012000Y-70839440D01*
X154259765Y-70790157D01*
X154469809Y-70649809D01*
X154610157Y-70439765D01*
X154619184Y-70394381D01*
X154631375Y-70412625D01*
X155122582Y-70740839D01*
X155555744Y-70827000D01*
X155848256Y-70827000D01*
X156281418Y-70740839D01*
X156404000Y-70658933D01*
X156404000Y-75910012D01*
X156389601Y-75982401D01*
X156446645Y-76269183D01*
X156568090Y-76450938D01*
X156609095Y-76512306D01*
X156670462Y-76553310D01*
X157126689Y-77009538D01*
X157167694Y-77070906D01*
X157410816Y-77233355D01*
X157625211Y-77276001D01*
X157697599Y-77290400D01*
X157769987Y-77276001D01*
X160114615Y-77276001D01*
X160186999Y-77290399D01*
X160259383Y-77276001D01*
X160259387Y-77276001D01*
X160473782Y-77233355D01*
X160716904Y-77070906D01*
X160757910Y-77009536D01*
X160894103Y-76873343D01*
X161123499Y-76918973D01*
X159805465Y-78237008D01*
X159744095Y-78278014D01*
X159638911Y-78435434D01*
X159627431Y-78407720D01*
X159336280Y-78116569D01*
X158955874Y-77959000D01*
X158544126Y-77959000D01*
X158163720Y-78116569D01*
X157872569Y-78407720D01*
X157715000Y-78788126D01*
X157715000Y-79199874D01*
X157872569Y-79580280D01*
X158015000Y-79722711D01*
X158015001Y-80445611D01*
X158011381Y-80463808D01*
X157969000Y-80566126D01*
X157969000Y-80977874D01*
X158126569Y-81358280D01*
X158417720Y-81649431D01*
X158798126Y-81807000D01*
X159209874Y-81807000D01*
X159590280Y-81649431D01*
X159808260Y-81431451D01*
X160127744Y-81495000D01*
X160420256Y-81495000D01*
X160853418Y-81408839D01*
X161265564Y-81133452D01*
X162122000Y-81989889D01*
X162122000Y-82934241D01*
X162075548Y-82915000D01*
X161544452Y-82915000D01*
X161053783Y-83118242D01*
X160810000Y-83362025D01*
X160566217Y-83118242D01*
X160075548Y-82915000D01*
X159544452Y-82915000D01*
X159053783Y-83118242D01*
X158810000Y-83362025D01*
X158566217Y-83118242D01*
X158075548Y-82915000D01*
X157544452Y-82915000D01*
X157053783Y-83118242D01*
X156810000Y-83362025D01*
X156566217Y-83118242D01*
X156075548Y-82915000D01*
X155544452Y-82915000D01*
X155053783Y-83118242D01*
X154810000Y-83362025D01*
X154566217Y-83118242D01*
X154075548Y-82915000D01*
X153544452Y-82915000D01*
X153053783Y-83118242D01*
X152678242Y-83493783D01*
X152475000Y-83984452D01*
X152475000Y-84515548D01*
X152678242Y-85006217D01*
X153053783Y-85381758D01*
X153544452Y-85585000D01*
X154075548Y-85585000D01*
X154566217Y-85381758D01*
X154810000Y-85137975D01*
X155053783Y-85381758D01*
X155544452Y-85585000D01*
X156075548Y-85585000D01*
X156566217Y-85381758D01*
X156810000Y-85137975D01*
X157053783Y-85381758D01*
X157544452Y-85585000D01*
X158075548Y-85585000D01*
X158566217Y-85381758D01*
X158810000Y-85137975D01*
X159053783Y-85381758D01*
X159544452Y-85585000D01*
X160075548Y-85585000D01*
X160566217Y-85381758D01*
X160810000Y-85137975D01*
X161053783Y-85381758D01*
X161544452Y-85585000D01*
X162075548Y-85585000D01*
X162513646Y-85403534D01*
X163241000Y-86130889D01*
X163240999Y-91604128D01*
X163176133Y-91577259D01*
X162764385Y-91577259D01*
X162383979Y-91734828D01*
X162092828Y-92025979D01*
X161935259Y-92406385D01*
X161935259Y-92818133D01*
X162092828Y-93198539D01*
X162244081Y-93349792D01*
X162227720Y-93356569D01*
X162110289Y-93474000D01*
X161739711Y-93474000D01*
X161622280Y-93356569D01*
X161241874Y-93199000D01*
X160830126Y-93199000D01*
X160449720Y-93356569D01*
X160158569Y-93647720D01*
X160001000Y-94028126D01*
X160001000Y-94439874D01*
X160158569Y-94820280D01*
X160449720Y-95111431D01*
X160830126Y-95269000D01*
X161241874Y-95269000D01*
X161622280Y-95111431D01*
X161739711Y-94994000D01*
X162110289Y-94994000D01*
X162227720Y-95111431D01*
X162608126Y-95269000D01*
X162732002Y-95269000D01*
X162732002Y-96120110D01*
X162454464Y-96397648D01*
X162393094Y-96438654D01*
X162230645Y-96681777D01*
X162187999Y-96896172D01*
X162187999Y-96896175D01*
X162173601Y-96968559D01*
X162187999Y-97040943D01*
X162188000Y-100874610D01*
X162173601Y-100946999D01*
X162230645Y-101233781D01*
X162336428Y-101392096D01*
X162393095Y-101476904D01*
X162454462Y-101517908D01*
X163967259Y-103030706D01*
X163967259Y-103232133D01*
X164124828Y-103612539D01*
X164415979Y-103903690D01*
X164796385Y-104061259D01*
X165208133Y-104061259D01*
X165588539Y-103903690D01*
X165879690Y-103612539D01*
X166037259Y-103232133D01*
X166037259Y-102820385D01*
X165879690Y-102439979D01*
X165737259Y-102297548D01*
X165737259Y-102274000D01*
X184176560Y-102274000D01*
X184176560Y-103974000D01*
X184225843Y-104221765D01*
X184366191Y-104431809D01*
X184499674Y-104521000D01*
X184366191Y-104610191D01*
X184225843Y-104820235D01*
X184176560Y-105068000D01*
X184176560Y-106768000D01*
X184225843Y-107015765D01*
X184366191Y-107225809D01*
X184576235Y-107366157D01*
X184824000Y-107415440D01*
X186524000Y-107415440D01*
X186771765Y-107366157D01*
X186981809Y-107225809D01*
X187122157Y-107015765D01*
X187131184Y-106970381D01*
X187143375Y-106988625D01*
X187634582Y-107316839D01*
X188067744Y-107403000D01*
X188360256Y-107403000D01*
X188793418Y-107316839D01*
X189284625Y-106988625D01*
X189497843Y-106669522D01*
X189558817Y-106799358D01*
X189987076Y-107189645D01*
X190397110Y-107359476D01*
X190627000Y-107238155D01*
X190627000Y-106045000D01*
X190881000Y-106045000D01*
X190881000Y-107238155D01*
X191110890Y-107359476D01*
X191520924Y-107189645D01*
X191949183Y-106799358D01*
X192195486Y-106274892D01*
X192074819Y-106045000D01*
X190881000Y-106045000D01*
X190627000Y-106045000D01*
X190607000Y-106045000D01*
X190607000Y-105791000D01*
X190627000Y-105791000D01*
X190627000Y-104597845D01*
X190481387Y-104521000D01*
X190627000Y-104444155D01*
X190627000Y-103251000D01*
X190881000Y-103251000D01*
X190881000Y-104444155D01*
X191026613Y-104521000D01*
X190881000Y-104597845D01*
X190881000Y-105791000D01*
X192074819Y-105791000D01*
X192195486Y-105561108D01*
X191949183Y-105036642D01*
X191520924Y-104646355D01*
X191218271Y-104521000D01*
X191520924Y-104395645D01*
X191949183Y-104005358D01*
X192195486Y-103480892D01*
X192074819Y-103251000D01*
X190881000Y-103251000D01*
X190627000Y-103251000D01*
X190607000Y-103251000D01*
X190607000Y-102997000D01*
X190627000Y-102997000D01*
X190627000Y-101803845D01*
X190881000Y-101803845D01*
X190881000Y-102997000D01*
X192074819Y-102997000D01*
X192195486Y-102767108D01*
X191949183Y-102242642D01*
X191520924Y-101852355D01*
X191160061Y-101702890D01*
X198456524Y-101702890D01*
X198626355Y-102112924D01*
X199016642Y-102541183D01*
X199541108Y-102787486D01*
X199771000Y-102666819D01*
X199771000Y-101473000D01*
X200025000Y-101473000D01*
X200025000Y-102666819D01*
X200254892Y-102787486D01*
X200779358Y-102541183D01*
X201169645Y-102112924D01*
X201339476Y-101702890D01*
X201218155Y-101473000D01*
X200025000Y-101473000D01*
X199771000Y-101473000D01*
X198577845Y-101473000D01*
X198456524Y-101702890D01*
X191160061Y-101702890D01*
X191110890Y-101682524D01*
X190881000Y-101803845D01*
X190627000Y-101803845D01*
X190397110Y-101682524D01*
X189987076Y-101852355D01*
X189558817Y-102242642D01*
X189497843Y-102372478D01*
X189284625Y-102053375D01*
X188793418Y-101725161D01*
X188360256Y-101639000D01*
X188067744Y-101639000D01*
X187634582Y-101725161D01*
X187143375Y-102053375D01*
X187131184Y-102071619D01*
X187122157Y-102026235D01*
X186981809Y-101816191D01*
X186771765Y-101675843D01*
X186524000Y-101626560D01*
X184824000Y-101626560D01*
X184576235Y-101675843D01*
X184366191Y-101816191D01*
X184225843Y-102026235D01*
X184176560Y-102274000D01*
X165737259Y-102274000D01*
X165737259Y-101592721D01*
X165879690Y-101450290D01*
X166037259Y-101069884D01*
X166037259Y-100658136D01*
X165879690Y-100277730D01*
X165588539Y-99986579D01*
X165208133Y-99829010D01*
X164796385Y-99829010D01*
X164415979Y-99986579D01*
X164124828Y-100277730D01*
X163967259Y-100658136D01*
X163967259Y-100951813D01*
X163657999Y-100642553D01*
X163657999Y-98827710D01*
X163751720Y-98921431D01*
X164132126Y-99079000D01*
X164543874Y-99079000D01*
X164924280Y-98921431D01*
X165215431Y-98630280D01*
X165373000Y-98249874D01*
X165373000Y-98175651D01*
X165493544Y-98225582D01*
X165905292Y-98225582D01*
X166285698Y-98068013D01*
X166576849Y-97776862D01*
X166734418Y-97396456D01*
X166734418Y-96984708D01*
X166576849Y-96604302D01*
X166389000Y-96416453D01*
X166389000Y-96305802D01*
X166430802Y-96264000D01*
X170555468Y-96264000D01*
X170630315Y-96278888D01*
X170705162Y-96264000D01*
X170705167Y-96264000D01*
X170926852Y-96219904D01*
X171178244Y-96051929D01*
X171220645Y-95988471D01*
X171271845Y-95937272D01*
X171498126Y-96031000D01*
X171731000Y-96031000D01*
X171731001Y-96949288D01*
X171588569Y-97091720D01*
X171431000Y-97472126D01*
X171431000Y-97883874D01*
X171588569Y-98264280D01*
X171879720Y-98555431D01*
X172260126Y-98713000D01*
X172671874Y-98713000D01*
X173052280Y-98555431D01*
X173343431Y-98264280D01*
X173501000Y-97883874D01*
X173501000Y-97472126D01*
X173343431Y-97091720D01*
X173201000Y-96949289D01*
X173201000Y-94992446D01*
X175705091Y-97496538D01*
X175746095Y-97557905D01*
X175989217Y-97720354D01*
X176203612Y-97763000D01*
X176276000Y-97777399D01*
X176348388Y-97763000D01*
X179865289Y-97763000D01*
X180007720Y-97905431D01*
X180388126Y-98063000D01*
X180799874Y-98063000D01*
X181180280Y-97905431D01*
X181471431Y-97614280D01*
X181629000Y-97233874D01*
X181629000Y-96822126D01*
X181471431Y-96441720D01*
X181295711Y-96266000D01*
X198383908Y-96266000D01*
X198499161Y-96845418D01*
X198827375Y-97336625D01*
X199125761Y-97536000D01*
X198827375Y-97735375D01*
X198499161Y-98226582D01*
X198383908Y-98806000D01*
X198499161Y-99385418D01*
X198827375Y-99876625D01*
X199146478Y-100089843D01*
X199016642Y-100150817D01*
X198626355Y-100579076D01*
X198456524Y-100989110D01*
X198577845Y-101219000D01*
X199771000Y-101219000D01*
X199771000Y-101199000D01*
X200025000Y-101199000D01*
X200025000Y-101219000D01*
X201218155Y-101219000D01*
X201339476Y-100989110D01*
X201169645Y-100579076D01*
X200779358Y-100150817D01*
X200649522Y-100089843D01*
X200968625Y-99876625D01*
X201296839Y-99385418D01*
X201412092Y-98806000D01*
X201296839Y-98226582D01*
X200968625Y-97735375D01*
X200670239Y-97536000D01*
X200968625Y-97336625D01*
X201296839Y-96845418D01*
X201412092Y-96266000D01*
X201296839Y-95686582D01*
X200968625Y-95195375D01*
X200950381Y-95183184D01*
X200995765Y-95174157D01*
X201205809Y-95033809D01*
X201346157Y-94823765D01*
X201395440Y-94576000D01*
X201395440Y-92876000D01*
X201346157Y-92628235D01*
X201205809Y-92418191D01*
X200995765Y-92277843D01*
X200748000Y-92228560D01*
X199048000Y-92228560D01*
X198800235Y-92277843D01*
X198590191Y-92418191D01*
X198449843Y-92628235D01*
X198400560Y-92876000D01*
X198400560Y-94576000D01*
X198449843Y-94823765D01*
X198590191Y-95033809D01*
X198800235Y-95174157D01*
X198845619Y-95183184D01*
X198827375Y-95195375D01*
X198499161Y-95686582D01*
X198383908Y-96266000D01*
X181295711Y-96266000D01*
X181180280Y-96150569D01*
X180799874Y-95993000D01*
X180388126Y-95993000D01*
X180007720Y-96150569D01*
X179865289Y-96293000D01*
X176580447Y-96293000D01*
X173501000Y-93213554D01*
X173501000Y-93012126D01*
X173480237Y-92962000D01*
X179382289Y-92962000D01*
X179499720Y-93079431D01*
X179880126Y-93237000D01*
X180291874Y-93237000D01*
X180672280Y-93079431D01*
X180963431Y-92788280D01*
X181121000Y-92407874D01*
X181121000Y-91996126D01*
X180963431Y-91615720D01*
X180917026Y-91569315D01*
X180919418Y-91568839D01*
X181410625Y-91240625D01*
X181738839Y-90749418D01*
X181854092Y-90170000D01*
X181844223Y-90120385D01*
X192161259Y-90120385D01*
X192161259Y-90532133D01*
X192318828Y-90912539D01*
X192461259Y-91054970D01*
X192461260Y-92285870D01*
X192446861Y-92358259D01*
X192503905Y-92645041D01*
X192602320Y-92792329D01*
X192666355Y-92888164D01*
X192727722Y-92929168D01*
X194193259Y-94394706D01*
X194193259Y-94596133D01*
X194350828Y-94976539D01*
X194641979Y-95267690D01*
X195022385Y-95425259D01*
X195434133Y-95425259D01*
X195814539Y-95267690D01*
X196105690Y-94976539D01*
X196263259Y-94596133D01*
X196263259Y-94184385D01*
X196105690Y-93803979D01*
X195814539Y-93512828D01*
X195434133Y-93355259D01*
X195232706Y-93355259D01*
X193931259Y-92053813D01*
X193931259Y-91054970D01*
X194073690Y-90912539D01*
X194231259Y-90532133D01*
X194231259Y-90120385D01*
X194073690Y-89739979D01*
X193782539Y-89448828D01*
X193402133Y-89291259D01*
X192990385Y-89291259D01*
X192609979Y-89448828D01*
X192318828Y-89739979D01*
X192161259Y-90120385D01*
X181844223Y-90120385D01*
X181738839Y-89590582D01*
X181410625Y-89099375D01*
X181392381Y-89087184D01*
X181437765Y-89078157D01*
X181647809Y-88937809D01*
X181788157Y-88727765D01*
X181837440Y-88480000D01*
X181837440Y-86780000D01*
X181788157Y-86532235D01*
X181647809Y-86322191D01*
X181437765Y-86181843D01*
X181190000Y-86132560D01*
X179490000Y-86132560D01*
X179242235Y-86181843D01*
X179032191Y-86322191D01*
X178891843Y-86532235D01*
X178842560Y-86780000D01*
X178842560Y-88480000D01*
X178891843Y-88727765D01*
X179032191Y-88937809D01*
X179242235Y-89078157D01*
X179287619Y-89087184D01*
X179269375Y-89099375D01*
X178941161Y-89590582D01*
X178825908Y-90170000D01*
X178941161Y-90749418D01*
X179269375Y-91240625D01*
X179457777Y-91366512D01*
X179382289Y-91442000D01*
X171256802Y-91442000D01*
X170707000Y-90892199D01*
X170707000Y-90726126D01*
X170549431Y-90345720D01*
X170258280Y-90054569D01*
X169877874Y-89897000D01*
X169466126Y-89897000D01*
X169085720Y-90054569D01*
X168927089Y-90213200D01*
X168415353Y-89701465D01*
X168374347Y-89640095D01*
X168131225Y-89477646D01*
X167916830Y-89435000D01*
X167916826Y-89435000D01*
X167844442Y-89420602D01*
X167772058Y-89435000D01*
X167098711Y-89435000D01*
X166956280Y-89292569D01*
X166575874Y-89135000D01*
X166164126Y-89135000D01*
X166079010Y-89170256D01*
X166079010Y-88694126D01*
X171525010Y-88694126D01*
X171525010Y-89105874D01*
X171682579Y-89486280D01*
X171973730Y-89777431D01*
X172354136Y-89935000D01*
X172765884Y-89935000D01*
X173146290Y-89777431D01*
X173437441Y-89486280D01*
X173565473Y-89177184D01*
X173657720Y-89269431D01*
X174038126Y-89427000D01*
X174449874Y-89427000D01*
X174830280Y-89269431D01*
X175121431Y-88978280D01*
X175279000Y-88597874D01*
X175279000Y-88186126D01*
X175121431Y-87805720D01*
X174830280Y-87514569D01*
X174449874Y-87357000D01*
X174038126Y-87357000D01*
X173657720Y-87514569D01*
X173540289Y-87632000D01*
X173142856Y-87632000D01*
X173068009Y-87617112D01*
X172993162Y-87632000D01*
X172993158Y-87632000D01*
X172771473Y-87676096D01*
X172771471Y-87676097D01*
X172771472Y-87676097D01*
X172583536Y-87801671D01*
X172583534Y-87801673D01*
X172520081Y-87844071D01*
X172506097Y-87865000D01*
X172354136Y-87865000D01*
X171973730Y-88022569D01*
X171682579Y-88313720D01*
X171525010Y-88694126D01*
X166079010Y-88694126D01*
X166079010Y-86624878D01*
X167231538Y-85472351D01*
X167247211Y-85461879D01*
X167544452Y-85585000D01*
X168075548Y-85585000D01*
X168566217Y-85381758D01*
X168810000Y-85137975D01*
X169053783Y-85381758D01*
X169544452Y-85585000D01*
X170075548Y-85585000D01*
X170566217Y-85381758D01*
X170810000Y-85137975D01*
X171053783Y-85381758D01*
X171544452Y-85585000D01*
X172075548Y-85585000D01*
X172566217Y-85381758D01*
X172941758Y-85006217D01*
X173145000Y-84515548D01*
X173145000Y-83984452D01*
X172941758Y-83493783D01*
X172566217Y-83118242D01*
X172075548Y-82915000D01*
X171544452Y-82915000D01*
X171053783Y-83118242D01*
X170810000Y-83362025D01*
X170566217Y-83118242D01*
X170075548Y-82915000D01*
X169544452Y-82915000D01*
X169053783Y-83118242D01*
X168810000Y-83362025D01*
X168566217Y-83118242D01*
X168075548Y-82915000D01*
X167544452Y-82915000D01*
X167498001Y-82934241D01*
X167498001Y-78893704D01*
X167512400Y-78821316D01*
X167469770Y-78607001D01*
X167455355Y-78534533D01*
X167292906Y-78291411D01*
X167231539Y-78250407D01*
X166392855Y-77411724D01*
X166351849Y-77350354D01*
X166108727Y-77187905D01*
X166007476Y-77167765D01*
X165843579Y-77003868D01*
X165974103Y-76873344D01*
X166223744Y-76923000D01*
X166516256Y-76923000D01*
X166949418Y-76836839D01*
X167440625Y-76508625D01*
X167768839Y-76017418D01*
X167884092Y-75438000D01*
X167804245Y-75036579D01*
X167912353Y-74874784D01*
X167954999Y-74660389D01*
X167954999Y-74660386D01*
X167969397Y-74588002D01*
X167954999Y-74515618D01*
X167954999Y-72692126D01*
X168383000Y-72692126D01*
X168383000Y-73103874D01*
X168540569Y-73484280D01*
X168831720Y-73775431D01*
X169212126Y-73933000D01*
X169378199Y-73933000D01*
X170161000Y-74715802D01*
X170161000Y-74881874D01*
X170318569Y-75262280D01*
X170609720Y-75553431D01*
X170990126Y-75711000D01*
X171401874Y-75711000D01*
X171782280Y-75553431D01*
X172073431Y-75262280D01*
X172231000Y-74881874D01*
X172231000Y-74470126D01*
X172073431Y-74089720D01*
X171782280Y-73798569D01*
X171401874Y-73641000D01*
X171235802Y-73641000D01*
X170453000Y-72858199D01*
X170453000Y-72692126D01*
X170295431Y-72311720D01*
X170004280Y-72020569D01*
X169623874Y-71863000D01*
X169212126Y-71863000D01*
X168831720Y-72020569D01*
X168540569Y-72311720D01*
X168383000Y-72692126D01*
X167954999Y-72692126D01*
X167954999Y-70767178D01*
X168255744Y-70827000D01*
X168548256Y-70827000D01*
X168981418Y-70740839D01*
X169472625Y-70412625D01*
X169685843Y-70093522D01*
X169746817Y-70223358D01*
X170175076Y-70613645D01*
X170585110Y-70783476D01*
X170815000Y-70662155D01*
X170815000Y-69469000D01*
X170795000Y-69469000D01*
X170795000Y-69215000D01*
X170815000Y-69215000D01*
X170815000Y-68021845D01*
X170585110Y-67900524D01*
X170175076Y-68070355D01*
X169746817Y-68460642D01*
X169685843Y-68590478D01*
X169472625Y-68271375D01*
X168981418Y-67943161D01*
X168548256Y-67857000D01*
X168255744Y-67857000D01*
X167954999Y-67916822D01*
X167954999Y-63519000D01*
X168143554Y-63519000D01*
X172701843Y-68077290D01*
X172411375Y-68271375D01*
X172198157Y-68590478D01*
X172137183Y-68460642D01*
X171708924Y-68070355D01*
X171298890Y-67900524D01*
X171069000Y-68021845D01*
X171069000Y-69215000D01*
X171089000Y-69215000D01*
X171089000Y-69469000D01*
X171069000Y-69469000D01*
X171069000Y-70662155D01*
X171298890Y-70783476D01*
X171708924Y-70613645D01*
X172137183Y-70223358D01*
X172198157Y-70093522D01*
X172411375Y-70412625D01*
X172902582Y-70740839D01*
X173335744Y-70827000D01*
X173628256Y-70827000D01*
X174061418Y-70740839D01*
X174552625Y-70412625D01*
X174880839Y-69921418D01*
X174948355Y-69581990D01*
X190960148Y-69581990D01*
X190960148Y-71281990D01*
X191009431Y-71529755D01*
X191149779Y-71739799D01*
X191359823Y-71880147D01*
X191607588Y-71929430D01*
X193307588Y-71929430D01*
X193555353Y-71880147D01*
X193765397Y-71739799D01*
X193905745Y-71529755D01*
X193914772Y-71484371D01*
X193926963Y-71502615D01*
X194418170Y-71830829D01*
X194851332Y-71916990D01*
X195143844Y-71916990D01*
X195577006Y-71830829D01*
X196068213Y-71502615D01*
X196281431Y-71183512D01*
X196342405Y-71313348D01*
X196770664Y-71703635D01*
X197180698Y-71873466D01*
X197410588Y-71752145D01*
X197410588Y-70558990D01*
X197664588Y-70558990D01*
X197664588Y-71752145D01*
X197894478Y-71873466D01*
X198304512Y-71703635D01*
X198732771Y-71313348D01*
X198979074Y-70788882D01*
X198858407Y-70558990D01*
X197664588Y-70558990D01*
X197410588Y-70558990D01*
X197390588Y-70558990D01*
X197390588Y-70304990D01*
X197410588Y-70304990D01*
X197410588Y-69111835D01*
X197664588Y-69111835D01*
X197664588Y-70304990D01*
X198858407Y-70304990D01*
X198979074Y-70075098D01*
X198732771Y-69550632D01*
X198304512Y-69160345D01*
X197894478Y-68990514D01*
X197664588Y-69111835D01*
X197410588Y-69111835D01*
X197180698Y-68990514D01*
X196770664Y-69160345D01*
X196342405Y-69550632D01*
X196281431Y-69680468D01*
X196068213Y-69361365D01*
X195577006Y-69033151D01*
X195143844Y-68946990D01*
X194851332Y-68946990D01*
X194418170Y-69033151D01*
X193926963Y-69361365D01*
X193914772Y-69379609D01*
X193905745Y-69334225D01*
X193765397Y-69124181D01*
X193555353Y-68983833D01*
X193307588Y-68934550D01*
X191607588Y-68934550D01*
X191359823Y-68983833D01*
X191149779Y-69124181D01*
X191009431Y-69334225D01*
X190960148Y-69581990D01*
X174948355Y-69581990D01*
X174996092Y-69342000D01*
X174906980Y-68894001D01*
X193642193Y-68894001D01*
X193714577Y-68908399D01*
X193786961Y-68894001D01*
X193786965Y-68894001D01*
X194001360Y-68851355D01*
X194244482Y-68688906D01*
X194285488Y-68627536D01*
X194601691Y-68311333D01*
X194851332Y-68360990D01*
X195143844Y-68360990D01*
X195577006Y-68274829D01*
X196068213Y-67946615D01*
X196281431Y-67627512D01*
X196342405Y-67757348D01*
X196770664Y-68147635D01*
X197180698Y-68317466D01*
X197410588Y-68196145D01*
X197410588Y-67002990D01*
X197664588Y-67002990D01*
X197664588Y-68196145D01*
X197894478Y-68317466D01*
X198304512Y-68147635D01*
X198732771Y-67757348D01*
X198979074Y-67232882D01*
X198858407Y-67002990D01*
X197664588Y-67002990D01*
X197410588Y-67002990D01*
X197390588Y-67002990D01*
X197390588Y-66748990D01*
X197410588Y-66748990D01*
X197410588Y-65555835D01*
X197664588Y-65555835D01*
X197664588Y-66748990D01*
X198858407Y-66748990D01*
X198979074Y-66519098D01*
X198732771Y-65994632D01*
X198304512Y-65604345D01*
X197894478Y-65434514D01*
X197664588Y-65555835D01*
X197410588Y-65555835D01*
X197180698Y-65434514D01*
X196770664Y-65604345D01*
X196342405Y-65994632D01*
X196281431Y-66124468D01*
X196068213Y-65805365D01*
X195577006Y-65477151D01*
X195143844Y-65390990D01*
X194851332Y-65390990D01*
X194418170Y-65477151D01*
X193926963Y-65805365D01*
X193914772Y-65823609D01*
X193905745Y-65778225D01*
X193765397Y-65568181D01*
X193555353Y-65427833D01*
X193307588Y-65378550D01*
X191607588Y-65378550D01*
X191359823Y-65427833D01*
X191149779Y-65568181D01*
X191009431Y-65778225D01*
X190960148Y-66025990D01*
X190960148Y-67424001D01*
X185901440Y-67424001D01*
X185901440Y-66206000D01*
X185852157Y-65958235D01*
X185764636Y-65827252D01*
X185975538Y-65616351D01*
X186036906Y-65575346D01*
X186199355Y-65332224D01*
X186242001Y-65117829D01*
X186242001Y-65117826D01*
X186256399Y-65045442D01*
X186242001Y-64973058D01*
X186242001Y-60611385D01*
X186256399Y-60539001D01*
X186242001Y-60466617D01*
X186242001Y-60466613D01*
X186199355Y-60252218D01*
X186036906Y-60009096D01*
X185975539Y-59968092D01*
X185839344Y-59831897D01*
X185918092Y-59436000D01*
X185802839Y-58856582D01*
X185474625Y-58365375D01*
X184983418Y-58037161D01*
X184550256Y-57951000D01*
X184257744Y-57951000D01*
X183824582Y-58037161D01*
X183333375Y-58365375D01*
X183005161Y-58856582D01*
X182889908Y-59436000D01*
X183005161Y-60015418D01*
X183333375Y-60506625D01*
X183631761Y-60706000D01*
X183333375Y-60905375D01*
X183142700Y-61190740D01*
X183153000Y-61165874D01*
X183153000Y-60754126D01*
X182995431Y-60373720D01*
X182704280Y-60082569D01*
X182323874Y-59925000D01*
X182122446Y-59925000D01*
X181845826Y-59648380D01*
X181725431Y-59357720D01*
X181434280Y-59066569D01*
X181053874Y-58909000D01*
X180642126Y-58909000D01*
X180261720Y-59066569D01*
X179970569Y-59357720D01*
X179813000Y-59738126D01*
X179813000Y-60149874D01*
X179970569Y-60530280D01*
X180261720Y-60821431D01*
X180642126Y-60979000D01*
X181053874Y-60979000D01*
X181083000Y-60966936D01*
X181083000Y-61165874D01*
X181240569Y-61546280D01*
X181531720Y-61837431D01*
X181912126Y-61995000D01*
X182323874Y-61995000D01*
X182704280Y-61837431D01*
X182970407Y-61571304D01*
X182889908Y-61976000D01*
X183005161Y-62555418D01*
X183333375Y-63046625D01*
X183631761Y-63246000D01*
X183333375Y-63445375D01*
X183109118Y-63781000D01*
X182930447Y-63781000D01*
X176757832Y-57608385D01*
X178445259Y-57608385D01*
X178445259Y-58020133D01*
X178602828Y-58400539D01*
X178893979Y-58691690D01*
X179274385Y-58849259D01*
X179686133Y-58849259D01*
X180066539Y-58691690D01*
X180357690Y-58400539D01*
X180515259Y-58020133D01*
X180515259Y-57818706D01*
X180546706Y-57787259D01*
X181291548Y-57787259D01*
X181433979Y-57929690D01*
X181814385Y-58087259D01*
X182226133Y-58087259D01*
X182606539Y-57929690D01*
X182897690Y-57638539D01*
X183055259Y-57258133D01*
X183055259Y-56846385D01*
X182897690Y-56465979D01*
X182606539Y-56174828D01*
X182226133Y-56017259D01*
X181814385Y-56017259D01*
X181433979Y-56174828D01*
X181291548Y-56317259D01*
X180314647Y-56317259D01*
X180242259Y-56302860D01*
X180169871Y-56317259D01*
X179955476Y-56359905D01*
X179712354Y-56522354D01*
X179671349Y-56583722D01*
X179475812Y-56779259D01*
X179274385Y-56779259D01*
X178893979Y-56936828D01*
X178602828Y-57227979D01*
X178445259Y-57608385D01*
X176757832Y-57608385D01*
X175709523Y-56560077D01*
X175846280Y-56503431D01*
X176137431Y-56212280D01*
X176295000Y-55831874D01*
X176295000Y-55420126D01*
X176138452Y-55042184D01*
X176276312Y-55042184D01*
X176348700Y-55056583D01*
X176421088Y-55042184D01*
X176422581Y-55041887D01*
X178682715Y-55032627D01*
X178785810Y-55281521D01*
X179076961Y-55572672D01*
X179457367Y-55730241D01*
X179869115Y-55730241D01*
X180249521Y-55572672D01*
X180540672Y-55281521D01*
X180698241Y-54901115D01*
X180698241Y-54489367D01*
X180540672Y-54108961D01*
X180249521Y-53817810D01*
X179869115Y-53660241D01*
X179635859Y-53660241D01*
X179550024Y-53602888D01*
X179548489Y-53602583D01*
X179547185Y-53601719D01*
X179405147Y-53574070D01*
X179263242Y-53545844D01*
X179189365Y-53560539D01*
X176466718Y-53571695D01*
X176336758Y-53545844D01*
X176204337Y-53572184D01*
X174775567Y-53572184D01*
X174703183Y-53557786D01*
X174630799Y-53572184D01*
X174630796Y-53572184D01*
X174416401Y-53614830D01*
X174407167Y-53621000D01*
X173194711Y-53621000D01*
X173052280Y-53478569D01*
X172671874Y-53321000D01*
X172365644Y-53321000D01*
X172347896Y-53278153D01*
X172056745Y-52987002D01*
X171676339Y-52829433D01*
X171264591Y-52829433D01*
X170884185Y-52987002D01*
X170593034Y-53278153D01*
X170435465Y-53658559D01*
X170435465Y-53775646D01*
X169820462Y-54390650D01*
X169759095Y-54431654D01*
X169718091Y-54493021D01*
X169718090Y-54493022D01*
X169642315Y-54606427D01*
X169431353Y-54395465D01*
X169390347Y-54334095D01*
X169147225Y-54171646D01*
X168932830Y-54129000D01*
X168932826Y-54129000D01*
X168860442Y-54114602D01*
X168788058Y-54129000D01*
X168622711Y-54129000D01*
X168480280Y-53986569D01*
X168099874Y-53829000D01*
X167688126Y-53829000D01*
X167307720Y-53986569D01*
X167089368Y-54204921D01*
X164888446Y-52004000D01*
X165208133Y-52004000D01*
X165588539Y-51846431D01*
X165879690Y-51555280D01*
X166009094Y-51242870D01*
X167073966Y-50177999D01*
X182963108Y-50177999D01*
X182889908Y-50546000D01*
X183005161Y-51125418D01*
X183333375Y-51616625D01*
X183351619Y-51628816D01*
X183306235Y-51637843D01*
X183096191Y-51778191D01*
X182955843Y-51988235D01*
X182906560Y-52236000D01*
X182906560Y-53936000D01*
X182955843Y-54183765D01*
X183096191Y-54393809D01*
X183306235Y-54534157D01*
X183554000Y-54583440D01*
X185254000Y-54583440D01*
X185501765Y-54534157D01*
X185711809Y-54393809D01*
X185852157Y-54183765D01*
X185901440Y-53936000D01*
X185901440Y-52236000D01*
X185852157Y-51988235D01*
X185711809Y-51778191D01*
X185501765Y-51637843D01*
X185456381Y-51628816D01*
X185474625Y-51616625D01*
X185802839Y-51125418D01*
X185892381Y-50675259D01*
X188907030Y-50675259D01*
X188860569Y-50721720D01*
X188703000Y-51102126D01*
X188703000Y-51513874D01*
X188860569Y-51894280D01*
X189003000Y-52036711D01*
X189003001Y-55553611D01*
X188988602Y-55626000D01*
X189045646Y-55912782D01*
X189151425Y-56071091D01*
X189208096Y-56155905D01*
X189269463Y-56196909D01*
X191096656Y-58024103D01*
X191017908Y-58420000D01*
X191133161Y-58999418D01*
X191461375Y-59490625D01*
X191952582Y-59818839D01*
X192385744Y-59905000D01*
X192678256Y-59905000D01*
X193111418Y-59818839D01*
X193602625Y-59490625D01*
X193802000Y-59192239D01*
X194001375Y-59490625D01*
X194492582Y-59818839D01*
X194925744Y-59905000D01*
X195218256Y-59905000D01*
X195651418Y-59818839D01*
X196142625Y-59490625D01*
X196154816Y-59472381D01*
X196163843Y-59517765D01*
X196304191Y-59727809D01*
X196514235Y-59868157D01*
X196762000Y-59917440D01*
X198462000Y-59917440D01*
X198709765Y-59868157D01*
X198919809Y-59727809D01*
X199060157Y-59517765D01*
X199109440Y-59270000D01*
X199109440Y-57570000D01*
X199060157Y-57322235D01*
X198919809Y-57112191D01*
X198709765Y-56971843D01*
X198462000Y-56922560D01*
X198347000Y-56922560D01*
X198347000Y-55493941D01*
X198361398Y-55421557D01*
X198347000Y-55349171D01*
X198347000Y-55349170D01*
X198304354Y-55134775D01*
X198141905Y-54891653D01*
X198080538Y-54850649D01*
X194132779Y-50902890D01*
X198710524Y-50902890D01*
X198880355Y-51312924D01*
X199270642Y-51741183D01*
X199795108Y-51987486D01*
X200025000Y-51866819D01*
X200025000Y-50673000D01*
X198831845Y-50673000D01*
X198710524Y-50902890D01*
X194132779Y-50902890D01*
X192037353Y-48807465D01*
X191996347Y-48746095D01*
X191753225Y-48583646D01*
X191538830Y-48541000D01*
X191538826Y-48541000D01*
X191466442Y-48526602D01*
X191394058Y-48541000D01*
X191126001Y-48541000D01*
X191126001Y-47461384D01*
X191140399Y-47389000D01*
X191126001Y-47316616D01*
X191126001Y-47316613D01*
X191083355Y-47102218D01*
X190920906Y-46859096D01*
X190859538Y-46818091D01*
X190242446Y-46201000D01*
X193983616Y-46201000D01*
X194001808Y-46204619D01*
X194104126Y-46247000D01*
X194228001Y-46247000D01*
X194228001Y-46300616D01*
X194213603Y-46373001D01*
X194228001Y-46445385D01*
X194228001Y-46445388D01*
X194270647Y-46659783D01*
X194433096Y-46902906D01*
X194494466Y-46943912D01*
X195564350Y-48013797D01*
X195605355Y-48075165D01*
X195848477Y-48237614D01*
X196062872Y-48280260D01*
X196135260Y-48294659D01*
X196207648Y-48280260D01*
X197501316Y-48280260D01*
X197573700Y-48294658D01*
X197646084Y-48280260D01*
X197646088Y-48280260D01*
X197860483Y-48237614D01*
X198103605Y-48075165D01*
X198144611Y-48013795D01*
X198744796Y-47413611D01*
X198775566Y-47393051D01*
X198753161Y-47426582D01*
X198637908Y-48006000D01*
X198753161Y-48585418D01*
X199081375Y-49076625D01*
X199400478Y-49289843D01*
X199270642Y-49350817D01*
X198880355Y-49779076D01*
X198710524Y-50189110D01*
X198831845Y-50419000D01*
X200025000Y-50419000D01*
X200025000Y-50399000D01*
X200279000Y-50399000D01*
X200279000Y-50419000D01*
X200299000Y-50419000D01*
X200299000Y-50673000D01*
X200279000Y-50673000D01*
X200279000Y-51866819D01*
X200508892Y-51987486D01*
X201033358Y-51741183D01*
X201423645Y-51312924D01*
X201474001Y-51191347D01*
X201474000Y-108256000D01*
X125170000Y-108256000D01*
X125170000Y-104902000D01*
X136661908Y-104902000D01*
X136777161Y-105481418D01*
X137105375Y-105972625D01*
X137596582Y-106300839D01*
X138029744Y-106387000D01*
X138322256Y-106387000D01*
X138755418Y-106300839D01*
X139246625Y-105972625D01*
X139574839Y-105481418D01*
X139690092Y-104902000D01*
X139574839Y-104322582D01*
X139246625Y-103831375D01*
X139228381Y-103819184D01*
X139273765Y-103810157D01*
X139483809Y-103669809D01*
X139624157Y-103459765D01*
X139673440Y-103212000D01*
X139673440Y-101512000D01*
X139624157Y-101264235D01*
X139483809Y-101054191D01*
X139273765Y-100913843D01*
X139026000Y-100864560D01*
X137326000Y-100864560D01*
X137078235Y-100913843D01*
X136868191Y-101054191D01*
X136727843Y-101264235D01*
X136678560Y-101512000D01*
X136678560Y-103212000D01*
X136727843Y-103459765D01*
X136868191Y-103669809D01*
X137078235Y-103810157D01*
X137123619Y-103819184D01*
X137105375Y-103831375D01*
X136777161Y-104322582D01*
X136661908Y-104902000D01*
X125170000Y-104902000D01*
X125170000Y-93472000D01*
X133613908Y-93472000D01*
X133729161Y-94051418D01*
X134057375Y-94542625D01*
X134075619Y-94554816D01*
X134030235Y-94563843D01*
X133820191Y-94704191D01*
X133679843Y-94914235D01*
X133630560Y-95162000D01*
X133630560Y-96862000D01*
X133679843Y-97109765D01*
X133820191Y-97319809D01*
X134030235Y-97460157D01*
X134278000Y-97509440D01*
X135978000Y-97509440D01*
X136225765Y-97460157D01*
X136435809Y-97319809D01*
X136576157Y-97109765D01*
X136625440Y-96862000D01*
X136625440Y-95162000D01*
X136576157Y-94914235D01*
X136435809Y-94704191D01*
X136225765Y-94563843D01*
X136180381Y-94554816D01*
X136198625Y-94542625D01*
X136526839Y-94051418D01*
X136642092Y-93472000D01*
X137169908Y-93472000D01*
X137285161Y-94051418D01*
X137613375Y-94542625D01*
X137631619Y-94554816D01*
X137586235Y-94563843D01*
X137376191Y-94704191D01*
X137235843Y-94914235D01*
X137186560Y-95162000D01*
X137186560Y-96862000D01*
X137235843Y-97109765D01*
X137376191Y-97319809D01*
X137586235Y-97460157D01*
X137834000Y-97509440D01*
X139534000Y-97509440D01*
X139781765Y-97460157D01*
X139991809Y-97319809D01*
X140007926Y-97295688D01*
X140100218Y-97357355D01*
X140314613Y-97400001D01*
X140314617Y-97400001D01*
X140387001Y-97414399D01*
X140459385Y-97400001D01*
X141819483Y-97400001D01*
X141741908Y-97790000D01*
X141857161Y-98369418D01*
X142185375Y-98860625D01*
X142483761Y-99060000D01*
X142185375Y-99259375D01*
X141857161Y-99750582D01*
X141741908Y-100330000D01*
X141857161Y-100909418D01*
X142185375Y-101400625D01*
X142483761Y-101600000D01*
X142185375Y-101799375D01*
X141857161Y-102290582D01*
X141741908Y-102870000D01*
X141857161Y-103449418D01*
X142185375Y-103940625D01*
X142203619Y-103952816D01*
X142158235Y-103961843D01*
X141948191Y-104102191D01*
X141807843Y-104312235D01*
X141758560Y-104560000D01*
X141758560Y-106260000D01*
X141807843Y-106507765D01*
X141948191Y-106717809D01*
X142158235Y-106858157D01*
X142406000Y-106907440D01*
X144106000Y-106907440D01*
X144353765Y-106858157D01*
X144563809Y-106717809D01*
X144704157Y-106507765D01*
X144753440Y-106260000D01*
X144753440Y-104560000D01*
X144704157Y-104312235D01*
X144563809Y-104102191D01*
X144353765Y-103961843D01*
X144308381Y-103952816D01*
X144326625Y-103940625D01*
X144654839Y-103449418D01*
X144760519Y-102918126D01*
X148571000Y-102918126D01*
X148571000Y-103329874D01*
X148728569Y-103710280D01*
X149019720Y-104001431D01*
X149400126Y-104159000D01*
X149811874Y-104159000D01*
X150192280Y-104001431D01*
X150425397Y-103768314D01*
X150506569Y-103964280D01*
X150797720Y-104255431D01*
X151154341Y-104403148D01*
X151132000Y-104515464D01*
X151132000Y-104515468D01*
X151117112Y-104590315D01*
X151132000Y-104665162D01*
X151132000Y-105214289D01*
X151014569Y-105331720D01*
X150857000Y-105712126D01*
X150857000Y-106123874D01*
X151014569Y-106504280D01*
X151305720Y-106795431D01*
X151686126Y-106953000D01*
X152097874Y-106953000D01*
X152475000Y-106796790D01*
X152475000Y-107076309D01*
X152571673Y-107309698D01*
X152750301Y-107488327D01*
X152983690Y-107585000D01*
X153524250Y-107585000D01*
X153683000Y-107426250D01*
X153683000Y-106377000D01*
X153663000Y-106377000D01*
X153663000Y-106123000D01*
X153683000Y-106123000D01*
X153683000Y-106103000D01*
X153937000Y-106103000D01*
X153937000Y-106123000D01*
X153957000Y-106123000D01*
X153957000Y-106377000D01*
X153937000Y-106377000D01*
X153937000Y-107426250D01*
X154095750Y-107585000D01*
X154636310Y-107585000D01*
X154869699Y-107488327D01*
X155015025Y-107343000D01*
X155053783Y-107381758D01*
X155544452Y-107585000D01*
X156075548Y-107585000D01*
X156566217Y-107381758D01*
X156810000Y-107137975D01*
X157053783Y-107381758D01*
X157544452Y-107585000D01*
X158075548Y-107585000D01*
X158566217Y-107381758D01*
X158810000Y-107137975D01*
X159053783Y-107381758D01*
X159544452Y-107585000D01*
X160075548Y-107585000D01*
X160566217Y-107381758D01*
X160810000Y-107137975D01*
X161053783Y-107381758D01*
X161544452Y-107585000D01*
X162075548Y-107585000D01*
X162566217Y-107381758D01*
X162810000Y-107137975D01*
X163053783Y-107381758D01*
X163544452Y-107585000D01*
X164075548Y-107585000D01*
X164566217Y-107381758D01*
X164810000Y-107137975D01*
X165053783Y-107381758D01*
X165544452Y-107585000D01*
X166075548Y-107585000D01*
X166566217Y-107381758D01*
X166810000Y-107137975D01*
X167053783Y-107381758D01*
X167544452Y-107585000D01*
X168075548Y-107585000D01*
X168566217Y-107381758D01*
X168810000Y-107137975D01*
X169053783Y-107381758D01*
X169544452Y-107585000D01*
X170075548Y-107585000D01*
X170566217Y-107381758D01*
X170810000Y-107137975D01*
X171053783Y-107381758D01*
X171544452Y-107585000D01*
X172075548Y-107585000D01*
X172566217Y-107381758D01*
X172941758Y-107006217D01*
X173145000Y-106515548D01*
X173145000Y-105984452D01*
X172941758Y-105493783D01*
X172566217Y-105118242D01*
X172075548Y-104915000D01*
X171544452Y-104915000D01*
X171053783Y-105118242D01*
X170810000Y-105362025D01*
X170566217Y-105118242D01*
X170075548Y-104915000D01*
X169544452Y-104915000D01*
X169053783Y-105118242D01*
X168810000Y-105362025D01*
X168566217Y-105118242D01*
X168075548Y-104915000D01*
X167544452Y-104915000D01*
X167053783Y-105118242D01*
X166810000Y-105362025D01*
X166566217Y-105118242D01*
X166075548Y-104915000D01*
X165544452Y-104915000D01*
X165053783Y-105118242D01*
X164810000Y-105362025D01*
X164566217Y-105118242D01*
X164075548Y-104915000D01*
X163544452Y-104915000D01*
X163053783Y-105118242D01*
X162810000Y-105362025D01*
X162566217Y-105118242D01*
X162075548Y-104915000D01*
X161549803Y-104915000D01*
X160411141Y-103776339D01*
X161240628Y-103776339D01*
X161465720Y-104001431D01*
X161846126Y-104159000D01*
X162257874Y-104159000D01*
X162638280Y-104001431D01*
X162929431Y-103710280D01*
X163087000Y-103329874D01*
X163087000Y-102918126D01*
X162929431Y-102537720D01*
X162638280Y-102246569D01*
X162257874Y-102089000D01*
X161846126Y-102089000D01*
X161465720Y-102246569D01*
X161455950Y-102256339D01*
X155975000Y-102256339D01*
X155975000Y-101902126D01*
X155817431Y-101521720D01*
X155526280Y-101230569D01*
X155145874Y-101073000D01*
X154734126Y-101073000D01*
X154451000Y-101190274D01*
X154451000Y-101140126D01*
X154293431Y-100759720D01*
X154002280Y-100468569D01*
X153689000Y-100338804D01*
X153689000Y-100124126D01*
X153531431Y-99743720D01*
X153240280Y-99452569D01*
X152859874Y-99295000D01*
X152448126Y-99295000D01*
X152067720Y-99452569D01*
X151776569Y-99743720D01*
X151681174Y-99974024D01*
X149566199Y-102089000D01*
X149400126Y-102089000D01*
X149019720Y-102246569D01*
X148728569Y-102537720D01*
X148571000Y-102918126D01*
X144760519Y-102918126D01*
X144770092Y-102870000D01*
X144654839Y-102290582D01*
X144326625Y-101799375D01*
X144028239Y-101600000D01*
X144326625Y-101400625D01*
X144654839Y-100909418D01*
X144770092Y-100330000D01*
X144654839Y-99750582D01*
X144326625Y-99259375D01*
X144028239Y-99060000D01*
X144326625Y-98860625D01*
X144654839Y-98369418D01*
X144770092Y-97790000D01*
X144692517Y-97400001D01*
X152587555Y-97400001D01*
X154938919Y-99751366D01*
X154938919Y-99952793D01*
X155096488Y-100333199D01*
X155387639Y-100624350D01*
X155768045Y-100781919D01*
X156179793Y-100781919D01*
X156560199Y-100624350D01*
X156851350Y-100333199D01*
X157008919Y-99952793D01*
X157008919Y-99541045D01*
X156851350Y-99160639D01*
X156560199Y-98869488D01*
X156179793Y-98711919D01*
X155978366Y-98711919D01*
X153462912Y-96196466D01*
X153421906Y-96135096D01*
X153178784Y-95972647D01*
X152964389Y-95930001D01*
X152964385Y-95930001D01*
X152892001Y-95915603D01*
X152819617Y-95930001D01*
X144291000Y-95930001D01*
X144291000Y-95806126D01*
X144203812Y-95595634D01*
X145292447Y-94507000D01*
X145493874Y-94507000D01*
X145874280Y-94349431D01*
X146165431Y-94058280D01*
X146323000Y-93677874D01*
X146323000Y-93676385D01*
X154823259Y-93676385D01*
X154823259Y-94088133D01*
X154980828Y-94468539D01*
X155123260Y-94610971D01*
X155123259Y-95439548D01*
X154980828Y-95581979D01*
X154823259Y-95962385D01*
X154823259Y-96374133D01*
X154980828Y-96754539D01*
X155271979Y-97045690D01*
X155652385Y-97203259D01*
X156064133Y-97203259D01*
X156444539Y-97045690D01*
X156735690Y-96754539D01*
X156893259Y-96374133D01*
X156893259Y-95962385D01*
X156735690Y-95581979D01*
X156593259Y-95439548D01*
X156593259Y-94610970D01*
X156735690Y-94468539D01*
X156893259Y-94088133D01*
X156893259Y-93676385D01*
X156735690Y-93295979D01*
X156444539Y-93004828D01*
X156064133Y-92847259D01*
X155652385Y-92847259D01*
X155271979Y-93004828D01*
X154980828Y-93295979D01*
X154823259Y-93676385D01*
X146323000Y-93676385D01*
X146323000Y-93266126D01*
X146165431Y-92885720D01*
X145874280Y-92594569D01*
X145493874Y-92437000D01*
X145082126Y-92437000D01*
X144701720Y-92594569D01*
X144410569Y-92885720D01*
X144253000Y-93266126D01*
X144253000Y-93467553D01*
X142787465Y-94933089D01*
X142726095Y-94974095D01*
X142563646Y-95217218D01*
X142557829Y-95246460D01*
X142378569Y-95425720D01*
X142221000Y-95806126D01*
X142221000Y-95930001D01*
X140691448Y-95930001D01*
X140304911Y-95543465D01*
X140263905Y-95482095D01*
X140181440Y-95426994D01*
X140181440Y-95162000D01*
X140132157Y-94914235D01*
X139991809Y-94704191D01*
X139781765Y-94563843D01*
X139736381Y-94554816D01*
X139754625Y-94542625D01*
X140082839Y-94051418D01*
X140198092Y-93472000D01*
X140082839Y-92892582D01*
X139754625Y-92401375D01*
X139263418Y-92073161D01*
X138830256Y-91987000D01*
X138537744Y-91987000D01*
X138104582Y-92073161D01*
X137613375Y-92401375D01*
X137285161Y-92892582D01*
X137169908Y-93472000D01*
X136642092Y-93472000D01*
X136526839Y-92892582D01*
X136198625Y-92401375D01*
X135707418Y-92073161D01*
X135274256Y-91987000D01*
X134981744Y-91987000D01*
X134548582Y-92073161D01*
X134057375Y-92401375D01*
X133729161Y-92892582D01*
X133613908Y-93472000D01*
X125170000Y-93472000D01*
X125170000Y-90882385D01*
X154569259Y-90882385D01*
X154569259Y-91294133D01*
X154726828Y-91674539D01*
X155017979Y-91965690D01*
X155398385Y-92123259D01*
X155810133Y-92123259D01*
X156190539Y-91965690D01*
X156332970Y-91823259D01*
X157309875Y-91823259D01*
X157382259Y-91837657D01*
X157454643Y-91823259D01*
X157454647Y-91823259D01*
X157669042Y-91780613D01*
X157912164Y-91618164D01*
X157953170Y-91556794D01*
X158402705Y-91107259D01*
X158604133Y-91107259D01*
X158984539Y-90949690D01*
X159275690Y-90658539D01*
X159433259Y-90278133D01*
X159433259Y-89866385D01*
X159275690Y-89485979D01*
X158984539Y-89194828D01*
X158604133Y-89037259D01*
X158192385Y-89037259D01*
X157811979Y-89194828D01*
X157520828Y-89485979D01*
X157363259Y-89866385D01*
X157363259Y-90067813D01*
X157077813Y-90353259D01*
X156332970Y-90353259D01*
X156190539Y-90210828D01*
X155810133Y-90053259D01*
X155398385Y-90053259D01*
X155017979Y-90210828D01*
X154726828Y-90501979D01*
X154569259Y-90882385D01*
X125170000Y-90882385D01*
X125170000Y-78436385D01*
X145861000Y-78436385D01*
X145861000Y-78848133D01*
X146018569Y-79228539D01*
X146309720Y-79519690D01*
X146690126Y-79677259D01*
X147101874Y-79677259D01*
X147482280Y-79519690D01*
X147773431Y-79228539D01*
X147877514Y-78977260D01*
X151047356Y-78977260D01*
X151119740Y-78991658D01*
X151192124Y-78977260D01*
X151192128Y-78977260D01*
X151406523Y-78934614D01*
X151649645Y-78772165D01*
X151690651Y-78710795D01*
X152258103Y-78143344D01*
X152507744Y-78193000D01*
X152800256Y-78193000D01*
X153233418Y-78106839D01*
X153724625Y-77778625D01*
X154052839Y-77287418D01*
X154168092Y-76708000D01*
X154052839Y-76128582D01*
X153724625Y-75637375D01*
X153233418Y-75309161D01*
X152800256Y-75223000D01*
X152507744Y-75223000D01*
X152074582Y-75309161D01*
X151583375Y-75637375D01*
X151384000Y-75935761D01*
X151184625Y-75637375D01*
X150693418Y-75309161D01*
X150260256Y-75223000D01*
X149967744Y-75223000D01*
X149534582Y-75309161D01*
X149043375Y-75637375D01*
X149031184Y-75655619D01*
X149022157Y-75610235D01*
X148881809Y-75400191D01*
X148671765Y-75259843D01*
X148424000Y-75210560D01*
X146724000Y-75210560D01*
X146476235Y-75259843D01*
X146266191Y-75400191D01*
X146125843Y-75610235D01*
X146076560Y-75858000D01*
X146076560Y-77558000D01*
X146125843Y-77805765D01*
X146183097Y-77891451D01*
X146018569Y-78055979D01*
X145861000Y-78436385D01*
X125170000Y-78436385D01*
X125170000Y-71409213D01*
X125214376Y-71475626D01*
X125705583Y-71803840D01*
X126138745Y-71890001D01*
X126431257Y-71890001D01*
X126864419Y-71803840D01*
X127355626Y-71475626D01*
X127555001Y-71177240D01*
X127754376Y-71475626D01*
X128245583Y-71803840D01*
X128678745Y-71890001D01*
X128971257Y-71890001D01*
X129404419Y-71803840D01*
X129895626Y-71475626D01*
X130223840Y-70984419D01*
X130339093Y-70405001D01*
X130223840Y-69825583D01*
X129895626Y-69334376D01*
X129597240Y-69135001D01*
X129895626Y-68935626D01*
X130223840Y-68444419D01*
X130339093Y-67865001D01*
X130223840Y-67285583D01*
X129895626Y-66794376D01*
X129597240Y-66595001D01*
X129895626Y-66395626D01*
X130223840Y-65904419D01*
X130339093Y-65325001D01*
X130223840Y-64745583D01*
X129895626Y-64254376D01*
X129597240Y-64055001D01*
X129895626Y-63855626D01*
X130223840Y-63364419D01*
X130339093Y-62785001D01*
X130223840Y-62205583D01*
X129895626Y-61714376D01*
X129597240Y-61515001D01*
X129895626Y-61315626D01*
X130223840Y-60824419D01*
X130339093Y-60245001D01*
X130223840Y-59665583D01*
X129895626Y-59174376D01*
X129597240Y-58975001D01*
X129895626Y-58775626D01*
X130223840Y-58284419D01*
X130339093Y-57705001D01*
X130223840Y-57125583D01*
X129895626Y-56634376D01*
X129597240Y-56435001D01*
X129895626Y-56235626D01*
X130223840Y-55744419D01*
X130339093Y-55165001D01*
X130223840Y-54585583D01*
X129895626Y-54094376D01*
X129597240Y-53895001D01*
X129895626Y-53695626D01*
X130223840Y-53204419D01*
X130339093Y-52625001D01*
X130223840Y-52045583D01*
X129895626Y-51554376D01*
X129597240Y-51355001D01*
X129895626Y-51155626D01*
X130223840Y-50664419D01*
X130339093Y-50085001D01*
X130223840Y-49505583D01*
X129895626Y-49014376D01*
X129597240Y-48815001D01*
X129895626Y-48615626D01*
X130223840Y-48124419D01*
X130339093Y-47545001D01*
X130223840Y-46965583D01*
X129895626Y-46474376D01*
X129597240Y-46275001D01*
X129895626Y-46075626D01*
X130223840Y-45584419D01*
X130339093Y-45005001D01*
X130223840Y-44425583D01*
X129895626Y-43934376D01*
X129597240Y-43735001D01*
X129895626Y-43535626D01*
X130223840Y-43044419D01*
X130339093Y-42465001D01*
X130223840Y-41885583D01*
X129895626Y-41394376D01*
X129597240Y-41195001D01*
X129895626Y-40995626D01*
X130223840Y-40504419D01*
X130339093Y-39925001D01*
X130223840Y-39345583D01*
X129895626Y-38854376D01*
X129597240Y-38655001D01*
X129895626Y-38455626D01*
X130223840Y-37964419D01*
X130339093Y-37385001D01*
X130223840Y-36805583D01*
X129895626Y-36314376D01*
X129597240Y-36115001D01*
X129895626Y-35915626D01*
X130223840Y-35424419D01*
X130339093Y-34845001D01*
X130223840Y-34265583D01*
X129895626Y-33774376D01*
X129829213Y-33730000D01*
X131048361Y-33730000D01*
X131036844Y-33747236D01*
X131036844Y-33747236D01*
G37*
X131036844Y-33747236D02*
X130987561Y-33995001D01*
X130987561Y-35695001D01*
X131036844Y-35942766D01*
X131177192Y-36152810D01*
X131387236Y-36293158D01*
X131432620Y-36302185D01*
X131414376Y-36314376D01*
X131086162Y-36805583D01*
X130970909Y-37385001D01*
X131086162Y-37964419D01*
X131414376Y-38455626D01*
X131712762Y-38655001D01*
X131414376Y-38854376D01*
X131086162Y-39345583D01*
X130970909Y-39925001D01*
X131086162Y-40504419D01*
X131414376Y-40995626D01*
X131712762Y-41195001D01*
X131414376Y-41394376D01*
X131086162Y-41885583D01*
X130970909Y-42465001D01*
X131086162Y-43044419D01*
X131414376Y-43535626D01*
X131712762Y-43735001D01*
X131414376Y-43934376D01*
X131086162Y-44425583D01*
X130970909Y-45005001D01*
X131086162Y-45584419D01*
X131414376Y-46075626D01*
X131712762Y-46275001D01*
X131414376Y-46474376D01*
X131086162Y-46965583D01*
X130970909Y-47545001D01*
X131086162Y-48124419D01*
X131414376Y-48615626D01*
X131712762Y-48815001D01*
X131414376Y-49014376D01*
X131086162Y-49505583D01*
X130970909Y-50085001D01*
X131086162Y-50664419D01*
X131414376Y-51155626D01*
X131712762Y-51355001D01*
X131414376Y-51554376D01*
X131086162Y-52045583D01*
X130970909Y-52625001D01*
X131086162Y-53204419D01*
X131414376Y-53695626D01*
X131712762Y-53895001D01*
X131414376Y-54094376D01*
X131086162Y-54585583D01*
X130970909Y-55165001D01*
X131086162Y-55744419D01*
X131414376Y-56235626D01*
X131712762Y-56435001D01*
X131414376Y-56634376D01*
X131086162Y-57125583D01*
X130970909Y-57705001D01*
X131086162Y-58284419D01*
X131414376Y-58775626D01*
X131712762Y-58975001D01*
X131414376Y-59174376D01*
X131086162Y-59665583D01*
X130970909Y-60245001D01*
X131086162Y-60824419D01*
X131414376Y-61315626D01*
X131712762Y-61515001D01*
X131414376Y-61714376D01*
X131086162Y-62205583D01*
X130970909Y-62785001D01*
X131086162Y-63364419D01*
X131414376Y-63855626D01*
X131712762Y-64055001D01*
X131414376Y-64254376D01*
X131086162Y-64745583D01*
X130970909Y-65325001D01*
X131086162Y-65904419D01*
X131414376Y-66395626D01*
X131712762Y-66595001D01*
X131414376Y-66794376D01*
X131086162Y-67285583D01*
X130970909Y-67865001D01*
X131086162Y-68444419D01*
X131414376Y-68935626D01*
X131712762Y-69135001D01*
X131414376Y-69334376D01*
X131086162Y-69825583D01*
X130970909Y-70405001D01*
X131086162Y-70984419D01*
X131414376Y-71475626D01*
X131905583Y-71803840D01*
X132338745Y-71890001D01*
X132631257Y-71890001D01*
X133064419Y-71803840D01*
X133555626Y-71475626D01*
X133755001Y-71177240D01*
X133954376Y-71475626D01*
X134445583Y-71803840D01*
X134878745Y-71890001D01*
X135171257Y-71890001D01*
X135604419Y-71803840D01*
X136095626Y-71475626D01*
X136423840Y-70984419D01*
X136539093Y-70405001D01*
X136423840Y-69825583D01*
X136095626Y-69334376D01*
X135797240Y-69135001D01*
X136095626Y-68935626D01*
X136423840Y-68444419D01*
X136539093Y-67865001D01*
X136423840Y-67285583D01*
X136270438Y-67056000D01*
X144535908Y-67056000D01*
X144651161Y-67635418D01*
X144979375Y-68126625D01*
X144997619Y-68138816D01*
X144952235Y-68147843D01*
X144742191Y-68288191D01*
X144601843Y-68498235D01*
X144552560Y-68746000D01*
X144552560Y-70446000D01*
X144601843Y-70693765D01*
X144742191Y-70903809D01*
X144952235Y-71044157D01*
X145200000Y-71093440D01*
X146900000Y-71093440D01*
X147147765Y-71044157D01*
X147357809Y-70903809D01*
X147498157Y-70693765D01*
X147547440Y-70446000D01*
X147547440Y-68746000D01*
X147498157Y-68498235D01*
X147357809Y-68288191D01*
X147147765Y-68147843D01*
X147102381Y-68138816D01*
X147120625Y-68126625D01*
X147448839Y-67635418D01*
X147564092Y-67056000D01*
X147448839Y-66476582D01*
X147120625Y-65985375D01*
X146629418Y-65657161D01*
X146196256Y-65571000D01*
X145903744Y-65571000D01*
X145470582Y-65657161D01*
X144979375Y-65985375D01*
X144651161Y-66476582D01*
X144535908Y-67056000D01*
X136270438Y-67056000D01*
X136095626Y-66794376D01*
X135797240Y-66595001D01*
X136095626Y-66395626D01*
X136423840Y-65904419D01*
X136539093Y-65325001D01*
X136423840Y-64745583D01*
X136095626Y-64254376D01*
X135797240Y-64055001D01*
X136095626Y-63855626D01*
X136423840Y-63364419D01*
X136539093Y-62785001D01*
X136423840Y-62205583D01*
X136095626Y-61714376D01*
X135797240Y-61515001D01*
X136095626Y-61315626D01*
X136423840Y-60824419D01*
X136539093Y-60245001D01*
X136423840Y-59665583D01*
X136095626Y-59174376D01*
X135797240Y-58975001D01*
X136095626Y-58775626D01*
X136423840Y-58284419D01*
X136539093Y-57705001D01*
X136423840Y-57125583D01*
X136095626Y-56634376D01*
X135797240Y-56435001D01*
X136095626Y-56235626D01*
X136423840Y-55744419D01*
X136539093Y-55165001D01*
X136423840Y-54585583D01*
X136100721Y-54102000D01*
X141233908Y-54102000D01*
X141349161Y-54681418D01*
X141677375Y-55172625D01*
X141695619Y-55184816D01*
X141650235Y-55193843D01*
X141440191Y-55334191D01*
X141299843Y-55544235D01*
X141250560Y-55792000D01*
X141250560Y-57492000D01*
X141299843Y-57739765D01*
X141440191Y-57949809D01*
X141650235Y-58090157D01*
X141898000Y-58139440D01*
X143598000Y-58139440D01*
X143845765Y-58090157D01*
X144055809Y-57949809D01*
X144196157Y-57739765D01*
X144245440Y-57492000D01*
X144245440Y-55792000D01*
X144196157Y-55544235D01*
X144055809Y-55334191D01*
X143845765Y-55193843D01*
X143800381Y-55184816D01*
X143818625Y-55172625D01*
X144146839Y-54681418D01*
X144262092Y-54102000D01*
X144146839Y-53522582D01*
X143818625Y-53031375D01*
X143327418Y-52703161D01*
X142894256Y-52617000D01*
X142601744Y-52617000D01*
X142168582Y-52703161D01*
X141677375Y-53031375D01*
X141349161Y-53522582D01*
X141233908Y-54102000D01*
X136100721Y-54102000D01*
X136095626Y-54094376D01*
X135797240Y-53895001D01*
X136095626Y-53695626D01*
X136423840Y-53204419D01*
X136539093Y-52625001D01*
X136423840Y-52045583D01*
X136095626Y-51554376D01*
X135797240Y-51355001D01*
X136095626Y-51155626D01*
X136423840Y-50664419D01*
X136539093Y-50085001D01*
X136423840Y-49505583D01*
X136095626Y-49014376D01*
X135797240Y-48815001D01*
X136095626Y-48615626D01*
X136423840Y-48124419D01*
X136539093Y-47545001D01*
X136423840Y-46965583D01*
X136095626Y-46474376D01*
X135797240Y-46275001D01*
X136095626Y-46075626D01*
X136423840Y-45584419D01*
X136539093Y-45005001D01*
X136423840Y-44425583D01*
X136095626Y-43934376D01*
X135797240Y-43735001D01*
X136095626Y-43535626D01*
X136423840Y-43044419D01*
X136539093Y-42465001D01*
X136423840Y-41885583D01*
X136095626Y-41394376D01*
X135797240Y-41195001D01*
X136095626Y-40995626D01*
X136423840Y-40504419D01*
X136507787Y-40082385D01*
X140091259Y-40082385D01*
X140091259Y-40494133D01*
X140248828Y-40874539D01*
X140539979Y-41165690D01*
X140920385Y-41323259D01*
X141332133Y-41323259D01*
X141712539Y-41165690D01*
X142003690Y-40874539D01*
X142161259Y-40494133D01*
X142161259Y-40312105D01*
X142164164Y-40310164D01*
X142326613Y-40067042D01*
X142369259Y-39852647D01*
X142369259Y-39852644D01*
X142383657Y-39780260D01*
X142369259Y-39707876D01*
X142369259Y-39238970D01*
X142511690Y-39096539D01*
X142669259Y-38716133D01*
X142669259Y-38304385D01*
X142511690Y-37923979D01*
X142220539Y-37632828D01*
X141840133Y-37475259D01*
X141428385Y-37475259D01*
X141047979Y-37632828D01*
X140756828Y-37923979D01*
X140599259Y-38304385D01*
X140599259Y-38716133D01*
X140756828Y-39096539D01*
X140899260Y-39238971D01*
X140899260Y-39262009D01*
X140539979Y-39410828D01*
X140248828Y-39701979D01*
X140091259Y-40082385D01*
X136507787Y-40082385D01*
X136539093Y-39925001D01*
X136423840Y-39345583D01*
X136095626Y-38854376D01*
X135797240Y-38655001D01*
X136095626Y-38455626D01*
X136423840Y-37964419D01*
X136539093Y-37385001D01*
X136423840Y-36805583D01*
X136302595Y-36624126D01*
X142983000Y-36624126D01*
X142983000Y-37035874D01*
X143140569Y-37416280D01*
X143283001Y-37558712D01*
X143283000Y-38387289D01*
X143140569Y-38529720D01*
X142983000Y-38910126D01*
X142983000Y-39321874D01*
X143140569Y-39702280D01*
X143431720Y-39993431D01*
X143812126Y-40151000D01*
X144223874Y-40151000D01*
X144604280Y-39993431D01*
X144895431Y-39702280D01*
X145053000Y-39321874D01*
X145053000Y-38910126D01*
X144895431Y-38529720D01*
X144753000Y-38387289D01*
X144753000Y-37558711D01*
X144895431Y-37416280D01*
X145053000Y-37035874D01*
X145053000Y-36736126D01*
X145269000Y-36736126D01*
X145269000Y-37147874D01*
X145426569Y-37528280D01*
X145717720Y-37819431D01*
X146098126Y-37977000D01*
X146299554Y-37977000D01*
X155983001Y-47660448D01*
X155983000Y-49817289D01*
X155840569Y-49959720D01*
X155683000Y-50340126D01*
X155683000Y-50751874D01*
X155840569Y-51132280D01*
X155974421Y-51266132D01*
X151887554Y-55353000D01*
X151777986Y-55353000D01*
X151753431Y-55293720D01*
X151462280Y-55002569D01*
X151081874Y-54845000D01*
X150670126Y-54845000D01*
X150289720Y-55002569D01*
X150147289Y-55145000D01*
X149064711Y-55145000D01*
X148922280Y-55002569D01*
X148541874Y-54845000D01*
X148130126Y-54845000D01*
X147749720Y-55002569D01*
X147458569Y-55293720D01*
X147301000Y-55674126D01*
X147301000Y-56085874D01*
X147458569Y-56466280D01*
X147749720Y-56757431D01*
X148130126Y-56915000D01*
X148541874Y-56915000D01*
X148922280Y-56757431D01*
X149064711Y-56615000D01*
X150147289Y-56615000D01*
X150289720Y-56757431D01*
X150670126Y-56915000D01*
X150990014Y-56915000D01*
X151014569Y-56974280D01*
X151305720Y-57265431D01*
X151686126Y-57423000D01*
X152097874Y-57423000D01*
X152478280Y-57265431D01*
X152769431Y-56974280D01*
X152927000Y-56593874D01*
X152927000Y-56392446D01*
X159726538Y-49592909D01*
X159787905Y-49551905D01*
X159950354Y-49308783D01*
X159993000Y-49094388D01*
X159993000Y-49094385D01*
X160007398Y-49022001D01*
X159993000Y-48949617D01*
X159993000Y-48480711D01*
X160135431Y-48338280D01*
X160293000Y-47957874D01*
X160293000Y-47546126D01*
X160135431Y-47165720D01*
X159844280Y-46874569D01*
X159463874Y-46717000D01*
X159052126Y-46717000D01*
X158671720Y-46874569D01*
X158380569Y-47165720D01*
X158223000Y-47546126D01*
X158223000Y-47957874D01*
X158380569Y-48338280D01*
X158523001Y-48480712D01*
X158523001Y-48717552D01*
X157453000Y-49787553D01*
X157453000Y-47428383D01*
X157467398Y-47355999D01*
X157453000Y-47283615D01*
X157453000Y-47283612D01*
X157410354Y-47069217D01*
X157247905Y-46826095D01*
X157186538Y-46785091D01*
X147339000Y-36937554D01*
X147339000Y-36736126D01*
X147181431Y-36355720D01*
X146890280Y-36064569D01*
X146509874Y-35907000D01*
X146098126Y-35907000D01*
X145717720Y-36064569D01*
X145426569Y-36355720D01*
X145269000Y-36736126D01*
X145053000Y-36736126D01*
X145053000Y-36624126D01*
X144895431Y-36243720D01*
X144604280Y-35952569D01*
X144223874Y-35795000D01*
X143812126Y-35795000D01*
X143431720Y-35952569D01*
X143140569Y-36243720D01*
X142983000Y-36624126D01*
X136302595Y-36624126D01*
X136095626Y-36314376D01*
X135797240Y-36115001D01*
X136095626Y-35915626D01*
X136423840Y-35424419D01*
X136539093Y-34845001D01*
X136423840Y-34265583D01*
X136095626Y-33774376D01*
X136029213Y-33730000D01*
X201452272Y-33730000D01*
X201474001Y-40161930D01*
X201474001Y-41639430D01*
X201459809Y-41618191D01*
X201249765Y-41477843D01*
X201002000Y-41428560D01*
X199302000Y-41428560D01*
X199054235Y-41477843D01*
X198844191Y-41618191D01*
X198703843Y-41828235D01*
X198654560Y-42076000D01*
X198654560Y-43776000D01*
X198703843Y-44023765D01*
X198844191Y-44233809D01*
X199054235Y-44374157D01*
X199099619Y-44383184D01*
X199081375Y-44395375D01*
X198753161Y-44886582D01*
X198694182Y-45183092D01*
X198482133Y-45095259D01*
X198070385Y-45095259D01*
X197689979Y-45252828D01*
X197398828Y-45543979D01*
X197269063Y-45857259D01*
X197264706Y-45857259D01*
X196725259Y-45317813D01*
X196725259Y-44826970D01*
X196867690Y-44684539D01*
X197025259Y-44304133D01*
X197025259Y-43892385D01*
X196867690Y-43511979D01*
X196576539Y-43220828D01*
X196196133Y-43063259D01*
X195784385Y-43063259D01*
X195403979Y-43220828D01*
X195112828Y-43511979D01*
X194967272Y-43863383D01*
X194733612Y-43629724D01*
X194692606Y-43568354D01*
X194449484Y-43405905D01*
X194235089Y-43363259D01*
X194235085Y-43363259D01*
X194165037Y-43349326D01*
X194036539Y-43220828D01*
X193656133Y-43063259D01*
X193244385Y-43063259D01*
X192863979Y-43220828D01*
X192572828Y-43511979D01*
X192415259Y-43892385D01*
X192415259Y-44304133D01*
X192572828Y-44684539D01*
X192619289Y-44731000D01*
X178528711Y-44731000D01*
X178386280Y-44588569D01*
X178005874Y-44431000D01*
X177594126Y-44431000D01*
X177213720Y-44588569D01*
X176922569Y-44879720D01*
X176765000Y-45260126D01*
X176765000Y-45384001D01*
X168410890Y-45384001D01*
X166835094Y-43808206D01*
X166794088Y-43746836D01*
X166550966Y-43584387D01*
X166336571Y-43541741D01*
X166336567Y-43541741D01*
X166264183Y-43527343D01*
X166191799Y-43541741D01*
X165319968Y-43541741D01*
X165327000Y-43506388D01*
X165327000Y-43506387D01*
X165341399Y-43434000D01*
X165327000Y-43361612D01*
X165327000Y-42164000D01*
X181111908Y-42164000D01*
X181227161Y-42743418D01*
X181555375Y-43234625D01*
X182046582Y-43562839D01*
X182479744Y-43649000D01*
X182772256Y-43649000D01*
X183205418Y-43562839D01*
X183696625Y-43234625D01*
X184024839Y-42743418D01*
X184140092Y-42164000D01*
X184024839Y-41584582D01*
X183696625Y-41093375D01*
X183678381Y-41081184D01*
X183723765Y-41072157D01*
X183933809Y-40931809D01*
X184074157Y-40721765D01*
X184123440Y-40474000D01*
X184123440Y-38774000D01*
X184074157Y-38526235D01*
X183933809Y-38316191D01*
X183723765Y-38175843D01*
X183476000Y-38126560D01*
X181776000Y-38126560D01*
X181528235Y-38175843D01*
X181318191Y-38316191D01*
X181177843Y-38526235D01*
X181128560Y-38774000D01*
X181128560Y-40474000D01*
X181177843Y-40721765D01*
X181318191Y-40931809D01*
X181528235Y-41072157D01*
X181573619Y-41081184D01*
X181555375Y-41093375D01*
X181227161Y-41584582D01*
X181111908Y-42164000D01*
X165327000Y-42164000D01*
X165327000Y-41198446D01*
X165386687Y-41138759D01*
X165588115Y-41138759D01*
X165968521Y-40981190D01*
X166259672Y-40690039D01*
X166417241Y-40309633D01*
X166417241Y-39897885D01*
X166259672Y-39517479D01*
X166241452Y-39499259D01*
X166961875Y-39499259D01*
X167034259Y-39513657D01*
X167106643Y-39499259D01*
X167106647Y-39499259D01*
X167321042Y-39456613D01*
X167564164Y-39294164D01*
X167605170Y-39232794D01*
X167800705Y-39037259D01*
X168002133Y-39037259D01*
X168382539Y-38879690D01*
X168673690Y-38588539D01*
X168831259Y-38208133D01*
X168831259Y-37796385D01*
X168673690Y-37415979D01*
X168382539Y-37124828D01*
X168002133Y-36967259D01*
X167590385Y-36967259D01*
X167209979Y-37124828D01*
X166918828Y-37415979D01*
X166761259Y-37796385D01*
X166761259Y-37997813D01*
X166729813Y-38029259D01*
X161412970Y-38029259D01*
X161270539Y-37886828D01*
X160890133Y-37729259D01*
X160668188Y-37729259D01*
X161975706Y-36421741D01*
X162084615Y-36421741D01*
X162465021Y-36264172D01*
X162570884Y-36158309D01*
X188786819Y-36158309D01*
X188786819Y-37306209D01*
X189226101Y-38366729D01*
X190037789Y-39178417D01*
X191098309Y-39617699D01*
X192246209Y-39617699D01*
X193306729Y-39178417D01*
X193697101Y-38788045D01*
X196654078Y-38788045D01*
X196905370Y-39184792D01*
X197967601Y-39619923D01*
X199115492Y-39615432D01*
X200155148Y-39184792D01*
X200406440Y-38788045D01*
X198530259Y-36911864D01*
X196654078Y-38788045D01*
X193697101Y-38788045D01*
X194118417Y-38366729D01*
X194557699Y-37306209D01*
X194557699Y-36169601D01*
X195642595Y-36169601D01*
X195647086Y-37317492D01*
X196077726Y-38357148D01*
X196474473Y-38608440D01*
X198350654Y-36732259D01*
X198709864Y-36732259D01*
X200586045Y-38608440D01*
X200982792Y-38357148D01*
X201417923Y-37294917D01*
X201413432Y-36147026D01*
X200982792Y-35107370D01*
X200586045Y-34856078D01*
X198709864Y-36732259D01*
X198350654Y-36732259D01*
X196474473Y-34856078D01*
X196077726Y-35107370D01*
X195642595Y-36169601D01*
X194557699Y-36169601D01*
X194557699Y-36158309D01*
X194118417Y-35097789D01*
X193697101Y-34676473D01*
X196654078Y-34676473D01*
X198530259Y-36552654D01*
X200406440Y-34676473D01*
X200155148Y-34279726D01*
X199092917Y-33844595D01*
X197945026Y-33849086D01*
X196905370Y-34279726D01*
X196654078Y-34676473D01*
X193697101Y-34676473D01*
X193306729Y-34286101D01*
X192246209Y-33846819D01*
X191098309Y-33846819D01*
X190037789Y-34286101D01*
X189226101Y-35097789D01*
X188786819Y-36158309D01*
X162570884Y-36158309D01*
X162756172Y-35973021D01*
X162913741Y-35592615D01*
X162913741Y-35180867D01*
X162756172Y-34800461D01*
X162465021Y-34509310D01*
X162084615Y-34351741D01*
X161672867Y-34351741D01*
X161292461Y-34509310D01*
X161001310Y-34800461D01*
X160843741Y-35180867D01*
X160843741Y-35474812D01*
X158454132Y-37864421D01*
X158371259Y-37781548D01*
X158371259Y-37145298D01*
X158476539Y-37101690D01*
X158767690Y-36810539D01*
X158925259Y-36430133D01*
X158925259Y-36018385D01*
X158767690Y-35637979D01*
X158476539Y-35346828D01*
X158096133Y-35189259D01*
X157684385Y-35189259D01*
X157303979Y-35346828D01*
X157012828Y-35637979D01*
X156855259Y-36018385D01*
X156855259Y-36430133D01*
X156897640Y-36532451D01*
X156901260Y-36550648D01*
X156901259Y-37781548D01*
X156758828Y-37923979D01*
X156601259Y-38304385D01*
X156601259Y-38716133D01*
X156758828Y-39096539D01*
X156990421Y-39328132D01*
X155443554Y-40875000D01*
X155242126Y-40875000D01*
X154861720Y-41032569D01*
X154570569Y-41323720D01*
X154413000Y-41704126D01*
X154413000Y-42115874D01*
X154570569Y-42496280D01*
X154861720Y-42787431D01*
X155242126Y-42945000D01*
X155653874Y-42945000D01*
X156034280Y-42787431D01*
X156325431Y-42496280D01*
X156483000Y-42115874D01*
X156483000Y-41914446D01*
X158267162Y-40130284D01*
X158547419Y-40410541D01*
X158927825Y-40568110D01*
X159339573Y-40568110D01*
X159719979Y-40410541D01*
X160011130Y-40119390D01*
X160168699Y-39738984D01*
X160168699Y-39670983D01*
X160478385Y-39799259D01*
X160890133Y-39799259D01*
X161270539Y-39641690D01*
X161412970Y-39499259D01*
X164523030Y-39499259D01*
X164504810Y-39517479D01*
X164347241Y-39897885D01*
X164347241Y-40099313D01*
X164123463Y-40323091D01*
X164062096Y-40364095D01*
X164021092Y-40425462D01*
X164021091Y-40425463D01*
X163936209Y-40552498D01*
X163908280Y-40524569D01*
X163527874Y-40367000D01*
X163116126Y-40367000D01*
X162735720Y-40524569D01*
X162599775Y-40660514D01*
X162559999Y-40652602D01*
X162487615Y-40667000D01*
X162487612Y-40667000D01*
X162273217Y-40709646D01*
X162030095Y-40872095D01*
X161989091Y-40933462D01*
X160740132Y-42182421D01*
X160606280Y-42048569D01*
X160225874Y-41891000D01*
X159814126Y-41891000D01*
X159433720Y-42048569D01*
X159291289Y-42191000D01*
X158208711Y-42191000D01*
X158066280Y-42048569D01*
X157685874Y-41891000D01*
X157274126Y-41891000D01*
X156893720Y-42048569D01*
X156602569Y-42339720D01*
X156445000Y-42720126D01*
X156445000Y-43131874D01*
X156602569Y-43512280D01*
X156893720Y-43803431D01*
X157274126Y-43961000D01*
X157685874Y-43961000D01*
X158066280Y-43803431D01*
X158208711Y-43661000D01*
X159261554Y-43661000D01*
X157983554Y-44939000D01*
X157782126Y-44939000D01*
X157401720Y-45096569D01*
X157110569Y-45387720D01*
X156953000Y-45768126D01*
X156953000Y-46179874D01*
X157110569Y-46560280D01*
X157401720Y-46851431D01*
X157782126Y-47009000D01*
X158193874Y-47009000D01*
X158574280Y-46851431D01*
X158865431Y-46560280D01*
X159023000Y-46179874D01*
X159023000Y-45978446D01*
X160631868Y-44369579D01*
X160765720Y-44503431D01*
X161146126Y-44661000D01*
X161347554Y-44661000D01*
X162367090Y-45680537D01*
X162408095Y-45741905D01*
X162651217Y-45904354D01*
X162865612Y-45947000D01*
X162892000Y-45952249D01*
X162892000Y-46082133D01*
X163049569Y-46462539D01*
X163340720Y-46753690D01*
X163721126Y-46911259D01*
X163922553Y-46911259D01*
X163982294Y-46971000D01*
X163624126Y-46971000D01*
X163243720Y-47128569D01*
X162952569Y-47419720D01*
X162795000Y-47800126D01*
X162795000Y-48211874D01*
X162952569Y-48592280D01*
X163243720Y-48883431D01*
X163624126Y-49041000D01*
X164035874Y-49041000D01*
X164416280Y-48883431D01*
X164558711Y-48741000D01*
X165895289Y-48741000D01*
X166037720Y-48883431D01*
X166211373Y-48955360D01*
X166198609Y-48974462D01*
X165230010Y-49943062D01*
X165208133Y-49934000D01*
X164796385Y-49934000D01*
X164415979Y-50091569D01*
X164124828Y-50382720D01*
X163967259Y-50763126D01*
X163967259Y-51082813D01*
X163849000Y-50964554D01*
X163849000Y-50763126D01*
X163691431Y-50382720D01*
X163400280Y-50091569D01*
X163019874Y-49934000D01*
X162608126Y-49934000D01*
X162306000Y-50059144D01*
X162003874Y-49934000D01*
X161592126Y-49934000D01*
X161321499Y-50046097D01*
X161050871Y-49934000D01*
X160639123Y-49934000D01*
X160258717Y-50091569D01*
X159967566Y-50382720D01*
X159809997Y-50763126D01*
X159809997Y-51174874D01*
X159967566Y-51555280D01*
X160109997Y-51697711D01*
X160109997Y-54493259D01*
X160010655Y-54493259D01*
X159872364Y-54354968D01*
X159491958Y-54197399D01*
X159080210Y-54197399D01*
X158699804Y-54354968D01*
X158408653Y-54646119D01*
X158251084Y-55026525D01*
X158251084Y-55227952D01*
X156670464Y-56808573D01*
X156609094Y-56849579D01*
X156446645Y-57092702D01*
X156403999Y-57307097D01*
X156403999Y-57307100D01*
X156389601Y-57379484D01*
X156403999Y-57451868D01*
X156404000Y-68025067D01*
X156281418Y-67943161D01*
X155848256Y-67857000D01*
X155555744Y-67857000D01*
X155122582Y-67943161D01*
X154631375Y-68271375D01*
X154619184Y-68289619D01*
X154610157Y-68244235D01*
X154469809Y-68034191D01*
X154259765Y-67893843D01*
X154012000Y-67844560D01*
X152312000Y-67844560D01*
X152064235Y-67893843D01*
X151854191Y-68034191D01*
X151713843Y-68244235D01*
X151664560Y-68492000D01*
X151664560Y-70192000D01*
X151713843Y-70439765D01*
X151854191Y-70649809D01*
X152064235Y-70790157D01*
X152312000Y-70839440D01*
X154012000Y-70839440D01*
X154259765Y-70790157D01*
X154469809Y-70649809D01*
X154610157Y-70439765D01*
X154619184Y-70394381D01*
X154631375Y-70412625D01*
X155122582Y-70740839D01*
X155555744Y-70827000D01*
X155848256Y-70827000D01*
X156281418Y-70740839D01*
X156404000Y-70658933D01*
X156404000Y-75910012D01*
X156389601Y-75982401D01*
X156446645Y-76269183D01*
X156568090Y-76450938D01*
X156609095Y-76512306D01*
X156670462Y-76553310D01*
X157126689Y-77009538D01*
X157167694Y-77070906D01*
X157410816Y-77233355D01*
X157625211Y-77276001D01*
X157697599Y-77290400D01*
X157769987Y-77276001D01*
X160114615Y-77276001D01*
X160186999Y-77290399D01*
X160259383Y-77276001D01*
X160259387Y-77276001D01*
X160473782Y-77233355D01*
X160716904Y-77070906D01*
X160757910Y-77009536D01*
X160894103Y-76873343D01*
X161123499Y-76918973D01*
X159805465Y-78237008D01*
X159744095Y-78278014D01*
X159638911Y-78435434D01*
X159627431Y-78407720D01*
X159336280Y-78116569D01*
X158955874Y-77959000D01*
X158544126Y-77959000D01*
X158163720Y-78116569D01*
X157872569Y-78407720D01*
X157715000Y-78788126D01*
X157715000Y-79199874D01*
X157872569Y-79580280D01*
X158015000Y-79722711D01*
X158015001Y-80445611D01*
X158011381Y-80463808D01*
X157969000Y-80566126D01*
X157969000Y-80977874D01*
X158126569Y-81358280D01*
X158417720Y-81649431D01*
X158798126Y-81807000D01*
X159209874Y-81807000D01*
X159590280Y-81649431D01*
X159808260Y-81431451D01*
X160127744Y-81495000D01*
X160420256Y-81495000D01*
X160853418Y-81408839D01*
X161265564Y-81133452D01*
X162122000Y-81989889D01*
X162122000Y-82934241D01*
X162075548Y-82915000D01*
X161544452Y-82915000D01*
X161053783Y-83118242D01*
X160810000Y-83362025D01*
X160566217Y-83118242D01*
X160075548Y-82915000D01*
X159544452Y-82915000D01*
X159053783Y-83118242D01*
X158810000Y-83362025D01*
X158566217Y-83118242D01*
X158075548Y-82915000D01*
X157544452Y-82915000D01*
X157053783Y-83118242D01*
X156810000Y-83362025D01*
X156566217Y-83118242D01*
X156075548Y-82915000D01*
X155544452Y-82915000D01*
X155053783Y-83118242D01*
X154810000Y-83362025D01*
X154566217Y-83118242D01*
X154075548Y-82915000D01*
X153544452Y-82915000D01*
X153053783Y-83118242D01*
X152678242Y-83493783D01*
X152475000Y-83984452D01*
X152475000Y-84515548D01*
X152678242Y-85006217D01*
X153053783Y-85381758D01*
X153544452Y-85585000D01*
X154075548Y-85585000D01*
X154566217Y-85381758D01*
X154810000Y-85137975D01*
X155053783Y-85381758D01*
X155544452Y-85585000D01*
X156075548Y-85585000D01*
X156566217Y-85381758D01*
X156810000Y-85137975D01*
X157053783Y-85381758D01*
X157544452Y-85585000D01*
X158075548Y-85585000D01*
X158566217Y-85381758D01*
X158810000Y-85137975D01*
X159053783Y-85381758D01*
X159544452Y-85585000D01*
X160075548Y-85585000D01*
X160566217Y-85381758D01*
X160810000Y-85137975D01*
X161053783Y-85381758D01*
X161544452Y-85585000D01*
X162075548Y-85585000D01*
X162513646Y-85403534D01*
X163241000Y-86130889D01*
X163240999Y-91604128D01*
X163176133Y-91577259D01*
X162764385Y-91577259D01*
X162383979Y-91734828D01*
X162092828Y-92025979D01*
X161935259Y-92406385D01*
X161935259Y-92818133D01*
X162092828Y-93198539D01*
X162244081Y-93349792D01*
X162227720Y-93356569D01*
X162110289Y-93474000D01*
X161739711Y-93474000D01*
X161622280Y-93356569D01*
X161241874Y-93199000D01*
X160830126Y-93199000D01*
X160449720Y-93356569D01*
X160158569Y-93647720D01*
X160001000Y-94028126D01*
X160001000Y-94439874D01*
X160158569Y-94820280D01*
X160449720Y-95111431D01*
X160830126Y-95269000D01*
X161241874Y-95269000D01*
X161622280Y-95111431D01*
X161739711Y-94994000D01*
X162110289Y-94994000D01*
X162227720Y-95111431D01*
X162608126Y-95269000D01*
X162732002Y-95269000D01*
X162732002Y-96120110D01*
X162454464Y-96397648D01*
X162393094Y-96438654D01*
X162230645Y-96681777D01*
X162187999Y-96896172D01*
X162187999Y-96896175D01*
X162173601Y-96968559D01*
X162187999Y-97040943D01*
X162188000Y-100874610D01*
X162173601Y-100946999D01*
X162230645Y-101233781D01*
X162336428Y-101392096D01*
X162393095Y-101476904D01*
X162454462Y-101517908D01*
X163967259Y-103030706D01*
X163967259Y-103232133D01*
X164124828Y-103612539D01*
X164415979Y-103903690D01*
X164796385Y-104061259D01*
X165208133Y-104061259D01*
X165588539Y-103903690D01*
X165879690Y-103612539D01*
X166037259Y-103232133D01*
X166037259Y-102820385D01*
X165879690Y-102439979D01*
X165737259Y-102297548D01*
X165737259Y-102274000D01*
X184176560Y-102274000D01*
X184176560Y-103974000D01*
X184225843Y-104221765D01*
X184366191Y-104431809D01*
X184499674Y-104521000D01*
X184366191Y-104610191D01*
X184225843Y-104820235D01*
X184176560Y-105068000D01*
X184176560Y-106768000D01*
X184225843Y-107015765D01*
X184366191Y-107225809D01*
X184576235Y-107366157D01*
X184824000Y-107415440D01*
X186524000Y-107415440D01*
X186771765Y-107366157D01*
X186981809Y-107225809D01*
X187122157Y-107015765D01*
X187131184Y-106970381D01*
X187143375Y-106988625D01*
X187634582Y-107316839D01*
X188067744Y-107403000D01*
X188360256Y-107403000D01*
X188793418Y-107316839D01*
X189284625Y-106988625D01*
X189497843Y-106669522D01*
X189558817Y-106799358D01*
X189987076Y-107189645D01*
X190397110Y-107359476D01*
X190627000Y-107238155D01*
X190627000Y-106045000D01*
X190881000Y-106045000D01*
X190881000Y-107238155D01*
X191110890Y-107359476D01*
X191520924Y-107189645D01*
X191949183Y-106799358D01*
X192195486Y-106274892D01*
X192074819Y-106045000D01*
X190881000Y-106045000D01*
X190627000Y-106045000D01*
X190607000Y-106045000D01*
X190607000Y-105791000D01*
X190627000Y-105791000D01*
X190627000Y-104597845D01*
X190481387Y-104521000D01*
X190627000Y-104444155D01*
X190627000Y-103251000D01*
X190881000Y-103251000D01*
X190881000Y-104444155D01*
X191026613Y-104521000D01*
X190881000Y-104597845D01*
X190881000Y-105791000D01*
X192074819Y-105791000D01*
X192195486Y-105561108D01*
X191949183Y-105036642D01*
X191520924Y-104646355D01*
X191218271Y-104521000D01*
X191520924Y-104395645D01*
X191949183Y-104005358D01*
X192195486Y-103480892D01*
X192074819Y-103251000D01*
X190881000Y-103251000D01*
X190627000Y-103251000D01*
X190607000Y-103251000D01*
X190607000Y-102997000D01*
X190627000Y-102997000D01*
X190627000Y-101803845D01*
X190881000Y-101803845D01*
X190881000Y-102997000D01*
X192074819Y-102997000D01*
X192195486Y-102767108D01*
X191949183Y-102242642D01*
X191520924Y-101852355D01*
X191160061Y-101702890D01*
X198456524Y-101702890D01*
X198626355Y-102112924D01*
X199016642Y-102541183D01*
X199541108Y-102787486D01*
X199771000Y-102666819D01*
X199771000Y-101473000D01*
X200025000Y-101473000D01*
X200025000Y-102666819D01*
X200254892Y-102787486D01*
X200779358Y-102541183D01*
X201169645Y-102112924D01*
X201339476Y-101702890D01*
X201218155Y-101473000D01*
X200025000Y-101473000D01*
X199771000Y-101473000D01*
X198577845Y-101473000D01*
X198456524Y-101702890D01*
X191160061Y-101702890D01*
X191110890Y-101682524D01*
X190881000Y-101803845D01*
X190627000Y-101803845D01*
X190397110Y-101682524D01*
X189987076Y-101852355D01*
X189558817Y-102242642D01*
X189497843Y-102372478D01*
X189284625Y-102053375D01*
X188793418Y-101725161D01*
X188360256Y-101639000D01*
X188067744Y-101639000D01*
X187634582Y-101725161D01*
X187143375Y-102053375D01*
X187131184Y-102071619D01*
X187122157Y-102026235D01*
X186981809Y-101816191D01*
X186771765Y-101675843D01*
X186524000Y-101626560D01*
X184824000Y-101626560D01*
X184576235Y-101675843D01*
X184366191Y-101816191D01*
X184225843Y-102026235D01*
X184176560Y-102274000D01*
X165737259Y-102274000D01*
X165737259Y-101592721D01*
X165879690Y-101450290D01*
X166037259Y-101069884D01*
X166037259Y-100658136D01*
X165879690Y-100277730D01*
X165588539Y-99986579D01*
X165208133Y-99829010D01*
X164796385Y-99829010D01*
X164415979Y-99986579D01*
X164124828Y-100277730D01*
X163967259Y-100658136D01*
X163967259Y-100951813D01*
X163657999Y-100642553D01*
X163657999Y-98827710D01*
X163751720Y-98921431D01*
X164132126Y-99079000D01*
X164543874Y-99079000D01*
X164924280Y-98921431D01*
X165215431Y-98630280D01*
X165373000Y-98249874D01*
X165373000Y-98175651D01*
X165493544Y-98225582D01*
X165905292Y-98225582D01*
X166285698Y-98068013D01*
X166576849Y-97776862D01*
X166734418Y-97396456D01*
X166734418Y-96984708D01*
X166576849Y-96604302D01*
X166389000Y-96416453D01*
X166389000Y-96305802D01*
X166430802Y-96264000D01*
X170555468Y-96264000D01*
X170630315Y-96278888D01*
X170705162Y-96264000D01*
X170705167Y-96264000D01*
X170926852Y-96219904D01*
X171178244Y-96051929D01*
X171220645Y-95988471D01*
X171271845Y-95937272D01*
X171498126Y-96031000D01*
X171731000Y-96031000D01*
X171731001Y-96949288D01*
X171588569Y-97091720D01*
X171431000Y-97472126D01*
X171431000Y-97883874D01*
X171588569Y-98264280D01*
X171879720Y-98555431D01*
X172260126Y-98713000D01*
X172671874Y-98713000D01*
X173052280Y-98555431D01*
X173343431Y-98264280D01*
X173501000Y-97883874D01*
X173501000Y-97472126D01*
X173343431Y-97091720D01*
X173201000Y-96949289D01*
X173201000Y-94992446D01*
X175705091Y-97496538D01*
X175746095Y-97557905D01*
X175989217Y-97720354D01*
X176203612Y-97763000D01*
X176276000Y-97777399D01*
X176348388Y-97763000D01*
X179865289Y-97763000D01*
X180007720Y-97905431D01*
X180388126Y-98063000D01*
X180799874Y-98063000D01*
X181180280Y-97905431D01*
X181471431Y-97614280D01*
X181629000Y-97233874D01*
X181629000Y-96822126D01*
X181471431Y-96441720D01*
X181295711Y-96266000D01*
X198383908Y-96266000D01*
X198499161Y-96845418D01*
X198827375Y-97336625D01*
X199125761Y-97536000D01*
X198827375Y-97735375D01*
X198499161Y-98226582D01*
X198383908Y-98806000D01*
X198499161Y-99385418D01*
X198827375Y-99876625D01*
X199146478Y-100089843D01*
X199016642Y-100150817D01*
X198626355Y-100579076D01*
X198456524Y-100989110D01*
X198577845Y-101219000D01*
X199771000Y-101219000D01*
X199771000Y-101199000D01*
X200025000Y-101199000D01*
X200025000Y-101219000D01*
X201218155Y-101219000D01*
X201339476Y-100989110D01*
X201169645Y-100579076D01*
X200779358Y-100150817D01*
X200649522Y-100089843D01*
X200968625Y-99876625D01*
X201296839Y-99385418D01*
X201412092Y-98806000D01*
X201296839Y-98226582D01*
X200968625Y-97735375D01*
X200670239Y-97536000D01*
X200968625Y-97336625D01*
X201296839Y-96845418D01*
X201412092Y-96266000D01*
X201296839Y-95686582D01*
X200968625Y-95195375D01*
X200950381Y-95183184D01*
X200995765Y-95174157D01*
X201205809Y-95033809D01*
X201346157Y-94823765D01*
X201395440Y-94576000D01*
X201395440Y-92876000D01*
X201346157Y-92628235D01*
X201205809Y-92418191D01*
X200995765Y-92277843D01*
X200748000Y-92228560D01*
X199048000Y-92228560D01*
X198800235Y-92277843D01*
X198590191Y-92418191D01*
X198449843Y-92628235D01*
X198400560Y-92876000D01*
X198400560Y-94576000D01*
X198449843Y-94823765D01*
X198590191Y-95033809D01*
X198800235Y-95174157D01*
X198845619Y-95183184D01*
X198827375Y-95195375D01*
X198499161Y-95686582D01*
X198383908Y-96266000D01*
X181295711Y-96266000D01*
X181180280Y-96150569D01*
X180799874Y-95993000D01*
X180388126Y-95993000D01*
X180007720Y-96150569D01*
X179865289Y-96293000D01*
X176580447Y-96293000D01*
X173501000Y-93213554D01*
X173501000Y-93012126D01*
X173480237Y-92962000D01*
X179382289Y-92962000D01*
X179499720Y-93079431D01*
X179880126Y-93237000D01*
X180291874Y-93237000D01*
X180672280Y-93079431D01*
X180963431Y-92788280D01*
X181121000Y-92407874D01*
X181121000Y-91996126D01*
X180963431Y-91615720D01*
X180917026Y-91569315D01*
X180919418Y-91568839D01*
X181410625Y-91240625D01*
X181738839Y-90749418D01*
X181854092Y-90170000D01*
X181844223Y-90120385D01*
X192161259Y-90120385D01*
X192161259Y-90532133D01*
X192318828Y-90912539D01*
X192461259Y-91054970D01*
X192461260Y-92285870D01*
X192446861Y-92358259D01*
X192503905Y-92645041D01*
X192602320Y-92792329D01*
X192666355Y-92888164D01*
X192727722Y-92929168D01*
X194193259Y-94394706D01*
X194193259Y-94596133D01*
X194350828Y-94976539D01*
X194641979Y-95267690D01*
X195022385Y-95425259D01*
X195434133Y-95425259D01*
X195814539Y-95267690D01*
X196105690Y-94976539D01*
X196263259Y-94596133D01*
X196263259Y-94184385D01*
X196105690Y-93803979D01*
X195814539Y-93512828D01*
X195434133Y-93355259D01*
X195232706Y-93355259D01*
X193931259Y-92053813D01*
X193931259Y-91054970D01*
X194073690Y-90912539D01*
X194231259Y-90532133D01*
X194231259Y-90120385D01*
X194073690Y-89739979D01*
X193782539Y-89448828D01*
X193402133Y-89291259D01*
X192990385Y-89291259D01*
X192609979Y-89448828D01*
X192318828Y-89739979D01*
X192161259Y-90120385D01*
X181844223Y-90120385D01*
X181738839Y-89590582D01*
X181410625Y-89099375D01*
X181392381Y-89087184D01*
X181437765Y-89078157D01*
X181647809Y-88937809D01*
X181788157Y-88727765D01*
X181837440Y-88480000D01*
X181837440Y-86780000D01*
X181788157Y-86532235D01*
X181647809Y-86322191D01*
X181437765Y-86181843D01*
X181190000Y-86132560D01*
X179490000Y-86132560D01*
X179242235Y-86181843D01*
X179032191Y-86322191D01*
X178891843Y-86532235D01*
X178842560Y-86780000D01*
X178842560Y-88480000D01*
X178891843Y-88727765D01*
X179032191Y-88937809D01*
X179242235Y-89078157D01*
X179287619Y-89087184D01*
X179269375Y-89099375D01*
X178941161Y-89590582D01*
X178825908Y-90170000D01*
X178941161Y-90749418D01*
X179269375Y-91240625D01*
X179457777Y-91366512D01*
X179382289Y-91442000D01*
X171256802Y-91442000D01*
X170707000Y-90892199D01*
X170707000Y-90726126D01*
X170549431Y-90345720D01*
X170258280Y-90054569D01*
X169877874Y-89897000D01*
X169466126Y-89897000D01*
X169085720Y-90054569D01*
X168927089Y-90213200D01*
X168415353Y-89701465D01*
X168374347Y-89640095D01*
X168131225Y-89477646D01*
X167916830Y-89435000D01*
X167916826Y-89435000D01*
X167844442Y-89420602D01*
X167772058Y-89435000D01*
X167098711Y-89435000D01*
X166956280Y-89292569D01*
X166575874Y-89135000D01*
X166164126Y-89135000D01*
X166079010Y-89170256D01*
X166079010Y-88694126D01*
X171525010Y-88694126D01*
X171525010Y-89105874D01*
X171682579Y-89486280D01*
X171973730Y-89777431D01*
X172354136Y-89935000D01*
X172765884Y-89935000D01*
X173146290Y-89777431D01*
X173437441Y-89486280D01*
X173565473Y-89177184D01*
X173657720Y-89269431D01*
X174038126Y-89427000D01*
X174449874Y-89427000D01*
X174830280Y-89269431D01*
X175121431Y-88978280D01*
X175279000Y-88597874D01*
X175279000Y-88186126D01*
X175121431Y-87805720D01*
X174830280Y-87514569D01*
X174449874Y-87357000D01*
X174038126Y-87357000D01*
X173657720Y-87514569D01*
X173540289Y-87632000D01*
X173142856Y-87632000D01*
X173068009Y-87617112D01*
X172993162Y-87632000D01*
X172993158Y-87632000D01*
X172771473Y-87676096D01*
X172771471Y-87676097D01*
X172771472Y-87676097D01*
X172583536Y-87801671D01*
X172583534Y-87801673D01*
X172520081Y-87844071D01*
X172506097Y-87865000D01*
X172354136Y-87865000D01*
X171973730Y-88022569D01*
X171682579Y-88313720D01*
X171525010Y-88694126D01*
X166079010Y-88694126D01*
X166079010Y-86624878D01*
X167231538Y-85472351D01*
X167247211Y-85461879D01*
X167544452Y-85585000D01*
X168075548Y-85585000D01*
X168566217Y-85381758D01*
X168810000Y-85137975D01*
X169053783Y-85381758D01*
X169544452Y-85585000D01*
X170075548Y-85585000D01*
X170566217Y-85381758D01*
X170810000Y-85137975D01*
X171053783Y-85381758D01*
X171544452Y-85585000D01*
X172075548Y-85585000D01*
X172566217Y-85381758D01*
X172941758Y-85006217D01*
X173145000Y-84515548D01*
X173145000Y-83984452D01*
X172941758Y-83493783D01*
X172566217Y-83118242D01*
X172075548Y-82915000D01*
X171544452Y-82915000D01*
X171053783Y-83118242D01*
X170810000Y-83362025D01*
X170566217Y-83118242D01*
X170075548Y-82915000D01*
X169544452Y-82915000D01*
X169053783Y-83118242D01*
X168810000Y-83362025D01*
X168566217Y-83118242D01*
X168075548Y-82915000D01*
X167544452Y-82915000D01*
X167498001Y-82934241D01*
X167498001Y-78893704D01*
X167512400Y-78821316D01*
X167469770Y-78607001D01*
X167455355Y-78534533D01*
X167292906Y-78291411D01*
X167231539Y-78250407D01*
X166392855Y-77411724D01*
X166351849Y-77350354D01*
X166108727Y-77187905D01*
X166007476Y-77167765D01*
X165843579Y-77003868D01*
X165974103Y-76873344D01*
X166223744Y-76923000D01*
X166516256Y-76923000D01*
X166949418Y-76836839D01*
X167440625Y-76508625D01*
X167768839Y-76017418D01*
X167884092Y-75438000D01*
X167804245Y-75036579D01*
X167912353Y-74874784D01*
X167954999Y-74660389D01*
X167954999Y-74660386D01*
X167969397Y-74588002D01*
X167954999Y-74515618D01*
X167954999Y-72692126D01*
X168383000Y-72692126D01*
X168383000Y-73103874D01*
X168540569Y-73484280D01*
X168831720Y-73775431D01*
X169212126Y-73933000D01*
X169378199Y-73933000D01*
X170161000Y-74715802D01*
X170161000Y-74881874D01*
X170318569Y-75262280D01*
X170609720Y-75553431D01*
X170990126Y-75711000D01*
X171401874Y-75711000D01*
X171782280Y-75553431D01*
X172073431Y-75262280D01*
X172231000Y-74881874D01*
X172231000Y-74470126D01*
X172073431Y-74089720D01*
X171782280Y-73798569D01*
X171401874Y-73641000D01*
X171235802Y-73641000D01*
X170453000Y-72858199D01*
X170453000Y-72692126D01*
X170295431Y-72311720D01*
X170004280Y-72020569D01*
X169623874Y-71863000D01*
X169212126Y-71863000D01*
X168831720Y-72020569D01*
X168540569Y-72311720D01*
X168383000Y-72692126D01*
X167954999Y-72692126D01*
X167954999Y-70767178D01*
X168255744Y-70827000D01*
X168548256Y-70827000D01*
X168981418Y-70740839D01*
X169472625Y-70412625D01*
X169685843Y-70093522D01*
X169746817Y-70223358D01*
X170175076Y-70613645D01*
X170585110Y-70783476D01*
X170815000Y-70662155D01*
X170815000Y-69469000D01*
X170795000Y-69469000D01*
X170795000Y-69215000D01*
X170815000Y-69215000D01*
X170815000Y-68021845D01*
X170585110Y-67900524D01*
X170175076Y-68070355D01*
X169746817Y-68460642D01*
X169685843Y-68590478D01*
X169472625Y-68271375D01*
X168981418Y-67943161D01*
X168548256Y-67857000D01*
X168255744Y-67857000D01*
X167954999Y-67916822D01*
X167954999Y-63519000D01*
X168143554Y-63519000D01*
X172701843Y-68077290D01*
X172411375Y-68271375D01*
X172198157Y-68590478D01*
X172137183Y-68460642D01*
X171708924Y-68070355D01*
X171298890Y-67900524D01*
X171069000Y-68021845D01*
X171069000Y-69215000D01*
X171089000Y-69215000D01*
X171089000Y-69469000D01*
X171069000Y-69469000D01*
X171069000Y-70662155D01*
X171298890Y-70783476D01*
X171708924Y-70613645D01*
X172137183Y-70223358D01*
X172198157Y-70093522D01*
X172411375Y-70412625D01*
X172902582Y-70740839D01*
X173335744Y-70827000D01*
X173628256Y-70827000D01*
X174061418Y-70740839D01*
X174552625Y-70412625D01*
X174880839Y-69921418D01*
X174948355Y-69581990D01*
X190960148Y-69581990D01*
X190960148Y-71281990D01*
X191009431Y-71529755D01*
X191149779Y-71739799D01*
X191359823Y-71880147D01*
X191607588Y-71929430D01*
X193307588Y-71929430D01*
X193555353Y-71880147D01*
X193765397Y-71739799D01*
X193905745Y-71529755D01*
X193914772Y-71484371D01*
X193926963Y-71502615D01*
X194418170Y-71830829D01*
X194851332Y-71916990D01*
X195143844Y-71916990D01*
X195577006Y-71830829D01*
X196068213Y-71502615D01*
X196281431Y-71183512D01*
X196342405Y-71313348D01*
X196770664Y-71703635D01*
X197180698Y-71873466D01*
X197410588Y-71752145D01*
X197410588Y-70558990D01*
X197664588Y-70558990D01*
X197664588Y-71752145D01*
X197894478Y-71873466D01*
X198304512Y-71703635D01*
X198732771Y-71313348D01*
X198979074Y-70788882D01*
X198858407Y-70558990D01*
X197664588Y-70558990D01*
X197410588Y-70558990D01*
X197390588Y-70558990D01*
X197390588Y-70304990D01*
X197410588Y-70304990D01*
X197410588Y-69111835D01*
X197664588Y-69111835D01*
X197664588Y-70304990D01*
X198858407Y-70304990D01*
X198979074Y-70075098D01*
X198732771Y-69550632D01*
X198304512Y-69160345D01*
X197894478Y-68990514D01*
X197664588Y-69111835D01*
X197410588Y-69111835D01*
X197180698Y-68990514D01*
X196770664Y-69160345D01*
X196342405Y-69550632D01*
X196281431Y-69680468D01*
X196068213Y-69361365D01*
X195577006Y-69033151D01*
X195143844Y-68946990D01*
X194851332Y-68946990D01*
X194418170Y-69033151D01*
X193926963Y-69361365D01*
X193914772Y-69379609D01*
X193905745Y-69334225D01*
X193765397Y-69124181D01*
X193555353Y-68983833D01*
X193307588Y-68934550D01*
X191607588Y-68934550D01*
X191359823Y-68983833D01*
X191149779Y-69124181D01*
X191009431Y-69334225D01*
X190960148Y-69581990D01*
X174948355Y-69581990D01*
X174996092Y-69342000D01*
X174906980Y-68894001D01*
X193642193Y-68894001D01*
X193714577Y-68908399D01*
X193786961Y-68894001D01*
X193786965Y-68894001D01*
X194001360Y-68851355D01*
X194244482Y-68688906D01*
X194285488Y-68627536D01*
X194601691Y-68311333D01*
X194851332Y-68360990D01*
X195143844Y-68360990D01*
X195577006Y-68274829D01*
X196068213Y-67946615D01*
X196281431Y-67627512D01*
X196342405Y-67757348D01*
X196770664Y-68147635D01*
X197180698Y-68317466D01*
X197410588Y-68196145D01*
X197410588Y-67002990D01*
X197664588Y-67002990D01*
X197664588Y-68196145D01*
X197894478Y-68317466D01*
X198304512Y-68147635D01*
X198732771Y-67757348D01*
X198979074Y-67232882D01*
X198858407Y-67002990D01*
X197664588Y-67002990D01*
X197410588Y-67002990D01*
X197390588Y-67002990D01*
X197390588Y-66748990D01*
X197410588Y-66748990D01*
X197410588Y-65555835D01*
X197664588Y-65555835D01*
X197664588Y-66748990D01*
X198858407Y-66748990D01*
X198979074Y-66519098D01*
X198732771Y-65994632D01*
X198304512Y-65604345D01*
X197894478Y-65434514D01*
X197664588Y-65555835D01*
X197410588Y-65555835D01*
X197180698Y-65434514D01*
X196770664Y-65604345D01*
X196342405Y-65994632D01*
X196281431Y-66124468D01*
X196068213Y-65805365D01*
X195577006Y-65477151D01*
X195143844Y-65390990D01*
X194851332Y-65390990D01*
X194418170Y-65477151D01*
X193926963Y-65805365D01*
X193914772Y-65823609D01*
X193905745Y-65778225D01*
X193765397Y-65568181D01*
X193555353Y-65427833D01*
X193307588Y-65378550D01*
X191607588Y-65378550D01*
X191359823Y-65427833D01*
X191149779Y-65568181D01*
X191009431Y-65778225D01*
X190960148Y-66025990D01*
X190960148Y-67424001D01*
X185901440Y-67424001D01*
X185901440Y-66206000D01*
X185852157Y-65958235D01*
X185764636Y-65827252D01*
X185975538Y-65616351D01*
X186036906Y-65575346D01*
X186199355Y-65332224D01*
X186242001Y-65117829D01*
X186242001Y-65117826D01*
X186256399Y-65045442D01*
X186242001Y-64973058D01*
X186242001Y-60611385D01*
X186256399Y-60539001D01*
X186242001Y-60466617D01*
X186242001Y-60466613D01*
X186199355Y-60252218D01*
X186036906Y-60009096D01*
X185975539Y-59968092D01*
X185839344Y-59831897D01*
X185918092Y-59436000D01*
X185802839Y-58856582D01*
X185474625Y-58365375D01*
X184983418Y-58037161D01*
X184550256Y-57951000D01*
X184257744Y-57951000D01*
X183824582Y-58037161D01*
X183333375Y-58365375D01*
X183005161Y-58856582D01*
X182889908Y-59436000D01*
X183005161Y-60015418D01*
X183333375Y-60506625D01*
X183631761Y-60706000D01*
X183333375Y-60905375D01*
X183142700Y-61190740D01*
X183153000Y-61165874D01*
X183153000Y-60754126D01*
X182995431Y-60373720D01*
X182704280Y-60082569D01*
X182323874Y-59925000D01*
X182122446Y-59925000D01*
X181845826Y-59648380D01*
X181725431Y-59357720D01*
X181434280Y-59066569D01*
X181053874Y-58909000D01*
X180642126Y-58909000D01*
X180261720Y-59066569D01*
X179970569Y-59357720D01*
X179813000Y-59738126D01*
X179813000Y-60149874D01*
X179970569Y-60530280D01*
X180261720Y-60821431D01*
X180642126Y-60979000D01*
X181053874Y-60979000D01*
X181083000Y-60966936D01*
X181083000Y-61165874D01*
X181240569Y-61546280D01*
X181531720Y-61837431D01*
X181912126Y-61995000D01*
X182323874Y-61995000D01*
X182704280Y-61837431D01*
X182970407Y-61571304D01*
X182889908Y-61976000D01*
X183005161Y-62555418D01*
X183333375Y-63046625D01*
X183631761Y-63246000D01*
X183333375Y-63445375D01*
X183109118Y-63781000D01*
X182930447Y-63781000D01*
X176757832Y-57608385D01*
X178445259Y-57608385D01*
X178445259Y-58020133D01*
X178602828Y-58400539D01*
X178893979Y-58691690D01*
X179274385Y-58849259D01*
X179686133Y-58849259D01*
X180066539Y-58691690D01*
X180357690Y-58400539D01*
X180515259Y-58020133D01*
X180515259Y-57818706D01*
X180546706Y-57787259D01*
X181291548Y-57787259D01*
X181433979Y-57929690D01*
X181814385Y-58087259D01*
X182226133Y-58087259D01*
X182606539Y-57929690D01*
X182897690Y-57638539D01*
X183055259Y-57258133D01*
X183055259Y-56846385D01*
X182897690Y-56465979D01*
X182606539Y-56174828D01*
X182226133Y-56017259D01*
X181814385Y-56017259D01*
X181433979Y-56174828D01*
X181291548Y-56317259D01*
X180314647Y-56317259D01*
X180242259Y-56302860D01*
X180169871Y-56317259D01*
X179955476Y-56359905D01*
X179712354Y-56522354D01*
X179671349Y-56583722D01*
X179475812Y-56779259D01*
X179274385Y-56779259D01*
X178893979Y-56936828D01*
X178602828Y-57227979D01*
X178445259Y-57608385D01*
X176757832Y-57608385D01*
X175709523Y-56560077D01*
X175846280Y-56503431D01*
X176137431Y-56212280D01*
X176295000Y-55831874D01*
X176295000Y-55420126D01*
X176138452Y-55042184D01*
X176276312Y-55042184D01*
X176348700Y-55056583D01*
X176421088Y-55042184D01*
X176422581Y-55041887D01*
X178682715Y-55032627D01*
X178785810Y-55281521D01*
X179076961Y-55572672D01*
X179457367Y-55730241D01*
X179869115Y-55730241D01*
X180249521Y-55572672D01*
X180540672Y-55281521D01*
X180698241Y-54901115D01*
X180698241Y-54489367D01*
X180540672Y-54108961D01*
X180249521Y-53817810D01*
X179869115Y-53660241D01*
X179635859Y-53660241D01*
X179550024Y-53602888D01*
X179548489Y-53602583D01*
X179547185Y-53601719D01*
X179405147Y-53574070D01*
X179263242Y-53545844D01*
X179189365Y-53560539D01*
X176466718Y-53571695D01*
X176336758Y-53545844D01*
X176204337Y-53572184D01*
X174775567Y-53572184D01*
X174703183Y-53557786D01*
X174630799Y-53572184D01*
X174630796Y-53572184D01*
X174416401Y-53614830D01*
X174407167Y-53621000D01*
X173194711Y-53621000D01*
X173052280Y-53478569D01*
X172671874Y-53321000D01*
X172365644Y-53321000D01*
X172347896Y-53278153D01*
X172056745Y-52987002D01*
X171676339Y-52829433D01*
X171264591Y-52829433D01*
X170884185Y-52987002D01*
X170593034Y-53278153D01*
X170435465Y-53658559D01*
X170435465Y-53775646D01*
X169820462Y-54390650D01*
X169759095Y-54431654D01*
X169718091Y-54493021D01*
X169718090Y-54493022D01*
X169642315Y-54606427D01*
X169431353Y-54395465D01*
X169390347Y-54334095D01*
X169147225Y-54171646D01*
X168932830Y-54129000D01*
X168932826Y-54129000D01*
X168860442Y-54114602D01*
X168788058Y-54129000D01*
X168622711Y-54129000D01*
X168480280Y-53986569D01*
X168099874Y-53829000D01*
X167688126Y-53829000D01*
X167307720Y-53986569D01*
X167089368Y-54204921D01*
X164888446Y-52004000D01*
X165208133Y-52004000D01*
X165588539Y-51846431D01*
X165879690Y-51555280D01*
X166009094Y-51242870D01*
X167073966Y-50177999D01*
X182963108Y-50177999D01*
X182889908Y-50546000D01*
X183005161Y-51125418D01*
X183333375Y-51616625D01*
X183351619Y-51628816D01*
X183306235Y-51637843D01*
X183096191Y-51778191D01*
X182955843Y-51988235D01*
X182906560Y-52236000D01*
X182906560Y-53936000D01*
X182955843Y-54183765D01*
X183096191Y-54393809D01*
X183306235Y-54534157D01*
X183554000Y-54583440D01*
X185254000Y-54583440D01*
X185501765Y-54534157D01*
X185711809Y-54393809D01*
X185852157Y-54183765D01*
X185901440Y-53936000D01*
X185901440Y-52236000D01*
X185852157Y-51988235D01*
X185711809Y-51778191D01*
X185501765Y-51637843D01*
X185456381Y-51628816D01*
X185474625Y-51616625D01*
X185802839Y-51125418D01*
X185892381Y-50675259D01*
X188907030Y-50675259D01*
X188860569Y-50721720D01*
X188703000Y-51102126D01*
X188703000Y-51513874D01*
X188860569Y-51894280D01*
X189003000Y-52036711D01*
X189003001Y-55553611D01*
X188988602Y-55626000D01*
X189045646Y-55912782D01*
X189151425Y-56071091D01*
X189208096Y-56155905D01*
X189269463Y-56196909D01*
X191096656Y-58024103D01*
X191017908Y-58420000D01*
X191133161Y-58999418D01*
X191461375Y-59490625D01*
X191952582Y-59818839D01*
X192385744Y-59905000D01*
X192678256Y-59905000D01*
X193111418Y-59818839D01*
X193602625Y-59490625D01*
X193802000Y-59192239D01*
X194001375Y-59490625D01*
X194492582Y-59818839D01*
X194925744Y-59905000D01*
X195218256Y-59905000D01*
X195651418Y-59818839D01*
X196142625Y-59490625D01*
X196154816Y-59472381D01*
X196163843Y-59517765D01*
X196304191Y-59727809D01*
X196514235Y-59868157D01*
X196762000Y-59917440D01*
X198462000Y-59917440D01*
X198709765Y-59868157D01*
X198919809Y-59727809D01*
X199060157Y-59517765D01*
X199109440Y-59270000D01*
X199109440Y-57570000D01*
X199060157Y-57322235D01*
X198919809Y-57112191D01*
X198709765Y-56971843D01*
X198462000Y-56922560D01*
X198347000Y-56922560D01*
X198347000Y-55493941D01*
X198361398Y-55421557D01*
X198347000Y-55349171D01*
X198347000Y-55349170D01*
X198304354Y-55134775D01*
X198141905Y-54891653D01*
X198080538Y-54850649D01*
X194132779Y-50902890D01*
X198710524Y-50902890D01*
X198880355Y-51312924D01*
X199270642Y-51741183D01*
X199795108Y-51987486D01*
X200025000Y-51866819D01*
X200025000Y-50673000D01*
X198831845Y-50673000D01*
X198710524Y-50902890D01*
X194132779Y-50902890D01*
X192037353Y-48807465D01*
X191996347Y-48746095D01*
X191753225Y-48583646D01*
X191538830Y-48541000D01*
X191538826Y-48541000D01*
X191466442Y-48526602D01*
X191394058Y-48541000D01*
X191126001Y-48541000D01*
X191126001Y-47461384D01*
X191140399Y-47389000D01*
X191126001Y-47316616D01*
X191126001Y-47316613D01*
X191083355Y-47102218D01*
X190920906Y-46859096D01*
X190859538Y-46818091D01*
X190242446Y-46201000D01*
X193983616Y-46201000D01*
X194001808Y-46204619D01*
X194104126Y-46247000D01*
X194228001Y-46247000D01*
X194228001Y-46300616D01*
X194213603Y-46373001D01*
X194228001Y-46445385D01*
X194228001Y-46445388D01*
X194270647Y-46659783D01*
X194433096Y-46902906D01*
X194494466Y-46943912D01*
X195564350Y-48013797D01*
X195605355Y-48075165D01*
X195848477Y-48237614D01*
X196062872Y-48280260D01*
X196135260Y-48294659D01*
X196207648Y-48280260D01*
X197501316Y-48280260D01*
X197573700Y-48294658D01*
X197646084Y-48280260D01*
X197646088Y-48280260D01*
X197860483Y-48237614D01*
X198103605Y-48075165D01*
X198144611Y-48013795D01*
X198744796Y-47413611D01*
X198775566Y-47393051D01*
X198753161Y-47426582D01*
X198637908Y-48006000D01*
X198753161Y-48585418D01*
X199081375Y-49076625D01*
X199400478Y-49289843D01*
X199270642Y-49350817D01*
X198880355Y-49779076D01*
X198710524Y-50189110D01*
X198831845Y-50419000D01*
X200025000Y-50419000D01*
X200025000Y-50399000D01*
X200279000Y-50399000D01*
X200279000Y-50419000D01*
X200299000Y-50419000D01*
X200299000Y-50673000D01*
X200279000Y-50673000D01*
X200279000Y-51866819D01*
X200508892Y-51987486D01*
X201033358Y-51741183D01*
X201423645Y-51312924D01*
X201474001Y-51191347D01*
X201474000Y-108256000D01*
X125170000Y-108256000D01*
X125170000Y-104902000D01*
X136661908Y-104902000D01*
X136777161Y-105481418D01*
X137105375Y-105972625D01*
X137596582Y-106300839D01*
X138029744Y-106387000D01*
X138322256Y-106387000D01*
X138755418Y-106300839D01*
X139246625Y-105972625D01*
X139574839Y-105481418D01*
X139690092Y-104902000D01*
X139574839Y-104322582D01*
X139246625Y-103831375D01*
X139228381Y-103819184D01*
X139273765Y-103810157D01*
X139483809Y-103669809D01*
X139624157Y-103459765D01*
X139673440Y-103212000D01*
X139673440Y-101512000D01*
X139624157Y-101264235D01*
X139483809Y-101054191D01*
X139273765Y-100913843D01*
X139026000Y-100864560D01*
X137326000Y-100864560D01*
X137078235Y-100913843D01*
X136868191Y-101054191D01*
X136727843Y-101264235D01*
X136678560Y-101512000D01*
X136678560Y-103212000D01*
X136727843Y-103459765D01*
X136868191Y-103669809D01*
X137078235Y-103810157D01*
X137123619Y-103819184D01*
X137105375Y-103831375D01*
X136777161Y-104322582D01*
X136661908Y-104902000D01*
X125170000Y-104902000D01*
X125170000Y-93472000D01*
X133613908Y-93472000D01*
X133729161Y-94051418D01*
X134057375Y-94542625D01*
X134075619Y-94554816D01*
X134030235Y-94563843D01*
X133820191Y-94704191D01*
X133679843Y-94914235D01*
X133630560Y-95162000D01*
X133630560Y-96862000D01*
X133679843Y-97109765D01*
X133820191Y-97319809D01*
X134030235Y-97460157D01*
X134278000Y-97509440D01*
X135978000Y-97509440D01*
X136225765Y-97460157D01*
X136435809Y-97319809D01*
X136576157Y-97109765D01*
X136625440Y-96862000D01*
X136625440Y-95162000D01*
X136576157Y-94914235D01*
X136435809Y-94704191D01*
X136225765Y-94563843D01*
X136180381Y-94554816D01*
X136198625Y-94542625D01*
X136526839Y-94051418D01*
X136642092Y-93472000D01*
X137169908Y-93472000D01*
X137285161Y-94051418D01*
X137613375Y-94542625D01*
X137631619Y-94554816D01*
X137586235Y-94563843D01*
X137376191Y-94704191D01*
X137235843Y-94914235D01*
X137186560Y-95162000D01*
X137186560Y-96862000D01*
X137235843Y-97109765D01*
X137376191Y-97319809D01*
X137586235Y-97460157D01*
X137834000Y-97509440D01*
X139534000Y-97509440D01*
X139781765Y-97460157D01*
X139991809Y-97319809D01*
X140007926Y-97295688D01*
X140100218Y-97357355D01*
X140314613Y-97400001D01*
X140314617Y-97400001D01*
X140387001Y-97414399D01*
X140459385Y-97400001D01*
X141819483Y-97400001D01*
X141741908Y-97790000D01*
X141857161Y-98369418D01*
X142185375Y-98860625D01*
X142483761Y-99060000D01*
X142185375Y-99259375D01*
X141857161Y-99750582D01*
X141741908Y-100330000D01*
X141857161Y-100909418D01*
X142185375Y-101400625D01*
X142483761Y-101600000D01*
X142185375Y-101799375D01*
X141857161Y-102290582D01*
X141741908Y-102870000D01*
X141857161Y-103449418D01*
X142185375Y-103940625D01*
X142203619Y-103952816D01*
X142158235Y-103961843D01*
X141948191Y-104102191D01*
X141807843Y-104312235D01*
X141758560Y-104560000D01*
X141758560Y-106260000D01*
X141807843Y-106507765D01*
X141948191Y-106717809D01*
X142158235Y-106858157D01*
X142406000Y-106907440D01*
X144106000Y-106907440D01*
X144353765Y-106858157D01*
X144563809Y-106717809D01*
X144704157Y-106507765D01*
X144753440Y-106260000D01*
X144753440Y-104560000D01*
X144704157Y-104312235D01*
X144563809Y-104102191D01*
X144353765Y-103961843D01*
X144308381Y-103952816D01*
X144326625Y-103940625D01*
X144654839Y-103449418D01*
X144760519Y-102918126D01*
X148571000Y-102918126D01*
X148571000Y-103329874D01*
X148728569Y-103710280D01*
X149019720Y-104001431D01*
X149400126Y-104159000D01*
X149811874Y-104159000D01*
X150192280Y-104001431D01*
X150425397Y-103768314D01*
X150506569Y-103964280D01*
X150797720Y-104255431D01*
X151154341Y-104403148D01*
X151132000Y-104515464D01*
X151132000Y-104515468D01*
X151117112Y-104590315D01*
X151132000Y-104665162D01*
X151132000Y-105214289D01*
X151014569Y-105331720D01*
X150857000Y-105712126D01*
X150857000Y-106123874D01*
X151014569Y-106504280D01*
X151305720Y-106795431D01*
X151686126Y-106953000D01*
X152097874Y-106953000D01*
X152475000Y-106796790D01*
X152475000Y-107076309D01*
X152571673Y-107309698D01*
X152750301Y-107488327D01*
X152983690Y-107585000D01*
X153524250Y-107585000D01*
X153683000Y-107426250D01*
X153683000Y-106377000D01*
X153663000Y-106377000D01*
X153663000Y-106123000D01*
X153683000Y-106123000D01*
X153683000Y-106103000D01*
X153937000Y-106103000D01*
X153937000Y-106123000D01*
X153957000Y-106123000D01*
X153957000Y-106377000D01*
X153937000Y-106377000D01*
X153937000Y-107426250D01*
X154095750Y-107585000D01*
X154636310Y-107585000D01*
X154869699Y-107488327D01*
X155015025Y-107343000D01*
X155053783Y-107381758D01*
X155544452Y-107585000D01*
X156075548Y-107585000D01*
X156566217Y-107381758D01*
X156810000Y-107137975D01*
X157053783Y-107381758D01*
X157544452Y-107585000D01*
X158075548Y-107585000D01*
X158566217Y-107381758D01*
X158810000Y-107137975D01*
X159053783Y-107381758D01*
X159544452Y-107585000D01*
X160075548Y-107585000D01*
X160566217Y-107381758D01*
X160810000Y-107137975D01*
X161053783Y-107381758D01*
X161544452Y-107585000D01*
X162075548Y-107585000D01*
X162566217Y-107381758D01*
X162810000Y-107137975D01*
X163053783Y-107381758D01*
X163544452Y-107585000D01*
X164075548Y-107585000D01*
X164566217Y-107381758D01*
X164810000Y-107137975D01*
X165053783Y-107381758D01*
X165544452Y-107585000D01*
X166075548Y-107585000D01*
X166566217Y-107381758D01*
X166810000Y-107137975D01*
X167053783Y-107381758D01*
X167544452Y-107585000D01*
X168075548Y-107585000D01*
X168566217Y-107381758D01*
X168810000Y-107137975D01*
X169053783Y-107381758D01*
X169544452Y-107585000D01*
X170075548Y-107585000D01*
X170566217Y-107381758D01*
X170810000Y-107137975D01*
X171053783Y-107381758D01*
X171544452Y-107585000D01*
X172075548Y-107585000D01*
X172566217Y-107381758D01*
X172941758Y-107006217D01*
X173145000Y-106515548D01*
X173145000Y-105984452D01*
X172941758Y-105493783D01*
X172566217Y-105118242D01*
X172075548Y-104915000D01*
X171544452Y-104915000D01*
X171053783Y-105118242D01*
X170810000Y-105362025D01*
X170566217Y-105118242D01*
X170075548Y-104915000D01*
X169544452Y-104915000D01*
X169053783Y-105118242D01*
X168810000Y-105362025D01*
X168566217Y-105118242D01*
X168075548Y-104915000D01*
X167544452Y-104915000D01*
X167053783Y-105118242D01*
X166810000Y-105362025D01*
X166566217Y-105118242D01*
X166075548Y-104915000D01*
X165544452Y-104915000D01*
X165053783Y-105118242D01*
X164810000Y-105362025D01*
X164566217Y-105118242D01*
X164075548Y-104915000D01*
X163544452Y-104915000D01*
X163053783Y-105118242D01*
X162810000Y-105362025D01*
X162566217Y-105118242D01*
X162075548Y-104915000D01*
X161549803Y-104915000D01*
X160411141Y-103776339D01*
X161240628Y-103776339D01*
X161465720Y-104001431D01*
X161846126Y-104159000D01*
X162257874Y-104159000D01*
X162638280Y-104001431D01*
X162929431Y-103710280D01*
X163087000Y-103329874D01*
X163087000Y-102918126D01*
X162929431Y-102537720D01*
X162638280Y-102246569D01*
X162257874Y-102089000D01*
X161846126Y-102089000D01*
X161465720Y-102246569D01*
X161455950Y-102256339D01*
X155975000Y-102256339D01*
X155975000Y-101902126D01*
X155817431Y-101521720D01*
X155526280Y-101230569D01*
X155145874Y-101073000D01*
X154734126Y-101073000D01*
X154451000Y-101190274D01*
X154451000Y-101140126D01*
X154293431Y-100759720D01*
X154002280Y-100468569D01*
X153689000Y-100338804D01*
X153689000Y-100124126D01*
X153531431Y-99743720D01*
X153240280Y-99452569D01*
X152859874Y-99295000D01*
X152448126Y-99295000D01*
X152067720Y-99452569D01*
X151776569Y-99743720D01*
X151681174Y-99974024D01*
X149566199Y-102089000D01*
X149400126Y-102089000D01*
X149019720Y-102246569D01*
X148728569Y-102537720D01*
X148571000Y-102918126D01*
X144760519Y-102918126D01*
X144770092Y-102870000D01*
X144654839Y-102290582D01*
X144326625Y-101799375D01*
X144028239Y-101600000D01*
X144326625Y-101400625D01*
X144654839Y-100909418D01*
X144770092Y-100330000D01*
X144654839Y-99750582D01*
X144326625Y-99259375D01*
X144028239Y-99060000D01*
X144326625Y-98860625D01*
X144654839Y-98369418D01*
X144770092Y-97790000D01*
X144692517Y-97400001D01*
X152587555Y-97400001D01*
X154938919Y-99751366D01*
X154938919Y-99952793D01*
X155096488Y-100333199D01*
X155387639Y-100624350D01*
X155768045Y-100781919D01*
X156179793Y-100781919D01*
X156560199Y-100624350D01*
X156851350Y-100333199D01*
X157008919Y-99952793D01*
X157008919Y-99541045D01*
X156851350Y-99160639D01*
X156560199Y-98869488D01*
X156179793Y-98711919D01*
X155978366Y-98711919D01*
X153462912Y-96196466D01*
X153421906Y-96135096D01*
X153178784Y-95972647D01*
X152964389Y-95930001D01*
X152964385Y-95930001D01*
X152892001Y-95915603D01*
X152819617Y-95930001D01*
X144291000Y-95930001D01*
X144291000Y-95806126D01*
X144203812Y-95595634D01*
X145292447Y-94507000D01*
X145493874Y-94507000D01*
X145874280Y-94349431D01*
X146165431Y-94058280D01*
X146323000Y-93677874D01*
X146323000Y-93676385D01*
X154823259Y-93676385D01*
X154823259Y-94088133D01*
X154980828Y-94468539D01*
X155123260Y-94610971D01*
X155123259Y-95439548D01*
X154980828Y-95581979D01*
X154823259Y-95962385D01*
X154823259Y-96374133D01*
X154980828Y-96754539D01*
X155271979Y-97045690D01*
X155652385Y-97203259D01*
X156064133Y-97203259D01*
X156444539Y-97045690D01*
X156735690Y-96754539D01*
X156893259Y-96374133D01*
X156893259Y-95962385D01*
X156735690Y-95581979D01*
X156593259Y-95439548D01*
X156593259Y-94610970D01*
X156735690Y-94468539D01*
X156893259Y-94088133D01*
X156893259Y-93676385D01*
X156735690Y-93295979D01*
X156444539Y-93004828D01*
X156064133Y-92847259D01*
X155652385Y-92847259D01*
X155271979Y-93004828D01*
X154980828Y-93295979D01*
X154823259Y-93676385D01*
X146323000Y-93676385D01*
X146323000Y-93266126D01*
X146165431Y-92885720D01*
X145874280Y-92594569D01*
X145493874Y-92437000D01*
X145082126Y-92437000D01*
X144701720Y-92594569D01*
X144410569Y-92885720D01*
X144253000Y-93266126D01*
X144253000Y-93467553D01*
X142787465Y-94933089D01*
X142726095Y-94974095D01*
X142563646Y-95217218D01*
X142557829Y-95246460D01*
X142378569Y-95425720D01*
X142221000Y-95806126D01*
X142221000Y-95930001D01*
X140691448Y-95930001D01*
X140304911Y-95543465D01*
X140263905Y-95482095D01*
X140181440Y-95426994D01*
X140181440Y-95162000D01*
X140132157Y-94914235D01*
X139991809Y-94704191D01*
X139781765Y-94563843D01*
X139736381Y-94554816D01*
X139754625Y-94542625D01*
X140082839Y-94051418D01*
X140198092Y-93472000D01*
X140082839Y-92892582D01*
X139754625Y-92401375D01*
X139263418Y-92073161D01*
X138830256Y-91987000D01*
X138537744Y-91987000D01*
X138104582Y-92073161D01*
X137613375Y-92401375D01*
X137285161Y-92892582D01*
X137169908Y-93472000D01*
X136642092Y-93472000D01*
X136526839Y-92892582D01*
X136198625Y-92401375D01*
X135707418Y-92073161D01*
X135274256Y-91987000D01*
X134981744Y-91987000D01*
X134548582Y-92073161D01*
X134057375Y-92401375D01*
X133729161Y-92892582D01*
X133613908Y-93472000D01*
X125170000Y-93472000D01*
X125170000Y-90882385D01*
X154569259Y-90882385D01*
X154569259Y-91294133D01*
X154726828Y-91674539D01*
X155017979Y-91965690D01*
X155398385Y-92123259D01*
X155810133Y-92123259D01*
X156190539Y-91965690D01*
X156332970Y-91823259D01*
X157309875Y-91823259D01*
X157382259Y-91837657D01*
X157454643Y-91823259D01*
X157454647Y-91823259D01*
X157669042Y-91780613D01*
X157912164Y-91618164D01*
X157953170Y-91556794D01*
X158402705Y-91107259D01*
X158604133Y-91107259D01*
X158984539Y-90949690D01*
X159275690Y-90658539D01*
X159433259Y-90278133D01*
X159433259Y-89866385D01*
X159275690Y-89485979D01*
X158984539Y-89194828D01*
X158604133Y-89037259D01*
X158192385Y-89037259D01*
X157811979Y-89194828D01*
X157520828Y-89485979D01*
X157363259Y-89866385D01*
X157363259Y-90067813D01*
X157077813Y-90353259D01*
X156332970Y-90353259D01*
X156190539Y-90210828D01*
X155810133Y-90053259D01*
X155398385Y-90053259D01*
X155017979Y-90210828D01*
X154726828Y-90501979D01*
X154569259Y-90882385D01*
X125170000Y-90882385D01*
X125170000Y-78436385D01*
X145861000Y-78436385D01*
X145861000Y-78848133D01*
X146018569Y-79228539D01*
X146309720Y-79519690D01*
X146690126Y-79677259D01*
X147101874Y-79677259D01*
X147482280Y-79519690D01*
X147773431Y-79228539D01*
X147877514Y-78977260D01*
X151047356Y-78977260D01*
X151119740Y-78991658D01*
X151192124Y-78977260D01*
X151192128Y-78977260D01*
X151406523Y-78934614D01*
X151649645Y-78772165D01*
X151690651Y-78710795D01*
X152258103Y-78143344D01*
X152507744Y-78193000D01*
X152800256Y-78193000D01*
X153233418Y-78106839D01*
X153724625Y-77778625D01*
X154052839Y-77287418D01*
X154168092Y-76708000D01*
X154052839Y-76128582D01*
X153724625Y-75637375D01*
X153233418Y-75309161D01*
X152800256Y-75223000D01*
X152507744Y-75223000D01*
X152074582Y-75309161D01*
X151583375Y-75637375D01*
X151384000Y-75935761D01*
X151184625Y-75637375D01*
X150693418Y-75309161D01*
X150260256Y-75223000D01*
X149967744Y-75223000D01*
X149534582Y-75309161D01*
X149043375Y-75637375D01*
X149031184Y-75655619D01*
X149022157Y-75610235D01*
X148881809Y-75400191D01*
X148671765Y-75259843D01*
X148424000Y-75210560D01*
X146724000Y-75210560D01*
X146476235Y-75259843D01*
X146266191Y-75400191D01*
X146125843Y-75610235D01*
X146076560Y-75858000D01*
X146076560Y-77558000D01*
X146125843Y-77805765D01*
X146183097Y-77891451D01*
X146018569Y-78055979D01*
X145861000Y-78436385D01*
X125170000Y-78436385D01*
X125170000Y-71409213D01*
X125214376Y-71475626D01*
X125705583Y-71803840D01*
X126138745Y-71890001D01*
X126431257Y-71890001D01*
X126864419Y-71803840D01*
X127355626Y-71475626D01*
X127555001Y-71177240D01*
X127754376Y-71475626D01*
X128245583Y-71803840D01*
X128678745Y-71890001D01*
X128971257Y-71890001D01*
X129404419Y-71803840D01*
X129895626Y-71475626D01*
X130223840Y-70984419D01*
X130339093Y-70405001D01*
X130223840Y-69825583D01*
X129895626Y-69334376D01*
X129597240Y-69135001D01*
X129895626Y-68935626D01*
X130223840Y-68444419D01*
X130339093Y-67865001D01*
X130223840Y-67285583D01*
X129895626Y-66794376D01*
X129597240Y-66595001D01*
X129895626Y-66395626D01*
X130223840Y-65904419D01*
X130339093Y-65325001D01*
X130223840Y-64745583D01*
X129895626Y-64254376D01*
X129597240Y-64055001D01*
X129895626Y-63855626D01*
X130223840Y-63364419D01*
X130339093Y-62785001D01*
X130223840Y-62205583D01*
X129895626Y-61714376D01*
X129597240Y-61515001D01*
X129895626Y-61315626D01*
X130223840Y-60824419D01*
X130339093Y-60245001D01*
X130223840Y-59665583D01*
X129895626Y-59174376D01*
X129597240Y-58975001D01*
X129895626Y-58775626D01*
X130223840Y-58284419D01*
X130339093Y-57705001D01*
X130223840Y-57125583D01*
X129895626Y-56634376D01*
X129597240Y-56435001D01*
X129895626Y-56235626D01*
X130223840Y-55744419D01*
X130339093Y-55165001D01*
X130223840Y-54585583D01*
X129895626Y-54094376D01*
X129597240Y-53895001D01*
X129895626Y-53695626D01*
X130223840Y-53204419D01*
X130339093Y-52625001D01*
X130223840Y-52045583D01*
X129895626Y-51554376D01*
X129597240Y-51355001D01*
X129895626Y-51155626D01*
X130223840Y-50664419D01*
X130339093Y-50085001D01*
X130223840Y-49505583D01*
X129895626Y-49014376D01*
X129597240Y-48815001D01*
X129895626Y-48615626D01*
X130223840Y-48124419D01*
X130339093Y-47545001D01*
X130223840Y-46965583D01*
X129895626Y-46474376D01*
X129597240Y-46275001D01*
X129895626Y-46075626D01*
X130223840Y-45584419D01*
X130339093Y-45005001D01*
X130223840Y-44425583D01*
X129895626Y-43934376D01*
X129597240Y-43735001D01*
X129895626Y-43535626D01*
X130223840Y-43044419D01*
X130339093Y-42465001D01*
X130223840Y-41885583D01*
X129895626Y-41394376D01*
X129597240Y-41195001D01*
X129895626Y-40995626D01*
X130223840Y-40504419D01*
X130339093Y-39925001D01*
X130223840Y-39345583D01*
X129895626Y-38854376D01*
X129597240Y-38655001D01*
X129895626Y-38455626D01*
X130223840Y-37964419D01*
X130339093Y-37385001D01*
X130223840Y-36805583D01*
X129895626Y-36314376D01*
X129597240Y-36115001D01*
X129895626Y-35915626D01*
X130223840Y-35424419D01*
X130339093Y-34845001D01*
X130223840Y-34265583D01*
X129895626Y-33774376D01*
X129829213Y-33730000D01*
X131048361Y-33730000D01*
X131036844Y-33747236D01*
G36*
X167917434Y-91282438D02*
X167815720Y-91324569D01*
X167524569Y-91615720D01*
X167367000Y-91996126D01*
X167367000Y-92407874D01*
X167524569Y-92788280D01*
X167815720Y-93079431D01*
X168196126Y-93237000D01*
X168429381Y-93237000D01*
X168515216Y-93294353D01*
X168729611Y-93336999D01*
X168729614Y-93336999D01*
X168801998Y-93351397D01*
X168874382Y-93336999D01*
X169012773Y-93336999D01*
X169567031Y-93891258D01*
X169302569Y-94155720D01*
X169267659Y-94240000D01*
X166093000Y-94240000D01*
X166093000Y-93460633D01*
X166107398Y-93388249D01*
X166093000Y-93315865D01*
X166093000Y-93315861D01*
X166079010Y-93245529D01*
X166079010Y-91169744D01*
X166164126Y-91205000D01*
X166575874Y-91205000D01*
X166956280Y-91047431D01*
X167098711Y-90905000D01*
X167539996Y-90905000D01*
X167917434Y-91282438D01*
X167917434Y-91282438D01*
G37*
X167917434Y-91282438D02*
X167815720Y-91324569D01*
X167524569Y-91615720D01*
X167367000Y-91996126D01*
X167367000Y-92407874D01*
X167524569Y-92788280D01*
X167815720Y-93079431D01*
X168196126Y-93237000D01*
X168429381Y-93237000D01*
X168515216Y-93294353D01*
X168729611Y-93336999D01*
X168729614Y-93336999D01*
X168801998Y-93351397D01*
X168874382Y-93336999D01*
X169012773Y-93336999D01*
X169567031Y-93891258D01*
X169302569Y-94155720D01*
X169267659Y-94240000D01*
X166093000Y-94240000D01*
X166093000Y-93460633D01*
X166107398Y-93388249D01*
X166093000Y-93315865D01*
X166093000Y-93315861D01*
X166079010Y-93245529D01*
X166079010Y-91169744D01*
X166164126Y-91205000D01*
X166575874Y-91205000D01*
X166956280Y-91047431D01*
X167098711Y-90905000D01*
X167539996Y-90905000D01*
X167917434Y-91282438D01*
G36*
X171400385Y-62151259D02*
X171601813Y-62151259D01*
X172395260Y-62944707D01*
X172395259Y-63689548D01*
X172252828Y-63831979D01*
X172095259Y-64212385D01*
X172095259Y-64624133D01*
X172252828Y-65004539D01*
X172543979Y-65295690D01*
X172924385Y-65453259D01*
X173336133Y-65453259D01*
X173716539Y-65295690D01*
X174007690Y-65004539D01*
X174165259Y-64624133D01*
X174165259Y-64212385D01*
X174007690Y-63831979D01*
X173865259Y-63689548D01*
X173865259Y-63059706D01*
X175282091Y-64476538D01*
X175323095Y-64537905D01*
X175566217Y-64700354D01*
X175780612Y-64743000D01*
X175853000Y-64757399D01*
X175925388Y-64743000D01*
X176309289Y-64743000D01*
X176451720Y-64885431D01*
X176768081Y-65016472D01*
X175509554Y-66275000D01*
X175308126Y-66275000D01*
X174927720Y-66432569D01*
X174636569Y-66723720D01*
X174479000Y-67104126D01*
X174479000Y-67424001D01*
X174127448Y-67424001D01*
X170124705Y-63421259D01*
X170288133Y-63421259D01*
X170668539Y-63263690D01*
X170959690Y-62972539D01*
X171117259Y-62592133D01*
X171117259Y-62390705D01*
X171369499Y-62138466D01*
X171400385Y-62151259D01*
X171400385Y-62151259D01*
G37*
X171400385Y-62151259D02*
X171601813Y-62151259D01*
X172395260Y-62944707D01*
X172395259Y-63689548D01*
X172252828Y-63831979D01*
X172095259Y-64212385D01*
X172095259Y-64624133D01*
X172252828Y-65004539D01*
X172543979Y-65295690D01*
X172924385Y-65453259D01*
X173336133Y-65453259D01*
X173716539Y-65295690D01*
X174007690Y-65004539D01*
X174165259Y-64624133D01*
X174165259Y-64212385D01*
X174007690Y-63831979D01*
X173865259Y-63689548D01*
X173865259Y-63059706D01*
X175282091Y-64476538D01*
X175323095Y-64537905D01*
X175566217Y-64700354D01*
X175780612Y-64743000D01*
X175853000Y-64757399D01*
X175925388Y-64743000D01*
X176309289Y-64743000D01*
X176451720Y-64885431D01*
X176768081Y-65016472D01*
X175509554Y-66275000D01*
X175308126Y-66275000D01*
X174927720Y-66432569D01*
X174636569Y-66723720D01*
X174479000Y-67104126D01*
X174479000Y-67424001D01*
X174127448Y-67424001D01*
X170124705Y-63421259D01*
X170288133Y-63421259D01*
X170668539Y-63263690D01*
X170959690Y-62972539D01*
X171117259Y-62592133D01*
X171117259Y-62390705D01*
X171369499Y-62138466D01*
X171400385Y-62151259D01*
G36*
X168383000Y-60456447D02*
X168383000Y-60657874D01*
X168540569Y-61038280D01*
X168831720Y-61329431D01*
X169212126Y-61487000D01*
X169548677Y-61487000D01*
X169495979Y-61508828D01*
X169204828Y-61799979D01*
X169094887Y-62065401D01*
X169025431Y-61897720D01*
X168734280Y-61606569D01*
X168353874Y-61449000D01*
X167954999Y-61449000D01*
X167954999Y-60028445D01*
X168383000Y-60456447D01*
X168383000Y-60456447D01*
G37*
X168383000Y-60456447D02*
X168383000Y-60657874D01*
X168540569Y-61038280D01*
X168831720Y-61329431D01*
X169212126Y-61487000D01*
X169548677Y-61487000D01*
X169495979Y-61508828D01*
X169204828Y-61799979D01*
X169094887Y-62065401D01*
X169025431Y-61897720D01*
X168734280Y-61606569D01*
X168353874Y-61449000D01*
X167954999Y-61449000D01*
X167954999Y-60028445D01*
X168383000Y-60456447D01*
G36*
X162735720Y-42279431D02*
X163116126Y-42437000D01*
X163527874Y-42437000D01*
X163857001Y-42300671D01*
X163857000Y-43129553D01*
X163744812Y-43241741D01*
X163543385Y-43241741D01*
X163162979Y-43399310D01*
X162871828Y-43690461D01*
X162750008Y-43984561D01*
X162387000Y-43621554D01*
X162387000Y-43420126D01*
X162229431Y-43039720D01*
X162095579Y-42905868D01*
X162728868Y-42272579D01*
X162735720Y-42279431D01*
X162735720Y-42279431D01*
G37*
X162735720Y-42279431D02*
X163116126Y-42437000D01*
X163527874Y-42437000D01*
X163857001Y-42300671D01*
X163857000Y-43129553D01*
X163744812Y-43241741D01*
X163543385Y-43241741D01*
X163162979Y-43399310D01*
X162871828Y-43690461D01*
X162750008Y-43984561D01*
X162387000Y-43621554D01*
X162387000Y-43420126D01*
X162229431Y-43039720D01*
X162095579Y-42905868D01*
X162728868Y-42272579D01*
X162735720Y-42279431D01*
G04 #@! TD*
M02*
