G04 #@! TF.GenerationSoftware,KiCad,Pcbnew,(5.0.1-3-g963ef8bb5)*
G04 #@! TF.CreationDate,2020-02-17T18:14:17-05:00*
G04 #@! TF.ProjectId,v2SLI,7632534C492E6B696361645F70636200,rev?*
G04 #@! TF.SameCoordinates,Original*
G04 #@! TF.FileFunction,Soldermask,Bot*
G04 #@! TF.FilePolarity,Negative*
%FSLAX46Y46*%
G04 Gerber Fmt 4.6, Leading zero omitted, Abs format (unit mm)*
G04 Created by KiCad (PCBNEW (5.0.1-3-g963ef8bb5)) date Monday, February 17, 2020 at 06:14:17 PM*
%MOMM*%
%LPD*%
G01*
G04 APERTURE LIST*
%ADD10C,0.100000*%
G04 APERTURE END LIST*
D10*
G36*
X171942004Y-105510544D02*
X172029059Y-105527860D01*
X172165732Y-105584472D01*
X172165733Y-105584473D01*
X172288738Y-105666662D01*
X172393338Y-105771262D01*
X172393340Y-105771265D01*
X172475528Y-105894268D01*
X172532140Y-106030941D01*
X172561000Y-106176033D01*
X172561000Y-106323967D01*
X172532140Y-106469059D01*
X172475528Y-106605732D01*
X172432065Y-106670779D01*
X172393338Y-106728738D01*
X172288738Y-106833338D01*
X172288735Y-106833340D01*
X172165732Y-106915528D01*
X172029059Y-106972140D01*
X171942004Y-106989456D01*
X171883969Y-107001000D01*
X171736031Y-107001000D01*
X171677996Y-106989456D01*
X171590941Y-106972140D01*
X171454268Y-106915528D01*
X171331265Y-106833340D01*
X171331262Y-106833338D01*
X171226662Y-106728738D01*
X171187935Y-106670779D01*
X171144472Y-106605732D01*
X171087860Y-106469059D01*
X171059000Y-106323967D01*
X171059000Y-106176033D01*
X171087860Y-106030941D01*
X171144472Y-105894268D01*
X171226660Y-105771265D01*
X171226662Y-105771262D01*
X171331262Y-105666662D01*
X171454267Y-105584473D01*
X171454268Y-105584472D01*
X171590941Y-105527860D01*
X171677996Y-105510544D01*
X171736031Y-105499000D01*
X171883969Y-105499000D01*
X171942004Y-105510544D01*
X171942004Y-105510544D01*
G37*
G36*
X169942004Y-105510544D02*
X170029059Y-105527860D01*
X170165732Y-105584472D01*
X170165733Y-105584473D01*
X170288738Y-105666662D01*
X170393338Y-105771262D01*
X170393340Y-105771265D01*
X170475528Y-105894268D01*
X170532140Y-106030941D01*
X170561000Y-106176033D01*
X170561000Y-106323967D01*
X170532140Y-106469059D01*
X170475528Y-106605732D01*
X170432065Y-106670779D01*
X170393338Y-106728738D01*
X170288738Y-106833338D01*
X170288735Y-106833340D01*
X170165732Y-106915528D01*
X170029059Y-106972140D01*
X169942004Y-106989456D01*
X169883969Y-107001000D01*
X169736031Y-107001000D01*
X169677996Y-106989456D01*
X169590941Y-106972140D01*
X169454268Y-106915528D01*
X169331265Y-106833340D01*
X169331262Y-106833338D01*
X169226662Y-106728738D01*
X169187935Y-106670779D01*
X169144472Y-106605732D01*
X169087860Y-106469059D01*
X169059000Y-106323967D01*
X169059000Y-106176033D01*
X169087860Y-106030941D01*
X169144472Y-105894268D01*
X169226660Y-105771265D01*
X169226662Y-105771262D01*
X169331262Y-105666662D01*
X169454267Y-105584473D01*
X169454268Y-105584472D01*
X169590941Y-105527860D01*
X169677996Y-105510544D01*
X169736031Y-105499000D01*
X169883969Y-105499000D01*
X169942004Y-105510544D01*
X169942004Y-105510544D01*
G37*
G36*
X167942004Y-105510544D02*
X168029059Y-105527860D01*
X168165732Y-105584472D01*
X168165733Y-105584473D01*
X168288738Y-105666662D01*
X168393338Y-105771262D01*
X168393340Y-105771265D01*
X168475528Y-105894268D01*
X168532140Y-106030941D01*
X168561000Y-106176033D01*
X168561000Y-106323967D01*
X168532140Y-106469059D01*
X168475528Y-106605732D01*
X168432065Y-106670779D01*
X168393338Y-106728738D01*
X168288738Y-106833338D01*
X168288735Y-106833340D01*
X168165732Y-106915528D01*
X168029059Y-106972140D01*
X167942004Y-106989456D01*
X167883969Y-107001000D01*
X167736031Y-107001000D01*
X167677996Y-106989456D01*
X167590941Y-106972140D01*
X167454268Y-106915528D01*
X167331265Y-106833340D01*
X167331262Y-106833338D01*
X167226662Y-106728738D01*
X167187935Y-106670779D01*
X167144472Y-106605732D01*
X167087860Y-106469059D01*
X167059000Y-106323967D01*
X167059000Y-106176033D01*
X167087860Y-106030941D01*
X167144472Y-105894268D01*
X167226660Y-105771265D01*
X167226662Y-105771262D01*
X167331262Y-105666662D01*
X167454267Y-105584473D01*
X167454268Y-105584472D01*
X167590941Y-105527860D01*
X167677996Y-105510544D01*
X167736031Y-105499000D01*
X167883969Y-105499000D01*
X167942004Y-105510544D01*
X167942004Y-105510544D01*
G37*
G36*
X165942004Y-105510544D02*
X166029059Y-105527860D01*
X166165732Y-105584472D01*
X166165733Y-105584473D01*
X166288738Y-105666662D01*
X166393338Y-105771262D01*
X166393340Y-105771265D01*
X166475528Y-105894268D01*
X166532140Y-106030941D01*
X166561000Y-106176033D01*
X166561000Y-106323967D01*
X166532140Y-106469059D01*
X166475528Y-106605732D01*
X166432065Y-106670779D01*
X166393338Y-106728738D01*
X166288738Y-106833338D01*
X166288735Y-106833340D01*
X166165732Y-106915528D01*
X166029059Y-106972140D01*
X165942004Y-106989456D01*
X165883969Y-107001000D01*
X165736031Y-107001000D01*
X165677996Y-106989456D01*
X165590941Y-106972140D01*
X165454268Y-106915528D01*
X165331265Y-106833340D01*
X165331262Y-106833338D01*
X165226662Y-106728738D01*
X165187935Y-106670779D01*
X165144472Y-106605732D01*
X165087860Y-106469059D01*
X165059000Y-106323967D01*
X165059000Y-106176033D01*
X165087860Y-106030941D01*
X165144472Y-105894268D01*
X165226660Y-105771265D01*
X165226662Y-105771262D01*
X165331262Y-105666662D01*
X165454267Y-105584473D01*
X165454268Y-105584472D01*
X165590941Y-105527860D01*
X165677996Y-105510544D01*
X165736031Y-105499000D01*
X165883969Y-105499000D01*
X165942004Y-105510544D01*
X165942004Y-105510544D01*
G37*
G36*
X163942004Y-105510544D02*
X164029059Y-105527860D01*
X164165732Y-105584472D01*
X164165733Y-105584473D01*
X164288738Y-105666662D01*
X164393338Y-105771262D01*
X164393340Y-105771265D01*
X164475528Y-105894268D01*
X164532140Y-106030941D01*
X164561000Y-106176033D01*
X164561000Y-106323967D01*
X164532140Y-106469059D01*
X164475528Y-106605732D01*
X164432065Y-106670779D01*
X164393338Y-106728738D01*
X164288738Y-106833338D01*
X164288735Y-106833340D01*
X164165732Y-106915528D01*
X164029059Y-106972140D01*
X163942004Y-106989456D01*
X163883969Y-107001000D01*
X163736031Y-107001000D01*
X163677996Y-106989456D01*
X163590941Y-106972140D01*
X163454268Y-106915528D01*
X163331265Y-106833340D01*
X163331262Y-106833338D01*
X163226662Y-106728738D01*
X163187935Y-106670779D01*
X163144472Y-106605732D01*
X163087860Y-106469059D01*
X163059000Y-106323967D01*
X163059000Y-106176033D01*
X163087860Y-106030941D01*
X163144472Y-105894268D01*
X163226660Y-105771265D01*
X163226662Y-105771262D01*
X163331262Y-105666662D01*
X163454267Y-105584473D01*
X163454268Y-105584472D01*
X163590941Y-105527860D01*
X163677996Y-105510544D01*
X163736031Y-105499000D01*
X163883969Y-105499000D01*
X163942004Y-105510544D01*
X163942004Y-105510544D01*
G37*
G36*
X161942004Y-105510544D02*
X162029059Y-105527860D01*
X162165732Y-105584472D01*
X162165733Y-105584473D01*
X162288738Y-105666662D01*
X162393338Y-105771262D01*
X162393340Y-105771265D01*
X162475528Y-105894268D01*
X162532140Y-106030941D01*
X162561000Y-106176033D01*
X162561000Y-106323967D01*
X162532140Y-106469059D01*
X162475528Y-106605732D01*
X162432065Y-106670779D01*
X162393338Y-106728738D01*
X162288738Y-106833338D01*
X162288735Y-106833340D01*
X162165732Y-106915528D01*
X162029059Y-106972140D01*
X161942004Y-106989456D01*
X161883969Y-107001000D01*
X161736031Y-107001000D01*
X161677996Y-106989456D01*
X161590941Y-106972140D01*
X161454268Y-106915528D01*
X161331265Y-106833340D01*
X161331262Y-106833338D01*
X161226662Y-106728738D01*
X161187935Y-106670779D01*
X161144472Y-106605732D01*
X161087860Y-106469059D01*
X161059000Y-106323967D01*
X161059000Y-106176033D01*
X161087860Y-106030941D01*
X161144472Y-105894268D01*
X161226660Y-105771265D01*
X161226662Y-105771262D01*
X161331262Y-105666662D01*
X161454267Y-105584473D01*
X161454268Y-105584472D01*
X161590941Y-105527860D01*
X161677996Y-105510544D01*
X161736031Y-105499000D01*
X161883969Y-105499000D01*
X161942004Y-105510544D01*
X161942004Y-105510544D01*
G37*
G36*
X159942004Y-105510544D02*
X160029059Y-105527860D01*
X160165732Y-105584472D01*
X160165733Y-105584473D01*
X160288738Y-105666662D01*
X160393338Y-105771262D01*
X160393340Y-105771265D01*
X160475528Y-105894268D01*
X160532140Y-106030941D01*
X160561000Y-106176033D01*
X160561000Y-106323967D01*
X160532140Y-106469059D01*
X160475528Y-106605732D01*
X160432065Y-106670779D01*
X160393338Y-106728738D01*
X160288738Y-106833338D01*
X160288735Y-106833340D01*
X160165732Y-106915528D01*
X160029059Y-106972140D01*
X159942004Y-106989456D01*
X159883969Y-107001000D01*
X159736031Y-107001000D01*
X159677996Y-106989456D01*
X159590941Y-106972140D01*
X159454268Y-106915528D01*
X159331265Y-106833340D01*
X159331262Y-106833338D01*
X159226662Y-106728738D01*
X159187935Y-106670779D01*
X159144472Y-106605732D01*
X159087860Y-106469059D01*
X159059000Y-106323967D01*
X159059000Y-106176033D01*
X159087860Y-106030941D01*
X159144472Y-105894268D01*
X159226660Y-105771265D01*
X159226662Y-105771262D01*
X159331262Y-105666662D01*
X159454267Y-105584473D01*
X159454268Y-105584472D01*
X159590941Y-105527860D01*
X159677996Y-105510544D01*
X159736031Y-105499000D01*
X159883969Y-105499000D01*
X159942004Y-105510544D01*
X159942004Y-105510544D01*
G37*
G36*
X157942004Y-105510544D02*
X158029059Y-105527860D01*
X158165732Y-105584472D01*
X158165733Y-105584473D01*
X158288738Y-105666662D01*
X158393338Y-105771262D01*
X158393340Y-105771265D01*
X158475528Y-105894268D01*
X158532140Y-106030941D01*
X158561000Y-106176033D01*
X158561000Y-106323967D01*
X158532140Y-106469059D01*
X158475528Y-106605732D01*
X158432065Y-106670779D01*
X158393338Y-106728738D01*
X158288738Y-106833338D01*
X158288735Y-106833340D01*
X158165732Y-106915528D01*
X158029059Y-106972140D01*
X157942004Y-106989456D01*
X157883969Y-107001000D01*
X157736031Y-107001000D01*
X157677996Y-106989456D01*
X157590941Y-106972140D01*
X157454268Y-106915528D01*
X157331265Y-106833340D01*
X157331262Y-106833338D01*
X157226662Y-106728738D01*
X157187935Y-106670779D01*
X157144472Y-106605732D01*
X157087860Y-106469059D01*
X157059000Y-106323967D01*
X157059000Y-106176033D01*
X157087860Y-106030941D01*
X157144472Y-105894268D01*
X157226660Y-105771265D01*
X157226662Y-105771262D01*
X157331262Y-105666662D01*
X157454267Y-105584473D01*
X157454268Y-105584472D01*
X157590941Y-105527860D01*
X157677996Y-105510544D01*
X157736031Y-105499000D01*
X157883969Y-105499000D01*
X157942004Y-105510544D01*
X157942004Y-105510544D01*
G37*
G36*
X155942004Y-105510544D02*
X156029059Y-105527860D01*
X156165732Y-105584472D01*
X156165733Y-105584473D01*
X156288738Y-105666662D01*
X156393338Y-105771262D01*
X156393340Y-105771265D01*
X156475528Y-105894268D01*
X156532140Y-106030941D01*
X156561000Y-106176033D01*
X156561000Y-106323967D01*
X156532140Y-106469059D01*
X156475528Y-106605732D01*
X156432065Y-106670779D01*
X156393338Y-106728738D01*
X156288738Y-106833338D01*
X156288735Y-106833340D01*
X156165732Y-106915528D01*
X156029059Y-106972140D01*
X155942004Y-106989456D01*
X155883969Y-107001000D01*
X155736031Y-107001000D01*
X155677996Y-106989456D01*
X155590941Y-106972140D01*
X155454268Y-106915528D01*
X155331265Y-106833340D01*
X155331262Y-106833338D01*
X155226662Y-106728738D01*
X155187935Y-106670779D01*
X155144472Y-106605732D01*
X155087860Y-106469059D01*
X155059000Y-106323967D01*
X155059000Y-106176033D01*
X155087860Y-106030941D01*
X155144472Y-105894268D01*
X155226660Y-105771265D01*
X155226662Y-105771262D01*
X155331262Y-105666662D01*
X155454267Y-105584473D01*
X155454268Y-105584472D01*
X155590941Y-105527860D01*
X155677996Y-105510544D01*
X155736031Y-105499000D01*
X155883969Y-105499000D01*
X155942004Y-105510544D01*
X155942004Y-105510544D01*
G37*
G36*
X154561000Y-107001000D02*
X153059000Y-107001000D01*
X153059000Y-105499000D01*
X154561000Y-105499000D01*
X154561000Y-107001000D01*
X154561000Y-107001000D01*
G37*
G36*
X190864443Y-105023519D02*
X190930627Y-105030037D01*
X191043853Y-105064384D01*
X191100467Y-105081557D01*
X191239087Y-105155652D01*
X191256991Y-105165222D01*
X191292729Y-105194552D01*
X191394186Y-105277814D01*
X191477448Y-105379271D01*
X191506778Y-105415009D01*
X191506779Y-105415011D01*
X191590443Y-105571533D01*
X191590443Y-105571534D01*
X191641963Y-105741373D01*
X191659359Y-105918000D01*
X191641963Y-106094627D01*
X191617269Y-106176031D01*
X191590443Y-106264467D01*
X191565570Y-106311000D01*
X191506778Y-106420991D01*
X191477448Y-106456729D01*
X191394186Y-106558186D01*
X191292729Y-106641448D01*
X191256991Y-106670778D01*
X191256989Y-106670779D01*
X191100467Y-106754443D01*
X191043853Y-106771616D01*
X190930627Y-106805963D01*
X190864443Y-106812481D01*
X190798260Y-106819000D01*
X190709740Y-106819000D01*
X190643557Y-106812481D01*
X190577373Y-106805963D01*
X190464147Y-106771616D01*
X190407533Y-106754443D01*
X190251011Y-106670779D01*
X190251009Y-106670778D01*
X190215271Y-106641448D01*
X190113814Y-106558186D01*
X190030552Y-106456729D01*
X190001222Y-106420991D01*
X189942430Y-106311000D01*
X189917557Y-106264467D01*
X189890731Y-106176031D01*
X189866037Y-106094627D01*
X189848641Y-105918000D01*
X189866037Y-105741373D01*
X189917557Y-105571534D01*
X189917557Y-105571533D01*
X190001221Y-105415011D01*
X190001222Y-105415009D01*
X190030552Y-105379271D01*
X190113814Y-105277814D01*
X190215271Y-105194552D01*
X190251009Y-105165222D01*
X190268913Y-105155652D01*
X190407533Y-105081557D01*
X190464147Y-105064384D01*
X190577373Y-105030037D01*
X190643557Y-105023519D01*
X190709740Y-105017000D01*
X190798260Y-105017000D01*
X190864443Y-105023519D01*
X190864443Y-105023519D01*
G37*
G36*
X188324443Y-105023519D02*
X188390627Y-105030037D01*
X188503853Y-105064384D01*
X188560467Y-105081557D01*
X188699087Y-105155652D01*
X188716991Y-105165222D01*
X188752729Y-105194552D01*
X188854186Y-105277814D01*
X188937448Y-105379271D01*
X188966778Y-105415009D01*
X188966779Y-105415011D01*
X189050443Y-105571533D01*
X189050443Y-105571534D01*
X189101963Y-105741373D01*
X189119359Y-105918000D01*
X189101963Y-106094627D01*
X189077269Y-106176031D01*
X189050443Y-106264467D01*
X189025570Y-106311000D01*
X188966778Y-106420991D01*
X188937448Y-106456729D01*
X188854186Y-106558186D01*
X188752729Y-106641448D01*
X188716991Y-106670778D01*
X188716989Y-106670779D01*
X188560467Y-106754443D01*
X188503853Y-106771616D01*
X188390627Y-106805963D01*
X188324443Y-106812481D01*
X188258260Y-106819000D01*
X188169740Y-106819000D01*
X188103557Y-106812481D01*
X188037373Y-106805963D01*
X187924147Y-106771616D01*
X187867533Y-106754443D01*
X187711011Y-106670779D01*
X187711009Y-106670778D01*
X187675271Y-106641448D01*
X187573814Y-106558186D01*
X187490552Y-106456729D01*
X187461222Y-106420991D01*
X187402430Y-106311000D01*
X187377557Y-106264467D01*
X187350731Y-106176031D01*
X187326037Y-106094627D01*
X187308641Y-105918000D01*
X187326037Y-105741373D01*
X187377557Y-105571534D01*
X187377557Y-105571533D01*
X187461221Y-105415011D01*
X187461222Y-105415009D01*
X187490552Y-105379271D01*
X187573814Y-105277814D01*
X187675271Y-105194552D01*
X187711009Y-105165222D01*
X187728913Y-105155652D01*
X187867533Y-105081557D01*
X187924147Y-105064384D01*
X188037373Y-105030037D01*
X188103557Y-105023519D01*
X188169740Y-105017000D01*
X188258260Y-105017000D01*
X188324443Y-105023519D01*
X188324443Y-105023519D01*
G37*
G36*
X186575000Y-106819000D02*
X184773000Y-106819000D01*
X184773000Y-105017000D01*
X186575000Y-105017000D01*
X186575000Y-106819000D01*
X186575000Y-106819000D01*
G37*
G36*
X144157000Y-106311000D02*
X142355000Y-106311000D01*
X142355000Y-104509000D01*
X144157000Y-104509000D01*
X144157000Y-106311000D01*
X144157000Y-106311000D01*
G37*
G36*
X138286443Y-104007519D02*
X138352627Y-104014037D01*
X138465853Y-104048384D01*
X138522467Y-104065557D01*
X138661087Y-104139652D01*
X138678991Y-104149222D01*
X138714729Y-104178552D01*
X138816186Y-104261814D01*
X138899448Y-104363271D01*
X138928778Y-104399009D01*
X138928779Y-104399011D01*
X139012443Y-104555533D01*
X139012443Y-104555534D01*
X139063963Y-104725373D01*
X139081359Y-104902000D01*
X139063963Y-105078627D01*
X139063074Y-105081557D01*
X139012443Y-105248467D01*
X138996756Y-105277814D01*
X138928778Y-105404991D01*
X138899448Y-105440729D01*
X138816186Y-105542186D01*
X138714729Y-105625448D01*
X138678991Y-105654778D01*
X138678989Y-105654779D01*
X138522467Y-105738443D01*
X138465853Y-105755616D01*
X138352627Y-105789963D01*
X138286442Y-105796482D01*
X138220260Y-105803000D01*
X138131740Y-105803000D01*
X138065558Y-105796482D01*
X137999373Y-105789963D01*
X137886147Y-105755616D01*
X137829533Y-105738443D01*
X137673011Y-105654779D01*
X137673009Y-105654778D01*
X137637271Y-105625448D01*
X137535814Y-105542186D01*
X137452552Y-105440729D01*
X137423222Y-105404991D01*
X137355244Y-105277814D01*
X137339557Y-105248467D01*
X137288926Y-105081557D01*
X137288037Y-105078627D01*
X137270641Y-104902000D01*
X137288037Y-104725373D01*
X137339557Y-104555534D01*
X137339557Y-104555533D01*
X137423221Y-104399011D01*
X137423222Y-104399009D01*
X137452552Y-104363271D01*
X137535814Y-104261814D01*
X137637271Y-104178552D01*
X137673009Y-104149222D01*
X137690913Y-104139652D01*
X137829533Y-104065557D01*
X137886147Y-104048384D01*
X137999373Y-104014037D01*
X138065558Y-104007518D01*
X138131740Y-104001000D01*
X138220260Y-104001000D01*
X138286443Y-104007519D01*
X138286443Y-104007519D01*
G37*
G36*
X186575000Y-104025000D02*
X184773000Y-104025000D01*
X184773000Y-102223000D01*
X186575000Y-102223000D01*
X186575000Y-104025000D01*
X186575000Y-104025000D01*
G37*
G36*
X188324443Y-102229519D02*
X188390627Y-102236037D01*
X188503853Y-102270384D01*
X188560467Y-102287557D01*
X188699087Y-102361652D01*
X188716991Y-102371222D01*
X188752729Y-102400552D01*
X188854186Y-102483814D01*
X188937448Y-102585271D01*
X188966778Y-102621009D01*
X188966779Y-102621011D01*
X189050443Y-102777533D01*
X189050443Y-102777534D01*
X189101963Y-102947373D01*
X189119359Y-103124000D01*
X189101963Y-103300627D01*
X189067616Y-103413853D01*
X189050443Y-103470467D01*
X189029213Y-103510185D01*
X188966778Y-103626991D01*
X188937448Y-103662729D01*
X188854186Y-103764186D01*
X188752729Y-103847448D01*
X188716991Y-103876778D01*
X188716989Y-103876779D01*
X188560467Y-103960443D01*
X188503853Y-103977616D01*
X188390627Y-104011963D01*
X188324443Y-104018481D01*
X188258260Y-104025000D01*
X188169740Y-104025000D01*
X188103557Y-104018481D01*
X188037373Y-104011963D01*
X187924147Y-103977616D01*
X187867533Y-103960443D01*
X187711011Y-103876779D01*
X187711009Y-103876778D01*
X187675271Y-103847448D01*
X187573814Y-103764186D01*
X187490552Y-103662729D01*
X187461222Y-103626991D01*
X187398787Y-103510185D01*
X187377557Y-103470467D01*
X187360384Y-103413853D01*
X187326037Y-103300627D01*
X187308641Y-103124000D01*
X187326037Y-102947373D01*
X187377557Y-102777534D01*
X187377557Y-102777533D01*
X187461221Y-102621011D01*
X187461222Y-102621009D01*
X187490552Y-102585271D01*
X187573814Y-102483814D01*
X187675271Y-102400552D01*
X187711009Y-102371222D01*
X187728913Y-102361652D01*
X187867533Y-102287557D01*
X187924147Y-102270384D01*
X188037373Y-102236037D01*
X188103557Y-102229519D01*
X188169740Y-102223000D01*
X188258260Y-102223000D01*
X188324443Y-102229519D01*
X188324443Y-102229519D01*
G37*
G36*
X190864443Y-102229519D02*
X190930627Y-102236037D01*
X191043853Y-102270384D01*
X191100467Y-102287557D01*
X191239087Y-102361652D01*
X191256991Y-102371222D01*
X191292729Y-102400552D01*
X191394186Y-102483814D01*
X191477448Y-102585271D01*
X191506778Y-102621009D01*
X191506779Y-102621011D01*
X191590443Y-102777533D01*
X191590443Y-102777534D01*
X191641963Y-102947373D01*
X191659359Y-103124000D01*
X191641963Y-103300627D01*
X191607616Y-103413853D01*
X191590443Y-103470467D01*
X191569213Y-103510185D01*
X191506778Y-103626991D01*
X191477448Y-103662729D01*
X191394186Y-103764186D01*
X191292729Y-103847448D01*
X191256991Y-103876778D01*
X191256989Y-103876779D01*
X191100467Y-103960443D01*
X191043853Y-103977616D01*
X190930627Y-104011963D01*
X190864443Y-104018481D01*
X190798260Y-104025000D01*
X190709740Y-104025000D01*
X190643557Y-104018481D01*
X190577373Y-104011963D01*
X190464147Y-103977616D01*
X190407533Y-103960443D01*
X190251011Y-103876779D01*
X190251009Y-103876778D01*
X190215271Y-103847448D01*
X190113814Y-103764186D01*
X190030552Y-103662729D01*
X190001222Y-103626991D01*
X189938787Y-103510185D01*
X189917557Y-103470467D01*
X189900384Y-103413853D01*
X189866037Y-103300627D01*
X189848641Y-103124000D01*
X189866037Y-102947373D01*
X189917557Y-102777534D01*
X189917557Y-102777533D01*
X190001221Y-102621011D01*
X190001222Y-102621009D01*
X190030552Y-102585271D01*
X190113814Y-102483814D01*
X190215271Y-102400552D01*
X190251009Y-102371222D01*
X190268913Y-102361652D01*
X190407533Y-102287557D01*
X190464147Y-102270384D01*
X190577373Y-102236037D01*
X190643557Y-102229519D01*
X190709740Y-102223000D01*
X190798260Y-102223000D01*
X190864443Y-102229519D01*
X190864443Y-102229519D01*
G37*
G36*
X143366442Y-101975518D02*
X143432627Y-101982037D01*
X143545853Y-102016384D01*
X143602467Y-102033557D01*
X143724485Y-102098778D01*
X143758991Y-102117222D01*
X143794729Y-102146552D01*
X143896186Y-102229814D01*
X143979448Y-102331271D01*
X144008778Y-102367009D01*
X144008779Y-102367011D01*
X144092443Y-102523533D01*
X144092443Y-102523534D01*
X144143963Y-102693373D01*
X144161359Y-102870000D01*
X144143963Y-103046627D01*
X144120492Y-103124000D01*
X144092443Y-103216467D01*
X144067570Y-103263000D01*
X144008778Y-103372991D01*
X143979448Y-103408729D01*
X143896186Y-103510186D01*
X143794729Y-103593448D01*
X143758991Y-103622778D01*
X143758989Y-103622779D01*
X143602467Y-103706443D01*
X143545853Y-103723616D01*
X143432627Y-103757963D01*
X143369453Y-103764185D01*
X143300260Y-103771000D01*
X143211740Y-103771000D01*
X143142547Y-103764185D01*
X143079373Y-103757963D01*
X142966147Y-103723616D01*
X142909533Y-103706443D01*
X142753011Y-103622779D01*
X142753009Y-103622778D01*
X142717271Y-103593448D01*
X142615814Y-103510186D01*
X142532552Y-103408729D01*
X142503222Y-103372991D01*
X142444430Y-103263000D01*
X142419557Y-103216467D01*
X142391508Y-103124000D01*
X142368037Y-103046627D01*
X142350641Y-102870000D01*
X142368037Y-102693373D01*
X142419557Y-102523534D01*
X142419557Y-102523533D01*
X142503221Y-102367011D01*
X142503222Y-102367009D01*
X142532552Y-102331271D01*
X142615814Y-102229814D01*
X142717271Y-102146552D01*
X142753009Y-102117222D01*
X142787515Y-102098778D01*
X142909533Y-102033557D01*
X142966147Y-102016384D01*
X143079373Y-101982037D01*
X143145558Y-101975518D01*
X143211740Y-101969000D01*
X143300260Y-101969000D01*
X143366442Y-101975518D01*
X143366442Y-101975518D01*
G37*
G36*
X139077000Y-103263000D02*
X137275000Y-103263000D01*
X137275000Y-101461000D01*
X139077000Y-101461000D01*
X139077000Y-103263000D01*
X139077000Y-103263000D01*
G37*
G36*
X200008443Y-100451519D02*
X200074627Y-100458037D01*
X200187853Y-100492384D01*
X200244467Y-100509557D01*
X200383087Y-100583652D01*
X200400991Y-100593222D01*
X200436729Y-100622552D01*
X200538186Y-100705814D01*
X200621448Y-100807271D01*
X200650778Y-100843009D01*
X200650779Y-100843011D01*
X200734443Y-100999533D01*
X200734443Y-100999534D01*
X200785963Y-101169373D01*
X200803359Y-101346000D01*
X200785963Y-101522627D01*
X200751616Y-101635853D01*
X200734443Y-101692467D01*
X200660348Y-101831087D01*
X200650778Y-101848991D01*
X200621448Y-101884729D01*
X200538186Y-101986186D01*
X200436729Y-102069448D01*
X200400991Y-102098778D01*
X200400989Y-102098779D01*
X200244467Y-102182443D01*
X200187853Y-102199616D01*
X200074627Y-102233963D01*
X200008443Y-102240481D01*
X199942260Y-102247000D01*
X199853740Y-102247000D01*
X199787557Y-102240481D01*
X199721373Y-102233963D01*
X199608147Y-102199616D01*
X199551533Y-102182443D01*
X199395011Y-102098779D01*
X199395009Y-102098778D01*
X199359271Y-102069448D01*
X199257814Y-101986186D01*
X199174552Y-101884729D01*
X199145222Y-101848991D01*
X199135652Y-101831087D01*
X199061557Y-101692467D01*
X199044384Y-101635853D01*
X199010037Y-101522627D01*
X198992641Y-101346000D01*
X199010037Y-101169373D01*
X199061557Y-100999534D01*
X199061557Y-100999533D01*
X199145221Y-100843011D01*
X199145222Y-100843009D01*
X199174552Y-100807271D01*
X199257814Y-100705814D01*
X199359271Y-100622552D01*
X199395009Y-100593222D01*
X199412913Y-100583652D01*
X199551533Y-100509557D01*
X199608147Y-100492384D01*
X199721373Y-100458037D01*
X199787557Y-100451519D01*
X199853740Y-100445000D01*
X199942260Y-100445000D01*
X200008443Y-100451519D01*
X200008443Y-100451519D01*
G37*
G36*
X143366443Y-99435519D02*
X143432627Y-99442037D01*
X143545853Y-99476384D01*
X143602467Y-99493557D01*
X143724485Y-99558778D01*
X143758991Y-99577222D01*
X143794729Y-99606552D01*
X143896186Y-99689814D01*
X143979448Y-99791271D01*
X144008778Y-99827009D01*
X144008779Y-99827011D01*
X144092443Y-99983533D01*
X144092443Y-99983534D01*
X144143963Y-100153373D01*
X144161359Y-100330000D01*
X144143963Y-100506627D01*
X144143074Y-100509557D01*
X144092443Y-100676467D01*
X144076756Y-100705814D01*
X144008778Y-100832991D01*
X143979448Y-100868729D01*
X143896186Y-100970186D01*
X143794729Y-101053448D01*
X143758991Y-101082778D01*
X143758989Y-101082779D01*
X143602467Y-101166443D01*
X143545853Y-101183616D01*
X143432627Y-101217963D01*
X143366443Y-101224481D01*
X143300260Y-101231000D01*
X143211740Y-101231000D01*
X143145558Y-101224482D01*
X143079373Y-101217963D01*
X142966147Y-101183616D01*
X142909533Y-101166443D01*
X142753011Y-101082779D01*
X142753009Y-101082778D01*
X142717271Y-101053448D01*
X142615814Y-100970186D01*
X142532552Y-100868729D01*
X142503222Y-100832991D01*
X142435244Y-100705814D01*
X142419557Y-100676467D01*
X142368926Y-100509557D01*
X142368037Y-100506627D01*
X142350641Y-100330000D01*
X142368037Y-100153373D01*
X142419557Y-99983534D01*
X142419557Y-99983533D01*
X142503221Y-99827011D01*
X142503222Y-99827009D01*
X142532552Y-99791271D01*
X142615814Y-99689814D01*
X142717271Y-99606552D01*
X142753009Y-99577222D01*
X142787515Y-99558778D01*
X142909533Y-99493557D01*
X142966147Y-99476384D01*
X143079373Y-99442037D01*
X143145558Y-99435518D01*
X143211740Y-99429000D01*
X143300260Y-99429000D01*
X143366443Y-99435519D01*
X143366443Y-99435519D01*
G37*
G36*
X200008442Y-97911518D02*
X200074627Y-97918037D01*
X200187853Y-97952384D01*
X200244467Y-97969557D01*
X200383087Y-98043652D01*
X200400991Y-98053222D01*
X200436729Y-98082552D01*
X200538186Y-98165814D01*
X200621448Y-98267271D01*
X200650778Y-98303009D01*
X200650779Y-98303011D01*
X200734443Y-98459533D01*
X200734443Y-98459534D01*
X200785963Y-98629373D01*
X200803359Y-98806000D01*
X200785963Y-98982627D01*
X200751616Y-99095853D01*
X200734443Y-99152467D01*
X200660348Y-99291087D01*
X200650778Y-99308991D01*
X200621448Y-99344729D01*
X200538186Y-99446186D01*
X200436729Y-99529448D01*
X200400991Y-99558778D01*
X200400989Y-99558779D01*
X200244467Y-99642443D01*
X200187853Y-99659616D01*
X200074627Y-99693963D01*
X200008442Y-99700482D01*
X199942260Y-99707000D01*
X199853740Y-99707000D01*
X199787558Y-99700482D01*
X199721373Y-99693963D01*
X199608147Y-99659616D01*
X199551533Y-99642443D01*
X199395011Y-99558779D01*
X199395009Y-99558778D01*
X199359271Y-99529448D01*
X199257814Y-99446186D01*
X199174552Y-99344729D01*
X199145222Y-99308991D01*
X199135652Y-99291087D01*
X199061557Y-99152467D01*
X199044384Y-99095853D01*
X199010037Y-98982627D01*
X198992641Y-98806000D01*
X199010037Y-98629373D01*
X199061557Y-98459534D01*
X199061557Y-98459533D01*
X199145221Y-98303011D01*
X199145222Y-98303009D01*
X199174552Y-98267271D01*
X199257814Y-98165814D01*
X199359271Y-98082552D01*
X199395009Y-98053222D01*
X199412913Y-98043652D01*
X199551533Y-97969557D01*
X199608147Y-97952384D01*
X199721373Y-97918037D01*
X199787558Y-97911518D01*
X199853740Y-97905000D01*
X199942260Y-97905000D01*
X200008442Y-97911518D01*
X200008442Y-97911518D01*
G37*
G36*
X143366442Y-96895518D02*
X143432627Y-96902037D01*
X143545853Y-96936384D01*
X143602467Y-96953557D01*
X143724485Y-97018778D01*
X143758991Y-97037222D01*
X143794729Y-97066552D01*
X143896186Y-97149814D01*
X143979448Y-97251271D01*
X144008778Y-97287009D01*
X144008779Y-97287011D01*
X144092443Y-97443533D01*
X144092443Y-97443534D01*
X144143963Y-97613373D01*
X144161359Y-97790000D01*
X144143963Y-97966627D01*
X144143074Y-97969557D01*
X144092443Y-98136467D01*
X144076756Y-98165814D01*
X144008778Y-98292991D01*
X143979448Y-98328729D01*
X143896186Y-98430186D01*
X143794729Y-98513448D01*
X143758991Y-98542778D01*
X143758989Y-98542779D01*
X143602467Y-98626443D01*
X143545853Y-98643616D01*
X143432627Y-98677963D01*
X143366442Y-98684482D01*
X143300260Y-98691000D01*
X143211740Y-98691000D01*
X143145558Y-98684482D01*
X143079373Y-98677963D01*
X142966147Y-98643616D01*
X142909533Y-98626443D01*
X142753011Y-98542779D01*
X142753009Y-98542778D01*
X142717271Y-98513448D01*
X142615814Y-98430186D01*
X142532552Y-98328729D01*
X142503222Y-98292991D01*
X142435244Y-98165814D01*
X142419557Y-98136467D01*
X142368926Y-97969557D01*
X142368037Y-97966627D01*
X142350641Y-97790000D01*
X142368037Y-97613373D01*
X142419557Y-97443534D01*
X142419557Y-97443533D01*
X142503221Y-97287011D01*
X142503222Y-97287009D01*
X142532552Y-97251271D01*
X142615814Y-97149814D01*
X142717271Y-97066552D01*
X142753009Y-97037222D01*
X142787515Y-97018778D01*
X142909533Y-96953557D01*
X142966147Y-96936384D01*
X143079373Y-96902037D01*
X143145558Y-96895518D01*
X143211740Y-96889000D01*
X143300260Y-96889000D01*
X143366442Y-96895518D01*
X143366442Y-96895518D01*
G37*
G36*
X200008443Y-95371519D02*
X200074627Y-95378037D01*
X200187853Y-95412384D01*
X200244467Y-95429557D01*
X200383087Y-95503652D01*
X200400991Y-95513222D01*
X200436729Y-95542552D01*
X200538186Y-95625814D01*
X200621448Y-95727271D01*
X200650778Y-95763009D01*
X200650779Y-95763011D01*
X200734443Y-95919533D01*
X200734443Y-95919534D01*
X200785963Y-96089373D01*
X200803359Y-96266000D01*
X200785963Y-96442627D01*
X200751616Y-96555853D01*
X200734443Y-96612467D01*
X200660348Y-96751087D01*
X200650778Y-96768991D01*
X200621448Y-96804729D01*
X200538186Y-96906186D01*
X200436729Y-96989448D01*
X200400991Y-97018778D01*
X200400989Y-97018779D01*
X200244467Y-97102443D01*
X200187853Y-97119616D01*
X200074627Y-97153963D01*
X200008443Y-97160481D01*
X199942260Y-97167000D01*
X199853740Y-97167000D01*
X199787557Y-97160481D01*
X199721373Y-97153963D01*
X199608147Y-97119616D01*
X199551533Y-97102443D01*
X199395011Y-97018779D01*
X199395009Y-97018778D01*
X199359271Y-96989448D01*
X199257814Y-96906186D01*
X199174552Y-96804729D01*
X199145222Y-96768991D01*
X199135652Y-96751087D01*
X199061557Y-96612467D01*
X199044384Y-96555853D01*
X199010037Y-96442627D01*
X198992641Y-96266000D01*
X199010037Y-96089373D01*
X199061557Y-95919534D01*
X199061557Y-95919533D01*
X199145221Y-95763011D01*
X199145222Y-95763009D01*
X199174552Y-95727271D01*
X199257814Y-95625814D01*
X199359271Y-95542552D01*
X199395009Y-95513222D01*
X199412913Y-95503652D01*
X199551533Y-95429557D01*
X199608147Y-95412384D01*
X199721373Y-95378037D01*
X199787557Y-95371519D01*
X199853740Y-95365000D01*
X199942260Y-95365000D01*
X200008443Y-95371519D01*
X200008443Y-95371519D01*
G37*
G36*
X136029000Y-96913000D02*
X134227000Y-96913000D01*
X134227000Y-95111000D01*
X136029000Y-95111000D01*
X136029000Y-96913000D01*
X136029000Y-96913000D01*
G37*
G36*
X139585000Y-96913000D02*
X137783000Y-96913000D01*
X137783000Y-95111000D01*
X139585000Y-95111000D01*
X139585000Y-96913000D01*
X139585000Y-96913000D01*
G37*
G36*
X200799000Y-94627000D02*
X198997000Y-94627000D01*
X198997000Y-92825000D01*
X200799000Y-92825000D01*
X200799000Y-94627000D01*
X200799000Y-94627000D01*
G37*
G36*
X138794443Y-92577519D02*
X138860627Y-92584037D01*
X138973853Y-92618384D01*
X139030467Y-92635557D01*
X139169087Y-92709652D01*
X139186991Y-92719222D01*
X139222729Y-92748552D01*
X139324186Y-92831814D01*
X139407448Y-92933271D01*
X139436778Y-92969009D01*
X139436779Y-92969011D01*
X139520443Y-93125533D01*
X139520443Y-93125534D01*
X139571963Y-93295373D01*
X139589359Y-93472000D01*
X139571963Y-93648627D01*
X139537616Y-93761853D01*
X139520443Y-93818467D01*
X139446348Y-93957087D01*
X139436778Y-93974991D01*
X139407448Y-94010729D01*
X139324186Y-94112186D01*
X139222729Y-94195448D01*
X139186991Y-94224778D01*
X139186989Y-94224779D01*
X139030467Y-94308443D01*
X138973853Y-94325616D01*
X138860627Y-94359963D01*
X138794443Y-94366481D01*
X138728260Y-94373000D01*
X138639740Y-94373000D01*
X138573557Y-94366481D01*
X138507373Y-94359963D01*
X138394147Y-94325616D01*
X138337533Y-94308443D01*
X138181011Y-94224779D01*
X138181009Y-94224778D01*
X138145271Y-94195448D01*
X138043814Y-94112186D01*
X137960552Y-94010729D01*
X137931222Y-93974991D01*
X137921652Y-93957087D01*
X137847557Y-93818467D01*
X137830384Y-93761853D01*
X137796037Y-93648627D01*
X137778641Y-93472000D01*
X137796037Y-93295373D01*
X137847557Y-93125534D01*
X137847557Y-93125533D01*
X137931221Y-92969011D01*
X137931222Y-92969009D01*
X137960552Y-92933271D01*
X138043814Y-92831814D01*
X138145271Y-92748552D01*
X138181009Y-92719222D01*
X138198913Y-92709652D01*
X138337533Y-92635557D01*
X138394147Y-92618384D01*
X138507373Y-92584037D01*
X138573558Y-92577518D01*
X138639740Y-92571000D01*
X138728260Y-92571000D01*
X138794443Y-92577519D01*
X138794443Y-92577519D01*
G37*
G36*
X135238443Y-92577519D02*
X135304627Y-92584037D01*
X135417853Y-92618384D01*
X135474467Y-92635557D01*
X135613087Y-92709652D01*
X135630991Y-92719222D01*
X135666729Y-92748552D01*
X135768186Y-92831814D01*
X135851448Y-92933271D01*
X135880778Y-92969009D01*
X135880779Y-92969011D01*
X135964443Y-93125533D01*
X135964443Y-93125534D01*
X136015963Y-93295373D01*
X136033359Y-93472000D01*
X136015963Y-93648627D01*
X135981616Y-93761853D01*
X135964443Y-93818467D01*
X135890348Y-93957087D01*
X135880778Y-93974991D01*
X135851448Y-94010729D01*
X135768186Y-94112186D01*
X135666729Y-94195448D01*
X135630991Y-94224778D01*
X135630989Y-94224779D01*
X135474467Y-94308443D01*
X135417853Y-94325616D01*
X135304627Y-94359963D01*
X135238443Y-94366481D01*
X135172260Y-94373000D01*
X135083740Y-94373000D01*
X135017557Y-94366481D01*
X134951373Y-94359963D01*
X134838147Y-94325616D01*
X134781533Y-94308443D01*
X134625011Y-94224779D01*
X134625009Y-94224778D01*
X134589271Y-94195448D01*
X134487814Y-94112186D01*
X134404552Y-94010729D01*
X134375222Y-93974991D01*
X134365652Y-93957087D01*
X134291557Y-93818467D01*
X134274384Y-93761853D01*
X134240037Y-93648627D01*
X134222641Y-93472000D01*
X134240037Y-93295373D01*
X134291557Y-93125534D01*
X134291557Y-93125533D01*
X134375221Y-92969011D01*
X134375222Y-92969009D01*
X134404552Y-92933271D01*
X134487814Y-92831814D01*
X134589271Y-92748552D01*
X134625009Y-92719222D01*
X134642913Y-92709652D01*
X134781533Y-92635557D01*
X134838147Y-92618384D01*
X134951373Y-92584037D01*
X135017558Y-92577518D01*
X135083740Y-92571000D01*
X135172260Y-92571000D01*
X135238443Y-92577519D01*
X135238443Y-92577519D01*
G37*
G36*
X180450443Y-89275519D02*
X180516627Y-89282037D01*
X180629853Y-89316384D01*
X180686467Y-89333557D01*
X180825087Y-89407652D01*
X180842991Y-89417222D01*
X180878729Y-89446552D01*
X180980186Y-89529814D01*
X181063448Y-89631271D01*
X181092778Y-89667009D01*
X181092779Y-89667011D01*
X181176443Y-89823533D01*
X181176443Y-89823534D01*
X181227963Y-89993373D01*
X181245359Y-90170000D01*
X181227963Y-90346627D01*
X181193616Y-90459853D01*
X181176443Y-90516467D01*
X181102348Y-90655087D01*
X181092778Y-90672991D01*
X181063448Y-90708729D01*
X180980186Y-90810186D01*
X180878729Y-90893448D01*
X180842991Y-90922778D01*
X180842989Y-90922779D01*
X180686467Y-91006443D01*
X180629853Y-91023616D01*
X180516627Y-91057963D01*
X180450442Y-91064482D01*
X180384260Y-91071000D01*
X180295740Y-91071000D01*
X180229558Y-91064482D01*
X180163373Y-91057963D01*
X180050147Y-91023616D01*
X179993533Y-91006443D01*
X179837011Y-90922779D01*
X179837009Y-90922778D01*
X179801271Y-90893448D01*
X179699814Y-90810186D01*
X179616552Y-90708729D01*
X179587222Y-90672991D01*
X179577652Y-90655087D01*
X179503557Y-90516467D01*
X179486384Y-90459853D01*
X179452037Y-90346627D01*
X179434641Y-90170000D01*
X179452037Y-89993373D01*
X179503557Y-89823534D01*
X179503557Y-89823533D01*
X179587221Y-89667011D01*
X179587222Y-89667009D01*
X179616552Y-89631271D01*
X179699814Y-89529814D01*
X179801271Y-89446552D01*
X179837009Y-89417222D01*
X179854913Y-89407652D01*
X179993533Y-89333557D01*
X180050147Y-89316384D01*
X180163373Y-89282037D01*
X180229557Y-89275519D01*
X180295740Y-89269000D01*
X180384260Y-89269000D01*
X180450443Y-89275519D01*
X180450443Y-89275519D01*
G37*
G36*
X181241000Y-88531000D02*
X179439000Y-88531000D01*
X179439000Y-86729000D01*
X181241000Y-86729000D01*
X181241000Y-88531000D01*
X181241000Y-88531000D01*
G37*
G36*
X165942004Y-83510544D02*
X166029059Y-83527860D01*
X166165732Y-83584472D01*
X166165733Y-83584473D01*
X166288738Y-83666662D01*
X166393338Y-83771262D01*
X166393340Y-83771265D01*
X166475528Y-83894268D01*
X166532140Y-84030941D01*
X166561000Y-84176033D01*
X166561000Y-84323967D01*
X166532140Y-84469059D01*
X166475528Y-84605732D01*
X166475527Y-84605733D01*
X166393338Y-84728738D01*
X166288738Y-84833338D01*
X166288735Y-84833340D01*
X166165732Y-84915528D01*
X166029059Y-84972140D01*
X165942004Y-84989456D01*
X165883969Y-85001000D01*
X165736031Y-85001000D01*
X165677996Y-84989456D01*
X165590941Y-84972140D01*
X165454268Y-84915528D01*
X165331265Y-84833340D01*
X165331262Y-84833338D01*
X165226662Y-84728738D01*
X165144473Y-84605733D01*
X165144472Y-84605732D01*
X165087860Y-84469059D01*
X165059000Y-84323967D01*
X165059000Y-84176033D01*
X165087860Y-84030941D01*
X165144472Y-83894268D01*
X165226660Y-83771265D01*
X165226662Y-83771262D01*
X165331262Y-83666662D01*
X165454267Y-83584473D01*
X165454268Y-83584472D01*
X165590941Y-83527860D01*
X165677996Y-83510544D01*
X165736031Y-83499000D01*
X165883969Y-83499000D01*
X165942004Y-83510544D01*
X165942004Y-83510544D01*
G37*
G36*
X167942004Y-83510544D02*
X168029059Y-83527860D01*
X168165732Y-83584472D01*
X168165733Y-83584473D01*
X168288738Y-83666662D01*
X168393338Y-83771262D01*
X168393340Y-83771265D01*
X168475528Y-83894268D01*
X168532140Y-84030941D01*
X168561000Y-84176033D01*
X168561000Y-84323967D01*
X168532140Y-84469059D01*
X168475528Y-84605732D01*
X168475527Y-84605733D01*
X168393338Y-84728738D01*
X168288738Y-84833338D01*
X168288735Y-84833340D01*
X168165732Y-84915528D01*
X168029059Y-84972140D01*
X167942004Y-84989456D01*
X167883969Y-85001000D01*
X167736031Y-85001000D01*
X167677996Y-84989456D01*
X167590941Y-84972140D01*
X167454268Y-84915528D01*
X167331265Y-84833340D01*
X167331262Y-84833338D01*
X167226662Y-84728738D01*
X167144473Y-84605733D01*
X167144472Y-84605732D01*
X167087860Y-84469059D01*
X167059000Y-84323967D01*
X167059000Y-84176033D01*
X167087860Y-84030941D01*
X167144472Y-83894268D01*
X167226660Y-83771265D01*
X167226662Y-83771262D01*
X167331262Y-83666662D01*
X167454267Y-83584473D01*
X167454268Y-83584472D01*
X167590941Y-83527860D01*
X167677996Y-83510544D01*
X167736031Y-83499000D01*
X167883969Y-83499000D01*
X167942004Y-83510544D01*
X167942004Y-83510544D01*
G37*
G36*
X169942004Y-83510544D02*
X170029059Y-83527860D01*
X170165732Y-83584472D01*
X170165733Y-83584473D01*
X170288738Y-83666662D01*
X170393338Y-83771262D01*
X170393340Y-83771265D01*
X170475528Y-83894268D01*
X170532140Y-84030941D01*
X170561000Y-84176033D01*
X170561000Y-84323967D01*
X170532140Y-84469059D01*
X170475528Y-84605732D01*
X170475527Y-84605733D01*
X170393338Y-84728738D01*
X170288738Y-84833338D01*
X170288735Y-84833340D01*
X170165732Y-84915528D01*
X170029059Y-84972140D01*
X169942004Y-84989456D01*
X169883969Y-85001000D01*
X169736031Y-85001000D01*
X169677996Y-84989456D01*
X169590941Y-84972140D01*
X169454268Y-84915528D01*
X169331265Y-84833340D01*
X169331262Y-84833338D01*
X169226662Y-84728738D01*
X169144473Y-84605733D01*
X169144472Y-84605732D01*
X169087860Y-84469059D01*
X169059000Y-84323967D01*
X169059000Y-84176033D01*
X169087860Y-84030941D01*
X169144472Y-83894268D01*
X169226660Y-83771265D01*
X169226662Y-83771262D01*
X169331262Y-83666662D01*
X169454267Y-83584473D01*
X169454268Y-83584472D01*
X169590941Y-83527860D01*
X169677996Y-83510544D01*
X169736031Y-83499000D01*
X169883969Y-83499000D01*
X169942004Y-83510544D01*
X169942004Y-83510544D01*
G37*
G36*
X171942004Y-83510544D02*
X172029059Y-83527860D01*
X172165732Y-83584472D01*
X172165733Y-83584473D01*
X172288738Y-83666662D01*
X172393338Y-83771262D01*
X172393340Y-83771265D01*
X172475528Y-83894268D01*
X172532140Y-84030941D01*
X172561000Y-84176033D01*
X172561000Y-84323967D01*
X172532140Y-84469059D01*
X172475528Y-84605732D01*
X172475527Y-84605733D01*
X172393338Y-84728738D01*
X172288738Y-84833338D01*
X172288735Y-84833340D01*
X172165732Y-84915528D01*
X172029059Y-84972140D01*
X171942004Y-84989456D01*
X171883969Y-85001000D01*
X171736031Y-85001000D01*
X171677996Y-84989456D01*
X171590941Y-84972140D01*
X171454268Y-84915528D01*
X171331265Y-84833340D01*
X171331262Y-84833338D01*
X171226662Y-84728738D01*
X171144473Y-84605733D01*
X171144472Y-84605732D01*
X171087860Y-84469059D01*
X171059000Y-84323967D01*
X171059000Y-84176033D01*
X171087860Y-84030941D01*
X171144472Y-83894268D01*
X171226660Y-83771265D01*
X171226662Y-83771262D01*
X171331262Y-83666662D01*
X171454267Y-83584473D01*
X171454268Y-83584472D01*
X171590941Y-83527860D01*
X171677996Y-83510544D01*
X171736031Y-83499000D01*
X171883969Y-83499000D01*
X171942004Y-83510544D01*
X171942004Y-83510544D01*
G37*
G36*
X163942004Y-83510544D02*
X164029059Y-83527860D01*
X164165732Y-83584472D01*
X164165733Y-83584473D01*
X164288738Y-83666662D01*
X164393338Y-83771262D01*
X164393340Y-83771265D01*
X164475528Y-83894268D01*
X164532140Y-84030941D01*
X164561000Y-84176033D01*
X164561000Y-84323967D01*
X164532140Y-84469059D01*
X164475528Y-84605732D01*
X164475527Y-84605733D01*
X164393338Y-84728738D01*
X164288738Y-84833338D01*
X164288735Y-84833340D01*
X164165732Y-84915528D01*
X164029059Y-84972140D01*
X163942004Y-84989456D01*
X163883969Y-85001000D01*
X163736031Y-85001000D01*
X163677996Y-84989456D01*
X163590941Y-84972140D01*
X163454268Y-84915528D01*
X163331265Y-84833340D01*
X163331262Y-84833338D01*
X163226662Y-84728738D01*
X163144473Y-84605733D01*
X163144472Y-84605732D01*
X163087860Y-84469059D01*
X163059000Y-84323967D01*
X163059000Y-84176033D01*
X163087860Y-84030941D01*
X163144472Y-83894268D01*
X163226660Y-83771265D01*
X163226662Y-83771262D01*
X163331262Y-83666662D01*
X163454267Y-83584473D01*
X163454268Y-83584472D01*
X163590941Y-83527860D01*
X163677996Y-83510544D01*
X163736031Y-83499000D01*
X163883969Y-83499000D01*
X163942004Y-83510544D01*
X163942004Y-83510544D01*
G37*
G36*
X153942004Y-83510544D02*
X154029059Y-83527860D01*
X154165732Y-83584472D01*
X154165733Y-83584473D01*
X154288738Y-83666662D01*
X154393338Y-83771262D01*
X154393340Y-83771265D01*
X154475528Y-83894268D01*
X154532140Y-84030941D01*
X154561000Y-84176033D01*
X154561000Y-84323967D01*
X154532140Y-84469059D01*
X154475528Y-84605732D01*
X154475527Y-84605733D01*
X154393338Y-84728738D01*
X154288738Y-84833338D01*
X154288735Y-84833340D01*
X154165732Y-84915528D01*
X154029059Y-84972140D01*
X153942004Y-84989456D01*
X153883969Y-85001000D01*
X153736031Y-85001000D01*
X153677996Y-84989456D01*
X153590941Y-84972140D01*
X153454268Y-84915528D01*
X153331265Y-84833340D01*
X153331262Y-84833338D01*
X153226662Y-84728738D01*
X153144473Y-84605733D01*
X153144472Y-84605732D01*
X153087860Y-84469059D01*
X153059000Y-84323967D01*
X153059000Y-84176033D01*
X153087860Y-84030941D01*
X153144472Y-83894268D01*
X153226660Y-83771265D01*
X153226662Y-83771262D01*
X153331262Y-83666662D01*
X153454267Y-83584473D01*
X153454268Y-83584472D01*
X153590941Y-83527860D01*
X153677996Y-83510544D01*
X153736031Y-83499000D01*
X153883969Y-83499000D01*
X153942004Y-83510544D01*
X153942004Y-83510544D01*
G37*
G36*
X161942004Y-83510544D02*
X162029059Y-83527860D01*
X162165732Y-83584472D01*
X162165733Y-83584473D01*
X162288738Y-83666662D01*
X162393338Y-83771262D01*
X162393340Y-83771265D01*
X162475528Y-83894268D01*
X162532140Y-84030941D01*
X162561000Y-84176033D01*
X162561000Y-84323967D01*
X162532140Y-84469059D01*
X162475528Y-84605732D01*
X162475527Y-84605733D01*
X162393338Y-84728738D01*
X162288738Y-84833338D01*
X162288735Y-84833340D01*
X162165732Y-84915528D01*
X162029059Y-84972140D01*
X161942004Y-84989456D01*
X161883969Y-85001000D01*
X161736031Y-85001000D01*
X161677996Y-84989456D01*
X161590941Y-84972140D01*
X161454268Y-84915528D01*
X161331265Y-84833340D01*
X161331262Y-84833338D01*
X161226662Y-84728738D01*
X161144473Y-84605733D01*
X161144472Y-84605732D01*
X161087860Y-84469059D01*
X161059000Y-84323967D01*
X161059000Y-84176033D01*
X161087860Y-84030941D01*
X161144472Y-83894268D01*
X161226660Y-83771265D01*
X161226662Y-83771262D01*
X161331262Y-83666662D01*
X161454267Y-83584473D01*
X161454268Y-83584472D01*
X161590941Y-83527860D01*
X161677996Y-83510544D01*
X161736031Y-83499000D01*
X161883969Y-83499000D01*
X161942004Y-83510544D01*
X161942004Y-83510544D01*
G37*
G36*
X159942004Y-83510544D02*
X160029059Y-83527860D01*
X160165732Y-83584472D01*
X160165733Y-83584473D01*
X160288738Y-83666662D01*
X160393338Y-83771262D01*
X160393340Y-83771265D01*
X160475528Y-83894268D01*
X160532140Y-84030941D01*
X160561000Y-84176033D01*
X160561000Y-84323967D01*
X160532140Y-84469059D01*
X160475528Y-84605732D01*
X160475527Y-84605733D01*
X160393338Y-84728738D01*
X160288738Y-84833338D01*
X160288735Y-84833340D01*
X160165732Y-84915528D01*
X160029059Y-84972140D01*
X159942004Y-84989456D01*
X159883969Y-85001000D01*
X159736031Y-85001000D01*
X159677996Y-84989456D01*
X159590941Y-84972140D01*
X159454268Y-84915528D01*
X159331265Y-84833340D01*
X159331262Y-84833338D01*
X159226662Y-84728738D01*
X159144473Y-84605733D01*
X159144472Y-84605732D01*
X159087860Y-84469059D01*
X159059000Y-84323967D01*
X159059000Y-84176033D01*
X159087860Y-84030941D01*
X159144472Y-83894268D01*
X159226660Y-83771265D01*
X159226662Y-83771262D01*
X159331262Y-83666662D01*
X159454267Y-83584473D01*
X159454268Y-83584472D01*
X159590941Y-83527860D01*
X159677996Y-83510544D01*
X159736031Y-83499000D01*
X159883969Y-83499000D01*
X159942004Y-83510544D01*
X159942004Y-83510544D01*
G37*
G36*
X157942004Y-83510544D02*
X158029059Y-83527860D01*
X158165732Y-83584472D01*
X158165733Y-83584473D01*
X158288738Y-83666662D01*
X158393338Y-83771262D01*
X158393340Y-83771265D01*
X158475528Y-83894268D01*
X158532140Y-84030941D01*
X158561000Y-84176033D01*
X158561000Y-84323967D01*
X158532140Y-84469059D01*
X158475528Y-84605732D01*
X158475527Y-84605733D01*
X158393338Y-84728738D01*
X158288738Y-84833338D01*
X158288735Y-84833340D01*
X158165732Y-84915528D01*
X158029059Y-84972140D01*
X157942004Y-84989456D01*
X157883969Y-85001000D01*
X157736031Y-85001000D01*
X157677996Y-84989456D01*
X157590941Y-84972140D01*
X157454268Y-84915528D01*
X157331265Y-84833340D01*
X157331262Y-84833338D01*
X157226662Y-84728738D01*
X157144473Y-84605733D01*
X157144472Y-84605732D01*
X157087860Y-84469059D01*
X157059000Y-84323967D01*
X157059000Y-84176033D01*
X157087860Y-84030941D01*
X157144472Y-83894268D01*
X157226660Y-83771265D01*
X157226662Y-83771262D01*
X157331262Y-83666662D01*
X157454267Y-83584473D01*
X157454268Y-83584472D01*
X157590941Y-83527860D01*
X157677996Y-83510544D01*
X157736031Y-83499000D01*
X157883969Y-83499000D01*
X157942004Y-83510544D01*
X157942004Y-83510544D01*
G37*
G36*
X155942004Y-83510544D02*
X156029059Y-83527860D01*
X156165732Y-83584472D01*
X156165733Y-83584473D01*
X156288738Y-83666662D01*
X156393338Y-83771262D01*
X156393340Y-83771265D01*
X156475528Y-83894268D01*
X156532140Y-84030941D01*
X156561000Y-84176033D01*
X156561000Y-84323967D01*
X156532140Y-84469059D01*
X156475528Y-84605732D01*
X156475527Y-84605733D01*
X156393338Y-84728738D01*
X156288738Y-84833338D01*
X156288735Y-84833340D01*
X156165732Y-84915528D01*
X156029059Y-84972140D01*
X155942004Y-84989456D01*
X155883969Y-85001000D01*
X155736031Y-85001000D01*
X155677996Y-84989456D01*
X155590941Y-84972140D01*
X155454268Y-84915528D01*
X155331265Y-84833340D01*
X155331262Y-84833338D01*
X155226662Y-84728738D01*
X155144473Y-84605733D01*
X155144472Y-84605732D01*
X155087860Y-84469059D01*
X155059000Y-84323967D01*
X155059000Y-84176033D01*
X155087860Y-84030941D01*
X155144472Y-83894268D01*
X155226660Y-83771265D01*
X155226662Y-83771262D01*
X155331262Y-83666662D01*
X155454267Y-83584473D01*
X155454268Y-83584472D01*
X155590941Y-83527860D01*
X155677996Y-83510544D01*
X155736031Y-83499000D01*
X155883969Y-83499000D01*
X155942004Y-83510544D01*
X155942004Y-83510544D01*
G37*
G36*
X160384443Y-79115519D02*
X160450627Y-79122037D01*
X160563853Y-79156384D01*
X160620467Y-79173557D01*
X160759087Y-79247652D01*
X160776991Y-79257222D01*
X160812729Y-79286552D01*
X160914186Y-79369814D01*
X160997448Y-79471271D01*
X161026778Y-79507009D01*
X161026779Y-79507011D01*
X161110443Y-79663533D01*
X161110443Y-79663534D01*
X161161963Y-79833373D01*
X161179359Y-80010000D01*
X161161963Y-80186627D01*
X161127616Y-80299853D01*
X161110443Y-80356467D01*
X161036348Y-80495087D01*
X161026778Y-80512991D01*
X160997448Y-80548729D01*
X160914186Y-80650186D01*
X160812729Y-80733448D01*
X160776991Y-80762778D01*
X160776989Y-80762779D01*
X160620467Y-80846443D01*
X160563853Y-80863616D01*
X160450627Y-80897963D01*
X160384442Y-80904482D01*
X160318260Y-80911000D01*
X160229740Y-80911000D01*
X160163558Y-80904482D01*
X160097373Y-80897963D01*
X159984147Y-80863616D01*
X159927533Y-80846443D01*
X159771011Y-80762779D01*
X159771009Y-80762778D01*
X159735271Y-80733448D01*
X159633814Y-80650186D01*
X159550552Y-80548729D01*
X159521222Y-80512991D01*
X159511652Y-80495087D01*
X159437557Y-80356467D01*
X159420384Y-80299853D01*
X159386037Y-80186627D01*
X159368641Y-80010000D01*
X159386037Y-79833373D01*
X159437557Y-79663534D01*
X159437557Y-79663533D01*
X159521221Y-79507011D01*
X159521222Y-79507009D01*
X159550552Y-79471271D01*
X159633814Y-79369814D01*
X159735271Y-79286552D01*
X159771009Y-79257222D01*
X159788913Y-79247652D01*
X159927533Y-79173557D01*
X159984147Y-79156384D01*
X160097373Y-79122037D01*
X160163557Y-79115519D01*
X160229740Y-79109000D01*
X160318260Y-79109000D01*
X160384443Y-79115519D01*
X160384443Y-79115519D01*
G37*
G36*
X166255000Y-80911000D02*
X164453000Y-80911000D01*
X164453000Y-79109000D01*
X166255000Y-79109000D01*
X166255000Y-80911000D01*
X166255000Y-80911000D01*
G37*
G36*
X162924443Y-79115519D02*
X162990627Y-79122037D01*
X163103853Y-79156384D01*
X163160467Y-79173557D01*
X163299087Y-79247652D01*
X163316991Y-79257222D01*
X163352729Y-79286552D01*
X163454186Y-79369814D01*
X163537448Y-79471271D01*
X163566778Y-79507009D01*
X163566779Y-79507011D01*
X163650443Y-79663533D01*
X163650443Y-79663534D01*
X163701963Y-79833373D01*
X163719359Y-80010000D01*
X163701963Y-80186627D01*
X163667616Y-80299853D01*
X163650443Y-80356467D01*
X163576348Y-80495087D01*
X163566778Y-80512991D01*
X163537448Y-80548729D01*
X163454186Y-80650186D01*
X163352729Y-80733448D01*
X163316991Y-80762778D01*
X163316989Y-80762779D01*
X163160467Y-80846443D01*
X163103853Y-80863616D01*
X162990627Y-80897963D01*
X162924442Y-80904482D01*
X162858260Y-80911000D01*
X162769740Y-80911000D01*
X162703558Y-80904482D01*
X162637373Y-80897963D01*
X162524147Y-80863616D01*
X162467533Y-80846443D01*
X162311011Y-80762779D01*
X162311009Y-80762778D01*
X162275271Y-80733448D01*
X162173814Y-80650186D01*
X162090552Y-80548729D01*
X162061222Y-80512991D01*
X162051652Y-80495087D01*
X161977557Y-80356467D01*
X161960384Y-80299853D01*
X161926037Y-80186627D01*
X161908641Y-80010000D01*
X161926037Y-79833373D01*
X161977557Y-79663534D01*
X161977557Y-79663533D01*
X162061221Y-79507011D01*
X162061222Y-79507009D01*
X162090552Y-79471271D01*
X162173814Y-79369814D01*
X162275271Y-79286552D01*
X162311009Y-79257222D01*
X162328913Y-79247652D01*
X162467533Y-79173557D01*
X162524147Y-79156384D01*
X162637373Y-79122037D01*
X162703557Y-79115519D01*
X162769740Y-79109000D01*
X162858260Y-79109000D01*
X162924443Y-79115519D01*
X162924443Y-79115519D01*
G37*
G36*
X152764442Y-75813518D02*
X152830627Y-75820037D01*
X152943853Y-75854384D01*
X153000467Y-75871557D01*
X153130363Y-75940989D01*
X153156991Y-75955222D01*
X153192729Y-75984552D01*
X153294186Y-76067814D01*
X153377448Y-76169271D01*
X153406778Y-76205009D01*
X153406779Y-76205011D01*
X153490443Y-76361533D01*
X153490443Y-76361534D01*
X153541963Y-76531373D01*
X153559359Y-76708000D01*
X153541963Y-76884627D01*
X153507616Y-76997853D01*
X153490443Y-77054467D01*
X153416348Y-77193087D01*
X153406778Y-77210991D01*
X153377448Y-77246729D01*
X153294186Y-77348186D01*
X153192729Y-77431448D01*
X153156991Y-77460778D01*
X153156989Y-77460779D01*
X153000467Y-77544443D01*
X152943853Y-77561616D01*
X152830627Y-77595963D01*
X152764443Y-77602481D01*
X152698260Y-77609000D01*
X152609740Y-77609000D01*
X152543557Y-77602481D01*
X152477373Y-77595963D01*
X152364147Y-77561616D01*
X152307533Y-77544443D01*
X152151011Y-77460779D01*
X152151009Y-77460778D01*
X152115271Y-77431448D01*
X152013814Y-77348186D01*
X151930552Y-77246729D01*
X151901222Y-77210991D01*
X151891652Y-77193087D01*
X151817557Y-77054467D01*
X151800384Y-76997853D01*
X151766037Y-76884627D01*
X151748641Y-76708000D01*
X151766037Y-76531373D01*
X151817557Y-76361534D01*
X151817557Y-76361533D01*
X151901221Y-76205011D01*
X151901222Y-76205009D01*
X151930552Y-76169271D01*
X152013814Y-76067814D01*
X152115271Y-75984552D01*
X152151009Y-75955222D01*
X152177637Y-75940989D01*
X152307533Y-75871557D01*
X152364147Y-75854384D01*
X152477373Y-75820037D01*
X152543558Y-75813518D01*
X152609740Y-75807000D01*
X152698260Y-75807000D01*
X152764442Y-75813518D01*
X152764442Y-75813518D01*
G37*
G36*
X148475000Y-77609000D02*
X146673000Y-77609000D01*
X146673000Y-75807000D01*
X148475000Y-75807000D01*
X148475000Y-77609000D01*
X148475000Y-77609000D01*
G37*
G36*
X150224442Y-75813518D02*
X150290627Y-75820037D01*
X150403853Y-75854384D01*
X150460467Y-75871557D01*
X150590363Y-75940989D01*
X150616991Y-75955222D01*
X150652729Y-75984552D01*
X150754186Y-76067814D01*
X150837448Y-76169271D01*
X150866778Y-76205009D01*
X150866779Y-76205011D01*
X150950443Y-76361533D01*
X150950443Y-76361534D01*
X151001963Y-76531373D01*
X151019359Y-76708000D01*
X151001963Y-76884627D01*
X150967616Y-76997853D01*
X150950443Y-77054467D01*
X150876348Y-77193087D01*
X150866778Y-77210991D01*
X150837448Y-77246729D01*
X150754186Y-77348186D01*
X150652729Y-77431448D01*
X150616991Y-77460778D01*
X150616989Y-77460779D01*
X150460467Y-77544443D01*
X150403853Y-77561616D01*
X150290627Y-77595963D01*
X150224443Y-77602481D01*
X150158260Y-77609000D01*
X150069740Y-77609000D01*
X150003557Y-77602481D01*
X149937373Y-77595963D01*
X149824147Y-77561616D01*
X149767533Y-77544443D01*
X149611011Y-77460779D01*
X149611009Y-77460778D01*
X149575271Y-77431448D01*
X149473814Y-77348186D01*
X149390552Y-77246729D01*
X149361222Y-77210991D01*
X149351652Y-77193087D01*
X149277557Y-77054467D01*
X149260384Y-76997853D01*
X149226037Y-76884627D01*
X149208641Y-76708000D01*
X149226037Y-76531373D01*
X149277557Y-76361534D01*
X149277557Y-76361533D01*
X149361221Y-76205011D01*
X149361222Y-76205009D01*
X149390552Y-76169271D01*
X149473814Y-76067814D01*
X149575271Y-75984552D01*
X149611009Y-75955222D01*
X149637637Y-75940989D01*
X149767533Y-75871557D01*
X149824147Y-75854384D01*
X149937373Y-75820037D01*
X150003558Y-75813518D01*
X150069740Y-75807000D01*
X150158260Y-75807000D01*
X150224442Y-75813518D01*
X150224442Y-75813518D01*
G37*
G36*
X159651000Y-76339000D02*
X157849000Y-76339000D01*
X157849000Y-74537000D01*
X159651000Y-74537000D01*
X159651000Y-76339000D01*
X159651000Y-76339000D01*
G37*
G36*
X161400443Y-74543519D02*
X161466627Y-74550037D01*
X161579853Y-74584384D01*
X161636467Y-74601557D01*
X161775087Y-74675652D01*
X161792991Y-74685222D01*
X161828729Y-74714552D01*
X161930186Y-74797814D01*
X162013448Y-74899271D01*
X162042778Y-74935009D01*
X162042779Y-74935011D01*
X162126443Y-75091533D01*
X162126443Y-75091534D01*
X162177963Y-75261373D01*
X162195359Y-75438000D01*
X162177963Y-75614627D01*
X162143616Y-75727853D01*
X162126443Y-75784467D01*
X162107430Y-75820037D01*
X162042778Y-75940991D01*
X162013448Y-75976729D01*
X161930186Y-76078186D01*
X161828729Y-76161448D01*
X161792991Y-76190778D01*
X161792989Y-76190779D01*
X161636467Y-76274443D01*
X161579853Y-76291616D01*
X161466627Y-76325963D01*
X161400442Y-76332482D01*
X161334260Y-76339000D01*
X161245740Y-76339000D01*
X161179558Y-76332482D01*
X161113373Y-76325963D01*
X161000147Y-76291616D01*
X160943533Y-76274443D01*
X160787011Y-76190779D01*
X160787009Y-76190778D01*
X160751271Y-76161448D01*
X160649814Y-76078186D01*
X160566552Y-75976729D01*
X160537222Y-75940991D01*
X160472570Y-75820037D01*
X160453557Y-75784467D01*
X160436384Y-75727853D01*
X160402037Y-75614627D01*
X160384641Y-75438000D01*
X160402037Y-75261373D01*
X160453557Y-75091534D01*
X160453557Y-75091533D01*
X160537221Y-74935011D01*
X160537222Y-74935009D01*
X160566552Y-74899271D01*
X160649814Y-74797814D01*
X160751271Y-74714552D01*
X160787009Y-74685222D01*
X160804913Y-74675652D01*
X160943533Y-74601557D01*
X161000147Y-74584384D01*
X161113373Y-74550037D01*
X161179557Y-74543519D01*
X161245740Y-74537000D01*
X161334260Y-74537000D01*
X161400443Y-74543519D01*
X161400443Y-74543519D01*
G37*
G36*
X166480443Y-74543519D02*
X166546627Y-74550037D01*
X166659853Y-74584384D01*
X166716467Y-74601557D01*
X166855087Y-74675652D01*
X166872991Y-74685222D01*
X166908729Y-74714552D01*
X167010186Y-74797814D01*
X167093448Y-74899271D01*
X167122778Y-74935009D01*
X167122779Y-74935011D01*
X167206443Y-75091533D01*
X167206443Y-75091534D01*
X167257963Y-75261373D01*
X167275359Y-75438000D01*
X167257963Y-75614627D01*
X167223616Y-75727853D01*
X167206443Y-75784467D01*
X167187430Y-75820037D01*
X167122778Y-75940991D01*
X167093448Y-75976729D01*
X167010186Y-76078186D01*
X166908729Y-76161448D01*
X166872991Y-76190778D01*
X166872989Y-76190779D01*
X166716467Y-76274443D01*
X166659853Y-76291616D01*
X166546627Y-76325963D01*
X166480442Y-76332482D01*
X166414260Y-76339000D01*
X166325740Y-76339000D01*
X166259558Y-76332482D01*
X166193373Y-76325963D01*
X166080147Y-76291616D01*
X166023533Y-76274443D01*
X165867011Y-76190779D01*
X165867009Y-76190778D01*
X165831271Y-76161448D01*
X165729814Y-76078186D01*
X165646552Y-75976729D01*
X165617222Y-75940991D01*
X165552570Y-75820037D01*
X165533557Y-75784467D01*
X165516384Y-75727853D01*
X165482037Y-75614627D01*
X165464641Y-75438000D01*
X165482037Y-75261373D01*
X165533557Y-75091534D01*
X165533557Y-75091533D01*
X165617221Y-74935011D01*
X165617222Y-74935009D01*
X165646552Y-74899271D01*
X165729814Y-74797814D01*
X165831271Y-74714552D01*
X165867009Y-74685222D01*
X165884913Y-74675652D01*
X166023533Y-74601557D01*
X166080147Y-74584384D01*
X166193373Y-74550037D01*
X166259557Y-74543519D01*
X166325740Y-74537000D01*
X166414260Y-74537000D01*
X166480443Y-74543519D01*
X166480443Y-74543519D01*
G37*
G36*
X164731000Y-76339000D02*
X162929000Y-76339000D01*
X162929000Y-74537000D01*
X164731000Y-74537000D01*
X164731000Y-76339000D01*
X164731000Y-76339000D01*
G37*
G36*
X197648031Y-69537509D02*
X197714215Y-69544027D01*
X197827441Y-69578374D01*
X197884055Y-69595547D01*
X197990085Y-69652222D01*
X198040579Y-69679212D01*
X198051856Y-69688467D01*
X198177774Y-69791804D01*
X198261036Y-69893261D01*
X198290366Y-69928999D01*
X198290367Y-69929001D01*
X198374031Y-70085523D01*
X198391204Y-70142137D01*
X198425551Y-70255363D01*
X198442947Y-70431990D01*
X198425551Y-70608617D01*
X198391204Y-70721843D01*
X198374031Y-70778457D01*
X198304793Y-70907990D01*
X198290366Y-70934981D01*
X198261036Y-70970719D01*
X198177774Y-71072176D01*
X198076317Y-71155438D01*
X198040579Y-71184768D01*
X198040577Y-71184769D01*
X197884055Y-71268433D01*
X197827441Y-71285606D01*
X197714215Y-71319953D01*
X197648031Y-71326471D01*
X197581848Y-71332990D01*
X197493328Y-71332990D01*
X197427145Y-71326471D01*
X197360961Y-71319953D01*
X197247735Y-71285606D01*
X197191121Y-71268433D01*
X197034599Y-71184769D01*
X197034597Y-71184768D01*
X196998859Y-71155438D01*
X196897402Y-71072176D01*
X196814140Y-70970719D01*
X196784810Y-70934981D01*
X196770383Y-70907990D01*
X196701145Y-70778457D01*
X196683972Y-70721843D01*
X196649625Y-70608617D01*
X196632229Y-70431990D01*
X196649625Y-70255363D01*
X196683972Y-70142137D01*
X196701145Y-70085523D01*
X196784809Y-69929001D01*
X196784810Y-69928999D01*
X196814140Y-69893261D01*
X196897402Y-69791804D01*
X197023320Y-69688467D01*
X197034597Y-69679212D01*
X197085091Y-69652222D01*
X197191121Y-69595547D01*
X197247735Y-69578374D01*
X197360961Y-69544027D01*
X197427145Y-69537509D01*
X197493328Y-69530990D01*
X197581848Y-69530990D01*
X197648031Y-69537509D01*
X197648031Y-69537509D01*
G37*
G36*
X195108031Y-69537509D02*
X195174215Y-69544027D01*
X195287441Y-69578374D01*
X195344055Y-69595547D01*
X195450085Y-69652222D01*
X195500579Y-69679212D01*
X195511856Y-69688467D01*
X195637774Y-69791804D01*
X195721036Y-69893261D01*
X195750366Y-69928999D01*
X195750367Y-69929001D01*
X195834031Y-70085523D01*
X195851204Y-70142137D01*
X195885551Y-70255363D01*
X195902947Y-70431990D01*
X195885551Y-70608617D01*
X195851204Y-70721843D01*
X195834031Y-70778457D01*
X195764793Y-70907990D01*
X195750366Y-70934981D01*
X195721036Y-70970719D01*
X195637774Y-71072176D01*
X195536317Y-71155438D01*
X195500579Y-71184768D01*
X195500577Y-71184769D01*
X195344055Y-71268433D01*
X195287441Y-71285606D01*
X195174215Y-71319953D01*
X195108031Y-71326471D01*
X195041848Y-71332990D01*
X194953328Y-71332990D01*
X194887145Y-71326471D01*
X194820961Y-71319953D01*
X194707735Y-71285606D01*
X194651121Y-71268433D01*
X194494599Y-71184769D01*
X194494597Y-71184768D01*
X194458859Y-71155438D01*
X194357402Y-71072176D01*
X194274140Y-70970719D01*
X194244810Y-70934981D01*
X194230383Y-70907990D01*
X194161145Y-70778457D01*
X194143972Y-70721843D01*
X194109625Y-70608617D01*
X194092229Y-70431990D01*
X194109625Y-70255363D01*
X194143972Y-70142137D01*
X194161145Y-70085523D01*
X194244809Y-69929001D01*
X194244810Y-69928999D01*
X194274140Y-69893261D01*
X194357402Y-69791804D01*
X194483320Y-69688467D01*
X194494597Y-69679212D01*
X194545091Y-69652222D01*
X194651121Y-69595547D01*
X194707735Y-69578374D01*
X194820961Y-69544027D01*
X194887145Y-69537509D01*
X194953328Y-69530990D01*
X195041848Y-69530990D01*
X195108031Y-69537509D01*
X195108031Y-69537509D01*
G37*
G36*
X193358588Y-71332990D02*
X191556588Y-71332990D01*
X191556588Y-69530990D01*
X193358588Y-69530990D01*
X193358588Y-71332990D01*
X193358588Y-71332990D01*
G37*
G36*
X132595443Y-69510519D02*
X132661628Y-69517038D01*
X132750599Y-69544027D01*
X132831468Y-69568558D01*
X132970088Y-69642653D01*
X132987992Y-69652223D01*
X133020877Y-69679211D01*
X133125187Y-69764815D01*
X133208449Y-69866272D01*
X133237779Y-69902010D01*
X133237780Y-69902012D01*
X133321444Y-70058534D01*
X133338617Y-70115148D01*
X133372964Y-70228374D01*
X133390360Y-70405001D01*
X133372964Y-70581628D01*
X133364777Y-70608617D01*
X133321444Y-70751468D01*
X133247349Y-70890088D01*
X133237779Y-70907992D01*
X133208449Y-70943730D01*
X133125187Y-71045187D01*
X133023730Y-71128449D01*
X132987992Y-71157779D01*
X132987990Y-71157780D01*
X132831468Y-71241444D01*
X132774854Y-71258617D01*
X132661628Y-71292964D01*
X132595444Y-71299482D01*
X132529261Y-71306001D01*
X132440741Y-71306001D01*
X132374558Y-71299482D01*
X132308374Y-71292964D01*
X132195148Y-71258617D01*
X132138534Y-71241444D01*
X131982012Y-71157780D01*
X131982010Y-71157779D01*
X131946272Y-71128449D01*
X131844815Y-71045187D01*
X131761553Y-70943730D01*
X131732223Y-70907992D01*
X131722653Y-70890088D01*
X131648558Y-70751468D01*
X131605225Y-70608617D01*
X131597038Y-70581628D01*
X131579642Y-70405001D01*
X131597038Y-70228374D01*
X131631385Y-70115148D01*
X131648558Y-70058534D01*
X131732222Y-69902012D01*
X131732223Y-69902010D01*
X131761553Y-69866272D01*
X131844815Y-69764815D01*
X131949125Y-69679211D01*
X131982010Y-69652223D01*
X131999914Y-69642653D01*
X132138534Y-69568558D01*
X132219403Y-69544027D01*
X132308374Y-69517038D01*
X132374559Y-69510519D01*
X132440741Y-69504001D01*
X132529261Y-69504001D01*
X132595443Y-69510519D01*
X132595443Y-69510519D01*
G37*
G36*
X126395443Y-69510519D02*
X126461628Y-69517038D01*
X126550599Y-69544027D01*
X126631468Y-69568558D01*
X126770088Y-69642653D01*
X126787992Y-69652223D01*
X126820877Y-69679211D01*
X126925187Y-69764815D01*
X127008449Y-69866272D01*
X127037779Y-69902010D01*
X127037780Y-69902012D01*
X127121444Y-70058534D01*
X127138617Y-70115148D01*
X127172964Y-70228374D01*
X127190360Y-70405001D01*
X127172964Y-70581628D01*
X127164777Y-70608617D01*
X127121444Y-70751468D01*
X127047349Y-70890088D01*
X127037779Y-70907992D01*
X127008449Y-70943730D01*
X126925187Y-71045187D01*
X126823730Y-71128449D01*
X126787992Y-71157779D01*
X126787990Y-71157780D01*
X126631468Y-71241444D01*
X126574854Y-71258617D01*
X126461628Y-71292964D01*
X126395444Y-71299482D01*
X126329261Y-71306001D01*
X126240741Y-71306001D01*
X126174558Y-71299482D01*
X126108374Y-71292964D01*
X125995148Y-71258617D01*
X125938534Y-71241444D01*
X125782012Y-71157780D01*
X125782010Y-71157779D01*
X125746272Y-71128449D01*
X125644815Y-71045187D01*
X125561553Y-70943730D01*
X125532223Y-70907992D01*
X125522653Y-70890088D01*
X125448558Y-70751468D01*
X125405225Y-70608617D01*
X125397038Y-70581628D01*
X125379642Y-70405001D01*
X125397038Y-70228374D01*
X125431385Y-70115148D01*
X125448558Y-70058534D01*
X125532222Y-69902012D01*
X125532223Y-69902010D01*
X125561553Y-69866272D01*
X125644815Y-69764815D01*
X125749125Y-69679211D01*
X125782010Y-69652223D01*
X125799914Y-69642653D01*
X125938534Y-69568558D01*
X126019403Y-69544027D01*
X126108374Y-69517038D01*
X126174559Y-69510519D01*
X126240741Y-69504001D01*
X126329261Y-69504001D01*
X126395443Y-69510519D01*
X126395443Y-69510519D01*
G37*
G36*
X128935443Y-69510519D02*
X129001628Y-69517038D01*
X129090599Y-69544027D01*
X129171468Y-69568558D01*
X129310088Y-69642653D01*
X129327992Y-69652223D01*
X129360877Y-69679211D01*
X129465187Y-69764815D01*
X129548449Y-69866272D01*
X129577779Y-69902010D01*
X129577780Y-69902012D01*
X129661444Y-70058534D01*
X129678617Y-70115148D01*
X129712964Y-70228374D01*
X129730360Y-70405001D01*
X129712964Y-70581628D01*
X129704777Y-70608617D01*
X129661444Y-70751468D01*
X129587349Y-70890088D01*
X129577779Y-70907992D01*
X129548449Y-70943730D01*
X129465187Y-71045187D01*
X129363730Y-71128449D01*
X129327992Y-71157779D01*
X129327990Y-71157780D01*
X129171468Y-71241444D01*
X129114854Y-71258617D01*
X129001628Y-71292964D01*
X128935444Y-71299482D01*
X128869261Y-71306001D01*
X128780741Y-71306001D01*
X128714558Y-71299482D01*
X128648374Y-71292964D01*
X128535148Y-71258617D01*
X128478534Y-71241444D01*
X128322012Y-71157780D01*
X128322010Y-71157779D01*
X128286272Y-71128449D01*
X128184815Y-71045187D01*
X128101553Y-70943730D01*
X128072223Y-70907992D01*
X128062653Y-70890088D01*
X127988558Y-70751468D01*
X127945225Y-70608617D01*
X127937038Y-70581628D01*
X127919642Y-70405001D01*
X127937038Y-70228374D01*
X127971385Y-70115148D01*
X127988558Y-70058534D01*
X128072222Y-69902012D01*
X128072223Y-69902010D01*
X128101553Y-69866272D01*
X128184815Y-69764815D01*
X128289125Y-69679211D01*
X128322010Y-69652223D01*
X128339914Y-69642653D01*
X128478534Y-69568558D01*
X128559403Y-69544027D01*
X128648374Y-69517038D01*
X128714559Y-69510519D01*
X128780741Y-69504001D01*
X128869261Y-69504001D01*
X128935443Y-69510519D01*
X128935443Y-69510519D01*
G37*
G36*
X135135443Y-69510519D02*
X135201628Y-69517038D01*
X135290599Y-69544027D01*
X135371468Y-69568558D01*
X135510088Y-69642653D01*
X135527992Y-69652223D01*
X135560877Y-69679211D01*
X135665187Y-69764815D01*
X135748449Y-69866272D01*
X135777779Y-69902010D01*
X135777780Y-69902012D01*
X135861444Y-70058534D01*
X135878617Y-70115148D01*
X135912964Y-70228374D01*
X135930360Y-70405001D01*
X135912964Y-70581628D01*
X135904777Y-70608617D01*
X135861444Y-70751468D01*
X135787349Y-70890088D01*
X135777779Y-70907992D01*
X135748449Y-70943730D01*
X135665187Y-71045187D01*
X135563730Y-71128449D01*
X135527992Y-71157779D01*
X135527990Y-71157780D01*
X135371468Y-71241444D01*
X135314854Y-71258617D01*
X135201628Y-71292964D01*
X135135444Y-71299482D01*
X135069261Y-71306001D01*
X134980741Y-71306001D01*
X134914558Y-71299482D01*
X134848374Y-71292964D01*
X134735148Y-71258617D01*
X134678534Y-71241444D01*
X134522012Y-71157780D01*
X134522010Y-71157779D01*
X134486272Y-71128449D01*
X134384815Y-71045187D01*
X134301553Y-70943730D01*
X134272223Y-70907992D01*
X134262653Y-70890088D01*
X134188558Y-70751468D01*
X134145225Y-70608617D01*
X134137038Y-70581628D01*
X134119642Y-70405001D01*
X134137038Y-70228374D01*
X134171385Y-70115148D01*
X134188558Y-70058534D01*
X134272222Y-69902012D01*
X134272223Y-69902010D01*
X134301553Y-69866272D01*
X134384815Y-69764815D01*
X134489125Y-69679211D01*
X134522010Y-69652223D01*
X134539914Y-69642653D01*
X134678534Y-69568558D01*
X134759403Y-69544027D01*
X134848374Y-69517038D01*
X134914559Y-69510519D01*
X134980741Y-69504001D01*
X135069261Y-69504001D01*
X135135443Y-69510519D01*
X135135443Y-69510519D01*
G37*
G36*
X146951000Y-70497000D02*
X145149000Y-70497000D01*
X145149000Y-68695000D01*
X146951000Y-68695000D01*
X146951000Y-70497000D01*
X146951000Y-70497000D01*
G37*
G36*
X171052442Y-68447518D02*
X171118627Y-68454037D01*
X171231853Y-68488384D01*
X171288467Y-68505557D01*
X171427087Y-68579652D01*
X171444991Y-68589222D01*
X171479788Y-68617779D01*
X171582186Y-68701814D01*
X171665448Y-68803271D01*
X171694778Y-68839009D01*
X171694779Y-68839011D01*
X171778443Y-68995533D01*
X171778443Y-68995534D01*
X171829963Y-69165373D01*
X171847359Y-69342000D01*
X171829963Y-69518627D01*
X171795616Y-69631853D01*
X171778443Y-69688467D01*
X171737633Y-69764816D01*
X171694778Y-69844991D01*
X171665448Y-69880729D01*
X171582186Y-69982186D01*
X171489154Y-70058534D01*
X171444991Y-70094778D01*
X171444989Y-70094779D01*
X171288467Y-70178443D01*
X171231853Y-70195616D01*
X171118627Y-70229963D01*
X171052442Y-70236482D01*
X170986260Y-70243000D01*
X170897740Y-70243000D01*
X170831558Y-70236482D01*
X170765373Y-70229963D01*
X170652147Y-70195616D01*
X170595533Y-70178443D01*
X170439011Y-70094779D01*
X170439009Y-70094778D01*
X170394846Y-70058534D01*
X170301814Y-69982186D01*
X170218552Y-69880729D01*
X170189222Y-69844991D01*
X170146367Y-69764816D01*
X170105557Y-69688467D01*
X170088384Y-69631853D01*
X170054037Y-69518627D01*
X170036641Y-69342000D01*
X170054037Y-69165373D01*
X170105557Y-68995534D01*
X170105557Y-68995533D01*
X170189221Y-68839011D01*
X170189222Y-68839009D01*
X170218552Y-68803271D01*
X170301814Y-68701814D01*
X170404212Y-68617779D01*
X170439009Y-68589222D01*
X170456913Y-68579652D01*
X170595533Y-68505557D01*
X170652147Y-68488384D01*
X170765373Y-68454037D01*
X170831558Y-68447518D01*
X170897740Y-68441000D01*
X170986260Y-68441000D01*
X171052442Y-68447518D01*
X171052442Y-68447518D01*
G37*
G36*
X168512442Y-68447518D02*
X168578627Y-68454037D01*
X168691853Y-68488384D01*
X168748467Y-68505557D01*
X168887087Y-68579652D01*
X168904991Y-68589222D01*
X168939788Y-68617779D01*
X169042186Y-68701814D01*
X169125448Y-68803271D01*
X169154778Y-68839009D01*
X169154779Y-68839011D01*
X169238443Y-68995533D01*
X169238443Y-68995534D01*
X169289963Y-69165373D01*
X169307359Y-69342000D01*
X169289963Y-69518627D01*
X169255616Y-69631853D01*
X169238443Y-69688467D01*
X169197633Y-69764816D01*
X169154778Y-69844991D01*
X169125448Y-69880729D01*
X169042186Y-69982186D01*
X168949154Y-70058534D01*
X168904991Y-70094778D01*
X168904989Y-70094779D01*
X168748467Y-70178443D01*
X168691853Y-70195616D01*
X168578627Y-70229963D01*
X168512442Y-70236482D01*
X168446260Y-70243000D01*
X168357740Y-70243000D01*
X168291558Y-70236482D01*
X168225373Y-70229963D01*
X168112147Y-70195616D01*
X168055533Y-70178443D01*
X167899011Y-70094779D01*
X167899009Y-70094778D01*
X167854846Y-70058534D01*
X167761814Y-69982186D01*
X167678552Y-69880729D01*
X167649222Y-69844991D01*
X167606367Y-69764816D01*
X167565557Y-69688467D01*
X167548384Y-69631853D01*
X167514037Y-69518627D01*
X167496641Y-69342000D01*
X167514037Y-69165373D01*
X167565557Y-68995534D01*
X167565557Y-68995533D01*
X167649221Y-68839011D01*
X167649222Y-68839009D01*
X167678552Y-68803271D01*
X167761814Y-68701814D01*
X167864212Y-68617779D01*
X167899009Y-68589222D01*
X167916913Y-68579652D01*
X168055533Y-68505557D01*
X168112147Y-68488384D01*
X168225373Y-68454037D01*
X168291558Y-68447518D01*
X168357740Y-68441000D01*
X168446260Y-68441000D01*
X168512442Y-68447518D01*
X168512442Y-68447518D01*
G37*
G36*
X165972442Y-68447518D02*
X166038627Y-68454037D01*
X166151853Y-68488384D01*
X166208467Y-68505557D01*
X166347087Y-68579652D01*
X166364991Y-68589222D01*
X166399788Y-68617779D01*
X166502186Y-68701814D01*
X166585448Y-68803271D01*
X166614778Y-68839009D01*
X166614779Y-68839011D01*
X166698443Y-68995533D01*
X166698443Y-68995534D01*
X166749963Y-69165373D01*
X166767359Y-69342000D01*
X166749963Y-69518627D01*
X166715616Y-69631853D01*
X166698443Y-69688467D01*
X166657633Y-69764816D01*
X166614778Y-69844991D01*
X166585448Y-69880729D01*
X166502186Y-69982186D01*
X166409154Y-70058534D01*
X166364991Y-70094778D01*
X166364989Y-70094779D01*
X166208467Y-70178443D01*
X166151853Y-70195616D01*
X166038627Y-70229963D01*
X165972442Y-70236482D01*
X165906260Y-70243000D01*
X165817740Y-70243000D01*
X165751558Y-70236482D01*
X165685373Y-70229963D01*
X165572147Y-70195616D01*
X165515533Y-70178443D01*
X165359011Y-70094779D01*
X165359009Y-70094778D01*
X165314846Y-70058534D01*
X165221814Y-69982186D01*
X165138552Y-69880729D01*
X165109222Y-69844991D01*
X165066367Y-69764816D01*
X165025557Y-69688467D01*
X165008384Y-69631853D01*
X164974037Y-69518627D01*
X164956641Y-69342000D01*
X164974037Y-69165373D01*
X165025557Y-68995534D01*
X165025557Y-68995533D01*
X165109221Y-68839011D01*
X165109222Y-68839009D01*
X165138552Y-68803271D01*
X165221814Y-68701814D01*
X165324212Y-68617779D01*
X165359009Y-68589222D01*
X165376913Y-68579652D01*
X165515533Y-68505557D01*
X165572147Y-68488384D01*
X165685373Y-68454037D01*
X165751558Y-68447518D01*
X165817740Y-68441000D01*
X165906260Y-68441000D01*
X165972442Y-68447518D01*
X165972442Y-68447518D01*
G37*
G36*
X163432442Y-68447518D02*
X163498627Y-68454037D01*
X163611853Y-68488384D01*
X163668467Y-68505557D01*
X163807087Y-68579652D01*
X163824991Y-68589222D01*
X163859788Y-68617779D01*
X163962186Y-68701814D01*
X164045448Y-68803271D01*
X164074778Y-68839009D01*
X164074779Y-68839011D01*
X164158443Y-68995533D01*
X164158443Y-68995534D01*
X164209963Y-69165373D01*
X164227359Y-69342000D01*
X164209963Y-69518627D01*
X164175616Y-69631853D01*
X164158443Y-69688467D01*
X164117633Y-69764816D01*
X164074778Y-69844991D01*
X164045448Y-69880729D01*
X163962186Y-69982186D01*
X163869154Y-70058534D01*
X163824991Y-70094778D01*
X163824989Y-70094779D01*
X163668467Y-70178443D01*
X163611853Y-70195616D01*
X163498627Y-70229963D01*
X163432442Y-70236482D01*
X163366260Y-70243000D01*
X163277740Y-70243000D01*
X163211558Y-70236482D01*
X163145373Y-70229963D01*
X163032147Y-70195616D01*
X162975533Y-70178443D01*
X162819011Y-70094779D01*
X162819009Y-70094778D01*
X162774846Y-70058534D01*
X162681814Y-69982186D01*
X162598552Y-69880729D01*
X162569222Y-69844991D01*
X162526367Y-69764816D01*
X162485557Y-69688467D01*
X162468384Y-69631853D01*
X162434037Y-69518627D01*
X162416641Y-69342000D01*
X162434037Y-69165373D01*
X162485557Y-68995534D01*
X162485557Y-68995533D01*
X162569221Y-68839011D01*
X162569222Y-68839009D01*
X162598552Y-68803271D01*
X162681814Y-68701814D01*
X162784212Y-68617779D01*
X162819009Y-68589222D01*
X162836913Y-68579652D01*
X162975533Y-68505557D01*
X163032147Y-68488384D01*
X163145373Y-68454037D01*
X163211558Y-68447518D01*
X163277740Y-68441000D01*
X163366260Y-68441000D01*
X163432442Y-68447518D01*
X163432442Y-68447518D01*
G37*
G36*
X160892442Y-68447518D02*
X160958627Y-68454037D01*
X161071853Y-68488384D01*
X161128467Y-68505557D01*
X161267087Y-68579652D01*
X161284991Y-68589222D01*
X161319788Y-68617779D01*
X161422186Y-68701814D01*
X161505448Y-68803271D01*
X161534778Y-68839009D01*
X161534779Y-68839011D01*
X161618443Y-68995533D01*
X161618443Y-68995534D01*
X161669963Y-69165373D01*
X161687359Y-69342000D01*
X161669963Y-69518627D01*
X161635616Y-69631853D01*
X161618443Y-69688467D01*
X161577633Y-69764816D01*
X161534778Y-69844991D01*
X161505448Y-69880729D01*
X161422186Y-69982186D01*
X161329154Y-70058534D01*
X161284991Y-70094778D01*
X161284989Y-70094779D01*
X161128467Y-70178443D01*
X161071853Y-70195616D01*
X160958627Y-70229963D01*
X160892442Y-70236482D01*
X160826260Y-70243000D01*
X160737740Y-70243000D01*
X160671558Y-70236482D01*
X160605373Y-70229963D01*
X160492147Y-70195616D01*
X160435533Y-70178443D01*
X160279011Y-70094779D01*
X160279009Y-70094778D01*
X160234846Y-70058534D01*
X160141814Y-69982186D01*
X160058552Y-69880729D01*
X160029222Y-69844991D01*
X159986367Y-69764816D01*
X159945557Y-69688467D01*
X159928384Y-69631853D01*
X159894037Y-69518627D01*
X159876641Y-69342000D01*
X159894037Y-69165373D01*
X159945557Y-68995534D01*
X159945557Y-68995533D01*
X160029221Y-68839011D01*
X160029222Y-68839009D01*
X160058552Y-68803271D01*
X160141814Y-68701814D01*
X160244212Y-68617779D01*
X160279009Y-68589222D01*
X160296913Y-68579652D01*
X160435533Y-68505557D01*
X160492147Y-68488384D01*
X160605373Y-68454037D01*
X160671558Y-68447518D01*
X160737740Y-68441000D01*
X160826260Y-68441000D01*
X160892442Y-68447518D01*
X160892442Y-68447518D01*
G37*
G36*
X158352442Y-68447518D02*
X158418627Y-68454037D01*
X158531853Y-68488384D01*
X158588467Y-68505557D01*
X158727087Y-68579652D01*
X158744991Y-68589222D01*
X158779788Y-68617779D01*
X158882186Y-68701814D01*
X158965448Y-68803271D01*
X158994778Y-68839009D01*
X158994779Y-68839011D01*
X159078443Y-68995533D01*
X159078443Y-68995534D01*
X159129963Y-69165373D01*
X159147359Y-69342000D01*
X159129963Y-69518627D01*
X159095616Y-69631853D01*
X159078443Y-69688467D01*
X159037633Y-69764816D01*
X158994778Y-69844991D01*
X158965448Y-69880729D01*
X158882186Y-69982186D01*
X158789154Y-70058534D01*
X158744991Y-70094778D01*
X158744989Y-70094779D01*
X158588467Y-70178443D01*
X158531853Y-70195616D01*
X158418627Y-70229963D01*
X158352442Y-70236482D01*
X158286260Y-70243000D01*
X158197740Y-70243000D01*
X158131558Y-70236482D01*
X158065373Y-70229963D01*
X157952147Y-70195616D01*
X157895533Y-70178443D01*
X157739011Y-70094779D01*
X157739009Y-70094778D01*
X157694846Y-70058534D01*
X157601814Y-69982186D01*
X157518552Y-69880729D01*
X157489222Y-69844991D01*
X157446367Y-69764816D01*
X157405557Y-69688467D01*
X157388384Y-69631853D01*
X157354037Y-69518627D01*
X157336641Y-69342000D01*
X157354037Y-69165373D01*
X157405557Y-68995534D01*
X157405557Y-68995533D01*
X157489221Y-68839011D01*
X157489222Y-68839009D01*
X157518552Y-68803271D01*
X157601814Y-68701814D01*
X157704212Y-68617779D01*
X157739009Y-68589222D01*
X157756913Y-68579652D01*
X157895533Y-68505557D01*
X157952147Y-68488384D01*
X158065373Y-68454037D01*
X158131558Y-68447518D01*
X158197740Y-68441000D01*
X158286260Y-68441000D01*
X158352442Y-68447518D01*
X158352442Y-68447518D01*
G37*
G36*
X173592442Y-68447518D02*
X173658627Y-68454037D01*
X173771853Y-68488384D01*
X173828467Y-68505557D01*
X173967087Y-68579652D01*
X173984991Y-68589222D01*
X174019788Y-68617779D01*
X174122186Y-68701814D01*
X174205448Y-68803271D01*
X174234778Y-68839009D01*
X174234779Y-68839011D01*
X174318443Y-68995533D01*
X174318443Y-68995534D01*
X174369963Y-69165373D01*
X174387359Y-69342000D01*
X174369963Y-69518627D01*
X174335616Y-69631853D01*
X174318443Y-69688467D01*
X174277633Y-69764816D01*
X174234778Y-69844991D01*
X174205448Y-69880729D01*
X174122186Y-69982186D01*
X174029154Y-70058534D01*
X173984991Y-70094778D01*
X173984989Y-70094779D01*
X173828467Y-70178443D01*
X173771853Y-70195616D01*
X173658627Y-70229963D01*
X173592442Y-70236482D01*
X173526260Y-70243000D01*
X173437740Y-70243000D01*
X173371558Y-70236482D01*
X173305373Y-70229963D01*
X173192147Y-70195616D01*
X173135533Y-70178443D01*
X172979011Y-70094779D01*
X172979009Y-70094778D01*
X172934846Y-70058534D01*
X172841814Y-69982186D01*
X172758552Y-69880729D01*
X172729222Y-69844991D01*
X172686367Y-69764816D01*
X172645557Y-69688467D01*
X172628384Y-69631853D01*
X172594037Y-69518627D01*
X172576641Y-69342000D01*
X172594037Y-69165373D01*
X172645557Y-68995534D01*
X172645557Y-68995533D01*
X172729221Y-68839011D01*
X172729222Y-68839009D01*
X172758552Y-68803271D01*
X172841814Y-68701814D01*
X172944212Y-68617779D01*
X172979009Y-68589222D01*
X172996913Y-68579652D01*
X173135533Y-68505557D01*
X173192147Y-68488384D01*
X173305373Y-68454037D01*
X173371558Y-68447518D01*
X173437740Y-68441000D01*
X173526260Y-68441000D01*
X173592442Y-68447518D01*
X173592442Y-68447518D01*
G37*
G36*
X155812442Y-68447518D02*
X155878627Y-68454037D01*
X155991853Y-68488384D01*
X156048467Y-68505557D01*
X156187087Y-68579652D01*
X156204991Y-68589222D01*
X156239788Y-68617779D01*
X156342186Y-68701814D01*
X156425448Y-68803271D01*
X156454778Y-68839009D01*
X156454779Y-68839011D01*
X156538443Y-68995533D01*
X156538443Y-68995534D01*
X156589963Y-69165373D01*
X156607359Y-69342000D01*
X156589963Y-69518627D01*
X156555616Y-69631853D01*
X156538443Y-69688467D01*
X156497633Y-69764816D01*
X156454778Y-69844991D01*
X156425448Y-69880729D01*
X156342186Y-69982186D01*
X156249154Y-70058534D01*
X156204991Y-70094778D01*
X156204989Y-70094779D01*
X156048467Y-70178443D01*
X155991853Y-70195616D01*
X155878627Y-70229963D01*
X155812442Y-70236482D01*
X155746260Y-70243000D01*
X155657740Y-70243000D01*
X155591558Y-70236482D01*
X155525373Y-70229963D01*
X155412147Y-70195616D01*
X155355533Y-70178443D01*
X155199011Y-70094779D01*
X155199009Y-70094778D01*
X155154846Y-70058534D01*
X155061814Y-69982186D01*
X154978552Y-69880729D01*
X154949222Y-69844991D01*
X154906367Y-69764816D01*
X154865557Y-69688467D01*
X154848384Y-69631853D01*
X154814037Y-69518627D01*
X154796641Y-69342000D01*
X154814037Y-69165373D01*
X154865557Y-68995534D01*
X154865557Y-68995533D01*
X154949221Y-68839011D01*
X154949222Y-68839009D01*
X154978552Y-68803271D01*
X155061814Y-68701814D01*
X155164212Y-68617779D01*
X155199009Y-68589222D01*
X155216913Y-68579652D01*
X155355533Y-68505557D01*
X155412147Y-68488384D01*
X155525373Y-68454037D01*
X155591558Y-68447518D01*
X155657740Y-68441000D01*
X155746260Y-68441000D01*
X155812442Y-68447518D01*
X155812442Y-68447518D01*
G37*
G36*
X154063000Y-70243000D02*
X152261000Y-70243000D01*
X152261000Y-68441000D01*
X154063000Y-68441000D01*
X154063000Y-70243000D01*
X154063000Y-70243000D01*
G37*
G36*
X126395444Y-66970520D02*
X126461628Y-66977038D01*
X126574854Y-67011385D01*
X126631468Y-67028558D01*
X126770088Y-67102653D01*
X126787992Y-67112223D01*
X126823730Y-67141553D01*
X126925187Y-67224815D01*
X127008449Y-67326272D01*
X127037779Y-67362010D01*
X127037780Y-67362012D01*
X127121444Y-67518534D01*
X127121444Y-67518535D01*
X127172964Y-67688374D01*
X127190360Y-67865001D01*
X127172964Y-68041628D01*
X127138617Y-68154854D01*
X127121444Y-68211468D01*
X127047349Y-68350088D01*
X127037779Y-68367992D01*
X127008449Y-68403730D01*
X126925187Y-68505187D01*
X126823730Y-68588449D01*
X126787992Y-68617779D01*
X126787990Y-68617780D01*
X126631468Y-68701444D01*
X126574854Y-68718617D01*
X126461628Y-68752964D01*
X126395444Y-68759482D01*
X126329261Y-68766001D01*
X126240741Y-68766001D01*
X126174558Y-68759482D01*
X126108374Y-68752964D01*
X125995148Y-68718617D01*
X125938534Y-68701444D01*
X125782012Y-68617780D01*
X125782010Y-68617779D01*
X125746272Y-68588449D01*
X125644815Y-68505187D01*
X125561553Y-68403730D01*
X125532223Y-68367992D01*
X125522653Y-68350088D01*
X125448558Y-68211468D01*
X125431385Y-68154854D01*
X125397038Y-68041628D01*
X125379642Y-67865001D01*
X125397038Y-67688374D01*
X125448558Y-67518535D01*
X125448558Y-67518534D01*
X125532222Y-67362012D01*
X125532223Y-67362010D01*
X125561553Y-67326272D01*
X125644815Y-67224815D01*
X125746272Y-67141553D01*
X125782010Y-67112223D01*
X125799914Y-67102653D01*
X125938534Y-67028558D01*
X125995148Y-67011385D01*
X126108374Y-66977038D01*
X126174558Y-66970520D01*
X126240741Y-66964001D01*
X126329261Y-66964001D01*
X126395444Y-66970520D01*
X126395444Y-66970520D01*
G37*
G36*
X128935444Y-66970520D02*
X129001628Y-66977038D01*
X129114854Y-67011385D01*
X129171468Y-67028558D01*
X129310088Y-67102653D01*
X129327992Y-67112223D01*
X129363730Y-67141553D01*
X129465187Y-67224815D01*
X129548449Y-67326272D01*
X129577779Y-67362010D01*
X129577780Y-67362012D01*
X129661444Y-67518534D01*
X129661444Y-67518535D01*
X129712964Y-67688374D01*
X129730360Y-67865001D01*
X129712964Y-68041628D01*
X129678617Y-68154854D01*
X129661444Y-68211468D01*
X129587349Y-68350088D01*
X129577779Y-68367992D01*
X129548449Y-68403730D01*
X129465187Y-68505187D01*
X129363730Y-68588449D01*
X129327992Y-68617779D01*
X129327990Y-68617780D01*
X129171468Y-68701444D01*
X129114854Y-68718617D01*
X129001628Y-68752964D01*
X128935444Y-68759482D01*
X128869261Y-68766001D01*
X128780741Y-68766001D01*
X128714558Y-68759482D01*
X128648374Y-68752964D01*
X128535148Y-68718617D01*
X128478534Y-68701444D01*
X128322012Y-68617780D01*
X128322010Y-68617779D01*
X128286272Y-68588449D01*
X128184815Y-68505187D01*
X128101553Y-68403730D01*
X128072223Y-68367992D01*
X128062653Y-68350088D01*
X127988558Y-68211468D01*
X127971385Y-68154854D01*
X127937038Y-68041628D01*
X127919642Y-67865001D01*
X127937038Y-67688374D01*
X127988558Y-67518535D01*
X127988558Y-67518534D01*
X128072222Y-67362012D01*
X128072223Y-67362010D01*
X128101553Y-67326272D01*
X128184815Y-67224815D01*
X128286272Y-67141553D01*
X128322010Y-67112223D01*
X128339914Y-67102653D01*
X128478534Y-67028558D01*
X128535148Y-67011385D01*
X128648374Y-66977038D01*
X128714558Y-66970520D01*
X128780741Y-66964001D01*
X128869261Y-66964001D01*
X128935444Y-66970520D01*
X128935444Y-66970520D01*
G37*
G36*
X135135444Y-66970520D02*
X135201628Y-66977038D01*
X135314854Y-67011385D01*
X135371468Y-67028558D01*
X135510088Y-67102653D01*
X135527992Y-67112223D01*
X135563730Y-67141553D01*
X135665187Y-67224815D01*
X135748449Y-67326272D01*
X135777779Y-67362010D01*
X135777780Y-67362012D01*
X135861444Y-67518534D01*
X135861444Y-67518535D01*
X135912964Y-67688374D01*
X135930360Y-67865001D01*
X135912964Y-68041628D01*
X135878617Y-68154854D01*
X135861444Y-68211468D01*
X135787349Y-68350088D01*
X135777779Y-68367992D01*
X135748449Y-68403730D01*
X135665187Y-68505187D01*
X135563730Y-68588449D01*
X135527992Y-68617779D01*
X135527990Y-68617780D01*
X135371468Y-68701444D01*
X135314854Y-68718617D01*
X135201628Y-68752964D01*
X135135444Y-68759482D01*
X135069261Y-68766001D01*
X134980741Y-68766001D01*
X134914558Y-68759482D01*
X134848374Y-68752964D01*
X134735148Y-68718617D01*
X134678534Y-68701444D01*
X134522012Y-68617780D01*
X134522010Y-68617779D01*
X134486272Y-68588449D01*
X134384815Y-68505187D01*
X134301553Y-68403730D01*
X134272223Y-68367992D01*
X134262653Y-68350088D01*
X134188558Y-68211468D01*
X134171385Y-68154854D01*
X134137038Y-68041628D01*
X134119642Y-67865001D01*
X134137038Y-67688374D01*
X134188558Y-67518535D01*
X134188558Y-67518534D01*
X134272222Y-67362012D01*
X134272223Y-67362010D01*
X134301553Y-67326272D01*
X134384815Y-67224815D01*
X134486272Y-67141553D01*
X134522010Y-67112223D01*
X134539914Y-67102653D01*
X134678534Y-67028558D01*
X134735148Y-67011385D01*
X134848374Y-66977038D01*
X134914558Y-66970520D01*
X134980741Y-66964001D01*
X135069261Y-66964001D01*
X135135444Y-66970520D01*
X135135444Y-66970520D01*
G37*
G36*
X132595444Y-66970520D02*
X132661628Y-66977038D01*
X132774854Y-67011385D01*
X132831468Y-67028558D01*
X132970088Y-67102653D01*
X132987992Y-67112223D01*
X133023730Y-67141553D01*
X133125187Y-67224815D01*
X133208449Y-67326272D01*
X133237779Y-67362010D01*
X133237780Y-67362012D01*
X133321444Y-67518534D01*
X133321444Y-67518535D01*
X133372964Y-67688374D01*
X133390360Y-67865001D01*
X133372964Y-68041628D01*
X133338617Y-68154854D01*
X133321444Y-68211468D01*
X133247349Y-68350088D01*
X133237779Y-68367992D01*
X133208449Y-68403730D01*
X133125187Y-68505187D01*
X133023730Y-68588449D01*
X132987992Y-68617779D01*
X132987990Y-68617780D01*
X132831468Y-68701444D01*
X132774854Y-68718617D01*
X132661628Y-68752964D01*
X132595444Y-68759482D01*
X132529261Y-68766001D01*
X132440741Y-68766001D01*
X132374558Y-68759482D01*
X132308374Y-68752964D01*
X132195148Y-68718617D01*
X132138534Y-68701444D01*
X131982012Y-68617780D01*
X131982010Y-68617779D01*
X131946272Y-68588449D01*
X131844815Y-68505187D01*
X131761553Y-68403730D01*
X131732223Y-68367992D01*
X131722653Y-68350088D01*
X131648558Y-68211468D01*
X131631385Y-68154854D01*
X131597038Y-68041628D01*
X131579642Y-67865001D01*
X131597038Y-67688374D01*
X131648558Y-67518535D01*
X131648558Y-67518534D01*
X131732222Y-67362012D01*
X131732223Y-67362010D01*
X131761553Y-67326272D01*
X131844815Y-67224815D01*
X131946272Y-67141553D01*
X131982010Y-67112223D01*
X131999914Y-67102653D01*
X132138534Y-67028558D01*
X132195148Y-67011385D01*
X132308374Y-66977038D01*
X132374558Y-66970520D01*
X132440741Y-66964001D01*
X132529261Y-66964001D01*
X132595444Y-66970520D01*
X132595444Y-66970520D01*
G37*
G36*
X185305000Y-67957000D02*
X183503000Y-67957000D01*
X183503000Y-66155000D01*
X185305000Y-66155000D01*
X185305000Y-67957000D01*
X185305000Y-67957000D01*
G37*
G36*
X146159686Y-66161444D02*
X146226627Y-66168037D01*
X146339853Y-66202384D01*
X146396467Y-66219557D01*
X146426864Y-66235805D01*
X146552991Y-66303222D01*
X146588729Y-66332552D01*
X146690186Y-66415814D01*
X146773448Y-66517271D01*
X146802778Y-66553009D01*
X146802779Y-66553011D01*
X146886443Y-66709533D01*
X146886443Y-66709534D01*
X146937963Y-66879373D01*
X146955359Y-67056000D01*
X146937963Y-67232627D01*
X146903616Y-67345853D01*
X146886443Y-67402467D01*
X146825664Y-67516175D01*
X146802778Y-67558991D01*
X146773448Y-67594729D01*
X146690186Y-67696186D01*
X146607610Y-67763953D01*
X146552991Y-67808778D01*
X146552989Y-67808779D01*
X146396467Y-67892443D01*
X146339853Y-67909616D01*
X146226627Y-67943963D01*
X146160442Y-67950482D01*
X146094260Y-67957000D01*
X146005740Y-67957000D01*
X145939558Y-67950482D01*
X145873373Y-67943963D01*
X145760147Y-67909616D01*
X145703533Y-67892443D01*
X145547011Y-67808779D01*
X145547009Y-67808778D01*
X145492390Y-67763953D01*
X145409814Y-67696186D01*
X145326552Y-67594729D01*
X145297222Y-67558991D01*
X145274336Y-67516175D01*
X145213557Y-67402467D01*
X145196384Y-67345853D01*
X145162037Y-67232627D01*
X145144641Y-67056000D01*
X145162037Y-66879373D01*
X145213557Y-66709534D01*
X145213557Y-66709533D01*
X145297221Y-66553011D01*
X145297222Y-66553009D01*
X145326552Y-66517271D01*
X145409814Y-66415814D01*
X145511271Y-66332552D01*
X145547009Y-66303222D01*
X145673136Y-66235805D01*
X145703533Y-66219557D01*
X145760147Y-66202384D01*
X145873373Y-66168037D01*
X145940314Y-66161444D01*
X146005740Y-66155000D01*
X146094260Y-66155000D01*
X146159686Y-66161444D01*
X146159686Y-66161444D01*
G37*
G36*
X193358588Y-67776990D02*
X191556588Y-67776990D01*
X191556588Y-65974990D01*
X193358588Y-65974990D01*
X193358588Y-67776990D01*
X193358588Y-67776990D01*
G37*
G36*
X195108030Y-65981508D02*
X195174215Y-65988027D01*
X195287441Y-66022374D01*
X195344055Y-66039547D01*
X195482675Y-66113642D01*
X195500579Y-66123212D01*
X195536317Y-66152542D01*
X195637774Y-66235804D01*
X195721036Y-66337261D01*
X195750366Y-66372999D01*
X195750367Y-66373001D01*
X195834031Y-66529523D01*
X195834031Y-66529524D01*
X195885551Y-66699363D01*
X195902947Y-66875990D01*
X195885551Y-67052617D01*
X195851204Y-67165843D01*
X195834031Y-67222457D01*
X195759936Y-67361077D01*
X195750366Y-67378981D01*
X195731092Y-67402466D01*
X195637774Y-67516176D01*
X195536317Y-67599438D01*
X195500579Y-67628768D01*
X195500577Y-67628769D01*
X195344055Y-67712433D01*
X195287441Y-67729606D01*
X195174215Y-67763953D01*
X195108030Y-67770472D01*
X195041848Y-67776990D01*
X194953328Y-67776990D01*
X194887146Y-67770472D01*
X194820961Y-67763953D01*
X194707735Y-67729606D01*
X194651121Y-67712433D01*
X194494599Y-67628769D01*
X194494597Y-67628768D01*
X194458859Y-67599438D01*
X194357402Y-67516176D01*
X194264084Y-67402466D01*
X194244810Y-67378981D01*
X194235240Y-67361077D01*
X194161145Y-67222457D01*
X194143972Y-67165843D01*
X194109625Y-67052617D01*
X194092229Y-66875990D01*
X194109625Y-66699363D01*
X194161145Y-66529524D01*
X194161145Y-66529523D01*
X194244809Y-66373001D01*
X194244810Y-66372999D01*
X194274140Y-66337261D01*
X194357402Y-66235804D01*
X194458859Y-66152542D01*
X194494597Y-66123212D01*
X194512501Y-66113642D01*
X194651121Y-66039547D01*
X194707735Y-66022374D01*
X194820961Y-65988027D01*
X194887146Y-65981508D01*
X194953328Y-65974990D01*
X195041848Y-65974990D01*
X195108030Y-65981508D01*
X195108030Y-65981508D01*
G37*
G36*
X197648030Y-65981508D02*
X197714215Y-65988027D01*
X197827441Y-66022374D01*
X197884055Y-66039547D01*
X198022675Y-66113642D01*
X198040579Y-66123212D01*
X198076317Y-66152542D01*
X198177774Y-66235804D01*
X198261036Y-66337261D01*
X198290366Y-66372999D01*
X198290367Y-66373001D01*
X198374031Y-66529523D01*
X198374031Y-66529524D01*
X198425551Y-66699363D01*
X198442947Y-66875990D01*
X198425551Y-67052617D01*
X198391204Y-67165843D01*
X198374031Y-67222457D01*
X198299936Y-67361077D01*
X198290366Y-67378981D01*
X198271092Y-67402466D01*
X198177774Y-67516176D01*
X198076317Y-67599438D01*
X198040579Y-67628768D01*
X198040577Y-67628769D01*
X197884055Y-67712433D01*
X197827441Y-67729606D01*
X197714215Y-67763953D01*
X197648030Y-67770472D01*
X197581848Y-67776990D01*
X197493328Y-67776990D01*
X197427146Y-67770472D01*
X197360961Y-67763953D01*
X197247735Y-67729606D01*
X197191121Y-67712433D01*
X197034599Y-67628769D01*
X197034597Y-67628768D01*
X196998859Y-67599438D01*
X196897402Y-67516176D01*
X196804084Y-67402466D01*
X196784810Y-67378981D01*
X196775240Y-67361077D01*
X196701145Y-67222457D01*
X196683972Y-67165843D01*
X196649625Y-67052617D01*
X196632229Y-66875990D01*
X196649625Y-66699363D01*
X196701145Y-66529524D01*
X196701145Y-66529523D01*
X196784809Y-66373001D01*
X196784810Y-66372999D01*
X196814140Y-66337261D01*
X196897402Y-66235804D01*
X196998859Y-66152542D01*
X197034597Y-66123212D01*
X197052501Y-66113642D01*
X197191121Y-66039547D01*
X197247735Y-66022374D01*
X197360961Y-65988027D01*
X197427146Y-65981508D01*
X197493328Y-65974990D01*
X197581848Y-65974990D01*
X197648030Y-65981508D01*
X197648030Y-65981508D01*
G37*
G36*
X128935443Y-64430519D02*
X129001628Y-64437038D01*
X129114854Y-64471385D01*
X129171468Y-64488558D01*
X129310088Y-64562653D01*
X129327992Y-64572223D01*
X129363730Y-64601553D01*
X129465187Y-64684815D01*
X129548449Y-64786272D01*
X129577779Y-64822010D01*
X129577780Y-64822012D01*
X129661444Y-64978534D01*
X129661444Y-64978535D01*
X129712964Y-65148374D01*
X129730360Y-65325001D01*
X129712964Y-65501628D01*
X129678617Y-65614854D01*
X129661444Y-65671468D01*
X129587349Y-65810088D01*
X129577779Y-65827992D01*
X129548449Y-65863730D01*
X129465187Y-65965187D01*
X129363730Y-66048449D01*
X129327992Y-66077779D01*
X129327990Y-66077780D01*
X129171468Y-66161444D01*
X129149733Y-66168037D01*
X129001628Y-66212964D01*
X128935443Y-66219483D01*
X128869261Y-66226001D01*
X128780741Y-66226001D01*
X128714559Y-66219483D01*
X128648374Y-66212964D01*
X128500269Y-66168037D01*
X128478534Y-66161444D01*
X128322012Y-66077780D01*
X128322010Y-66077779D01*
X128286272Y-66048449D01*
X128184815Y-65965187D01*
X128101553Y-65863730D01*
X128072223Y-65827992D01*
X128062653Y-65810088D01*
X127988558Y-65671468D01*
X127971385Y-65614854D01*
X127937038Y-65501628D01*
X127919642Y-65325001D01*
X127937038Y-65148374D01*
X127988558Y-64978535D01*
X127988558Y-64978534D01*
X128072222Y-64822012D01*
X128072223Y-64822010D01*
X128101553Y-64786272D01*
X128184815Y-64684815D01*
X128286272Y-64601553D01*
X128322010Y-64572223D01*
X128339914Y-64562653D01*
X128478534Y-64488558D01*
X128535148Y-64471385D01*
X128648374Y-64437038D01*
X128714559Y-64430519D01*
X128780741Y-64424001D01*
X128869261Y-64424001D01*
X128935443Y-64430519D01*
X128935443Y-64430519D01*
G37*
G36*
X126395443Y-64430519D02*
X126461628Y-64437038D01*
X126574854Y-64471385D01*
X126631468Y-64488558D01*
X126770088Y-64562653D01*
X126787992Y-64572223D01*
X126823730Y-64601553D01*
X126925187Y-64684815D01*
X127008449Y-64786272D01*
X127037779Y-64822010D01*
X127037780Y-64822012D01*
X127121444Y-64978534D01*
X127121444Y-64978535D01*
X127172964Y-65148374D01*
X127190360Y-65325001D01*
X127172964Y-65501628D01*
X127138617Y-65614854D01*
X127121444Y-65671468D01*
X127047349Y-65810088D01*
X127037779Y-65827992D01*
X127008449Y-65863730D01*
X126925187Y-65965187D01*
X126823730Y-66048449D01*
X126787992Y-66077779D01*
X126787990Y-66077780D01*
X126631468Y-66161444D01*
X126609733Y-66168037D01*
X126461628Y-66212964D01*
X126395443Y-66219483D01*
X126329261Y-66226001D01*
X126240741Y-66226001D01*
X126174559Y-66219483D01*
X126108374Y-66212964D01*
X125960269Y-66168037D01*
X125938534Y-66161444D01*
X125782012Y-66077780D01*
X125782010Y-66077779D01*
X125746272Y-66048449D01*
X125644815Y-65965187D01*
X125561553Y-65863730D01*
X125532223Y-65827992D01*
X125522653Y-65810088D01*
X125448558Y-65671468D01*
X125431385Y-65614854D01*
X125397038Y-65501628D01*
X125379642Y-65325001D01*
X125397038Y-65148374D01*
X125448558Y-64978535D01*
X125448558Y-64978534D01*
X125532222Y-64822012D01*
X125532223Y-64822010D01*
X125561553Y-64786272D01*
X125644815Y-64684815D01*
X125746272Y-64601553D01*
X125782010Y-64572223D01*
X125799914Y-64562653D01*
X125938534Y-64488558D01*
X125995148Y-64471385D01*
X126108374Y-64437038D01*
X126174559Y-64430519D01*
X126240741Y-64424001D01*
X126329261Y-64424001D01*
X126395443Y-64430519D01*
X126395443Y-64430519D01*
G37*
G36*
X132595443Y-64430519D02*
X132661628Y-64437038D01*
X132774854Y-64471385D01*
X132831468Y-64488558D01*
X132970088Y-64562653D01*
X132987992Y-64572223D01*
X133023730Y-64601553D01*
X133125187Y-64684815D01*
X133208449Y-64786272D01*
X133237779Y-64822010D01*
X133237780Y-64822012D01*
X133321444Y-64978534D01*
X133321444Y-64978535D01*
X133372964Y-65148374D01*
X133390360Y-65325001D01*
X133372964Y-65501628D01*
X133338617Y-65614854D01*
X133321444Y-65671468D01*
X133247349Y-65810088D01*
X133237779Y-65827992D01*
X133208449Y-65863730D01*
X133125187Y-65965187D01*
X133023730Y-66048449D01*
X132987992Y-66077779D01*
X132987990Y-66077780D01*
X132831468Y-66161444D01*
X132809733Y-66168037D01*
X132661628Y-66212964D01*
X132595443Y-66219483D01*
X132529261Y-66226001D01*
X132440741Y-66226001D01*
X132374559Y-66219483D01*
X132308374Y-66212964D01*
X132160269Y-66168037D01*
X132138534Y-66161444D01*
X131982012Y-66077780D01*
X131982010Y-66077779D01*
X131946272Y-66048449D01*
X131844815Y-65965187D01*
X131761553Y-65863730D01*
X131732223Y-65827992D01*
X131722653Y-65810088D01*
X131648558Y-65671468D01*
X131631385Y-65614854D01*
X131597038Y-65501628D01*
X131579642Y-65325001D01*
X131597038Y-65148374D01*
X131648558Y-64978535D01*
X131648558Y-64978534D01*
X131732222Y-64822012D01*
X131732223Y-64822010D01*
X131761553Y-64786272D01*
X131844815Y-64684815D01*
X131946272Y-64601553D01*
X131982010Y-64572223D01*
X131999914Y-64562653D01*
X132138534Y-64488558D01*
X132195148Y-64471385D01*
X132308374Y-64437038D01*
X132374559Y-64430519D01*
X132440741Y-64424001D01*
X132529261Y-64424001D01*
X132595443Y-64430519D01*
X132595443Y-64430519D01*
G37*
G36*
X135135443Y-64430519D02*
X135201628Y-64437038D01*
X135314854Y-64471385D01*
X135371468Y-64488558D01*
X135510088Y-64562653D01*
X135527992Y-64572223D01*
X135563730Y-64601553D01*
X135665187Y-64684815D01*
X135748449Y-64786272D01*
X135777779Y-64822010D01*
X135777780Y-64822012D01*
X135861444Y-64978534D01*
X135861444Y-64978535D01*
X135912964Y-65148374D01*
X135930360Y-65325001D01*
X135912964Y-65501628D01*
X135878617Y-65614854D01*
X135861444Y-65671468D01*
X135787349Y-65810088D01*
X135777779Y-65827992D01*
X135748449Y-65863730D01*
X135665187Y-65965187D01*
X135563730Y-66048449D01*
X135527992Y-66077779D01*
X135527990Y-66077780D01*
X135371468Y-66161444D01*
X135349733Y-66168037D01*
X135201628Y-66212964D01*
X135135443Y-66219483D01*
X135069261Y-66226001D01*
X134980741Y-66226001D01*
X134914559Y-66219483D01*
X134848374Y-66212964D01*
X134700269Y-66168037D01*
X134678534Y-66161444D01*
X134522012Y-66077780D01*
X134522010Y-66077779D01*
X134486272Y-66048449D01*
X134384815Y-65965187D01*
X134301553Y-65863730D01*
X134272223Y-65827992D01*
X134262653Y-65810088D01*
X134188558Y-65671468D01*
X134171385Y-65614854D01*
X134137038Y-65501628D01*
X134119642Y-65325001D01*
X134137038Y-65148374D01*
X134188558Y-64978535D01*
X134188558Y-64978534D01*
X134272222Y-64822012D01*
X134272223Y-64822010D01*
X134301553Y-64786272D01*
X134384815Y-64684815D01*
X134486272Y-64601553D01*
X134522010Y-64572223D01*
X134539914Y-64562653D01*
X134678534Y-64488558D01*
X134735148Y-64471385D01*
X134848374Y-64437038D01*
X134914559Y-64430519D01*
X134980741Y-64424001D01*
X135069261Y-64424001D01*
X135135443Y-64430519D01*
X135135443Y-64430519D01*
G37*
G36*
X184513686Y-63621444D02*
X184580627Y-63628037D01*
X184693853Y-63662384D01*
X184750467Y-63679557D01*
X184889087Y-63753652D01*
X184906991Y-63763222D01*
X184942729Y-63792552D01*
X185044186Y-63875814D01*
X185127448Y-63977271D01*
X185156778Y-64013009D01*
X185156779Y-64013011D01*
X185240443Y-64169533D01*
X185240443Y-64169534D01*
X185291963Y-64339373D01*
X185309359Y-64516000D01*
X185291963Y-64692627D01*
X185257616Y-64805853D01*
X185240443Y-64862467D01*
X185178403Y-64978534D01*
X185156778Y-65018991D01*
X185127448Y-65054729D01*
X185044186Y-65156186D01*
X184942729Y-65239448D01*
X184906991Y-65268778D01*
X184906989Y-65268779D01*
X184750467Y-65352443D01*
X184693853Y-65369616D01*
X184580627Y-65403963D01*
X184514443Y-65410481D01*
X184448260Y-65417000D01*
X184359740Y-65417000D01*
X184293557Y-65410481D01*
X184227373Y-65403963D01*
X184114147Y-65369616D01*
X184057533Y-65352443D01*
X183901011Y-65268779D01*
X183901009Y-65268778D01*
X183865271Y-65239448D01*
X183763814Y-65156186D01*
X183680552Y-65054729D01*
X183651222Y-65018991D01*
X183629597Y-64978534D01*
X183567557Y-64862467D01*
X183550384Y-64805853D01*
X183516037Y-64692627D01*
X183498641Y-64516000D01*
X183516037Y-64339373D01*
X183567557Y-64169534D01*
X183567557Y-64169533D01*
X183651221Y-64013011D01*
X183651222Y-64013009D01*
X183680552Y-63977271D01*
X183763814Y-63875814D01*
X183865271Y-63792552D01*
X183901009Y-63763222D01*
X183918913Y-63753652D01*
X184057533Y-63679557D01*
X184114147Y-63662384D01*
X184227373Y-63628037D01*
X184294314Y-63621444D01*
X184359740Y-63615000D01*
X184448260Y-63615000D01*
X184513686Y-63621444D01*
X184513686Y-63621444D01*
G37*
G36*
X128935444Y-61890520D02*
X129001628Y-61897038D01*
X129114854Y-61931385D01*
X129171468Y-61948558D01*
X129310088Y-62022653D01*
X129327992Y-62032223D01*
X129363730Y-62061553D01*
X129465187Y-62144815D01*
X129548449Y-62246272D01*
X129577779Y-62282010D01*
X129577780Y-62282012D01*
X129661444Y-62438534D01*
X129661444Y-62438535D01*
X129712964Y-62608374D01*
X129730360Y-62785001D01*
X129712964Y-62961628D01*
X129678617Y-63074854D01*
X129661444Y-63131468D01*
X129587349Y-63270088D01*
X129577779Y-63287992D01*
X129548449Y-63323730D01*
X129465187Y-63425187D01*
X129363730Y-63508449D01*
X129327992Y-63537779D01*
X129327990Y-63537780D01*
X129171468Y-63621444D01*
X129149733Y-63628037D01*
X129001628Y-63672964D01*
X128935444Y-63679482D01*
X128869261Y-63686001D01*
X128780741Y-63686001D01*
X128714558Y-63679482D01*
X128648374Y-63672964D01*
X128500269Y-63628037D01*
X128478534Y-63621444D01*
X128322012Y-63537780D01*
X128322010Y-63537779D01*
X128286272Y-63508449D01*
X128184815Y-63425187D01*
X128101553Y-63323730D01*
X128072223Y-63287992D01*
X128062653Y-63270088D01*
X127988558Y-63131468D01*
X127971385Y-63074854D01*
X127937038Y-62961628D01*
X127919642Y-62785001D01*
X127937038Y-62608374D01*
X127988558Y-62438535D01*
X127988558Y-62438534D01*
X128072222Y-62282012D01*
X128072223Y-62282010D01*
X128101553Y-62246272D01*
X128184815Y-62144815D01*
X128286272Y-62061553D01*
X128322010Y-62032223D01*
X128339914Y-62022653D01*
X128478534Y-61948558D01*
X128535148Y-61931385D01*
X128648374Y-61897038D01*
X128714558Y-61890520D01*
X128780741Y-61884001D01*
X128869261Y-61884001D01*
X128935444Y-61890520D01*
X128935444Y-61890520D01*
G37*
G36*
X132595444Y-61890520D02*
X132661628Y-61897038D01*
X132774854Y-61931385D01*
X132831468Y-61948558D01*
X132970088Y-62022653D01*
X132987992Y-62032223D01*
X133023730Y-62061553D01*
X133125187Y-62144815D01*
X133208449Y-62246272D01*
X133237779Y-62282010D01*
X133237780Y-62282012D01*
X133321444Y-62438534D01*
X133321444Y-62438535D01*
X133372964Y-62608374D01*
X133390360Y-62785001D01*
X133372964Y-62961628D01*
X133338617Y-63074854D01*
X133321444Y-63131468D01*
X133247349Y-63270088D01*
X133237779Y-63287992D01*
X133208449Y-63323730D01*
X133125187Y-63425187D01*
X133023730Y-63508449D01*
X132987992Y-63537779D01*
X132987990Y-63537780D01*
X132831468Y-63621444D01*
X132809733Y-63628037D01*
X132661628Y-63672964D01*
X132595444Y-63679482D01*
X132529261Y-63686001D01*
X132440741Y-63686001D01*
X132374558Y-63679482D01*
X132308374Y-63672964D01*
X132160269Y-63628037D01*
X132138534Y-63621444D01*
X131982012Y-63537780D01*
X131982010Y-63537779D01*
X131946272Y-63508449D01*
X131844815Y-63425187D01*
X131761553Y-63323730D01*
X131732223Y-63287992D01*
X131722653Y-63270088D01*
X131648558Y-63131468D01*
X131631385Y-63074854D01*
X131597038Y-62961628D01*
X131579642Y-62785001D01*
X131597038Y-62608374D01*
X131648558Y-62438535D01*
X131648558Y-62438534D01*
X131732222Y-62282012D01*
X131732223Y-62282010D01*
X131761553Y-62246272D01*
X131844815Y-62144815D01*
X131946272Y-62061553D01*
X131982010Y-62032223D01*
X131999914Y-62022653D01*
X132138534Y-61948558D01*
X132195148Y-61931385D01*
X132308374Y-61897038D01*
X132374558Y-61890520D01*
X132440741Y-61884001D01*
X132529261Y-61884001D01*
X132595444Y-61890520D01*
X132595444Y-61890520D01*
G37*
G36*
X135135444Y-61890520D02*
X135201628Y-61897038D01*
X135314854Y-61931385D01*
X135371468Y-61948558D01*
X135510088Y-62022653D01*
X135527992Y-62032223D01*
X135563730Y-62061553D01*
X135665187Y-62144815D01*
X135748449Y-62246272D01*
X135777779Y-62282010D01*
X135777780Y-62282012D01*
X135861444Y-62438534D01*
X135861444Y-62438535D01*
X135912964Y-62608374D01*
X135930360Y-62785001D01*
X135912964Y-62961628D01*
X135878617Y-63074854D01*
X135861444Y-63131468D01*
X135787349Y-63270088D01*
X135777779Y-63287992D01*
X135748449Y-63323730D01*
X135665187Y-63425187D01*
X135563730Y-63508449D01*
X135527992Y-63537779D01*
X135527990Y-63537780D01*
X135371468Y-63621444D01*
X135349733Y-63628037D01*
X135201628Y-63672964D01*
X135135444Y-63679482D01*
X135069261Y-63686001D01*
X134980741Y-63686001D01*
X134914558Y-63679482D01*
X134848374Y-63672964D01*
X134700269Y-63628037D01*
X134678534Y-63621444D01*
X134522012Y-63537780D01*
X134522010Y-63537779D01*
X134486272Y-63508449D01*
X134384815Y-63425187D01*
X134301553Y-63323730D01*
X134272223Y-63287992D01*
X134262653Y-63270088D01*
X134188558Y-63131468D01*
X134171385Y-63074854D01*
X134137038Y-62961628D01*
X134119642Y-62785001D01*
X134137038Y-62608374D01*
X134188558Y-62438535D01*
X134188558Y-62438534D01*
X134272222Y-62282012D01*
X134272223Y-62282010D01*
X134301553Y-62246272D01*
X134384815Y-62144815D01*
X134486272Y-62061553D01*
X134522010Y-62032223D01*
X134539914Y-62022653D01*
X134678534Y-61948558D01*
X134735148Y-61931385D01*
X134848374Y-61897038D01*
X134914558Y-61890520D01*
X134980741Y-61884001D01*
X135069261Y-61884001D01*
X135135444Y-61890520D01*
X135135444Y-61890520D01*
G37*
G36*
X126395444Y-61890520D02*
X126461628Y-61897038D01*
X126574854Y-61931385D01*
X126631468Y-61948558D01*
X126770088Y-62022653D01*
X126787992Y-62032223D01*
X126823730Y-62061553D01*
X126925187Y-62144815D01*
X127008449Y-62246272D01*
X127037779Y-62282010D01*
X127037780Y-62282012D01*
X127121444Y-62438534D01*
X127121444Y-62438535D01*
X127172964Y-62608374D01*
X127190360Y-62785001D01*
X127172964Y-62961628D01*
X127138617Y-63074854D01*
X127121444Y-63131468D01*
X127047349Y-63270088D01*
X127037779Y-63287992D01*
X127008449Y-63323730D01*
X126925187Y-63425187D01*
X126823730Y-63508449D01*
X126787992Y-63537779D01*
X126787990Y-63537780D01*
X126631468Y-63621444D01*
X126609733Y-63628037D01*
X126461628Y-63672964D01*
X126395444Y-63679482D01*
X126329261Y-63686001D01*
X126240741Y-63686001D01*
X126174558Y-63679482D01*
X126108374Y-63672964D01*
X125960269Y-63628037D01*
X125938534Y-63621444D01*
X125782012Y-63537780D01*
X125782010Y-63537779D01*
X125746272Y-63508449D01*
X125644815Y-63425187D01*
X125561553Y-63323730D01*
X125532223Y-63287992D01*
X125522653Y-63270088D01*
X125448558Y-63131468D01*
X125431385Y-63074854D01*
X125397038Y-62961628D01*
X125379642Y-62785001D01*
X125397038Y-62608374D01*
X125448558Y-62438535D01*
X125448558Y-62438534D01*
X125532222Y-62282012D01*
X125532223Y-62282010D01*
X125561553Y-62246272D01*
X125644815Y-62144815D01*
X125746272Y-62061553D01*
X125782010Y-62032223D01*
X125799914Y-62022653D01*
X125938534Y-61948558D01*
X125995148Y-61931385D01*
X126108374Y-61897038D01*
X126174558Y-61890520D01*
X126240741Y-61884001D01*
X126329261Y-61884001D01*
X126395444Y-61890520D01*
X126395444Y-61890520D01*
G37*
G36*
X184513686Y-61081444D02*
X184580627Y-61088037D01*
X184693853Y-61122384D01*
X184750467Y-61139557D01*
X184889087Y-61213652D01*
X184906991Y-61223222D01*
X184942729Y-61252552D01*
X185044186Y-61335814D01*
X185127448Y-61437271D01*
X185156778Y-61473009D01*
X185156779Y-61473011D01*
X185240443Y-61629533D01*
X185240443Y-61629534D01*
X185291963Y-61799373D01*
X185309359Y-61976000D01*
X185291963Y-62152627D01*
X185257616Y-62265853D01*
X185240443Y-62322467D01*
X185178403Y-62438534D01*
X185156778Y-62478991D01*
X185127448Y-62514729D01*
X185044186Y-62616186D01*
X184942729Y-62699448D01*
X184906991Y-62728778D01*
X184906989Y-62728779D01*
X184750467Y-62812443D01*
X184693853Y-62829616D01*
X184580627Y-62863963D01*
X184514443Y-62870481D01*
X184448260Y-62877000D01*
X184359740Y-62877000D01*
X184293557Y-62870481D01*
X184227373Y-62863963D01*
X184114147Y-62829616D01*
X184057533Y-62812443D01*
X183901011Y-62728779D01*
X183901009Y-62728778D01*
X183865271Y-62699448D01*
X183763814Y-62616186D01*
X183680552Y-62514729D01*
X183651222Y-62478991D01*
X183629597Y-62438534D01*
X183567557Y-62322467D01*
X183550384Y-62265853D01*
X183516037Y-62152627D01*
X183498641Y-61976000D01*
X183516037Y-61799373D01*
X183567557Y-61629534D01*
X183567557Y-61629533D01*
X183651221Y-61473011D01*
X183651222Y-61473009D01*
X183680552Y-61437271D01*
X183763814Y-61335814D01*
X183865271Y-61252552D01*
X183901009Y-61223222D01*
X183918913Y-61213652D01*
X184057533Y-61139557D01*
X184114147Y-61122384D01*
X184227373Y-61088037D01*
X184294314Y-61081444D01*
X184359740Y-61075000D01*
X184448260Y-61075000D01*
X184513686Y-61081444D01*
X184513686Y-61081444D01*
G37*
G36*
X126395443Y-59350519D02*
X126461628Y-59357038D01*
X126574854Y-59391385D01*
X126631468Y-59408558D01*
X126770088Y-59482653D01*
X126787992Y-59492223D01*
X126823730Y-59521553D01*
X126925187Y-59604815D01*
X127008449Y-59706272D01*
X127037779Y-59742010D01*
X127037780Y-59742012D01*
X127121444Y-59898534D01*
X127121444Y-59898535D01*
X127172964Y-60068374D01*
X127190360Y-60245001D01*
X127172964Y-60421628D01*
X127138617Y-60534854D01*
X127121444Y-60591468D01*
X127047349Y-60730088D01*
X127037779Y-60747992D01*
X127008449Y-60783730D01*
X126925187Y-60885187D01*
X126823730Y-60968449D01*
X126787992Y-60997779D01*
X126787990Y-60997780D01*
X126631468Y-61081444D01*
X126609733Y-61088037D01*
X126461628Y-61132964D01*
X126395444Y-61139482D01*
X126329261Y-61146001D01*
X126240741Y-61146001D01*
X126174558Y-61139482D01*
X126108374Y-61132964D01*
X125960269Y-61088037D01*
X125938534Y-61081444D01*
X125782012Y-60997780D01*
X125782010Y-60997779D01*
X125746272Y-60968449D01*
X125644815Y-60885187D01*
X125561553Y-60783730D01*
X125532223Y-60747992D01*
X125522653Y-60730088D01*
X125448558Y-60591468D01*
X125431385Y-60534854D01*
X125397038Y-60421628D01*
X125379642Y-60245001D01*
X125397038Y-60068374D01*
X125448558Y-59898535D01*
X125448558Y-59898534D01*
X125532222Y-59742012D01*
X125532223Y-59742010D01*
X125561553Y-59706272D01*
X125644815Y-59604815D01*
X125746272Y-59521553D01*
X125782010Y-59492223D01*
X125799914Y-59482653D01*
X125938534Y-59408558D01*
X125995148Y-59391385D01*
X126108374Y-59357038D01*
X126174559Y-59350519D01*
X126240741Y-59344001D01*
X126329261Y-59344001D01*
X126395443Y-59350519D01*
X126395443Y-59350519D01*
G37*
G36*
X132595443Y-59350519D02*
X132661628Y-59357038D01*
X132774854Y-59391385D01*
X132831468Y-59408558D01*
X132970088Y-59482653D01*
X132987992Y-59492223D01*
X133023730Y-59521553D01*
X133125187Y-59604815D01*
X133208449Y-59706272D01*
X133237779Y-59742010D01*
X133237780Y-59742012D01*
X133321444Y-59898534D01*
X133321444Y-59898535D01*
X133372964Y-60068374D01*
X133390360Y-60245001D01*
X133372964Y-60421628D01*
X133338617Y-60534854D01*
X133321444Y-60591468D01*
X133247349Y-60730088D01*
X133237779Y-60747992D01*
X133208449Y-60783730D01*
X133125187Y-60885187D01*
X133023730Y-60968449D01*
X132987992Y-60997779D01*
X132987990Y-60997780D01*
X132831468Y-61081444D01*
X132809733Y-61088037D01*
X132661628Y-61132964D01*
X132595444Y-61139482D01*
X132529261Y-61146001D01*
X132440741Y-61146001D01*
X132374558Y-61139482D01*
X132308374Y-61132964D01*
X132160269Y-61088037D01*
X132138534Y-61081444D01*
X131982012Y-60997780D01*
X131982010Y-60997779D01*
X131946272Y-60968449D01*
X131844815Y-60885187D01*
X131761553Y-60783730D01*
X131732223Y-60747992D01*
X131722653Y-60730088D01*
X131648558Y-60591468D01*
X131631385Y-60534854D01*
X131597038Y-60421628D01*
X131579642Y-60245001D01*
X131597038Y-60068374D01*
X131648558Y-59898535D01*
X131648558Y-59898534D01*
X131732222Y-59742012D01*
X131732223Y-59742010D01*
X131761553Y-59706272D01*
X131844815Y-59604815D01*
X131946272Y-59521553D01*
X131982010Y-59492223D01*
X131999914Y-59482653D01*
X132138534Y-59408558D01*
X132195148Y-59391385D01*
X132308374Y-59357038D01*
X132374559Y-59350519D01*
X132440741Y-59344001D01*
X132529261Y-59344001D01*
X132595443Y-59350519D01*
X132595443Y-59350519D01*
G37*
G36*
X135135443Y-59350519D02*
X135201628Y-59357038D01*
X135314854Y-59391385D01*
X135371468Y-59408558D01*
X135510088Y-59482653D01*
X135527992Y-59492223D01*
X135563730Y-59521553D01*
X135665187Y-59604815D01*
X135748449Y-59706272D01*
X135777779Y-59742010D01*
X135777780Y-59742012D01*
X135861444Y-59898534D01*
X135861444Y-59898535D01*
X135912964Y-60068374D01*
X135930360Y-60245001D01*
X135912964Y-60421628D01*
X135878617Y-60534854D01*
X135861444Y-60591468D01*
X135787349Y-60730088D01*
X135777779Y-60747992D01*
X135748449Y-60783730D01*
X135665187Y-60885187D01*
X135563730Y-60968449D01*
X135527992Y-60997779D01*
X135527990Y-60997780D01*
X135371468Y-61081444D01*
X135349733Y-61088037D01*
X135201628Y-61132964D01*
X135135444Y-61139482D01*
X135069261Y-61146001D01*
X134980741Y-61146001D01*
X134914558Y-61139482D01*
X134848374Y-61132964D01*
X134700269Y-61088037D01*
X134678534Y-61081444D01*
X134522012Y-60997780D01*
X134522010Y-60997779D01*
X134486272Y-60968449D01*
X134384815Y-60885187D01*
X134301553Y-60783730D01*
X134272223Y-60747992D01*
X134262653Y-60730088D01*
X134188558Y-60591468D01*
X134171385Y-60534854D01*
X134137038Y-60421628D01*
X134119642Y-60245001D01*
X134137038Y-60068374D01*
X134188558Y-59898535D01*
X134188558Y-59898534D01*
X134272222Y-59742012D01*
X134272223Y-59742010D01*
X134301553Y-59706272D01*
X134384815Y-59604815D01*
X134486272Y-59521553D01*
X134522010Y-59492223D01*
X134539914Y-59482653D01*
X134678534Y-59408558D01*
X134735148Y-59391385D01*
X134848374Y-59357038D01*
X134914559Y-59350519D01*
X134980741Y-59344001D01*
X135069261Y-59344001D01*
X135135443Y-59350519D01*
X135135443Y-59350519D01*
G37*
G36*
X128935443Y-59350519D02*
X129001628Y-59357038D01*
X129114854Y-59391385D01*
X129171468Y-59408558D01*
X129310088Y-59482653D01*
X129327992Y-59492223D01*
X129363730Y-59521553D01*
X129465187Y-59604815D01*
X129548449Y-59706272D01*
X129577779Y-59742010D01*
X129577780Y-59742012D01*
X129661444Y-59898534D01*
X129661444Y-59898535D01*
X129712964Y-60068374D01*
X129730360Y-60245001D01*
X129712964Y-60421628D01*
X129678617Y-60534854D01*
X129661444Y-60591468D01*
X129587349Y-60730088D01*
X129577779Y-60747992D01*
X129548449Y-60783730D01*
X129465187Y-60885187D01*
X129363730Y-60968449D01*
X129327992Y-60997779D01*
X129327990Y-60997780D01*
X129171468Y-61081444D01*
X129149733Y-61088037D01*
X129001628Y-61132964D01*
X128935444Y-61139482D01*
X128869261Y-61146001D01*
X128780741Y-61146001D01*
X128714558Y-61139482D01*
X128648374Y-61132964D01*
X128500269Y-61088037D01*
X128478534Y-61081444D01*
X128322012Y-60997780D01*
X128322010Y-60997779D01*
X128286272Y-60968449D01*
X128184815Y-60885187D01*
X128101553Y-60783730D01*
X128072223Y-60747992D01*
X128062653Y-60730088D01*
X127988558Y-60591468D01*
X127971385Y-60534854D01*
X127937038Y-60421628D01*
X127919642Y-60245001D01*
X127937038Y-60068374D01*
X127988558Y-59898535D01*
X127988558Y-59898534D01*
X128072222Y-59742012D01*
X128072223Y-59742010D01*
X128101553Y-59706272D01*
X128184815Y-59604815D01*
X128286272Y-59521553D01*
X128322010Y-59492223D01*
X128339914Y-59482653D01*
X128478534Y-59408558D01*
X128535148Y-59391385D01*
X128648374Y-59357038D01*
X128714559Y-59350519D01*
X128780741Y-59344001D01*
X128869261Y-59344001D01*
X128935443Y-59350519D01*
X128935443Y-59350519D01*
G37*
G36*
X184513686Y-58541444D02*
X184580627Y-58548037D01*
X184693853Y-58582384D01*
X184750467Y-58599557D01*
X184889087Y-58673652D01*
X184906991Y-58683222D01*
X184942729Y-58712552D01*
X185044186Y-58795814D01*
X185127448Y-58897271D01*
X185156778Y-58933009D01*
X185156779Y-58933011D01*
X185240443Y-59089533D01*
X185240443Y-59089534D01*
X185291963Y-59259373D01*
X185309359Y-59436000D01*
X185291963Y-59612627D01*
X185257616Y-59725853D01*
X185240443Y-59782467D01*
X185178403Y-59898534D01*
X185156778Y-59938991D01*
X185127448Y-59974729D01*
X185044186Y-60076186D01*
X184942729Y-60159448D01*
X184906991Y-60188778D01*
X184906989Y-60188779D01*
X184750467Y-60272443D01*
X184693853Y-60289616D01*
X184580627Y-60323963D01*
X184514442Y-60330482D01*
X184448260Y-60337000D01*
X184359740Y-60337000D01*
X184293558Y-60330482D01*
X184227373Y-60323963D01*
X184114147Y-60289616D01*
X184057533Y-60272443D01*
X183901011Y-60188779D01*
X183901009Y-60188778D01*
X183865271Y-60159448D01*
X183763814Y-60076186D01*
X183680552Y-59974729D01*
X183651222Y-59938991D01*
X183629597Y-59898534D01*
X183567557Y-59782467D01*
X183550384Y-59725853D01*
X183516037Y-59612627D01*
X183498641Y-59436000D01*
X183516037Y-59259373D01*
X183567557Y-59089534D01*
X183567557Y-59089533D01*
X183651221Y-58933011D01*
X183651222Y-58933009D01*
X183680552Y-58897271D01*
X183763814Y-58795814D01*
X183865271Y-58712552D01*
X183901009Y-58683222D01*
X183918913Y-58673652D01*
X184057533Y-58599557D01*
X184114147Y-58582384D01*
X184227373Y-58548037D01*
X184294314Y-58541444D01*
X184359740Y-58535000D01*
X184448260Y-58535000D01*
X184513686Y-58541444D01*
X184513686Y-58541444D01*
G37*
G36*
X192642443Y-57525519D02*
X192708627Y-57532037D01*
X192821853Y-57566384D01*
X192878467Y-57583557D01*
X193017087Y-57657652D01*
X193034991Y-57667222D01*
X193070729Y-57696552D01*
X193172186Y-57779814D01*
X193255448Y-57881271D01*
X193284778Y-57917009D01*
X193284779Y-57917011D01*
X193368443Y-58073533D01*
X193368443Y-58073534D01*
X193419963Y-58243373D01*
X193437359Y-58420000D01*
X193419963Y-58596627D01*
X193419074Y-58599557D01*
X193368443Y-58766467D01*
X193352756Y-58795814D01*
X193284778Y-58922991D01*
X193255448Y-58958729D01*
X193172186Y-59060186D01*
X193070729Y-59143448D01*
X193034991Y-59172778D01*
X193034989Y-59172779D01*
X192878467Y-59256443D01*
X192821853Y-59273616D01*
X192708627Y-59307963D01*
X192642442Y-59314482D01*
X192576260Y-59321000D01*
X192487740Y-59321000D01*
X192421558Y-59314482D01*
X192355373Y-59307963D01*
X192242147Y-59273616D01*
X192185533Y-59256443D01*
X192029011Y-59172779D01*
X192029009Y-59172778D01*
X191993271Y-59143448D01*
X191891814Y-59060186D01*
X191808552Y-58958729D01*
X191779222Y-58922991D01*
X191711244Y-58795814D01*
X191695557Y-58766467D01*
X191644926Y-58599557D01*
X191644037Y-58596627D01*
X191626641Y-58420000D01*
X191644037Y-58243373D01*
X191695557Y-58073534D01*
X191695557Y-58073533D01*
X191779221Y-57917011D01*
X191779222Y-57917009D01*
X191808552Y-57881271D01*
X191891814Y-57779814D01*
X191993271Y-57696552D01*
X192029009Y-57667222D01*
X192046913Y-57657652D01*
X192185533Y-57583557D01*
X192242147Y-57566384D01*
X192355373Y-57532037D01*
X192421557Y-57525519D01*
X192487740Y-57519000D01*
X192576260Y-57519000D01*
X192642443Y-57525519D01*
X192642443Y-57525519D01*
G37*
G36*
X198513000Y-59321000D02*
X196711000Y-59321000D01*
X196711000Y-57519000D01*
X198513000Y-57519000D01*
X198513000Y-59321000D01*
X198513000Y-59321000D01*
G37*
G36*
X195182443Y-57525519D02*
X195248627Y-57532037D01*
X195361853Y-57566384D01*
X195418467Y-57583557D01*
X195557087Y-57657652D01*
X195574991Y-57667222D01*
X195610729Y-57696552D01*
X195712186Y-57779814D01*
X195795448Y-57881271D01*
X195824778Y-57917009D01*
X195824779Y-57917011D01*
X195908443Y-58073533D01*
X195908443Y-58073534D01*
X195959963Y-58243373D01*
X195977359Y-58420000D01*
X195959963Y-58596627D01*
X195959074Y-58599557D01*
X195908443Y-58766467D01*
X195892756Y-58795814D01*
X195824778Y-58922991D01*
X195795448Y-58958729D01*
X195712186Y-59060186D01*
X195610729Y-59143448D01*
X195574991Y-59172778D01*
X195574989Y-59172779D01*
X195418467Y-59256443D01*
X195361853Y-59273616D01*
X195248627Y-59307963D01*
X195182442Y-59314482D01*
X195116260Y-59321000D01*
X195027740Y-59321000D01*
X194961558Y-59314482D01*
X194895373Y-59307963D01*
X194782147Y-59273616D01*
X194725533Y-59256443D01*
X194569011Y-59172779D01*
X194569009Y-59172778D01*
X194533271Y-59143448D01*
X194431814Y-59060186D01*
X194348552Y-58958729D01*
X194319222Y-58922991D01*
X194251244Y-58795814D01*
X194235557Y-58766467D01*
X194184926Y-58599557D01*
X194184037Y-58596627D01*
X194166641Y-58420000D01*
X194184037Y-58243373D01*
X194235557Y-58073534D01*
X194235557Y-58073533D01*
X194319221Y-57917011D01*
X194319222Y-57917009D01*
X194348552Y-57881271D01*
X194431814Y-57779814D01*
X194533271Y-57696552D01*
X194569009Y-57667222D01*
X194586913Y-57657652D01*
X194725533Y-57583557D01*
X194782147Y-57566384D01*
X194895373Y-57532037D01*
X194961557Y-57525519D01*
X195027740Y-57519000D01*
X195116260Y-57519000D01*
X195182443Y-57525519D01*
X195182443Y-57525519D01*
G37*
G36*
X128935444Y-56810520D02*
X129001628Y-56817038D01*
X129114854Y-56851385D01*
X129171468Y-56868558D01*
X129310088Y-56942653D01*
X129327992Y-56952223D01*
X129363730Y-56981553D01*
X129465187Y-57064815D01*
X129548449Y-57166272D01*
X129577779Y-57202010D01*
X129577780Y-57202012D01*
X129661444Y-57358534D01*
X129661444Y-57358535D01*
X129712964Y-57528374D01*
X129730360Y-57705001D01*
X129712964Y-57881628D01*
X129678617Y-57994854D01*
X129661444Y-58051468D01*
X129649649Y-58073534D01*
X129577779Y-58207992D01*
X129548742Y-58243373D01*
X129465187Y-58345187D01*
X129374026Y-58420000D01*
X129327992Y-58457779D01*
X129327990Y-58457780D01*
X129171468Y-58541444D01*
X129149733Y-58548037D01*
X129001628Y-58592964D01*
X128935443Y-58599483D01*
X128869261Y-58606001D01*
X128780741Y-58606001D01*
X128714559Y-58599483D01*
X128648374Y-58592964D01*
X128500269Y-58548037D01*
X128478534Y-58541444D01*
X128322012Y-58457780D01*
X128322010Y-58457779D01*
X128275976Y-58420000D01*
X128184815Y-58345187D01*
X128101260Y-58243373D01*
X128072223Y-58207992D01*
X128000353Y-58073534D01*
X127988558Y-58051468D01*
X127971385Y-57994854D01*
X127937038Y-57881628D01*
X127919642Y-57705001D01*
X127937038Y-57528374D01*
X127988558Y-57358535D01*
X127988558Y-57358534D01*
X128072222Y-57202012D01*
X128072223Y-57202010D01*
X128101553Y-57166272D01*
X128184815Y-57064815D01*
X128286272Y-56981553D01*
X128322010Y-56952223D01*
X128339914Y-56942653D01*
X128478534Y-56868558D01*
X128535148Y-56851385D01*
X128648374Y-56817038D01*
X128714558Y-56810520D01*
X128780741Y-56804001D01*
X128869261Y-56804001D01*
X128935444Y-56810520D01*
X128935444Y-56810520D01*
G37*
G36*
X126395444Y-56810520D02*
X126461628Y-56817038D01*
X126574854Y-56851385D01*
X126631468Y-56868558D01*
X126770088Y-56942653D01*
X126787992Y-56952223D01*
X126823730Y-56981553D01*
X126925187Y-57064815D01*
X127008449Y-57166272D01*
X127037779Y-57202010D01*
X127037780Y-57202012D01*
X127121444Y-57358534D01*
X127121444Y-57358535D01*
X127172964Y-57528374D01*
X127190360Y-57705001D01*
X127172964Y-57881628D01*
X127138617Y-57994854D01*
X127121444Y-58051468D01*
X127109649Y-58073534D01*
X127037779Y-58207992D01*
X127008742Y-58243373D01*
X126925187Y-58345187D01*
X126834026Y-58420000D01*
X126787992Y-58457779D01*
X126787990Y-58457780D01*
X126631468Y-58541444D01*
X126609733Y-58548037D01*
X126461628Y-58592964D01*
X126395443Y-58599483D01*
X126329261Y-58606001D01*
X126240741Y-58606001D01*
X126174559Y-58599483D01*
X126108374Y-58592964D01*
X125960269Y-58548037D01*
X125938534Y-58541444D01*
X125782012Y-58457780D01*
X125782010Y-58457779D01*
X125735976Y-58420000D01*
X125644815Y-58345187D01*
X125561260Y-58243373D01*
X125532223Y-58207992D01*
X125460353Y-58073534D01*
X125448558Y-58051468D01*
X125431385Y-57994854D01*
X125397038Y-57881628D01*
X125379642Y-57705001D01*
X125397038Y-57528374D01*
X125448558Y-57358535D01*
X125448558Y-57358534D01*
X125532222Y-57202012D01*
X125532223Y-57202010D01*
X125561553Y-57166272D01*
X125644815Y-57064815D01*
X125746272Y-56981553D01*
X125782010Y-56952223D01*
X125799914Y-56942653D01*
X125938534Y-56868558D01*
X125995148Y-56851385D01*
X126108374Y-56817038D01*
X126174558Y-56810520D01*
X126240741Y-56804001D01*
X126329261Y-56804001D01*
X126395444Y-56810520D01*
X126395444Y-56810520D01*
G37*
G36*
X135135444Y-56810520D02*
X135201628Y-56817038D01*
X135314854Y-56851385D01*
X135371468Y-56868558D01*
X135510088Y-56942653D01*
X135527992Y-56952223D01*
X135563730Y-56981553D01*
X135665187Y-57064815D01*
X135748449Y-57166272D01*
X135777779Y-57202010D01*
X135777780Y-57202012D01*
X135861444Y-57358534D01*
X135861444Y-57358535D01*
X135912964Y-57528374D01*
X135930360Y-57705001D01*
X135912964Y-57881628D01*
X135878617Y-57994854D01*
X135861444Y-58051468D01*
X135849649Y-58073534D01*
X135777779Y-58207992D01*
X135748742Y-58243373D01*
X135665187Y-58345187D01*
X135574026Y-58420000D01*
X135527992Y-58457779D01*
X135527990Y-58457780D01*
X135371468Y-58541444D01*
X135349733Y-58548037D01*
X135201628Y-58592964D01*
X135135443Y-58599483D01*
X135069261Y-58606001D01*
X134980741Y-58606001D01*
X134914559Y-58599483D01*
X134848374Y-58592964D01*
X134700269Y-58548037D01*
X134678534Y-58541444D01*
X134522012Y-58457780D01*
X134522010Y-58457779D01*
X134475976Y-58420000D01*
X134384815Y-58345187D01*
X134301260Y-58243373D01*
X134272223Y-58207992D01*
X134200353Y-58073534D01*
X134188558Y-58051468D01*
X134171385Y-57994854D01*
X134137038Y-57881628D01*
X134119642Y-57705001D01*
X134137038Y-57528374D01*
X134188558Y-57358535D01*
X134188558Y-57358534D01*
X134272222Y-57202012D01*
X134272223Y-57202010D01*
X134301553Y-57166272D01*
X134384815Y-57064815D01*
X134486272Y-56981553D01*
X134522010Y-56952223D01*
X134539914Y-56942653D01*
X134678534Y-56868558D01*
X134735148Y-56851385D01*
X134848374Y-56817038D01*
X134914558Y-56810520D01*
X134980741Y-56804001D01*
X135069261Y-56804001D01*
X135135444Y-56810520D01*
X135135444Y-56810520D01*
G37*
G36*
X132595444Y-56810520D02*
X132661628Y-56817038D01*
X132774854Y-56851385D01*
X132831468Y-56868558D01*
X132970088Y-56942653D01*
X132987992Y-56952223D01*
X133023730Y-56981553D01*
X133125187Y-57064815D01*
X133208449Y-57166272D01*
X133237779Y-57202010D01*
X133237780Y-57202012D01*
X133321444Y-57358534D01*
X133321444Y-57358535D01*
X133372964Y-57528374D01*
X133390360Y-57705001D01*
X133372964Y-57881628D01*
X133338617Y-57994854D01*
X133321444Y-58051468D01*
X133309649Y-58073534D01*
X133237779Y-58207992D01*
X133208742Y-58243373D01*
X133125187Y-58345187D01*
X133034026Y-58420000D01*
X132987992Y-58457779D01*
X132987990Y-58457780D01*
X132831468Y-58541444D01*
X132809733Y-58548037D01*
X132661628Y-58592964D01*
X132595443Y-58599483D01*
X132529261Y-58606001D01*
X132440741Y-58606001D01*
X132374559Y-58599483D01*
X132308374Y-58592964D01*
X132160269Y-58548037D01*
X132138534Y-58541444D01*
X131982012Y-58457780D01*
X131982010Y-58457779D01*
X131935976Y-58420000D01*
X131844815Y-58345187D01*
X131761260Y-58243373D01*
X131732223Y-58207992D01*
X131660353Y-58073534D01*
X131648558Y-58051468D01*
X131631385Y-57994854D01*
X131597038Y-57881628D01*
X131579642Y-57705001D01*
X131597038Y-57528374D01*
X131648558Y-57358535D01*
X131648558Y-57358534D01*
X131732222Y-57202012D01*
X131732223Y-57202010D01*
X131761553Y-57166272D01*
X131844815Y-57064815D01*
X131946272Y-56981553D01*
X131982010Y-56952223D01*
X131999914Y-56942653D01*
X132138534Y-56868558D01*
X132195148Y-56851385D01*
X132308374Y-56817038D01*
X132374558Y-56810520D01*
X132440741Y-56804001D01*
X132529261Y-56804001D01*
X132595444Y-56810520D01*
X132595444Y-56810520D01*
G37*
G36*
X143649000Y-57543000D02*
X141847000Y-57543000D01*
X141847000Y-55741000D01*
X143649000Y-55741000D01*
X143649000Y-57543000D01*
X143649000Y-57543000D01*
G37*
G36*
X128935444Y-54270520D02*
X129001628Y-54277038D01*
X129114854Y-54311385D01*
X129171468Y-54328558D01*
X129310088Y-54402653D01*
X129327992Y-54412223D01*
X129363730Y-54441553D01*
X129465187Y-54524815D01*
X129548449Y-54626272D01*
X129577779Y-54662010D01*
X129577780Y-54662012D01*
X129661444Y-54818534D01*
X129678617Y-54875148D01*
X129712964Y-54988374D01*
X129730360Y-55165001D01*
X129712964Y-55341628D01*
X129678617Y-55454854D01*
X129661444Y-55511468D01*
X129587349Y-55650088D01*
X129577779Y-55667992D01*
X129548449Y-55703730D01*
X129465187Y-55805187D01*
X129363730Y-55888449D01*
X129327992Y-55917779D01*
X129327990Y-55917780D01*
X129171468Y-56001444D01*
X129114854Y-56018617D01*
X129001628Y-56052964D01*
X128935443Y-56059483D01*
X128869261Y-56066001D01*
X128780741Y-56066001D01*
X128714559Y-56059483D01*
X128648374Y-56052964D01*
X128535148Y-56018617D01*
X128478534Y-56001444D01*
X128322012Y-55917780D01*
X128322010Y-55917779D01*
X128286272Y-55888449D01*
X128184815Y-55805187D01*
X128101553Y-55703730D01*
X128072223Y-55667992D01*
X128062653Y-55650088D01*
X127988558Y-55511468D01*
X127971385Y-55454854D01*
X127937038Y-55341628D01*
X127919642Y-55165001D01*
X127937038Y-54988374D01*
X127971385Y-54875148D01*
X127988558Y-54818534D01*
X128072222Y-54662012D01*
X128072223Y-54662010D01*
X128101553Y-54626272D01*
X128184815Y-54524815D01*
X128286272Y-54441553D01*
X128322010Y-54412223D01*
X128339914Y-54402653D01*
X128478534Y-54328558D01*
X128535148Y-54311385D01*
X128648374Y-54277038D01*
X128714558Y-54270520D01*
X128780741Y-54264001D01*
X128869261Y-54264001D01*
X128935444Y-54270520D01*
X128935444Y-54270520D01*
G37*
G36*
X135135444Y-54270520D02*
X135201628Y-54277038D01*
X135314854Y-54311385D01*
X135371468Y-54328558D01*
X135510088Y-54402653D01*
X135527992Y-54412223D01*
X135563730Y-54441553D01*
X135665187Y-54524815D01*
X135748449Y-54626272D01*
X135777779Y-54662010D01*
X135777780Y-54662012D01*
X135861444Y-54818534D01*
X135878617Y-54875148D01*
X135912964Y-54988374D01*
X135930360Y-55165001D01*
X135912964Y-55341628D01*
X135878617Y-55454854D01*
X135861444Y-55511468D01*
X135787349Y-55650088D01*
X135777779Y-55667992D01*
X135748449Y-55703730D01*
X135665187Y-55805187D01*
X135563730Y-55888449D01*
X135527992Y-55917779D01*
X135527990Y-55917780D01*
X135371468Y-56001444D01*
X135314854Y-56018617D01*
X135201628Y-56052964D01*
X135135443Y-56059483D01*
X135069261Y-56066001D01*
X134980741Y-56066001D01*
X134914559Y-56059483D01*
X134848374Y-56052964D01*
X134735148Y-56018617D01*
X134678534Y-56001444D01*
X134522012Y-55917780D01*
X134522010Y-55917779D01*
X134486272Y-55888449D01*
X134384815Y-55805187D01*
X134301553Y-55703730D01*
X134272223Y-55667992D01*
X134262653Y-55650088D01*
X134188558Y-55511468D01*
X134171385Y-55454854D01*
X134137038Y-55341628D01*
X134119642Y-55165001D01*
X134137038Y-54988374D01*
X134171385Y-54875148D01*
X134188558Y-54818534D01*
X134272222Y-54662012D01*
X134272223Y-54662010D01*
X134301553Y-54626272D01*
X134384815Y-54524815D01*
X134486272Y-54441553D01*
X134522010Y-54412223D01*
X134539914Y-54402653D01*
X134678534Y-54328558D01*
X134735148Y-54311385D01*
X134848374Y-54277038D01*
X134914558Y-54270520D01*
X134980741Y-54264001D01*
X135069261Y-54264001D01*
X135135444Y-54270520D01*
X135135444Y-54270520D01*
G37*
G36*
X132595444Y-54270520D02*
X132661628Y-54277038D01*
X132774854Y-54311385D01*
X132831468Y-54328558D01*
X132970088Y-54402653D01*
X132987992Y-54412223D01*
X133023730Y-54441553D01*
X133125187Y-54524815D01*
X133208449Y-54626272D01*
X133237779Y-54662010D01*
X133237780Y-54662012D01*
X133321444Y-54818534D01*
X133338617Y-54875148D01*
X133372964Y-54988374D01*
X133390360Y-55165001D01*
X133372964Y-55341628D01*
X133338617Y-55454854D01*
X133321444Y-55511468D01*
X133247349Y-55650088D01*
X133237779Y-55667992D01*
X133208449Y-55703730D01*
X133125187Y-55805187D01*
X133023730Y-55888449D01*
X132987992Y-55917779D01*
X132987990Y-55917780D01*
X132831468Y-56001444D01*
X132774854Y-56018617D01*
X132661628Y-56052964D01*
X132595443Y-56059483D01*
X132529261Y-56066001D01*
X132440741Y-56066001D01*
X132374559Y-56059483D01*
X132308374Y-56052964D01*
X132195148Y-56018617D01*
X132138534Y-56001444D01*
X131982012Y-55917780D01*
X131982010Y-55917779D01*
X131946272Y-55888449D01*
X131844815Y-55805187D01*
X131761553Y-55703730D01*
X131732223Y-55667992D01*
X131722653Y-55650088D01*
X131648558Y-55511468D01*
X131631385Y-55454854D01*
X131597038Y-55341628D01*
X131579642Y-55165001D01*
X131597038Y-54988374D01*
X131631385Y-54875148D01*
X131648558Y-54818534D01*
X131732222Y-54662012D01*
X131732223Y-54662010D01*
X131761553Y-54626272D01*
X131844815Y-54524815D01*
X131946272Y-54441553D01*
X131982010Y-54412223D01*
X131999914Y-54402653D01*
X132138534Y-54328558D01*
X132195148Y-54311385D01*
X132308374Y-54277038D01*
X132374558Y-54270520D01*
X132440741Y-54264001D01*
X132529261Y-54264001D01*
X132595444Y-54270520D01*
X132595444Y-54270520D01*
G37*
G36*
X126395444Y-54270520D02*
X126461628Y-54277038D01*
X126574854Y-54311385D01*
X126631468Y-54328558D01*
X126770088Y-54402653D01*
X126787992Y-54412223D01*
X126823730Y-54441553D01*
X126925187Y-54524815D01*
X127008449Y-54626272D01*
X127037779Y-54662010D01*
X127037780Y-54662012D01*
X127121444Y-54818534D01*
X127138617Y-54875148D01*
X127172964Y-54988374D01*
X127190360Y-55165001D01*
X127172964Y-55341628D01*
X127138617Y-55454854D01*
X127121444Y-55511468D01*
X127047349Y-55650088D01*
X127037779Y-55667992D01*
X127008449Y-55703730D01*
X126925187Y-55805187D01*
X126823730Y-55888449D01*
X126787992Y-55917779D01*
X126787990Y-55917780D01*
X126631468Y-56001444D01*
X126574854Y-56018617D01*
X126461628Y-56052964D01*
X126395443Y-56059483D01*
X126329261Y-56066001D01*
X126240741Y-56066001D01*
X126174559Y-56059483D01*
X126108374Y-56052964D01*
X125995148Y-56018617D01*
X125938534Y-56001444D01*
X125782012Y-55917780D01*
X125782010Y-55917779D01*
X125746272Y-55888449D01*
X125644815Y-55805187D01*
X125561553Y-55703730D01*
X125532223Y-55667992D01*
X125522653Y-55650088D01*
X125448558Y-55511468D01*
X125431385Y-55454854D01*
X125397038Y-55341628D01*
X125379642Y-55165001D01*
X125397038Y-54988374D01*
X125431385Y-54875148D01*
X125448558Y-54818534D01*
X125532222Y-54662012D01*
X125532223Y-54662010D01*
X125561553Y-54626272D01*
X125644815Y-54524815D01*
X125746272Y-54441553D01*
X125782010Y-54412223D01*
X125799914Y-54402653D01*
X125938534Y-54328558D01*
X125995148Y-54311385D01*
X126108374Y-54277038D01*
X126174558Y-54270520D01*
X126240741Y-54264001D01*
X126329261Y-54264001D01*
X126395444Y-54270520D01*
X126395444Y-54270520D01*
G37*
G36*
X142858442Y-53207518D02*
X142924627Y-53214037D01*
X143037853Y-53248384D01*
X143094467Y-53265557D01*
X143233087Y-53339652D01*
X143250991Y-53349222D01*
X143285788Y-53377779D01*
X143388186Y-53461814D01*
X143471448Y-53563271D01*
X143500778Y-53599009D01*
X143500779Y-53599011D01*
X143584443Y-53755533D01*
X143584443Y-53755534D01*
X143635963Y-53925373D01*
X143653359Y-54102000D01*
X143635963Y-54278627D01*
X143601616Y-54391853D01*
X143584443Y-54448467D01*
X143543633Y-54524816D01*
X143500778Y-54604991D01*
X143471448Y-54640729D01*
X143388186Y-54742186D01*
X143295154Y-54818534D01*
X143250991Y-54854778D01*
X143250989Y-54854779D01*
X143094467Y-54938443D01*
X143037853Y-54955616D01*
X142924627Y-54989963D01*
X142858443Y-54996481D01*
X142792260Y-55003000D01*
X142703740Y-55003000D01*
X142637557Y-54996481D01*
X142571373Y-54989963D01*
X142458147Y-54955616D01*
X142401533Y-54938443D01*
X142245011Y-54854779D01*
X142245009Y-54854778D01*
X142200846Y-54818534D01*
X142107814Y-54742186D01*
X142024552Y-54640729D01*
X141995222Y-54604991D01*
X141952367Y-54524816D01*
X141911557Y-54448467D01*
X141894384Y-54391853D01*
X141860037Y-54278627D01*
X141842641Y-54102000D01*
X141860037Y-53925373D01*
X141911557Y-53755534D01*
X141911557Y-53755533D01*
X141995221Y-53599011D01*
X141995222Y-53599009D01*
X142024552Y-53563271D01*
X142107814Y-53461814D01*
X142210212Y-53377779D01*
X142245009Y-53349222D01*
X142262913Y-53339652D01*
X142401533Y-53265557D01*
X142458147Y-53248384D01*
X142571373Y-53214037D01*
X142637558Y-53207518D01*
X142703740Y-53201000D01*
X142792260Y-53201000D01*
X142858442Y-53207518D01*
X142858442Y-53207518D01*
G37*
G36*
X185305000Y-53987000D02*
X183503000Y-53987000D01*
X183503000Y-52185000D01*
X185305000Y-52185000D01*
X185305000Y-53987000D01*
X185305000Y-53987000D01*
G37*
G36*
X135135444Y-51730520D02*
X135201628Y-51737038D01*
X135314854Y-51771385D01*
X135371468Y-51788558D01*
X135510088Y-51862653D01*
X135527992Y-51872223D01*
X135563730Y-51901553D01*
X135665187Y-51984815D01*
X135748449Y-52086272D01*
X135777779Y-52122010D01*
X135777780Y-52122012D01*
X135861444Y-52278534D01*
X135861444Y-52278535D01*
X135912964Y-52448374D01*
X135930360Y-52625001D01*
X135912964Y-52801628D01*
X135878617Y-52914854D01*
X135861444Y-52971468D01*
X135787349Y-53110088D01*
X135777779Y-53127992D01*
X135748449Y-53163730D01*
X135665187Y-53265187D01*
X135563730Y-53348449D01*
X135527992Y-53377779D01*
X135527990Y-53377780D01*
X135371468Y-53461444D01*
X135314854Y-53478617D01*
X135201628Y-53512964D01*
X135135443Y-53519483D01*
X135069261Y-53526001D01*
X134980741Y-53526001D01*
X134914559Y-53519483D01*
X134848374Y-53512964D01*
X134735148Y-53478617D01*
X134678534Y-53461444D01*
X134522012Y-53377780D01*
X134522010Y-53377779D01*
X134486272Y-53348449D01*
X134384815Y-53265187D01*
X134301553Y-53163730D01*
X134272223Y-53127992D01*
X134262653Y-53110088D01*
X134188558Y-52971468D01*
X134171385Y-52914854D01*
X134137038Y-52801628D01*
X134119642Y-52625001D01*
X134137038Y-52448374D01*
X134188558Y-52278535D01*
X134188558Y-52278534D01*
X134272222Y-52122012D01*
X134272223Y-52122010D01*
X134301553Y-52086272D01*
X134384815Y-51984815D01*
X134486272Y-51901553D01*
X134522010Y-51872223D01*
X134539914Y-51862653D01*
X134678534Y-51788558D01*
X134735148Y-51771385D01*
X134848374Y-51737038D01*
X134914559Y-51730519D01*
X134980741Y-51724001D01*
X135069261Y-51724001D01*
X135135444Y-51730520D01*
X135135444Y-51730520D01*
G37*
G36*
X132595444Y-51730520D02*
X132661628Y-51737038D01*
X132774854Y-51771385D01*
X132831468Y-51788558D01*
X132970088Y-51862653D01*
X132987992Y-51872223D01*
X133023730Y-51901553D01*
X133125187Y-51984815D01*
X133208449Y-52086272D01*
X133237779Y-52122010D01*
X133237780Y-52122012D01*
X133321444Y-52278534D01*
X133321444Y-52278535D01*
X133372964Y-52448374D01*
X133390360Y-52625001D01*
X133372964Y-52801628D01*
X133338617Y-52914854D01*
X133321444Y-52971468D01*
X133247349Y-53110088D01*
X133237779Y-53127992D01*
X133208449Y-53163730D01*
X133125187Y-53265187D01*
X133023730Y-53348449D01*
X132987992Y-53377779D01*
X132987990Y-53377780D01*
X132831468Y-53461444D01*
X132774854Y-53478617D01*
X132661628Y-53512964D01*
X132595443Y-53519483D01*
X132529261Y-53526001D01*
X132440741Y-53526001D01*
X132374559Y-53519483D01*
X132308374Y-53512964D01*
X132195148Y-53478617D01*
X132138534Y-53461444D01*
X131982012Y-53377780D01*
X131982010Y-53377779D01*
X131946272Y-53348449D01*
X131844815Y-53265187D01*
X131761553Y-53163730D01*
X131732223Y-53127992D01*
X131722653Y-53110088D01*
X131648558Y-52971468D01*
X131631385Y-52914854D01*
X131597038Y-52801628D01*
X131579642Y-52625001D01*
X131597038Y-52448374D01*
X131648558Y-52278535D01*
X131648558Y-52278534D01*
X131732222Y-52122012D01*
X131732223Y-52122010D01*
X131761553Y-52086272D01*
X131844815Y-51984815D01*
X131946272Y-51901553D01*
X131982010Y-51872223D01*
X131999914Y-51862653D01*
X132138534Y-51788558D01*
X132195148Y-51771385D01*
X132308374Y-51737038D01*
X132374559Y-51730519D01*
X132440741Y-51724001D01*
X132529261Y-51724001D01*
X132595444Y-51730520D01*
X132595444Y-51730520D01*
G37*
G36*
X126395444Y-51730520D02*
X126461628Y-51737038D01*
X126574854Y-51771385D01*
X126631468Y-51788558D01*
X126770088Y-51862653D01*
X126787992Y-51872223D01*
X126823730Y-51901553D01*
X126925187Y-51984815D01*
X127008449Y-52086272D01*
X127037779Y-52122010D01*
X127037780Y-52122012D01*
X127121444Y-52278534D01*
X127121444Y-52278535D01*
X127172964Y-52448374D01*
X127190360Y-52625001D01*
X127172964Y-52801628D01*
X127138617Y-52914854D01*
X127121444Y-52971468D01*
X127047349Y-53110088D01*
X127037779Y-53127992D01*
X127008449Y-53163730D01*
X126925187Y-53265187D01*
X126823730Y-53348449D01*
X126787992Y-53377779D01*
X126787990Y-53377780D01*
X126631468Y-53461444D01*
X126574854Y-53478617D01*
X126461628Y-53512964D01*
X126395443Y-53519483D01*
X126329261Y-53526001D01*
X126240741Y-53526001D01*
X126174559Y-53519483D01*
X126108374Y-53512964D01*
X125995148Y-53478617D01*
X125938534Y-53461444D01*
X125782012Y-53377780D01*
X125782010Y-53377779D01*
X125746272Y-53348449D01*
X125644815Y-53265187D01*
X125561553Y-53163730D01*
X125532223Y-53127992D01*
X125522653Y-53110088D01*
X125448558Y-52971468D01*
X125431385Y-52914854D01*
X125397038Y-52801628D01*
X125379642Y-52625001D01*
X125397038Y-52448374D01*
X125448558Y-52278535D01*
X125448558Y-52278534D01*
X125532222Y-52122012D01*
X125532223Y-52122010D01*
X125561553Y-52086272D01*
X125644815Y-51984815D01*
X125746272Y-51901553D01*
X125782010Y-51872223D01*
X125799914Y-51862653D01*
X125938534Y-51788558D01*
X125995148Y-51771385D01*
X126108374Y-51737038D01*
X126174559Y-51730519D01*
X126240741Y-51724001D01*
X126329261Y-51724001D01*
X126395444Y-51730520D01*
X126395444Y-51730520D01*
G37*
G36*
X128935444Y-51730520D02*
X129001628Y-51737038D01*
X129114854Y-51771385D01*
X129171468Y-51788558D01*
X129310088Y-51862653D01*
X129327992Y-51872223D01*
X129363730Y-51901553D01*
X129465187Y-51984815D01*
X129548449Y-52086272D01*
X129577779Y-52122010D01*
X129577780Y-52122012D01*
X129661444Y-52278534D01*
X129661444Y-52278535D01*
X129712964Y-52448374D01*
X129730360Y-52625001D01*
X129712964Y-52801628D01*
X129678617Y-52914854D01*
X129661444Y-52971468D01*
X129587349Y-53110088D01*
X129577779Y-53127992D01*
X129548449Y-53163730D01*
X129465187Y-53265187D01*
X129363730Y-53348449D01*
X129327992Y-53377779D01*
X129327990Y-53377780D01*
X129171468Y-53461444D01*
X129114854Y-53478617D01*
X129001628Y-53512964D01*
X128935443Y-53519483D01*
X128869261Y-53526001D01*
X128780741Y-53526001D01*
X128714559Y-53519483D01*
X128648374Y-53512964D01*
X128535148Y-53478617D01*
X128478534Y-53461444D01*
X128322012Y-53377780D01*
X128322010Y-53377779D01*
X128286272Y-53348449D01*
X128184815Y-53265187D01*
X128101553Y-53163730D01*
X128072223Y-53127992D01*
X128062653Y-53110088D01*
X127988558Y-52971468D01*
X127971385Y-52914854D01*
X127937038Y-52801628D01*
X127919642Y-52625001D01*
X127937038Y-52448374D01*
X127988558Y-52278535D01*
X127988558Y-52278534D01*
X128072222Y-52122012D01*
X128072223Y-52122010D01*
X128101553Y-52086272D01*
X128184815Y-51984815D01*
X128286272Y-51901553D01*
X128322010Y-51872223D01*
X128339914Y-51862653D01*
X128478534Y-51788558D01*
X128535148Y-51771385D01*
X128648374Y-51737038D01*
X128714559Y-51730519D01*
X128780741Y-51724001D01*
X128869261Y-51724001D01*
X128935444Y-51730520D01*
X128935444Y-51730520D01*
G37*
G36*
X184514443Y-49651519D02*
X184580627Y-49658037D01*
X184693853Y-49692384D01*
X184750467Y-49709557D01*
X184804678Y-49738534D01*
X184906991Y-49793222D01*
X184942729Y-49822552D01*
X185044186Y-49905814D01*
X185127448Y-50007271D01*
X185156778Y-50043009D01*
X185156779Y-50043011D01*
X185240443Y-50199533D01*
X185240443Y-50199534D01*
X185291963Y-50369373D01*
X185309359Y-50546000D01*
X185291963Y-50722627D01*
X185291186Y-50725187D01*
X185240443Y-50892467D01*
X185224954Y-50921444D01*
X185156778Y-51048991D01*
X185127448Y-51084729D01*
X185044186Y-51186186D01*
X184942729Y-51269448D01*
X184906991Y-51298778D01*
X184906989Y-51298779D01*
X184750467Y-51382443D01*
X184693853Y-51399616D01*
X184580627Y-51433963D01*
X184514443Y-51440481D01*
X184448260Y-51447000D01*
X184359740Y-51447000D01*
X184293557Y-51440481D01*
X184227373Y-51433963D01*
X184114147Y-51399616D01*
X184057533Y-51382443D01*
X183901011Y-51298779D01*
X183901009Y-51298778D01*
X183865271Y-51269448D01*
X183763814Y-51186186D01*
X183680552Y-51084729D01*
X183651222Y-51048991D01*
X183583046Y-50921444D01*
X183567557Y-50892467D01*
X183516814Y-50725187D01*
X183516037Y-50722627D01*
X183498641Y-50546000D01*
X183516037Y-50369373D01*
X183567557Y-50199534D01*
X183567557Y-50199533D01*
X183651221Y-50043011D01*
X183651222Y-50043009D01*
X183680552Y-50007271D01*
X183763814Y-49905814D01*
X183865271Y-49822552D01*
X183901009Y-49793222D01*
X184003322Y-49738534D01*
X184057533Y-49709557D01*
X184114147Y-49692384D01*
X184227373Y-49658037D01*
X184293557Y-49651519D01*
X184359740Y-49645000D01*
X184448260Y-49645000D01*
X184514443Y-49651519D01*
X184514443Y-49651519D01*
G37*
G36*
X200262443Y-49651519D02*
X200328627Y-49658037D01*
X200441853Y-49692384D01*
X200498467Y-49709557D01*
X200552678Y-49738534D01*
X200654991Y-49793222D01*
X200690729Y-49822552D01*
X200792186Y-49905814D01*
X200875448Y-50007271D01*
X200904778Y-50043009D01*
X200904779Y-50043011D01*
X200988443Y-50199533D01*
X200988443Y-50199534D01*
X201039963Y-50369373D01*
X201057359Y-50546000D01*
X201039963Y-50722627D01*
X201039186Y-50725187D01*
X200988443Y-50892467D01*
X200972954Y-50921444D01*
X200904778Y-51048991D01*
X200875448Y-51084729D01*
X200792186Y-51186186D01*
X200690729Y-51269448D01*
X200654991Y-51298778D01*
X200654989Y-51298779D01*
X200498467Y-51382443D01*
X200441853Y-51399616D01*
X200328627Y-51433963D01*
X200262443Y-51440481D01*
X200196260Y-51447000D01*
X200107740Y-51447000D01*
X200041557Y-51440481D01*
X199975373Y-51433963D01*
X199862147Y-51399616D01*
X199805533Y-51382443D01*
X199649011Y-51298779D01*
X199649009Y-51298778D01*
X199613271Y-51269448D01*
X199511814Y-51186186D01*
X199428552Y-51084729D01*
X199399222Y-51048991D01*
X199331046Y-50921444D01*
X199315557Y-50892467D01*
X199264814Y-50725187D01*
X199264037Y-50722627D01*
X199246641Y-50546000D01*
X199264037Y-50369373D01*
X199315557Y-50199534D01*
X199315557Y-50199533D01*
X199399221Y-50043011D01*
X199399222Y-50043009D01*
X199428552Y-50007271D01*
X199511814Y-49905814D01*
X199613271Y-49822552D01*
X199649009Y-49793222D01*
X199751322Y-49738534D01*
X199805533Y-49709557D01*
X199862147Y-49692384D01*
X199975373Y-49658037D01*
X200041557Y-49651519D01*
X200107740Y-49645000D01*
X200196260Y-49645000D01*
X200262443Y-49651519D01*
X200262443Y-49651519D01*
G37*
G36*
X126395444Y-49190520D02*
X126461628Y-49197038D01*
X126574854Y-49231385D01*
X126631468Y-49248558D01*
X126770088Y-49322653D01*
X126787992Y-49332223D01*
X126823730Y-49361553D01*
X126925187Y-49444815D01*
X127008449Y-49546272D01*
X127037779Y-49582010D01*
X127037780Y-49582012D01*
X127121444Y-49738534D01*
X127121444Y-49738535D01*
X127172964Y-49908374D01*
X127190360Y-50085001D01*
X127172964Y-50261628D01*
X127140280Y-50369373D01*
X127121444Y-50431468D01*
X127060224Y-50546000D01*
X127037779Y-50587992D01*
X127008449Y-50623730D01*
X126925187Y-50725187D01*
X126823730Y-50808449D01*
X126787992Y-50837779D01*
X126787990Y-50837780D01*
X126631468Y-50921444D01*
X126574854Y-50938617D01*
X126461628Y-50972964D01*
X126395443Y-50979483D01*
X126329261Y-50986001D01*
X126240741Y-50986001D01*
X126174558Y-50979482D01*
X126108374Y-50972964D01*
X125995148Y-50938617D01*
X125938534Y-50921444D01*
X125782012Y-50837780D01*
X125782010Y-50837779D01*
X125746272Y-50808449D01*
X125644815Y-50725187D01*
X125561553Y-50623730D01*
X125532223Y-50587992D01*
X125509778Y-50546000D01*
X125448558Y-50431468D01*
X125429722Y-50369373D01*
X125397038Y-50261628D01*
X125379642Y-50085001D01*
X125397038Y-49908374D01*
X125448558Y-49738535D01*
X125448558Y-49738534D01*
X125532222Y-49582012D01*
X125532223Y-49582010D01*
X125561553Y-49546272D01*
X125644815Y-49444815D01*
X125746272Y-49361553D01*
X125782010Y-49332223D01*
X125799914Y-49322653D01*
X125938534Y-49248558D01*
X125995148Y-49231385D01*
X126108374Y-49197038D01*
X126174558Y-49190520D01*
X126240741Y-49184001D01*
X126329261Y-49184001D01*
X126395444Y-49190520D01*
X126395444Y-49190520D01*
G37*
G36*
X128935444Y-49190520D02*
X129001628Y-49197038D01*
X129114854Y-49231385D01*
X129171468Y-49248558D01*
X129310088Y-49322653D01*
X129327992Y-49332223D01*
X129363730Y-49361553D01*
X129465187Y-49444815D01*
X129548449Y-49546272D01*
X129577779Y-49582010D01*
X129577780Y-49582012D01*
X129661444Y-49738534D01*
X129661444Y-49738535D01*
X129712964Y-49908374D01*
X129730360Y-50085001D01*
X129712964Y-50261628D01*
X129680280Y-50369373D01*
X129661444Y-50431468D01*
X129600224Y-50546000D01*
X129577779Y-50587992D01*
X129548449Y-50623730D01*
X129465187Y-50725187D01*
X129363730Y-50808449D01*
X129327992Y-50837779D01*
X129327990Y-50837780D01*
X129171468Y-50921444D01*
X129114854Y-50938617D01*
X129001628Y-50972964D01*
X128935443Y-50979483D01*
X128869261Y-50986001D01*
X128780741Y-50986001D01*
X128714558Y-50979482D01*
X128648374Y-50972964D01*
X128535148Y-50938617D01*
X128478534Y-50921444D01*
X128322012Y-50837780D01*
X128322010Y-50837779D01*
X128286272Y-50808449D01*
X128184815Y-50725187D01*
X128101553Y-50623730D01*
X128072223Y-50587992D01*
X128049778Y-50546000D01*
X127988558Y-50431468D01*
X127969722Y-50369373D01*
X127937038Y-50261628D01*
X127919642Y-50085001D01*
X127937038Y-49908374D01*
X127988558Y-49738535D01*
X127988558Y-49738534D01*
X128072222Y-49582012D01*
X128072223Y-49582010D01*
X128101553Y-49546272D01*
X128184815Y-49444815D01*
X128286272Y-49361553D01*
X128322010Y-49332223D01*
X128339914Y-49322653D01*
X128478534Y-49248558D01*
X128535148Y-49231385D01*
X128648374Y-49197038D01*
X128714558Y-49190520D01*
X128780741Y-49184001D01*
X128869261Y-49184001D01*
X128935444Y-49190520D01*
X128935444Y-49190520D01*
G37*
G36*
X132595444Y-49190520D02*
X132661628Y-49197038D01*
X132774854Y-49231385D01*
X132831468Y-49248558D01*
X132970088Y-49322653D01*
X132987992Y-49332223D01*
X133023730Y-49361553D01*
X133125187Y-49444815D01*
X133208449Y-49546272D01*
X133237779Y-49582010D01*
X133237780Y-49582012D01*
X133321444Y-49738534D01*
X133321444Y-49738535D01*
X133372964Y-49908374D01*
X133390360Y-50085001D01*
X133372964Y-50261628D01*
X133340280Y-50369373D01*
X133321444Y-50431468D01*
X133260224Y-50546000D01*
X133237779Y-50587992D01*
X133208449Y-50623730D01*
X133125187Y-50725187D01*
X133023730Y-50808449D01*
X132987992Y-50837779D01*
X132987990Y-50837780D01*
X132831468Y-50921444D01*
X132774854Y-50938617D01*
X132661628Y-50972964D01*
X132595443Y-50979483D01*
X132529261Y-50986001D01*
X132440741Y-50986001D01*
X132374558Y-50979482D01*
X132308374Y-50972964D01*
X132195148Y-50938617D01*
X132138534Y-50921444D01*
X131982012Y-50837780D01*
X131982010Y-50837779D01*
X131946272Y-50808449D01*
X131844815Y-50725187D01*
X131761553Y-50623730D01*
X131732223Y-50587992D01*
X131709778Y-50546000D01*
X131648558Y-50431468D01*
X131629722Y-50369373D01*
X131597038Y-50261628D01*
X131579642Y-50085001D01*
X131597038Y-49908374D01*
X131648558Y-49738535D01*
X131648558Y-49738534D01*
X131732222Y-49582012D01*
X131732223Y-49582010D01*
X131761553Y-49546272D01*
X131844815Y-49444815D01*
X131946272Y-49361553D01*
X131982010Y-49332223D01*
X131999914Y-49322653D01*
X132138534Y-49248558D01*
X132195148Y-49231385D01*
X132308374Y-49197038D01*
X132374558Y-49190520D01*
X132440741Y-49184001D01*
X132529261Y-49184001D01*
X132595444Y-49190520D01*
X132595444Y-49190520D01*
G37*
G36*
X135135444Y-49190520D02*
X135201628Y-49197038D01*
X135314854Y-49231385D01*
X135371468Y-49248558D01*
X135510088Y-49322653D01*
X135527992Y-49332223D01*
X135563730Y-49361553D01*
X135665187Y-49444815D01*
X135748449Y-49546272D01*
X135777779Y-49582010D01*
X135777780Y-49582012D01*
X135861444Y-49738534D01*
X135861444Y-49738535D01*
X135912964Y-49908374D01*
X135930360Y-50085001D01*
X135912964Y-50261628D01*
X135880280Y-50369373D01*
X135861444Y-50431468D01*
X135800224Y-50546000D01*
X135777779Y-50587992D01*
X135748449Y-50623730D01*
X135665187Y-50725187D01*
X135563730Y-50808449D01*
X135527992Y-50837779D01*
X135527990Y-50837780D01*
X135371468Y-50921444D01*
X135314854Y-50938617D01*
X135201628Y-50972964D01*
X135135443Y-50979483D01*
X135069261Y-50986001D01*
X134980741Y-50986001D01*
X134914558Y-50979482D01*
X134848374Y-50972964D01*
X134735148Y-50938617D01*
X134678534Y-50921444D01*
X134522012Y-50837780D01*
X134522010Y-50837779D01*
X134486272Y-50808449D01*
X134384815Y-50725187D01*
X134301553Y-50623730D01*
X134272223Y-50587992D01*
X134249778Y-50546000D01*
X134188558Y-50431468D01*
X134169722Y-50369373D01*
X134137038Y-50261628D01*
X134119642Y-50085001D01*
X134137038Y-49908374D01*
X134188558Y-49738535D01*
X134188558Y-49738534D01*
X134272222Y-49582012D01*
X134272223Y-49582010D01*
X134301553Y-49546272D01*
X134384815Y-49444815D01*
X134486272Y-49361553D01*
X134522010Y-49332223D01*
X134539914Y-49322653D01*
X134678534Y-49248558D01*
X134735148Y-49231385D01*
X134848374Y-49197038D01*
X134914558Y-49190520D01*
X134980741Y-49184001D01*
X135069261Y-49184001D01*
X135135444Y-49190520D01*
X135135444Y-49190520D01*
G37*
G36*
X200262442Y-47111518D02*
X200328627Y-47118037D01*
X200441853Y-47152384D01*
X200498467Y-47169557D01*
X200552678Y-47198534D01*
X200654991Y-47253222D01*
X200690729Y-47282552D01*
X200792186Y-47365814D01*
X200875448Y-47467271D01*
X200904778Y-47503009D01*
X200904779Y-47503011D01*
X200988443Y-47659533D01*
X200988443Y-47659534D01*
X201039963Y-47829373D01*
X201057359Y-48006000D01*
X201039963Y-48182627D01*
X201039186Y-48185187D01*
X200988443Y-48352467D01*
X200972954Y-48381444D01*
X200904778Y-48508991D01*
X200875448Y-48544729D01*
X200792186Y-48646186D01*
X200690729Y-48729448D01*
X200654991Y-48758778D01*
X200654989Y-48758779D01*
X200498467Y-48842443D01*
X200441853Y-48859616D01*
X200328627Y-48893963D01*
X200262443Y-48900481D01*
X200196260Y-48907000D01*
X200107740Y-48907000D01*
X200041558Y-48900482D01*
X199975373Y-48893963D01*
X199862147Y-48859616D01*
X199805533Y-48842443D01*
X199649011Y-48758779D01*
X199649009Y-48758778D01*
X199613271Y-48729448D01*
X199511814Y-48646186D01*
X199428552Y-48544729D01*
X199399222Y-48508991D01*
X199331046Y-48381444D01*
X199315557Y-48352467D01*
X199264814Y-48185187D01*
X199264037Y-48182627D01*
X199246641Y-48006000D01*
X199264037Y-47829373D01*
X199315557Y-47659534D01*
X199315557Y-47659533D01*
X199399221Y-47503011D01*
X199399222Y-47503009D01*
X199428552Y-47467271D01*
X199511814Y-47365814D01*
X199613271Y-47282552D01*
X199649009Y-47253222D01*
X199751322Y-47198534D01*
X199805533Y-47169557D01*
X199862147Y-47152384D01*
X199975373Y-47118037D01*
X200041558Y-47111518D01*
X200107740Y-47105000D01*
X200196260Y-47105000D01*
X200262442Y-47111518D01*
X200262442Y-47111518D01*
G37*
G36*
X128935444Y-46650520D02*
X129001628Y-46657038D01*
X129114854Y-46691385D01*
X129171468Y-46708558D01*
X129310088Y-46782653D01*
X129327992Y-46792223D01*
X129363730Y-46821553D01*
X129465187Y-46904815D01*
X129548449Y-47006272D01*
X129577779Y-47042010D01*
X129577780Y-47042012D01*
X129661444Y-47198534D01*
X129661444Y-47198535D01*
X129712964Y-47368374D01*
X129730360Y-47545001D01*
X129712964Y-47721628D01*
X129680280Y-47829373D01*
X129661444Y-47891468D01*
X129600224Y-48006000D01*
X129577779Y-48047992D01*
X129548449Y-48083730D01*
X129465187Y-48185187D01*
X129363730Y-48268449D01*
X129327992Y-48297779D01*
X129327990Y-48297780D01*
X129171468Y-48381444D01*
X129114854Y-48398617D01*
X129001628Y-48432964D01*
X128935444Y-48439482D01*
X128869261Y-48446001D01*
X128780741Y-48446001D01*
X128714558Y-48439482D01*
X128648374Y-48432964D01*
X128535148Y-48398617D01*
X128478534Y-48381444D01*
X128322012Y-48297780D01*
X128322010Y-48297779D01*
X128286272Y-48268449D01*
X128184815Y-48185187D01*
X128101553Y-48083730D01*
X128072223Y-48047992D01*
X128049778Y-48006000D01*
X127988558Y-47891468D01*
X127969722Y-47829373D01*
X127937038Y-47721628D01*
X127919642Y-47545001D01*
X127937038Y-47368374D01*
X127988558Y-47198535D01*
X127988558Y-47198534D01*
X128072222Y-47042012D01*
X128072223Y-47042010D01*
X128101553Y-47006272D01*
X128184815Y-46904815D01*
X128286272Y-46821553D01*
X128322010Y-46792223D01*
X128339914Y-46782653D01*
X128478534Y-46708558D01*
X128535148Y-46691385D01*
X128648374Y-46657038D01*
X128714558Y-46650520D01*
X128780741Y-46644001D01*
X128869261Y-46644001D01*
X128935444Y-46650520D01*
X128935444Y-46650520D01*
G37*
G36*
X135135444Y-46650520D02*
X135201628Y-46657038D01*
X135314854Y-46691385D01*
X135371468Y-46708558D01*
X135510088Y-46782653D01*
X135527992Y-46792223D01*
X135563730Y-46821553D01*
X135665187Y-46904815D01*
X135748449Y-47006272D01*
X135777779Y-47042010D01*
X135777780Y-47042012D01*
X135861444Y-47198534D01*
X135861444Y-47198535D01*
X135912964Y-47368374D01*
X135930360Y-47545001D01*
X135912964Y-47721628D01*
X135880280Y-47829373D01*
X135861444Y-47891468D01*
X135800224Y-48006000D01*
X135777779Y-48047992D01*
X135748449Y-48083730D01*
X135665187Y-48185187D01*
X135563730Y-48268449D01*
X135527992Y-48297779D01*
X135527990Y-48297780D01*
X135371468Y-48381444D01*
X135314854Y-48398617D01*
X135201628Y-48432964D01*
X135135444Y-48439482D01*
X135069261Y-48446001D01*
X134980741Y-48446001D01*
X134914558Y-48439482D01*
X134848374Y-48432964D01*
X134735148Y-48398617D01*
X134678534Y-48381444D01*
X134522012Y-48297780D01*
X134522010Y-48297779D01*
X134486272Y-48268449D01*
X134384815Y-48185187D01*
X134301553Y-48083730D01*
X134272223Y-48047992D01*
X134249778Y-48006000D01*
X134188558Y-47891468D01*
X134169722Y-47829373D01*
X134137038Y-47721628D01*
X134119642Y-47545001D01*
X134137038Y-47368374D01*
X134188558Y-47198535D01*
X134188558Y-47198534D01*
X134272222Y-47042012D01*
X134272223Y-47042010D01*
X134301553Y-47006272D01*
X134384815Y-46904815D01*
X134486272Y-46821553D01*
X134522010Y-46792223D01*
X134539914Y-46782653D01*
X134678534Y-46708558D01*
X134735148Y-46691385D01*
X134848374Y-46657038D01*
X134914558Y-46650520D01*
X134980741Y-46644001D01*
X135069261Y-46644001D01*
X135135444Y-46650520D01*
X135135444Y-46650520D01*
G37*
G36*
X126395444Y-46650520D02*
X126461628Y-46657038D01*
X126574854Y-46691385D01*
X126631468Y-46708558D01*
X126770088Y-46782653D01*
X126787992Y-46792223D01*
X126823730Y-46821553D01*
X126925187Y-46904815D01*
X127008449Y-47006272D01*
X127037779Y-47042010D01*
X127037780Y-47042012D01*
X127121444Y-47198534D01*
X127121444Y-47198535D01*
X127172964Y-47368374D01*
X127190360Y-47545001D01*
X127172964Y-47721628D01*
X127140280Y-47829373D01*
X127121444Y-47891468D01*
X127060224Y-48006000D01*
X127037779Y-48047992D01*
X127008449Y-48083730D01*
X126925187Y-48185187D01*
X126823730Y-48268449D01*
X126787992Y-48297779D01*
X126787990Y-48297780D01*
X126631468Y-48381444D01*
X126574854Y-48398617D01*
X126461628Y-48432964D01*
X126395444Y-48439482D01*
X126329261Y-48446001D01*
X126240741Y-48446001D01*
X126174558Y-48439482D01*
X126108374Y-48432964D01*
X125995148Y-48398617D01*
X125938534Y-48381444D01*
X125782012Y-48297780D01*
X125782010Y-48297779D01*
X125746272Y-48268449D01*
X125644815Y-48185187D01*
X125561553Y-48083730D01*
X125532223Y-48047992D01*
X125509778Y-48006000D01*
X125448558Y-47891468D01*
X125429722Y-47829373D01*
X125397038Y-47721628D01*
X125379642Y-47545001D01*
X125397038Y-47368374D01*
X125448558Y-47198535D01*
X125448558Y-47198534D01*
X125532222Y-47042012D01*
X125532223Y-47042010D01*
X125561553Y-47006272D01*
X125644815Y-46904815D01*
X125746272Y-46821553D01*
X125782010Y-46792223D01*
X125799914Y-46782653D01*
X125938534Y-46708558D01*
X125995148Y-46691385D01*
X126108374Y-46657038D01*
X126174558Y-46650520D01*
X126240741Y-46644001D01*
X126329261Y-46644001D01*
X126395444Y-46650520D01*
X126395444Y-46650520D01*
G37*
G36*
X132595444Y-46650520D02*
X132661628Y-46657038D01*
X132774854Y-46691385D01*
X132831468Y-46708558D01*
X132970088Y-46782653D01*
X132987992Y-46792223D01*
X133023730Y-46821553D01*
X133125187Y-46904815D01*
X133208449Y-47006272D01*
X133237779Y-47042010D01*
X133237780Y-47042012D01*
X133321444Y-47198534D01*
X133321444Y-47198535D01*
X133372964Y-47368374D01*
X133390360Y-47545001D01*
X133372964Y-47721628D01*
X133340280Y-47829373D01*
X133321444Y-47891468D01*
X133260224Y-48006000D01*
X133237779Y-48047992D01*
X133208449Y-48083730D01*
X133125187Y-48185187D01*
X133023730Y-48268449D01*
X132987992Y-48297779D01*
X132987990Y-48297780D01*
X132831468Y-48381444D01*
X132774854Y-48398617D01*
X132661628Y-48432964D01*
X132595444Y-48439482D01*
X132529261Y-48446001D01*
X132440741Y-48446001D01*
X132374558Y-48439482D01*
X132308374Y-48432964D01*
X132195148Y-48398617D01*
X132138534Y-48381444D01*
X131982012Y-48297780D01*
X131982010Y-48297779D01*
X131946272Y-48268449D01*
X131844815Y-48185187D01*
X131761553Y-48083730D01*
X131732223Y-48047992D01*
X131709778Y-48006000D01*
X131648558Y-47891468D01*
X131629722Y-47829373D01*
X131597038Y-47721628D01*
X131579642Y-47545001D01*
X131597038Y-47368374D01*
X131648558Y-47198535D01*
X131648558Y-47198534D01*
X131732222Y-47042012D01*
X131732223Y-47042010D01*
X131761553Y-47006272D01*
X131844815Y-46904815D01*
X131946272Y-46821553D01*
X131982010Y-46792223D01*
X131999914Y-46782653D01*
X132138534Y-46708558D01*
X132195148Y-46691385D01*
X132308374Y-46657038D01*
X132374558Y-46650520D01*
X132440741Y-46644001D01*
X132529261Y-46644001D01*
X132595444Y-46650520D01*
X132595444Y-46650520D01*
G37*
G36*
X200262442Y-44571518D02*
X200328627Y-44578037D01*
X200441853Y-44612384D01*
X200498467Y-44629557D01*
X200552678Y-44658534D01*
X200654991Y-44713222D01*
X200690729Y-44742552D01*
X200792186Y-44825814D01*
X200875448Y-44927271D01*
X200904778Y-44963009D01*
X200904779Y-44963011D01*
X200988443Y-45119533D01*
X200988443Y-45119534D01*
X201039963Y-45289373D01*
X201057359Y-45466000D01*
X201039963Y-45642627D01*
X201039186Y-45645187D01*
X200988443Y-45812467D01*
X200972954Y-45841444D01*
X200904778Y-45968991D01*
X200875448Y-46004729D01*
X200792186Y-46106186D01*
X200690729Y-46189448D01*
X200654991Y-46218778D01*
X200654989Y-46218779D01*
X200498467Y-46302443D01*
X200441853Y-46319616D01*
X200328627Y-46353963D01*
X200262443Y-46360481D01*
X200196260Y-46367000D01*
X200107740Y-46367000D01*
X200041557Y-46360481D01*
X199975373Y-46353963D01*
X199862147Y-46319616D01*
X199805533Y-46302443D01*
X199649011Y-46218779D01*
X199649009Y-46218778D01*
X199613271Y-46189448D01*
X199511814Y-46106186D01*
X199428552Y-46004729D01*
X199399222Y-45968991D01*
X199331046Y-45841444D01*
X199315557Y-45812467D01*
X199264814Y-45645187D01*
X199264037Y-45642627D01*
X199246641Y-45466000D01*
X199264037Y-45289373D01*
X199315557Y-45119534D01*
X199315557Y-45119533D01*
X199399221Y-44963011D01*
X199399222Y-44963009D01*
X199428552Y-44927271D01*
X199511814Y-44825814D01*
X199613271Y-44742552D01*
X199649009Y-44713222D01*
X199751322Y-44658534D01*
X199805533Y-44629557D01*
X199862147Y-44612384D01*
X199975373Y-44578037D01*
X200041557Y-44571519D01*
X200107740Y-44565000D01*
X200196260Y-44565000D01*
X200262442Y-44571518D01*
X200262442Y-44571518D01*
G37*
G36*
X135135443Y-44110519D02*
X135201628Y-44117038D01*
X135314854Y-44151385D01*
X135371468Y-44168558D01*
X135510088Y-44242653D01*
X135527992Y-44252223D01*
X135563730Y-44281553D01*
X135665187Y-44364815D01*
X135748449Y-44466272D01*
X135777779Y-44502010D01*
X135777780Y-44502012D01*
X135861444Y-44658534D01*
X135861444Y-44658535D01*
X135912964Y-44828374D01*
X135930360Y-45005001D01*
X135912964Y-45181628D01*
X135880280Y-45289373D01*
X135861444Y-45351468D01*
X135800224Y-45466000D01*
X135777779Y-45507992D01*
X135748449Y-45543730D01*
X135665187Y-45645187D01*
X135563730Y-45728449D01*
X135527992Y-45757779D01*
X135527990Y-45757780D01*
X135371468Y-45841444D01*
X135314854Y-45858617D01*
X135201628Y-45892964D01*
X135135444Y-45899482D01*
X135069261Y-45906001D01*
X134980741Y-45906001D01*
X134914558Y-45899482D01*
X134848374Y-45892964D01*
X134735148Y-45858617D01*
X134678534Y-45841444D01*
X134522012Y-45757780D01*
X134522010Y-45757779D01*
X134486272Y-45728449D01*
X134384815Y-45645187D01*
X134301553Y-45543730D01*
X134272223Y-45507992D01*
X134249778Y-45466000D01*
X134188558Y-45351468D01*
X134169722Y-45289373D01*
X134137038Y-45181628D01*
X134119642Y-45005001D01*
X134137038Y-44828374D01*
X134188558Y-44658535D01*
X134188558Y-44658534D01*
X134272222Y-44502012D01*
X134272223Y-44502010D01*
X134301553Y-44466272D01*
X134384815Y-44364815D01*
X134486272Y-44281553D01*
X134522010Y-44252223D01*
X134539914Y-44242653D01*
X134678534Y-44168558D01*
X134735148Y-44151385D01*
X134848374Y-44117038D01*
X134914559Y-44110519D01*
X134980741Y-44104001D01*
X135069261Y-44104001D01*
X135135443Y-44110519D01*
X135135443Y-44110519D01*
G37*
G36*
X132595443Y-44110519D02*
X132661628Y-44117038D01*
X132774854Y-44151385D01*
X132831468Y-44168558D01*
X132970088Y-44242653D01*
X132987992Y-44252223D01*
X133023730Y-44281553D01*
X133125187Y-44364815D01*
X133208449Y-44466272D01*
X133237779Y-44502010D01*
X133237780Y-44502012D01*
X133321444Y-44658534D01*
X133321444Y-44658535D01*
X133372964Y-44828374D01*
X133390360Y-45005001D01*
X133372964Y-45181628D01*
X133340280Y-45289373D01*
X133321444Y-45351468D01*
X133260224Y-45466000D01*
X133237779Y-45507992D01*
X133208449Y-45543730D01*
X133125187Y-45645187D01*
X133023730Y-45728449D01*
X132987992Y-45757779D01*
X132987990Y-45757780D01*
X132831468Y-45841444D01*
X132774854Y-45858617D01*
X132661628Y-45892964D01*
X132595444Y-45899482D01*
X132529261Y-45906001D01*
X132440741Y-45906001D01*
X132374558Y-45899482D01*
X132308374Y-45892964D01*
X132195148Y-45858617D01*
X132138534Y-45841444D01*
X131982012Y-45757780D01*
X131982010Y-45757779D01*
X131946272Y-45728449D01*
X131844815Y-45645187D01*
X131761553Y-45543730D01*
X131732223Y-45507992D01*
X131709778Y-45466000D01*
X131648558Y-45351468D01*
X131629722Y-45289373D01*
X131597038Y-45181628D01*
X131579642Y-45005001D01*
X131597038Y-44828374D01*
X131648558Y-44658535D01*
X131648558Y-44658534D01*
X131732222Y-44502012D01*
X131732223Y-44502010D01*
X131761553Y-44466272D01*
X131844815Y-44364815D01*
X131946272Y-44281553D01*
X131982010Y-44252223D01*
X131999914Y-44242653D01*
X132138534Y-44168558D01*
X132195148Y-44151385D01*
X132308374Y-44117038D01*
X132374559Y-44110519D01*
X132440741Y-44104001D01*
X132529261Y-44104001D01*
X132595443Y-44110519D01*
X132595443Y-44110519D01*
G37*
G36*
X126395443Y-44110519D02*
X126461628Y-44117038D01*
X126574854Y-44151385D01*
X126631468Y-44168558D01*
X126770088Y-44242653D01*
X126787992Y-44252223D01*
X126823730Y-44281553D01*
X126925187Y-44364815D01*
X127008449Y-44466272D01*
X127037779Y-44502010D01*
X127037780Y-44502012D01*
X127121444Y-44658534D01*
X127121444Y-44658535D01*
X127172964Y-44828374D01*
X127190360Y-45005001D01*
X127172964Y-45181628D01*
X127140280Y-45289373D01*
X127121444Y-45351468D01*
X127060224Y-45466000D01*
X127037779Y-45507992D01*
X127008449Y-45543730D01*
X126925187Y-45645187D01*
X126823730Y-45728449D01*
X126787992Y-45757779D01*
X126787990Y-45757780D01*
X126631468Y-45841444D01*
X126574854Y-45858617D01*
X126461628Y-45892964D01*
X126395444Y-45899482D01*
X126329261Y-45906001D01*
X126240741Y-45906001D01*
X126174558Y-45899482D01*
X126108374Y-45892964D01*
X125995148Y-45858617D01*
X125938534Y-45841444D01*
X125782012Y-45757780D01*
X125782010Y-45757779D01*
X125746272Y-45728449D01*
X125644815Y-45645187D01*
X125561553Y-45543730D01*
X125532223Y-45507992D01*
X125509778Y-45466000D01*
X125448558Y-45351468D01*
X125429722Y-45289373D01*
X125397038Y-45181628D01*
X125379642Y-45005001D01*
X125397038Y-44828374D01*
X125448558Y-44658535D01*
X125448558Y-44658534D01*
X125532222Y-44502012D01*
X125532223Y-44502010D01*
X125561553Y-44466272D01*
X125644815Y-44364815D01*
X125746272Y-44281553D01*
X125782010Y-44252223D01*
X125799914Y-44242653D01*
X125938534Y-44168558D01*
X125995148Y-44151385D01*
X126108374Y-44117038D01*
X126174559Y-44110519D01*
X126240741Y-44104001D01*
X126329261Y-44104001D01*
X126395443Y-44110519D01*
X126395443Y-44110519D01*
G37*
G36*
X128935443Y-44110519D02*
X129001628Y-44117038D01*
X129114854Y-44151385D01*
X129171468Y-44168558D01*
X129310088Y-44242653D01*
X129327992Y-44252223D01*
X129363730Y-44281553D01*
X129465187Y-44364815D01*
X129548449Y-44466272D01*
X129577779Y-44502010D01*
X129577780Y-44502012D01*
X129661444Y-44658534D01*
X129661444Y-44658535D01*
X129712964Y-44828374D01*
X129730360Y-45005001D01*
X129712964Y-45181628D01*
X129680280Y-45289373D01*
X129661444Y-45351468D01*
X129600224Y-45466000D01*
X129577779Y-45507992D01*
X129548449Y-45543730D01*
X129465187Y-45645187D01*
X129363730Y-45728449D01*
X129327992Y-45757779D01*
X129327990Y-45757780D01*
X129171468Y-45841444D01*
X129114854Y-45858617D01*
X129001628Y-45892964D01*
X128935444Y-45899482D01*
X128869261Y-45906001D01*
X128780741Y-45906001D01*
X128714558Y-45899482D01*
X128648374Y-45892964D01*
X128535148Y-45858617D01*
X128478534Y-45841444D01*
X128322012Y-45757780D01*
X128322010Y-45757779D01*
X128286272Y-45728449D01*
X128184815Y-45645187D01*
X128101553Y-45543730D01*
X128072223Y-45507992D01*
X128049778Y-45466000D01*
X127988558Y-45351468D01*
X127969722Y-45289373D01*
X127937038Y-45181628D01*
X127919642Y-45005001D01*
X127937038Y-44828374D01*
X127988558Y-44658535D01*
X127988558Y-44658534D01*
X128072222Y-44502012D01*
X128072223Y-44502010D01*
X128101553Y-44466272D01*
X128184815Y-44364815D01*
X128286272Y-44281553D01*
X128322010Y-44252223D01*
X128339914Y-44242653D01*
X128478534Y-44168558D01*
X128535148Y-44151385D01*
X128648374Y-44117038D01*
X128714559Y-44110519D01*
X128780741Y-44104001D01*
X128869261Y-44104001D01*
X128935443Y-44110519D01*
X128935443Y-44110519D01*
G37*
G36*
X201053000Y-43827000D02*
X199251000Y-43827000D01*
X199251000Y-42025000D01*
X201053000Y-42025000D01*
X201053000Y-43827000D01*
X201053000Y-43827000D01*
G37*
G36*
X126395444Y-41570520D02*
X126461628Y-41577038D01*
X126574854Y-41611385D01*
X126631468Y-41628558D01*
X126692182Y-41661011D01*
X126787992Y-41712223D01*
X126823730Y-41741553D01*
X126925187Y-41824815D01*
X127008449Y-41926272D01*
X127037779Y-41962010D01*
X127037780Y-41962012D01*
X127121444Y-42118534D01*
X127121444Y-42118535D01*
X127172964Y-42288374D01*
X127190360Y-42465001D01*
X127172964Y-42641628D01*
X127165270Y-42666991D01*
X127121444Y-42811468D01*
X127065154Y-42916778D01*
X127037779Y-42967992D01*
X127011147Y-43000443D01*
X126925187Y-43105187D01*
X126823730Y-43188449D01*
X126787992Y-43217779D01*
X126787990Y-43217780D01*
X126631468Y-43301444D01*
X126574854Y-43318617D01*
X126461628Y-43352964D01*
X126395444Y-43359482D01*
X126329261Y-43366001D01*
X126240741Y-43366001D01*
X126174558Y-43359482D01*
X126108374Y-43352964D01*
X125995148Y-43318617D01*
X125938534Y-43301444D01*
X125782012Y-43217780D01*
X125782010Y-43217779D01*
X125746272Y-43188449D01*
X125644815Y-43105187D01*
X125558855Y-43000443D01*
X125532223Y-42967992D01*
X125504848Y-42916778D01*
X125448558Y-42811468D01*
X125404732Y-42666991D01*
X125397038Y-42641628D01*
X125379642Y-42465001D01*
X125397038Y-42288374D01*
X125448558Y-42118535D01*
X125448558Y-42118534D01*
X125532222Y-41962012D01*
X125532223Y-41962010D01*
X125561553Y-41926272D01*
X125644815Y-41824815D01*
X125746272Y-41741553D01*
X125782010Y-41712223D01*
X125877820Y-41661011D01*
X125938534Y-41628558D01*
X125995148Y-41611385D01*
X126108374Y-41577038D01*
X126174558Y-41570520D01*
X126240741Y-41564001D01*
X126329261Y-41564001D01*
X126395444Y-41570520D01*
X126395444Y-41570520D01*
G37*
G36*
X128935444Y-41570520D02*
X129001628Y-41577038D01*
X129114854Y-41611385D01*
X129171468Y-41628558D01*
X129232182Y-41661011D01*
X129327992Y-41712223D01*
X129363730Y-41741553D01*
X129465187Y-41824815D01*
X129548449Y-41926272D01*
X129577779Y-41962010D01*
X129577780Y-41962012D01*
X129661444Y-42118534D01*
X129661444Y-42118535D01*
X129712964Y-42288374D01*
X129730360Y-42465001D01*
X129712964Y-42641628D01*
X129705270Y-42666991D01*
X129661444Y-42811468D01*
X129605154Y-42916778D01*
X129577779Y-42967992D01*
X129551147Y-43000443D01*
X129465187Y-43105187D01*
X129363730Y-43188449D01*
X129327992Y-43217779D01*
X129327990Y-43217780D01*
X129171468Y-43301444D01*
X129114854Y-43318617D01*
X129001628Y-43352964D01*
X128935444Y-43359482D01*
X128869261Y-43366001D01*
X128780741Y-43366001D01*
X128714558Y-43359482D01*
X128648374Y-43352964D01*
X128535148Y-43318617D01*
X128478534Y-43301444D01*
X128322012Y-43217780D01*
X128322010Y-43217779D01*
X128286272Y-43188449D01*
X128184815Y-43105187D01*
X128098855Y-43000443D01*
X128072223Y-42967992D01*
X128044848Y-42916778D01*
X127988558Y-42811468D01*
X127944732Y-42666991D01*
X127937038Y-42641628D01*
X127919642Y-42465001D01*
X127937038Y-42288374D01*
X127988558Y-42118535D01*
X127988558Y-42118534D01*
X128072222Y-41962012D01*
X128072223Y-41962010D01*
X128101553Y-41926272D01*
X128184815Y-41824815D01*
X128286272Y-41741553D01*
X128322010Y-41712223D01*
X128417820Y-41661011D01*
X128478534Y-41628558D01*
X128535148Y-41611385D01*
X128648374Y-41577038D01*
X128714558Y-41570520D01*
X128780741Y-41564001D01*
X128869261Y-41564001D01*
X128935444Y-41570520D01*
X128935444Y-41570520D01*
G37*
G36*
X135135444Y-41570520D02*
X135201628Y-41577038D01*
X135314854Y-41611385D01*
X135371468Y-41628558D01*
X135432182Y-41661011D01*
X135527992Y-41712223D01*
X135563730Y-41741553D01*
X135665187Y-41824815D01*
X135748449Y-41926272D01*
X135777779Y-41962010D01*
X135777780Y-41962012D01*
X135861444Y-42118534D01*
X135861444Y-42118535D01*
X135912964Y-42288374D01*
X135930360Y-42465001D01*
X135912964Y-42641628D01*
X135905270Y-42666991D01*
X135861444Y-42811468D01*
X135805154Y-42916778D01*
X135777779Y-42967992D01*
X135751147Y-43000443D01*
X135665187Y-43105187D01*
X135563730Y-43188449D01*
X135527992Y-43217779D01*
X135527990Y-43217780D01*
X135371468Y-43301444D01*
X135314854Y-43318617D01*
X135201628Y-43352964D01*
X135135444Y-43359482D01*
X135069261Y-43366001D01*
X134980741Y-43366001D01*
X134914558Y-43359482D01*
X134848374Y-43352964D01*
X134735148Y-43318617D01*
X134678534Y-43301444D01*
X134522012Y-43217780D01*
X134522010Y-43217779D01*
X134486272Y-43188449D01*
X134384815Y-43105187D01*
X134298855Y-43000443D01*
X134272223Y-42967992D01*
X134244848Y-42916778D01*
X134188558Y-42811468D01*
X134144732Y-42666991D01*
X134137038Y-42641628D01*
X134119642Y-42465001D01*
X134137038Y-42288374D01*
X134188558Y-42118535D01*
X134188558Y-42118534D01*
X134272222Y-41962012D01*
X134272223Y-41962010D01*
X134301553Y-41926272D01*
X134384815Y-41824815D01*
X134486272Y-41741553D01*
X134522010Y-41712223D01*
X134617820Y-41661011D01*
X134678534Y-41628558D01*
X134735148Y-41611385D01*
X134848374Y-41577038D01*
X134914558Y-41570520D01*
X134980741Y-41564001D01*
X135069261Y-41564001D01*
X135135444Y-41570520D01*
X135135444Y-41570520D01*
G37*
G36*
X132595444Y-41570520D02*
X132661628Y-41577038D01*
X132774854Y-41611385D01*
X132831468Y-41628558D01*
X132892182Y-41661011D01*
X132987992Y-41712223D01*
X133023730Y-41741553D01*
X133125187Y-41824815D01*
X133208449Y-41926272D01*
X133237779Y-41962010D01*
X133237780Y-41962012D01*
X133321444Y-42118534D01*
X133321444Y-42118535D01*
X133372964Y-42288374D01*
X133390360Y-42465001D01*
X133372964Y-42641628D01*
X133365270Y-42666991D01*
X133321444Y-42811468D01*
X133265154Y-42916778D01*
X133237779Y-42967992D01*
X133211147Y-43000443D01*
X133125187Y-43105187D01*
X133023730Y-43188449D01*
X132987992Y-43217779D01*
X132987990Y-43217780D01*
X132831468Y-43301444D01*
X132774854Y-43318617D01*
X132661628Y-43352964D01*
X132595444Y-43359482D01*
X132529261Y-43366001D01*
X132440741Y-43366001D01*
X132374558Y-43359482D01*
X132308374Y-43352964D01*
X132195148Y-43318617D01*
X132138534Y-43301444D01*
X131982012Y-43217780D01*
X131982010Y-43217779D01*
X131946272Y-43188449D01*
X131844815Y-43105187D01*
X131758855Y-43000443D01*
X131732223Y-42967992D01*
X131704848Y-42916778D01*
X131648558Y-42811468D01*
X131604732Y-42666991D01*
X131597038Y-42641628D01*
X131579642Y-42465001D01*
X131597038Y-42288374D01*
X131648558Y-42118535D01*
X131648558Y-42118534D01*
X131732222Y-41962012D01*
X131732223Y-41962010D01*
X131761553Y-41926272D01*
X131844815Y-41824815D01*
X131946272Y-41741553D01*
X131982010Y-41712223D01*
X132077820Y-41661011D01*
X132138534Y-41628558D01*
X132195148Y-41611385D01*
X132308374Y-41577038D01*
X132374558Y-41570520D01*
X132440741Y-41564001D01*
X132529261Y-41564001D01*
X132595444Y-41570520D01*
X132595444Y-41570520D01*
G37*
G36*
X182736443Y-41269519D02*
X182802627Y-41276037D01*
X182915853Y-41310384D01*
X182972467Y-41327557D01*
X183111087Y-41401652D01*
X183128991Y-41411222D01*
X183164729Y-41440552D01*
X183266186Y-41523814D01*
X183349448Y-41625271D01*
X183378778Y-41661009D01*
X183378779Y-41661011D01*
X183462443Y-41817533D01*
X183462443Y-41817534D01*
X183513963Y-41987373D01*
X183531359Y-42164000D01*
X183513963Y-42340627D01*
X183479616Y-42453853D01*
X183462443Y-42510467D01*
X183392336Y-42641626D01*
X183378778Y-42666991D01*
X183349448Y-42702729D01*
X183266186Y-42804186D01*
X183164729Y-42887448D01*
X183128991Y-42916778D01*
X183128989Y-42916779D01*
X182972467Y-43000443D01*
X182915853Y-43017616D01*
X182802627Y-43051963D01*
X182736442Y-43058482D01*
X182670260Y-43065000D01*
X182581740Y-43065000D01*
X182515558Y-43058482D01*
X182449373Y-43051963D01*
X182336147Y-43017616D01*
X182279533Y-43000443D01*
X182123011Y-42916779D01*
X182123009Y-42916778D01*
X182087271Y-42887448D01*
X181985814Y-42804186D01*
X181902552Y-42702729D01*
X181873222Y-42666991D01*
X181859664Y-42641626D01*
X181789557Y-42510467D01*
X181772384Y-42453853D01*
X181738037Y-42340627D01*
X181720641Y-42164000D01*
X181738037Y-41987373D01*
X181789557Y-41817534D01*
X181789557Y-41817533D01*
X181873221Y-41661011D01*
X181873222Y-41661009D01*
X181902552Y-41625271D01*
X181985814Y-41523814D01*
X182087271Y-41440552D01*
X182123009Y-41411222D01*
X182140913Y-41401652D01*
X182279533Y-41327557D01*
X182336147Y-41310384D01*
X182449373Y-41276037D01*
X182515558Y-41269518D01*
X182581740Y-41263000D01*
X182670260Y-41263000D01*
X182736443Y-41269519D01*
X182736443Y-41269519D01*
G37*
G36*
X135135443Y-39030519D02*
X135201628Y-39037038D01*
X135314854Y-39071385D01*
X135371468Y-39088558D01*
X135510088Y-39162653D01*
X135527992Y-39172223D01*
X135563730Y-39201553D01*
X135665187Y-39284815D01*
X135748449Y-39386272D01*
X135777779Y-39422010D01*
X135777780Y-39422012D01*
X135861444Y-39578534D01*
X135861444Y-39578535D01*
X135912964Y-39748374D01*
X135930360Y-39925001D01*
X135912964Y-40101628D01*
X135878617Y-40214854D01*
X135861444Y-40271468D01*
X135787349Y-40410088D01*
X135777779Y-40427992D01*
X135748449Y-40463730D01*
X135665187Y-40565187D01*
X135563730Y-40648449D01*
X135527992Y-40677779D01*
X135527990Y-40677780D01*
X135371468Y-40761444D01*
X135314854Y-40778617D01*
X135201628Y-40812964D01*
X135135444Y-40819482D01*
X135069261Y-40826001D01*
X134980741Y-40826001D01*
X134914558Y-40819482D01*
X134848374Y-40812964D01*
X134735148Y-40778617D01*
X134678534Y-40761444D01*
X134522012Y-40677780D01*
X134522010Y-40677779D01*
X134486272Y-40648449D01*
X134384815Y-40565187D01*
X134301553Y-40463730D01*
X134272223Y-40427992D01*
X134262653Y-40410088D01*
X134188558Y-40271468D01*
X134171385Y-40214854D01*
X134137038Y-40101628D01*
X134119642Y-39925001D01*
X134137038Y-39748374D01*
X134188558Y-39578535D01*
X134188558Y-39578534D01*
X134272222Y-39422012D01*
X134272223Y-39422010D01*
X134301553Y-39386272D01*
X134384815Y-39284815D01*
X134486272Y-39201553D01*
X134522010Y-39172223D01*
X134539914Y-39162653D01*
X134678534Y-39088558D01*
X134735148Y-39071385D01*
X134848374Y-39037038D01*
X134914559Y-39030519D01*
X134980741Y-39024001D01*
X135069261Y-39024001D01*
X135135443Y-39030519D01*
X135135443Y-39030519D01*
G37*
G36*
X132595443Y-39030519D02*
X132661628Y-39037038D01*
X132774854Y-39071385D01*
X132831468Y-39088558D01*
X132970088Y-39162653D01*
X132987992Y-39172223D01*
X133023730Y-39201553D01*
X133125187Y-39284815D01*
X133208449Y-39386272D01*
X133237779Y-39422010D01*
X133237780Y-39422012D01*
X133321444Y-39578534D01*
X133321444Y-39578535D01*
X133372964Y-39748374D01*
X133390360Y-39925001D01*
X133372964Y-40101628D01*
X133338617Y-40214854D01*
X133321444Y-40271468D01*
X133247349Y-40410088D01*
X133237779Y-40427992D01*
X133208449Y-40463730D01*
X133125187Y-40565187D01*
X133023730Y-40648449D01*
X132987992Y-40677779D01*
X132987990Y-40677780D01*
X132831468Y-40761444D01*
X132774854Y-40778617D01*
X132661628Y-40812964D01*
X132595444Y-40819482D01*
X132529261Y-40826001D01*
X132440741Y-40826001D01*
X132374558Y-40819482D01*
X132308374Y-40812964D01*
X132195148Y-40778617D01*
X132138534Y-40761444D01*
X131982012Y-40677780D01*
X131982010Y-40677779D01*
X131946272Y-40648449D01*
X131844815Y-40565187D01*
X131761553Y-40463730D01*
X131732223Y-40427992D01*
X131722653Y-40410088D01*
X131648558Y-40271468D01*
X131631385Y-40214854D01*
X131597038Y-40101628D01*
X131579642Y-39925001D01*
X131597038Y-39748374D01*
X131648558Y-39578535D01*
X131648558Y-39578534D01*
X131732222Y-39422012D01*
X131732223Y-39422010D01*
X131761553Y-39386272D01*
X131844815Y-39284815D01*
X131946272Y-39201553D01*
X131982010Y-39172223D01*
X131999914Y-39162653D01*
X132138534Y-39088558D01*
X132195148Y-39071385D01*
X132308374Y-39037038D01*
X132374559Y-39030519D01*
X132440741Y-39024001D01*
X132529261Y-39024001D01*
X132595443Y-39030519D01*
X132595443Y-39030519D01*
G37*
G36*
X128935443Y-39030519D02*
X129001628Y-39037038D01*
X129114854Y-39071385D01*
X129171468Y-39088558D01*
X129310088Y-39162653D01*
X129327992Y-39172223D01*
X129363730Y-39201553D01*
X129465187Y-39284815D01*
X129548449Y-39386272D01*
X129577779Y-39422010D01*
X129577780Y-39422012D01*
X129661444Y-39578534D01*
X129661444Y-39578535D01*
X129712964Y-39748374D01*
X129730360Y-39925001D01*
X129712964Y-40101628D01*
X129678617Y-40214854D01*
X129661444Y-40271468D01*
X129587349Y-40410088D01*
X129577779Y-40427992D01*
X129548449Y-40463730D01*
X129465187Y-40565187D01*
X129363730Y-40648449D01*
X129327992Y-40677779D01*
X129327990Y-40677780D01*
X129171468Y-40761444D01*
X129114854Y-40778617D01*
X129001628Y-40812964D01*
X128935444Y-40819482D01*
X128869261Y-40826001D01*
X128780741Y-40826001D01*
X128714558Y-40819482D01*
X128648374Y-40812964D01*
X128535148Y-40778617D01*
X128478534Y-40761444D01*
X128322012Y-40677780D01*
X128322010Y-40677779D01*
X128286272Y-40648449D01*
X128184815Y-40565187D01*
X128101553Y-40463730D01*
X128072223Y-40427992D01*
X128062653Y-40410088D01*
X127988558Y-40271468D01*
X127971385Y-40214854D01*
X127937038Y-40101628D01*
X127919642Y-39925001D01*
X127937038Y-39748374D01*
X127988558Y-39578535D01*
X127988558Y-39578534D01*
X128072222Y-39422012D01*
X128072223Y-39422010D01*
X128101553Y-39386272D01*
X128184815Y-39284815D01*
X128286272Y-39201553D01*
X128322010Y-39172223D01*
X128339914Y-39162653D01*
X128478534Y-39088558D01*
X128535148Y-39071385D01*
X128648374Y-39037038D01*
X128714559Y-39030519D01*
X128780741Y-39024001D01*
X128869261Y-39024001D01*
X128935443Y-39030519D01*
X128935443Y-39030519D01*
G37*
G36*
X126395443Y-39030519D02*
X126461628Y-39037038D01*
X126574854Y-39071385D01*
X126631468Y-39088558D01*
X126770088Y-39162653D01*
X126787992Y-39172223D01*
X126823730Y-39201553D01*
X126925187Y-39284815D01*
X127008449Y-39386272D01*
X127037779Y-39422010D01*
X127037780Y-39422012D01*
X127121444Y-39578534D01*
X127121444Y-39578535D01*
X127172964Y-39748374D01*
X127190360Y-39925001D01*
X127172964Y-40101628D01*
X127138617Y-40214854D01*
X127121444Y-40271468D01*
X127047349Y-40410088D01*
X127037779Y-40427992D01*
X127008449Y-40463730D01*
X126925187Y-40565187D01*
X126823730Y-40648449D01*
X126787992Y-40677779D01*
X126787990Y-40677780D01*
X126631468Y-40761444D01*
X126574854Y-40778617D01*
X126461628Y-40812964D01*
X126395444Y-40819482D01*
X126329261Y-40826001D01*
X126240741Y-40826001D01*
X126174558Y-40819482D01*
X126108374Y-40812964D01*
X125995148Y-40778617D01*
X125938534Y-40761444D01*
X125782012Y-40677780D01*
X125782010Y-40677779D01*
X125746272Y-40648449D01*
X125644815Y-40565187D01*
X125561553Y-40463730D01*
X125532223Y-40427992D01*
X125522653Y-40410088D01*
X125448558Y-40271468D01*
X125431385Y-40214854D01*
X125397038Y-40101628D01*
X125379642Y-39925001D01*
X125397038Y-39748374D01*
X125448558Y-39578535D01*
X125448558Y-39578534D01*
X125532222Y-39422012D01*
X125532223Y-39422010D01*
X125561553Y-39386272D01*
X125644815Y-39284815D01*
X125746272Y-39201553D01*
X125782010Y-39172223D01*
X125799914Y-39162653D01*
X125938534Y-39088558D01*
X125995148Y-39071385D01*
X126108374Y-39037038D01*
X126174559Y-39030519D01*
X126240741Y-39024001D01*
X126329261Y-39024001D01*
X126395443Y-39030519D01*
X126395443Y-39030519D01*
G37*
G36*
X183527000Y-40525000D02*
X181725000Y-40525000D01*
X181725000Y-38723000D01*
X183527000Y-38723000D01*
X183527000Y-40525000D01*
X183527000Y-40525000D01*
G37*
G36*
X199201564Y-34519261D02*
X199620399Y-34692748D01*
X199997345Y-34944616D01*
X200317902Y-35265173D01*
X200569770Y-35642119D01*
X200743257Y-36060954D01*
X200831699Y-36505585D01*
X200831699Y-36958933D01*
X200743257Y-37403564D01*
X200569770Y-37822399D01*
X200317902Y-38199345D01*
X199997345Y-38519902D01*
X199620399Y-38771770D01*
X199201564Y-38945257D01*
X198756933Y-39033699D01*
X198303585Y-39033699D01*
X197858954Y-38945257D01*
X197440119Y-38771770D01*
X197063173Y-38519902D01*
X196742616Y-38199345D01*
X196490748Y-37822399D01*
X196317261Y-37403564D01*
X196228819Y-36958933D01*
X196228819Y-36505585D01*
X196317261Y-36060954D01*
X196490748Y-35642119D01*
X196742616Y-35265173D01*
X197063173Y-34944616D01*
X197440119Y-34692748D01*
X197858954Y-34519261D01*
X198303585Y-34430819D01*
X198756933Y-34430819D01*
X199201564Y-34519261D01*
X199201564Y-34519261D01*
G37*
G36*
X192343564Y-34519261D02*
X192762399Y-34692748D01*
X193139345Y-34944616D01*
X193459902Y-35265173D01*
X193711770Y-35642119D01*
X193885257Y-36060954D01*
X193973699Y-36505585D01*
X193973699Y-36958933D01*
X193885257Y-37403564D01*
X193711770Y-37822399D01*
X193459902Y-38199345D01*
X193139345Y-38519902D01*
X192762399Y-38771770D01*
X192343564Y-38945257D01*
X191898933Y-39033699D01*
X191445585Y-39033699D01*
X191000954Y-38945257D01*
X190582119Y-38771770D01*
X190205173Y-38519902D01*
X189884616Y-38199345D01*
X189632748Y-37822399D01*
X189459261Y-37403564D01*
X189370819Y-36958933D01*
X189370819Y-36505585D01*
X189459261Y-36060954D01*
X189632748Y-35642119D01*
X189884616Y-35265173D01*
X190205173Y-34944616D01*
X190582119Y-34692748D01*
X191000954Y-34519261D01*
X191445585Y-34430819D01*
X191898933Y-34430819D01*
X192343564Y-34519261D01*
X192343564Y-34519261D01*
G37*
G36*
X135135444Y-36490520D02*
X135201628Y-36497038D01*
X135314854Y-36531385D01*
X135371468Y-36548558D01*
X135510088Y-36622653D01*
X135527992Y-36632223D01*
X135563730Y-36661553D01*
X135665187Y-36744815D01*
X135748449Y-36846272D01*
X135777779Y-36882010D01*
X135777780Y-36882012D01*
X135861444Y-37038534D01*
X135861444Y-37038535D01*
X135912964Y-37208374D01*
X135930360Y-37385001D01*
X135912964Y-37561628D01*
X135878617Y-37674854D01*
X135861444Y-37731468D01*
X135812839Y-37822400D01*
X135777779Y-37887992D01*
X135748449Y-37923730D01*
X135665187Y-38025187D01*
X135563730Y-38108449D01*
X135527992Y-38137779D01*
X135527990Y-38137780D01*
X135371468Y-38221444D01*
X135314854Y-38238617D01*
X135201628Y-38272964D01*
X135135443Y-38279483D01*
X135069261Y-38286001D01*
X134980741Y-38286001D01*
X134914559Y-38279483D01*
X134848374Y-38272964D01*
X134735148Y-38238617D01*
X134678534Y-38221444D01*
X134522012Y-38137780D01*
X134522010Y-38137779D01*
X134486272Y-38108449D01*
X134384815Y-38025187D01*
X134301553Y-37923730D01*
X134272223Y-37887992D01*
X134237163Y-37822400D01*
X134188558Y-37731468D01*
X134171385Y-37674854D01*
X134137038Y-37561628D01*
X134119642Y-37385001D01*
X134137038Y-37208374D01*
X134188558Y-37038535D01*
X134188558Y-37038534D01*
X134272222Y-36882012D01*
X134272223Y-36882010D01*
X134301553Y-36846272D01*
X134384815Y-36744815D01*
X134486272Y-36661553D01*
X134522010Y-36632223D01*
X134539914Y-36622653D01*
X134678534Y-36548558D01*
X134735148Y-36531385D01*
X134848374Y-36497038D01*
X134914558Y-36490520D01*
X134980741Y-36484001D01*
X135069261Y-36484001D01*
X135135444Y-36490520D01*
X135135444Y-36490520D01*
G37*
G36*
X132595444Y-36490520D02*
X132661628Y-36497038D01*
X132774854Y-36531385D01*
X132831468Y-36548558D01*
X132970088Y-36622653D01*
X132987992Y-36632223D01*
X133023730Y-36661553D01*
X133125187Y-36744815D01*
X133208449Y-36846272D01*
X133237779Y-36882010D01*
X133237780Y-36882012D01*
X133321444Y-37038534D01*
X133321444Y-37038535D01*
X133372964Y-37208374D01*
X133390360Y-37385001D01*
X133372964Y-37561628D01*
X133338617Y-37674854D01*
X133321444Y-37731468D01*
X133272839Y-37822400D01*
X133237779Y-37887992D01*
X133208449Y-37923730D01*
X133125187Y-38025187D01*
X133023730Y-38108449D01*
X132987992Y-38137779D01*
X132987990Y-38137780D01*
X132831468Y-38221444D01*
X132774854Y-38238617D01*
X132661628Y-38272964D01*
X132595443Y-38279483D01*
X132529261Y-38286001D01*
X132440741Y-38286001D01*
X132374559Y-38279483D01*
X132308374Y-38272964D01*
X132195148Y-38238617D01*
X132138534Y-38221444D01*
X131982012Y-38137780D01*
X131982010Y-38137779D01*
X131946272Y-38108449D01*
X131844815Y-38025187D01*
X131761553Y-37923730D01*
X131732223Y-37887992D01*
X131697163Y-37822400D01*
X131648558Y-37731468D01*
X131631385Y-37674854D01*
X131597038Y-37561628D01*
X131579642Y-37385001D01*
X131597038Y-37208374D01*
X131648558Y-37038535D01*
X131648558Y-37038534D01*
X131732222Y-36882012D01*
X131732223Y-36882010D01*
X131761553Y-36846272D01*
X131844815Y-36744815D01*
X131946272Y-36661553D01*
X131982010Y-36632223D01*
X131999914Y-36622653D01*
X132138534Y-36548558D01*
X132195148Y-36531385D01*
X132308374Y-36497038D01*
X132374558Y-36490520D01*
X132440741Y-36484001D01*
X132529261Y-36484001D01*
X132595444Y-36490520D01*
X132595444Y-36490520D01*
G37*
G36*
X128935444Y-36490520D02*
X129001628Y-36497038D01*
X129114854Y-36531385D01*
X129171468Y-36548558D01*
X129310088Y-36622653D01*
X129327992Y-36632223D01*
X129363730Y-36661553D01*
X129465187Y-36744815D01*
X129548449Y-36846272D01*
X129577779Y-36882010D01*
X129577780Y-36882012D01*
X129661444Y-37038534D01*
X129661444Y-37038535D01*
X129712964Y-37208374D01*
X129730360Y-37385001D01*
X129712964Y-37561628D01*
X129678617Y-37674854D01*
X129661444Y-37731468D01*
X129612839Y-37822400D01*
X129577779Y-37887992D01*
X129548449Y-37923730D01*
X129465187Y-38025187D01*
X129363730Y-38108449D01*
X129327992Y-38137779D01*
X129327990Y-38137780D01*
X129171468Y-38221444D01*
X129114854Y-38238617D01*
X129001628Y-38272964D01*
X128935443Y-38279483D01*
X128869261Y-38286001D01*
X128780741Y-38286001D01*
X128714559Y-38279483D01*
X128648374Y-38272964D01*
X128535148Y-38238617D01*
X128478534Y-38221444D01*
X128322012Y-38137780D01*
X128322010Y-38137779D01*
X128286272Y-38108449D01*
X128184815Y-38025187D01*
X128101553Y-37923730D01*
X128072223Y-37887992D01*
X128037163Y-37822400D01*
X127988558Y-37731468D01*
X127971385Y-37674854D01*
X127937038Y-37561628D01*
X127919642Y-37385001D01*
X127937038Y-37208374D01*
X127988558Y-37038535D01*
X127988558Y-37038534D01*
X128072222Y-36882012D01*
X128072223Y-36882010D01*
X128101553Y-36846272D01*
X128184815Y-36744815D01*
X128286272Y-36661553D01*
X128322010Y-36632223D01*
X128339914Y-36622653D01*
X128478534Y-36548558D01*
X128535148Y-36531385D01*
X128648374Y-36497038D01*
X128714558Y-36490520D01*
X128780741Y-36484001D01*
X128869261Y-36484001D01*
X128935444Y-36490520D01*
X128935444Y-36490520D01*
G37*
G36*
X126395444Y-36490520D02*
X126461628Y-36497038D01*
X126574854Y-36531385D01*
X126631468Y-36548558D01*
X126770088Y-36622653D01*
X126787992Y-36632223D01*
X126823730Y-36661553D01*
X126925187Y-36744815D01*
X127008449Y-36846272D01*
X127037779Y-36882010D01*
X127037780Y-36882012D01*
X127121444Y-37038534D01*
X127121444Y-37038535D01*
X127172964Y-37208374D01*
X127190360Y-37385001D01*
X127172964Y-37561628D01*
X127138617Y-37674854D01*
X127121444Y-37731468D01*
X127072839Y-37822400D01*
X127037779Y-37887992D01*
X127008449Y-37923730D01*
X126925187Y-38025187D01*
X126823730Y-38108449D01*
X126787992Y-38137779D01*
X126787990Y-38137780D01*
X126631468Y-38221444D01*
X126574854Y-38238617D01*
X126461628Y-38272964D01*
X126395443Y-38279483D01*
X126329261Y-38286001D01*
X126240741Y-38286001D01*
X126174559Y-38279483D01*
X126108374Y-38272964D01*
X125995148Y-38238617D01*
X125938534Y-38221444D01*
X125782012Y-38137780D01*
X125782010Y-38137779D01*
X125746272Y-38108449D01*
X125644815Y-38025187D01*
X125561553Y-37923730D01*
X125532223Y-37887992D01*
X125497163Y-37822400D01*
X125448558Y-37731468D01*
X125431385Y-37674854D01*
X125397038Y-37561628D01*
X125379642Y-37385001D01*
X125397038Y-37208374D01*
X125448558Y-37038535D01*
X125448558Y-37038534D01*
X125532222Y-36882012D01*
X125532223Y-36882010D01*
X125561553Y-36846272D01*
X125644815Y-36744815D01*
X125746272Y-36661553D01*
X125782010Y-36632223D01*
X125799914Y-36622653D01*
X125938534Y-36548558D01*
X125995148Y-36531385D01*
X126108374Y-36497038D01*
X126174558Y-36490520D01*
X126240741Y-36484001D01*
X126329261Y-36484001D01*
X126395444Y-36490520D01*
X126395444Y-36490520D01*
G37*
G36*
X135135443Y-33950519D02*
X135201628Y-33957038D01*
X135314854Y-33991385D01*
X135371468Y-34008558D01*
X135510088Y-34082653D01*
X135527992Y-34092223D01*
X135563730Y-34121553D01*
X135665187Y-34204815D01*
X135748449Y-34306272D01*
X135777779Y-34342010D01*
X135777780Y-34342012D01*
X135861444Y-34498534D01*
X135878617Y-34555148D01*
X135912964Y-34668374D01*
X135930360Y-34845001D01*
X135912964Y-35021628D01*
X135878617Y-35134854D01*
X135861444Y-35191468D01*
X135787349Y-35330088D01*
X135777779Y-35347992D01*
X135748449Y-35383730D01*
X135665187Y-35485187D01*
X135563730Y-35568449D01*
X135527992Y-35597779D01*
X135527990Y-35597780D01*
X135371468Y-35681444D01*
X135314854Y-35698617D01*
X135201628Y-35732964D01*
X135135443Y-35739483D01*
X135069261Y-35746001D01*
X134980741Y-35746001D01*
X134914559Y-35739483D01*
X134848374Y-35732964D01*
X134735148Y-35698617D01*
X134678534Y-35681444D01*
X134522012Y-35597780D01*
X134522010Y-35597779D01*
X134486272Y-35568449D01*
X134384815Y-35485187D01*
X134301553Y-35383730D01*
X134272223Y-35347992D01*
X134262653Y-35330088D01*
X134188558Y-35191468D01*
X134171385Y-35134854D01*
X134137038Y-35021628D01*
X134119642Y-34845001D01*
X134137038Y-34668374D01*
X134171385Y-34555148D01*
X134188558Y-34498534D01*
X134272222Y-34342012D01*
X134272223Y-34342010D01*
X134301553Y-34306272D01*
X134384815Y-34204815D01*
X134486272Y-34121553D01*
X134522010Y-34092223D01*
X134539914Y-34082653D01*
X134678534Y-34008558D01*
X134735148Y-33991385D01*
X134848374Y-33957038D01*
X134914559Y-33950519D01*
X134980741Y-33944001D01*
X135069261Y-33944001D01*
X135135443Y-33950519D01*
X135135443Y-33950519D01*
G37*
G36*
X128935443Y-33950519D02*
X129001628Y-33957038D01*
X129114854Y-33991385D01*
X129171468Y-34008558D01*
X129310088Y-34082653D01*
X129327992Y-34092223D01*
X129363730Y-34121553D01*
X129465187Y-34204815D01*
X129548449Y-34306272D01*
X129577779Y-34342010D01*
X129577780Y-34342012D01*
X129661444Y-34498534D01*
X129678617Y-34555148D01*
X129712964Y-34668374D01*
X129730360Y-34845001D01*
X129712964Y-35021628D01*
X129678617Y-35134854D01*
X129661444Y-35191468D01*
X129587349Y-35330088D01*
X129577779Y-35347992D01*
X129548449Y-35383730D01*
X129465187Y-35485187D01*
X129363730Y-35568449D01*
X129327992Y-35597779D01*
X129327990Y-35597780D01*
X129171468Y-35681444D01*
X129114854Y-35698617D01*
X129001628Y-35732964D01*
X128935443Y-35739483D01*
X128869261Y-35746001D01*
X128780741Y-35746001D01*
X128714559Y-35739483D01*
X128648374Y-35732964D01*
X128535148Y-35698617D01*
X128478534Y-35681444D01*
X128322012Y-35597780D01*
X128322010Y-35597779D01*
X128286272Y-35568449D01*
X128184815Y-35485187D01*
X128101553Y-35383730D01*
X128072223Y-35347992D01*
X128062653Y-35330088D01*
X127988558Y-35191468D01*
X127971385Y-35134854D01*
X127937038Y-35021628D01*
X127919642Y-34845001D01*
X127937038Y-34668374D01*
X127971385Y-34555148D01*
X127988558Y-34498534D01*
X128072222Y-34342012D01*
X128072223Y-34342010D01*
X128101553Y-34306272D01*
X128184815Y-34204815D01*
X128286272Y-34121553D01*
X128322010Y-34092223D01*
X128339914Y-34082653D01*
X128478534Y-34008558D01*
X128535148Y-33991385D01*
X128648374Y-33957038D01*
X128714559Y-33950519D01*
X128780741Y-33944001D01*
X128869261Y-33944001D01*
X128935443Y-33950519D01*
X128935443Y-33950519D01*
G37*
G36*
X127186001Y-35746001D02*
X125384001Y-35746001D01*
X125384001Y-33944001D01*
X127186001Y-33944001D01*
X127186001Y-35746001D01*
X127186001Y-35746001D01*
G37*
G36*
X133386001Y-35746001D02*
X131584001Y-35746001D01*
X131584001Y-33944001D01*
X133386001Y-33944001D01*
X133386001Y-35746001D01*
X133386001Y-35746001D01*
G37*
M02*
